<svg width="40" height="40" viewBox="0 0 40 40" fill="none" xmlns="http://www.w3.org/2000/svg">
<rect width="40" height="40" rx="20" fill="#072136"/>
<path d="M20.8026 14.88V26H18.9786V18.384L15.5866 26H14.3226L10.9146 18.384V26H9.09063V14.88H11.0586L14.9626 23.6L18.8506 14.88H20.8026ZM28.976 26L26.416 21.552H25.024V26H23.2V14.88H27.04C27.8933 14.88 28.6133 15.0293 29.2 15.328C29.7973 15.6267 30.24 16.0267 30.528 16.528C30.8267 17.0293 30.976 17.5893 30.976 18.208C30.976 18.9333 30.7627 19.5947 30.336 20.192C29.92 20.7787 29.2747 21.1787 28.4 21.392L31.152 26H28.976ZM25.024 20.096H27.04C27.7227 20.096 28.2347 19.9253 28.576 19.584C28.928 19.2427 29.104 18.784 29.104 18.208C29.104 17.632 28.9333 17.184 28.592 16.864C28.2507 16.5333 27.7333 16.368 27.04 16.368H25.024V20.096Z" fill="white"/>
</svg>
