<svg width="164" height="49" viewBox="0 0 164 49" fill="none" xmlns="http://www.w3.org/2000/svg">
<path fill-rule="evenodd" clip-rule="evenodd" d="M45.8321 34.6763C41.9178 42.7149 33.6694 48.2544 24.1272 48.2544C10.8021 48.2544 0 37.4523 0 24.1272C0 10.8021 10.8021 0 24.1272 0C33.3351 0 41.3383 5.15812 45.4048 12.7425H39.482C35.9989 8.05247 30.4179 5.01344 24.1272 5.01344C13.571 5.01344 5.01344 13.571 5.01344 24.1272C5.01344 34.6834 13.571 43.2409 24.1272 43.2409C30.7841 43.2409 36.6463 39.8378 40.0687 34.6763H45.8321Z" fill="#2E84C0"/>
<path fill-rule="evenodd" clip-rule="evenodd" d="M20.7458 48.0193C9.02158 46.375 0 36.3046 0 24.1272C0 10.8021 10.8021 0 24.1272 0C33.3351 0 41.3383 5.15812 45.4048 12.7425H39.482C35.9989 8.05248 30.4179 5.01344 24.1272 5.01344C13.571 5.01344 5.01344 13.571 5.01344 24.1272C5.01344 34.3548 13.0464 42.7062 23.1473 43.2162L20.7458 48.0193Z" fill="#072136"/>
<path d="M45.7475 16.5026L52.3277 24.2316L45.7475 31.4384H41.1519L44.3897 25.2761H34.4673V21.8293H44.3897L41.1519 16.5026H45.7475Z" fill="#072136"/>
<path d="M30.7076 18.1737C30.7076 21.8655 27.7148 24.8583 24.023 24.8583C20.3312 24.8583 17.3384 21.8655 17.3384 18.1737C17.3384 14.4819 20.3312 11.4891 24.023 11.4891C27.7148 11.4891 30.7076 14.4819 30.7076 18.1737Z" fill="#072136"/>
<path d="M10.3403 30.9162C10.3403 30.9162 13.5782 38.9586 23.1873 39.5853L19.0094 28.7228C15.2493 29.2451 10.3403 30.9162 10.3403 30.9162Z" fill="#072136"/>
<path d="M37.4966 31.0207C37.4966 31.0207 34.2587 39.063 24.6496 39.6897L28.8275 28.8273C32.5876 29.3495 37.4966 31.0207 37.4966 31.0207Z" fill="#072136"/>
<path d="M25.2763 28.6184H22.7695L24.0229 34.3629L25.2763 28.6184Z" fill="#072136"/>
<path d="M147.185 31.7535V13.771H154.968C156.578 13.771 157.966 14.0364 159.13 14.5673C160.295 15.0811 161.194 15.8261 161.828 16.8023C162.461 17.7785 162.778 18.9431 162.778 20.2961C162.778 21.6319 162.461 22.7879 161.828 23.7641C161.194 24.7232 160.295 25.4596 159.13 25.9734C157.966 26.4872 156.578 26.7441 154.968 26.7441H149.497L151.346 24.9202V31.7535H147.185ZM158.616 31.7535L154.121 25.2284H158.565L163.112 31.7535H158.616ZM151.346 25.3826L149.497 23.4302H154.737C156.022 23.4302 156.981 23.1562 157.614 22.6081C158.248 22.0429 158.565 21.2723 158.565 20.2961C158.565 19.3027 158.248 18.5321 157.614 17.984C156.981 17.436 156.022 17.162 154.737 17.162H149.497L151.346 15.1839V25.3826Z" fill="black"/>
<path d="M138.768 13.771H142.93V31.7535H138.768V13.771ZM130.599 31.7535H126.438V13.771H130.599V31.7535ZM139.077 24.3807H130.291V20.8612H139.077V24.3807Z" fill="black"/>
<path d="M120.641 31.959C119.014 31.959 117.747 31.548 116.839 30.726C115.932 29.8868 115.478 28.6451 115.478 27.001V14.8756H119.485V26.9496C119.485 27.5319 119.64 27.9858 119.948 28.3112C120.256 28.6194 120.676 28.7736 121.207 28.7736C121.84 28.7736 122.38 28.6023 122.825 28.2598L123.904 31.0856C123.493 31.3768 122.996 31.5994 122.414 31.7535C121.849 31.8905 121.258 31.959 120.641 31.959ZM113.346 21.3236V18.2409H122.928V21.3236H113.346Z" fill="black"/>
<path d="M97.9658 31.7536L104.157 23.6357L104.08 25.845L98.1456 17.9327H102.641L106.392 23.0962L104.696 23.1476L108.576 17.9327H112.84L106.88 25.7679V23.61L113.045 31.7536H108.498L104.568 26.256L106.238 26.4872L102.333 31.7536H97.9658Z" fill="black"/>
<path d="M90.7416 31.9591C89.166 31.9591 87.7788 31.6508 86.5799 31.0343C85.3982 30.4177 84.482 29.5785 83.8312 28.5167C83.1804 27.4377 82.855 26.2132 82.855 24.8431C82.855 23.4559 83.1718 22.2314 83.8055 21.1695C84.4563 20.0906 85.3383 19.2514 86.4515 18.652C87.5647 18.0354 88.8235 17.7272 90.2278 17.7272C91.5808 17.7272 92.7968 18.0183 93.8757 18.6006C94.9718 19.1658 95.8367 19.9878 96.4704 21.0668C97.104 22.1286 97.4209 23.4045 97.4209 24.8945C97.4209 25.0486 97.4123 25.2285 97.3952 25.434C97.378 25.6224 97.3609 25.8022 97.3438 25.9734H86.1175V23.6357H95.2373L93.6959 24.3293C93.6959 23.61 93.5503 22.9849 93.2592 22.454C92.968 21.9231 92.5656 21.5121 92.0518 21.2209C91.538 20.9126 90.9386 20.7585 90.2535 20.7585C89.5685 20.7585 88.9605 20.9126 88.4296 21.2209C87.9158 21.5121 87.5133 21.9317 87.2222 22.4797C86.931 23.0106 86.7855 23.6443 86.7855 24.3807V24.9973C86.7855 25.7508 86.9482 26.4187 87.2736 27.001C87.6161 27.5662 88.0871 28.0029 88.6865 28.3112C89.303 28.6023 90.0223 28.7479 90.8444 28.7479C91.5808 28.7479 92.223 28.6366 92.7711 28.4139C93.3362 28.1913 93.85 27.8573 94.3124 27.4121L96.4447 29.7241C95.811 30.4434 95.0146 31 94.0555 31.3939C93.0965 31.7707 91.9918 31.9591 90.7416 31.9591Z" fill="black"/>
<path d="M63.418 31.7535V13.771H66.8603L77.4701 26.7184H75.8002V13.771H79.9105V31.7535H76.4939L65.8585 18.8061H67.5283V31.7535H63.418Z" fill="black"/>
</svg>
