<svg width="251" height="302" viewBox="0 0 251 302" fill="none" xmlns="http://www.w3.org/2000/svg">
<path fill-rule="evenodd" clip-rule="evenodd" d="M219.404 166C200.666 204.482 161.18 231 115.5 231C51.7111 231 0 179.289 0 115.5C0 51.7111 51.7111 0 115.5 0C159.579 0 197.892 24.6926 217.359 61H189.005C172.331 38.5483 145.615 24 115.5 24C64.9659 24 24 64.9659 24 115.5C24 166.034 64.9659 207 115.5 207C147.368 207 175.43 190.709 191.814 166H219.404Z" fill="#2E84C0"/>
<path fill-rule="evenodd" clip-rule="evenodd" d="M99.3127 229.875C43.1875 222.003 0 173.795 0 115.5C0 51.7111 51.7111 0 115.5 0C159.58 0 197.892 24.6926 217.359 61H189.005C172.331 38.5483 145.615 24 115.5 24C64.966 24 24 64.966 24 115.5C24 164.461 62.4549 204.44 110.809 206.882L99.3127 229.875Z" fill="#072136"/>
<path d="M219 79L250.5 116L219 150.5H197L212.5 121H165V104.5H212.5L197 79H219Z" fill="#072136"/>
<path d="M147 87C147 104.673 132.673 119 115 119C97.3269 119 83 104.673 83 87C83 69.3269 97.3269 55 115 55C132.673 55 147 69.3269 147 87Z" fill="#072136"/>
<path d="M49.5 148C49.5 148 65 186.5 111 189.5L91 137.5C73 140 49.5 148 49.5 148Z" fill="#072136"/>
<path d="M179.5 148.5C179.5 148.5 164 187 118 190L138 138C156 140.5 179.5 148.5 179.5 148.5Z" fill="#072136"/>
<path d="M121 137H109L115 164.5L121 137Z" fill="#072136"/>
<path d="M184.331 301.142V262H201.274C204.778 262 207.798 262.578 210.333 263.733C212.868 264.852 214.825 266.473 216.204 268.598C217.583 270.723 218.273 273.258 218.273 276.203C218.273 279.111 217.583 281.627 216.204 283.752C214.825 285.839 212.868 287.442 210.333 288.561C207.798 289.679 204.778 290.238 201.274 290.238H189.364L193.39 286.268V301.142H184.331ZM209.214 301.142L199.429 286.939H209.103L219 301.142H209.214ZM193.39 287.275L189.364 283.025H200.771C203.567 283.025 205.654 282.428 207.034 281.235C208.413 280.005 209.103 278.328 209.103 276.203C209.103 274.041 208.413 272.363 207.034 271.17C205.654 269.978 203.567 269.381 200.771 269.381H189.364L193.39 265.075V287.275Z" fill="black"/>
<path d="M166.012 262H175.071V301.142H166.012V262ZM148.23 301.142H139.172V262H148.23V301.142ZM166.683 285.094H147.559V277.433H166.683V285.094Z" fill="black"/>
<path d="M126.558 301.589C123.017 301.589 120.258 300.695 118.283 298.905C116.307 297.079 115.319 294.376 115.319 290.797V264.404H124.042V290.685C124.042 291.953 124.378 292.941 125.049 293.649C125.72 294.32 126.633 294.656 127.789 294.656C129.168 294.656 130.342 294.283 131.311 293.537L133.66 299.688C132.765 300.322 131.684 300.806 130.417 301.142C129.187 301.44 127.9 301.589 126.558 301.589ZM110.678 278.44V271.73H131.535V278.44H110.678Z" fill="black"/>
<path d="M77.199 301.142L90.675 283.472L90.5073 288.281L77.5904 271.059H87.3759L95.5398 282.298L91.8493 282.41L100.293 271.059H109.575L96.6022 288.113V283.416L110.022 301.142H100.125L91.5697 289.176L95.2043 289.679L86.7049 301.142H77.199Z" fill="black"/>
<path d="M61.4744 301.589C58.0448 301.589 55.0253 300.918 52.4158 299.576C49.8437 298.234 47.8493 296.408 46.4327 294.096C45.0161 291.748 44.3079 289.083 44.3079 286.1C44.3079 283.081 44.9975 280.415 46.3768 278.104C47.7934 275.756 49.7132 273.929 52.1363 272.624C54.5593 271.282 57.2993 270.611 60.3561 270.611C63.3011 270.611 65.9478 271.245 68.2963 272.512C70.6821 273.743 72.5647 275.532 73.9439 277.88C75.3232 280.192 76.0129 282.969 76.0129 286.212C76.0129 286.548 75.9942 286.939 75.957 287.386C75.9197 287.796 75.8824 288.188 75.8451 288.561H51.4093V283.472H71.2599L67.9049 284.982C67.9049 283.416 67.588 282.056 66.9543 280.9C66.3206 279.744 65.4445 278.85 64.3262 278.216C63.2079 277.545 61.9031 277.209 60.412 277.209C58.9209 277.209 57.5975 277.545 56.4419 278.216C55.3235 278.85 54.4475 279.763 53.8138 280.956C53.18 282.112 52.8632 283.491 52.8632 285.094V286.436C52.8632 288.076 53.2173 289.53 53.9256 290.797C54.6712 292.028 55.6963 292.978 57.0011 293.649C58.3431 294.283 59.9087 294.6 61.6981 294.6C63.301 294.6 64.699 294.357 65.8919 293.873C67.1221 293.388 68.2404 292.661 69.2469 291.692L73.888 296.725C72.5087 298.29 70.7753 299.502 68.6877 300.359C66.6002 301.179 64.1957 301.589 61.4744 301.589Z" fill="black"/>
<path d="M2 301.142V262H9.4929L32.5867 290.182H28.9521V262H37.8988V301.142H30.4618L7.31213 272.96H10.9467V301.142H2Z" fill="black"/>
</svg>
