<svg width="55" height="55" viewBox="0 0 55 55" fill="none" xmlns="http://www.w3.org/2000/svg">
<circle cx="27.5" cy="27.5" r="27.5" fill="#F4F3FF"/>
<path opacity="0.3" d="M36.8333 33.8395V24.5729C34.0333 25.0795 31.4333 26.3729 29.3133 28.3462L27.5 30.0395L25.6867 28.3462C23.5667 26.3729 20.9667 25.0795 18.1667 24.5729V33.8395C21.54 34.2929 24.7533 35.5729 27.5 37.6129C30.26 35.5862 33.46 34.2929 36.8333 33.8395Z" fill="#BDB4FE"/>
<path opacity="0.3" d="M27.5 20.3333C28.9728 20.3333 30.1667 19.1394 30.1667 17.6667C30.1667 16.1939 28.9728 15 27.5 15C26.0273 15 24.8333 16.1939 24.8333 17.6667C24.8333 19.1394 26.0273 20.3333 27.5 20.3333Z" fill="#7A5AF8"/>
<path d="M32.8333 17.6667C32.8333 14.72 30.4467 12.3334 27.5 12.3334C24.5533 12.3334 22.1667 14.72 22.1667 17.6667C22.1667 20.6134 24.5533 23 27.5 23C30.4467 23 32.8333 20.6134 32.8333 17.6667ZM24.8333 17.6667C24.8333 16.2 26.0333 15 27.5 15C28.9667 15 30.1667 16.2 30.1667 17.6667C30.1667 19.1334 28.9667 20.3334 27.5 20.3334C26.0333 20.3334 24.8333 19.1334 24.8333 17.6667ZM15.5 36.3334C20.14 36.3334 24.3533 38.1334 27.5 41.0667C30.6467 38.1467 34.86 36.3334 39.5 36.3334V21.6667C34.86 21.6667 30.6467 23.4667 27.5 26.4C24.3533 23.4667 20.14 21.6667 15.5 21.6667V36.3334ZM18.1667 24.5734C20.9667 25.08 23.5667 26.3734 25.6867 28.3467L27.5 30.04L29.3133 28.3467C31.4333 26.3734 34.0333 25.08 36.8333 24.5734V33.84C33.46 34.2934 30.26 35.5734 27.5 37.6C24.7533 35.5734 21.54 34.28 18.1667 33.8267V24.5734Z" fill="#7A5AF8"/>
</svg>
