<svg width="24" height="24" viewBox="0 0 24 24" fill="none" xmlns="http://www.w3.org/2000/svg">
<mask id="path-1-inside-1_1172_10261" fill="white">
<path d="M11 18H13V16H11V18ZM12 2C6.48 2 2 6.48 2 12C2 17.52 6.48 22 12 22C17.52 22 22 17.52 22 12C22 6.48 17.52 2 12 2ZM12 20C7.59 20 4 16.41 4 12C4 7.59 7.59 4 12 4C16.41 4 20 7.59 20 12C20 16.41 16.41 20 12 20ZM12 6C9.79 6 8 7.79 8 10H10C10 8.9 10.9 8 12 8C13.1 8 14 8.9 14 10C14 12 11 11.75 11 15H13C13 12.75 16 12.5 16 10C16 7.79 14.21 6 12 6Z"/>
</mask>
<path d="M11 18H9C9 19.1046 9.89543 20 11 20V18ZM13 18V20C14.1046 20 15 19.1046 15 18H13ZM13 16H15C15 14.8954 14.1046 14 13 14V16ZM11 16V14C9.89543 14 9 14.8954 9 16H11ZM8 10H6C6 11.1046 6.89543 12 8 12V10ZM10 10V12C11.1046 12 12 11.1046 12 10H10ZM11 15H9C9 16.1046 9.89543 17 11 17V15ZM13 15V17C14.1046 17 15 16.1046 15 15H13ZM11 20H13V16H11V20ZM15 18V16H11V18H15ZM13 14H11V18H13V14ZM9 16V18H13V16H9ZM12 0C5.37543 0 0 5.37543 0 12H4C4 7.58457 7.58457 4 12 4V0ZM0 12C0 18.6246 5.37543 24 12 24V20C7.58457 20 4 16.4154 4 12H0ZM12 24C18.6246 24 24 18.6246 24 12H20C20 16.4154 16.4154 20 12 20V24ZM24 12C24 5.37543 18.6246 0 12 0V4C16.4154 4 20 7.58457 20 12H24ZM12 18C8.69457 18 6 15.3054 6 12H2C2 17.5146 6.48543 22 12 22V18ZM6 12C6 8.69457 8.69457 6 12 6V2C6.48543 2 2 6.48543 2 12H6ZM12 6C15.3054 6 18 8.69457 18 12H22C22 6.48543 17.5146 2 12 2V6ZM18 12C18 15.3054 15.3054 18 12 18V22C17.5146 22 22 17.5146 22 12H18ZM12 4C8.68543 4 6 6.68543 6 10H10C10 8.89457 10.8946 8 12 8V4ZM8 12H10V8H8V12ZM12 10V6C9.79543 6 8 7.79543 8 10H12ZM12 10H16C16 7.79543 14.2046 6 12 6V10ZM12 10C12 10.001 12 9.99899 12 9.99995C12 10.0009 12 9.99886 12 9.99978C12 9.99964 12 9.99943 12 9.99915C12 9.99858 12.0001 9.99775 12.0001 9.99665C12.0002 9.99446 12.0004 9.99128 12.0008 9.98721C12.0016 9.97892 12.0031 9.96775 12.0059 9.95421C12.0116 9.92578 12.021 9.8954 12.0335 9.86622C12.0594 9.80612 12.082 9.78902 12.0531 9.82076C11.9176 9.96942 11.7893 10.043 11.2586 10.4632C10.8259 10.8057 10.2259 11.3195 9.75758 12.0936C9.27076 12.8982 9 13.856 9 15H13C13 14.519 13.1042 14.2893 13.1799 14.1642C13.2741 14.0086 13.4241 13.8506 13.7414 13.5993C13.9607 13.4257 14.5824 12.9837 15.0094 12.5152C15.5533 11.9185 16 11.0973 16 10H12ZM11 17H13V13H11V17ZM15 15C15 14.9242 14.9268 14.8778 15.817 14.0989C16.5429 13.4638 18 12.2382 18 10H14C14 10.2618 13.9571 10.4112 13.183 11.0886C12.5732 11.6222 11 12.8258 11 15H15ZM18 10C18 6.68543 15.3146 4 12 4V8C13.1054 8 14 8.89457 14 10H18Z" fill="#344054" mask="url(#path-1-inside-1_1172_10261)"/>
</svg>
