<svg width="56" height="55" viewBox="0 0 56 55" fill="none" xmlns="http://www.w3.org/2000/svg">
<circle cx="28.5" cy="27.5" r="27.5" fill="#ECFDF3"/>
<path d="M39.5 16.3333C39.5 14.8666 38.3 13.6666 36.8333 13.6666H18.1667C16.6867 13.6666 15.5 14.8666 15.5 16.3333V35C15.5 36.4666 16.6867 37.6666 18.1667 37.6666H23.5L27.5 41.6666L31.5 37.6666H36.8333C38.3 37.6666 39.5 36.4666 39.5 35V16.3333ZM36.8333 35H30.3933L29.6067 35.7866L27.5 37.8933L25.38 35.7733L24.6067 35H18.1667V16.3333H36.8333V35ZM26.1667 31H28.8333V33.6666H26.1667V31ZM27.5 20.3333C28.9667 20.3333 30.1667 21.5333 30.1667 23C30.1667 25.6666 26.1667 25.3333 26.1667 29.6666H28.8333C28.8333 26.6666 32.8333 26.3333 32.8333 23C32.8333 20.0533 30.4467 17.6666 27.5 17.6666C24.5533 17.6666 22.1667 20.0533 22.1667 23H24.8333C24.8333 21.5333 26.0333 20.3333 27.5 20.3333Z" fill="#12B76A"/>
</svg>
