<svg width="40" height="40" viewBox="0 0 40 40" fill="none" xmlns="http://www.w3.org/2000/svg">
<rect width="40" height="40" rx="9.41177" fill="#FEF3F2"/>
<mask id="path-2-inside-1_1172_12877" fill="white">
<path d="M14.9998 25.8333C14.9998 26.75 15.7498 27.5 16.6665 27.5H23.3332C24.2498 27.5 24.9998 26.75 24.9998 25.8333V15.8333H14.9998V25.8333ZM16.6665 17.5H23.3332V25.8333H16.6665V17.5ZM22.9165 13.3333L22.0832 12.5H17.9165L17.0832 13.3333H14.1665V15H25.8332V13.3333H22.9165Z"/>
</mask>
<path d="M24.9998 15.8333H26.6698C26.6698 14.911 25.9222 14.1633 24.9998 14.1633V15.8333ZM14.9998 15.8333V14.1633C14.0775 14.1633 13.3298 14.911 13.3298 15.8333H14.9998ZM16.6665 17.5V15.83C15.7442 15.83 14.9965 16.5777 14.9965 17.5H16.6665ZM23.3332 17.5H25.0032C25.0032 16.5777 24.2555 15.83 23.3332 15.83V17.5ZM23.3332 25.8333V27.5033C24.2555 27.5033 25.0032 26.7556 25.0032 25.8333H23.3332ZM16.6665 25.8333H14.9965C14.9965 26.7556 15.7442 27.5033 16.6665 27.5033V25.8333ZM22.9165 13.3333L21.7356 14.5142C22.0488 14.8274 22.4736 15.0033 22.9165 15.0033V13.3333ZM22.0832 12.5L23.264 11.3191C22.9509 11.0059 22.5261 10.83 22.0832 10.83V12.5ZM17.9165 12.5V10.83C17.4736 10.83 17.0488 11.0059 16.7356 11.3191L17.9165 12.5ZM17.0832 13.3333V15.0033C17.5261 15.0033 17.9509 14.8274 18.264 14.5142L17.0832 13.3333ZM14.1665 13.3333V11.6633C13.2442 11.6633 12.4965 12.411 12.4965 13.3333H14.1665ZM14.1665 15H12.4965C12.4965 15.9223 13.2442 16.67 14.1665 16.67V15ZM25.8332 15V16.67C26.7555 16.67 27.5032 15.9223 27.5032 15H25.8332ZM25.8332 13.3333H27.5032C27.5032 12.411 26.7555 11.6633 25.8332 11.6633V13.3333ZM13.3298 25.8333C13.3298 27.6723 14.8275 29.17 16.6665 29.17V25.83C16.6661 25.83 16.667 25.83 16.6687 25.8303C16.6703 25.8307 16.6716 25.8311 16.6724 25.8314C16.6736 25.832 16.6724 25.8317 16.6703 25.8295C16.6682 25.8274 16.6678 25.8262 16.6684 25.8275C16.6687 25.8283 16.6692 25.8296 16.6695 25.8312C16.6699 25.8329 16.6698 25.8338 16.6698 25.8333H13.3298ZM16.6665 29.17H23.3332V25.83H16.6665V29.17ZM23.3332 29.17C25.1722 29.17 26.6698 27.6723 26.6698 25.8333H23.3298C23.3298 25.8338 23.3298 25.8329 23.3302 25.8312C23.3305 25.8296 23.3309 25.8283 23.3313 25.8275C23.3318 25.8262 23.3315 25.8274 23.3294 25.8295C23.3272 25.8317 23.326 25.832 23.3273 25.8314C23.3281 25.8311 23.3294 25.8307 23.331 25.8303C23.3327 25.83 23.3336 25.83 23.3332 25.83V29.17ZM26.6698 25.8333V15.8333H23.3298V25.8333H26.6698ZM24.9998 14.1633H14.9998V17.5033H24.9998V14.1633ZM13.3298 15.8333V25.8333H16.6698V15.8333H13.3298ZM16.6665 19.17H23.3332V15.83H16.6665V19.17ZM21.6632 17.5V25.8333H25.0032V17.5H21.6632ZM23.3332 24.1633H16.6665V27.5033H23.3332V24.1633ZM18.3365 25.8333V17.5H14.9965V25.8333H18.3365ZM24.0974 12.1525L23.264 11.3191L20.9023 13.6809L21.7356 14.5142L24.0974 12.1525ZM22.0832 10.83H17.9165V14.17H22.0832V10.83ZM16.7356 11.3191L15.9023 12.1525L18.264 14.5142L19.0974 13.6809L16.7356 11.3191ZM17.0832 11.6633H14.1665V15.0033H17.0832V11.6633ZM12.4965 13.3333V15H15.8365V13.3333H12.4965ZM14.1665 16.67H25.8332V13.33H14.1665V16.67ZM27.5032 15V13.3333H24.1632V15H27.5032ZM25.8332 11.6633H22.9165V15.0033H25.8332V11.6633Z" fill="#D92D20" mask="url(#path-2-inside-1_1172_12877)"/>
</svg>
