<svg width="56" height="55" viewBox="0 0 56 55" fill="none" xmlns="http://www.w3.org/2000/svg">
<circle cx="28.5" cy="27.5" r="27.5" fill="#FFFAEB"/>
<path opacity="0.3" d="M18.6667 17.6666V36.3333H37.3333V17.6666H18.6667ZM30.6667 33.6666H21.3333V31H30.6667V33.6666ZM34.6667 28.3333H21.3333V25.6666H34.6667V28.3333ZM34.6667 23H21.3333V20.3333H34.6667V23Z" fill="#FEC84B"/>
<path d="M37.3333 15H18.6667C17.2 15 16 16.2 16 17.6667V36.3333C16 37.8 17.2 39 18.6667 39H37.3333C38.8 39 40 37.8 40 36.3333V17.6667C40 16.2 38.8 15 37.3333 15ZM37.3333 36.3333H18.6667V17.6667H37.3333V36.3333ZM34.6667 28.3333H21.3333V25.6667H34.6667V28.3333ZM34.6667 23H21.3333V20.3333H34.6667V23ZM30.6667 33.6667H21.3333V31H30.6667V33.6667Z" fill="#F79009"/>
</svg>
