<svg width="55" height="55" viewBox="0 0 55 55" fill="none" xmlns="http://www.w3.org/2000/svg">
<circle cx="27.5" cy="27.5" r="27.5" fill="#F0F9FF"/>
<path d="M38.1667 19H32.8333V16.3333C32.8333 14.8533 31.6467 13.6666 30.1667 13.6666H24.8333C23.3533 13.6666 22.1667 14.8533 22.1667 16.3333V19H16.8333C15.3533 19 14.18 20.1866 14.18 21.6666L14.1667 36.3333C14.1667 37.8133 15.3533 39 16.8333 39H38.1667C39.6467 39 40.8333 37.8133 40.8333 36.3333V21.6666C40.8333 20.1866 39.6467 19 38.1667 19ZM24.8333 16.3333H30.1667V19H24.8333V16.3333ZM38.1667 36.3333H16.8333V21.6666H38.1667V36.3333Z" fill="#2E90FA"/>
</svg>
