<svg width="149" height="44" viewBox="0 0 149 44" fill="none" xmlns="http://www.w3.org/2000/svg">
<path d="M26 19.6875C27.8417 19.6875 29.3333 18.1958 29.3333 16.3542C29.3333 14.5125 27.8417 13.0208 26 13.0208C24.1583 13.0208 22.6667 14.5125 22.6667 16.3542C22.6667 18.1958 24.1583 19.6875 26 19.6875ZM26 14.6875C26.9167 14.6875 27.6667 15.4375 27.6667 16.3542C27.6667 17.2708 26.9167 18.0208 26 18.0208C25.0833 18.0208 24.3333 17.2708 24.3333 16.3542C24.3333 15.4375 25.0833 14.6875 26 14.6875ZM26 21.8125C24.0333 19.9792 21.4 18.8542 18.5 18.8542V28.0208C21.4 28.0208 24.0333 29.1458 26 30.9792C27.9667 29.1542 30.6 28.0208 33.5 28.0208V18.8542C30.6 18.8542 27.9667 19.9792 26 21.8125ZM31.8333 26.4625C29.725 26.7458 27.725 27.5458 26 28.8125C24.2833 27.5458 22.275 26.7375 20.1667 26.4542V20.6625C21.9167 20.9792 23.5417 21.7875 24.8667 23.0208L26 24.0875L27.1333 23.0292C28.4583 21.7958 30.0833 20.9875 31.8333 20.6708V26.4625Z" fill="#667085"/>
<path d="M47.024 26.528H50.784V28H45.2V16.88H47.024V26.528ZM60.3894 23.376C60.3894 23.7067 60.368 24.0053 60.3254 24.272H53.5894C53.6427 24.976 53.904 25.5413 54.3734 25.968C54.8427 26.3947 55.4187 26.608 56.1014 26.608C57.0827 26.608 57.776 26.1973 58.1814 25.376H60.1494C59.8827 26.1867 59.3974 26.8533 58.6934 27.376C58 27.888 57.136 28.144 56.1014 28.144C55.2587 28.144 54.5014 27.9573 53.8294 27.584C53.168 27.2 52.6454 26.6667 52.2614 25.984C51.888 25.2907 51.7014 24.4907 51.7014 23.584C51.7014 22.6773 51.8827 21.8827 52.2454 21.2C52.6187 20.5067 53.136 19.9733 53.7974 19.6C54.4694 19.2267 55.2374 19.04 56.1014 19.04C56.9334 19.04 57.6747 19.2213 58.3254 19.584C58.976 19.9467 59.4827 20.4587 59.8454 21.12C60.208 21.7707 60.3894 22.5227 60.3894 23.376ZM58.4854 22.8C58.4747 22.128 58.2347 21.5893 57.7654 21.184C57.296 20.7787 56.7147 20.576 56.0214 20.576C55.392 20.576 54.8534 20.7787 54.4054 21.184C53.9574 21.5787 53.6907 22.1173 53.6054 22.8H58.4854ZM61.5764 23.552C61.5764 22.6667 61.7577 21.8827 62.1204 21.2C62.4937 20.5173 62.995 19.9893 63.6244 19.616C64.2644 19.232 64.9684 19.04 65.7364 19.04C66.4297 19.04 67.0324 19.1787 67.5444 19.456C68.067 19.7227 68.483 20.0587 68.7924 20.464V19.184H70.6324V28H68.7924V26.688C68.483 27.104 68.0617 27.4507 67.5284 27.728C66.995 28.0053 66.387 28.144 65.7044 28.144C64.947 28.144 64.2537 27.952 63.6244 27.568C62.995 27.1733 62.4937 26.6293 62.1204 25.936C61.7577 25.232 61.5764 24.4373 61.5764 23.552ZM68.7924 23.584C68.7924 22.976 68.6644 22.448 68.4084 22C68.163 21.552 67.8377 21.2107 67.4324 20.976C67.027 20.7413 66.5897 20.624 66.1204 20.624C65.651 20.624 65.2137 20.7413 64.8084 20.976C64.403 21.2 64.0724 21.536 63.8164 21.984C63.571 22.4213 63.4484 22.944 63.4484 23.552C63.4484 24.16 63.571 24.6933 63.8164 25.152C64.0724 25.6107 64.403 25.9627 64.8084 26.208C65.2244 26.4427 65.6617 26.56 66.1204 26.56C66.5897 26.56 67.027 26.4427 67.4324 26.208C67.8377 25.9733 68.163 25.632 68.4084 25.184C68.6644 24.7253 68.7924 24.192 68.7924 23.584ZM74.8521 20.464C75.1188 20.016 75.4708 19.6693 75.9081 19.424C76.3561 19.168 76.8841 19.04 77.4921 19.04V20.928H77.0281C76.3135 20.928 75.7695 21.1093 75.3961 21.472C75.0335 21.8347 74.8521 22.464 74.8521 23.36V28H73.0281V19.184H74.8521V20.464ZM83.6168 19.04C84.3101 19.04 84.9288 19.184 85.4728 19.472C86.0274 19.76 86.4594 20.1867 86.7688 20.752C87.0781 21.3173 87.2328 22 87.2328 22.8V28H85.4248V23.072C85.4248 22.2827 85.2274 21.68 84.8328 21.264C84.4381 20.8373 83.8994 20.624 83.2168 20.624C82.5341 20.624 81.9901 20.8373 81.5848 21.264C81.1901 21.68 80.9928 22.2827 80.9928 23.072V28H79.1688V19.184H80.9928V20.192C81.2914 19.8293 81.6701 19.5467 82.1288 19.344C82.5981 19.1413 83.0941 19.04 83.6168 19.04ZM105.428 16.88V28H103.604V20.384L100.212 28H98.9476L95.5396 20.384V28H93.7156V16.88H95.6836L99.5876 25.6L103.476 16.88H105.428ZM111.649 28.144C110.817 28.144 110.065 27.9573 109.393 27.584C108.721 27.2 108.193 26.6667 107.809 25.984C107.425 25.2907 107.233 24.4907 107.233 23.584C107.233 22.688 107.43 21.8933 107.825 21.2C108.22 20.5067 108.758 19.9733 109.441 19.6C110.124 19.2267 110.886 19.04 111.729 19.04C112.572 19.04 113.334 19.2267 114.017 19.6C114.7 19.9733 115.238 20.5067 115.633 21.2C116.028 21.8933 116.225 22.688 116.225 23.584C116.225 24.48 116.022 25.2747 115.617 25.968C115.212 26.6613 114.657 27.2 113.953 27.584C113.26 27.9573 112.492 28.144 111.649 28.144ZM111.649 26.56C112.118 26.56 112.556 26.448 112.961 26.224C113.377 26 113.713 25.664 113.969 25.216C114.225 24.768 114.353 24.224 114.353 23.584C114.353 22.944 114.23 22.4053 113.985 21.968C113.74 21.52 113.414 21.184 113.009 20.96C112.604 20.736 112.166 20.624 111.697 20.624C111.228 20.624 110.79 20.736 110.385 20.96C109.99 21.184 109.676 21.52 109.441 21.968C109.206 22.4053 109.089 22.944 109.089 23.584C109.089 24.5333 109.329 25.2693 109.809 25.792C110.3 26.304 110.913 26.56 111.649 26.56ZM119.852 20.464C120.119 20.016 120.471 19.6693 120.908 19.424C121.356 19.168 121.884 19.04 122.492 19.04V20.928H122.028C121.313 20.928 120.769 21.1093 120.396 21.472C120.033 21.8347 119.852 22.464 119.852 23.36V28H118.028V19.184H119.852V20.464ZM132.249 23.376C132.249 23.7067 132.227 24.0053 132.185 24.272H125.449C125.502 24.976 125.763 25.5413 126.233 25.968C126.702 26.3947 127.278 26.608 127.961 26.608C128.942 26.608 129.635 26.1973 130.041 25.376H132.009C131.742 26.1867 131.257 26.8533 130.553 27.376C129.859 27.888 128.995 28.144 127.961 28.144C127.118 28.144 126.361 27.9573 125.689 27.584C125.027 27.2 124.505 26.6667 124.121 25.984C123.747 25.2907 123.561 24.4907 123.561 23.584C123.561 22.6773 123.742 21.8827 124.105 21.2C124.478 20.5067 124.995 19.9733 125.657 19.6C126.329 19.2267 127.097 19.04 127.961 19.04C128.793 19.04 129.534 19.2213 130.185 19.584C130.835 19.9467 131.342 20.4587 131.705 21.12C132.067 21.7707 132.249 22.5227 132.249 23.376ZM130.345 22.8C130.334 22.128 130.094 21.5893 129.625 21.184C129.155 20.7787 128.574 20.576 127.881 20.576C127.251 20.576 126.713 20.7787 126.265 21.184C125.817 21.5787 125.55 22.1173 125.465 22.8H130.345Z" fill="#475467"/>
</svg>
