<svg width="87" height="44" viewBox="0 0 87 44" fill="none" xmlns="http://www.w3.org/2000/svg">
<g filter="url(#filter0_d_1159_6062)">
<g filter="url(#filter1_d_1159_6062)">
<rect x="2" y="1" width="83" height="40" rx="8" fill="white"/>
<rect x="2.5" y="1.5" width="82" height="39" rx="7.5" stroke="#D0D5DD"/>
<path d="M18.518 21.114C18.518 20.162 18.7373 19.308 19.176 18.552C19.624 17.796 20.226 17.208 20.982 16.788C21.7473 16.3587 22.5827 16.144 23.488 16.144C24.524 16.144 25.4433 16.4007 26.246 16.914C27.058 17.418 27.646 18.1367 28.01 19.07H26.092C25.84 18.5567 25.49 18.174 25.042 17.922C24.594 17.67 24.076 17.544 23.488 17.544C22.844 17.544 22.27 17.6887 21.766 17.978C21.262 18.2673 20.8653 18.6827 20.576 19.224C20.296 19.7653 20.156 20.3953 20.156 21.114C20.156 21.8327 20.296 22.4627 20.576 23.004C20.8653 23.5453 21.262 23.9653 21.766 24.264C22.27 24.5533 22.844 24.698 23.488 24.698C24.076 24.698 24.594 24.572 25.042 24.32C25.49 24.068 25.84 23.6853 26.092 23.172H28.01C27.646 24.1053 27.058 24.824 26.246 25.328C25.4433 25.832 24.524 26.084 23.488 26.084C22.5733 26.084 21.738 25.874 20.982 25.454C20.226 25.0247 19.624 24.432 19.176 23.676C18.7373 22.92 18.518 22.066 18.518 21.114ZM29.3461 22.108C29.3461 21.3333 29.5048 20.6473 29.8221 20.05C30.1488 19.4527 30.5875 18.9907 31.1381 18.664C31.6981 18.328 32.3141 18.16 32.9861 18.16C33.5928 18.16 34.1201 18.2813 34.5681 18.524C35.0255 18.7573 35.3895 19.0513 35.6601 19.406V18.286H37.2701V26H35.6601V24.852C35.3895 25.216 35.0208 25.5193 34.5541 25.762C34.0875 26.0047 33.5555 26.126 32.9581 26.126C32.2955 26.126 31.6888 25.958 31.1381 25.622C30.5875 25.2767 30.1488 24.8007 29.8221 24.194C29.5048 23.578 29.3461 22.8827 29.3461 22.108ZM35.6601 22.136C35.6601 21.604 35.5481 21.142 35.3241 20.75C35.1095 20.358 34.8248 20.0593 34.4701 19.854C34.1155 19.6487 33.7328 19.546 33.3221 19.546C32.9115 19.546 32.5288 19.6487 32.1741 19.854C31.8195 20.05 31.5301 20.344 31.3061 20.736C31.0915 21.1187 30.9841 21.576 30.9841 22.108C30.9841 22.64 31.0915 23.1067 31.3061 23.508C31.5301 23.9093 31.8195 24.2173 32.1741 24.432C32.5381 24.6373 32.9208 24.74 33.3221 24.74C33.7328 24.74 34.1155 24.6373 34.4701 24.432C34.8248 24.2267 35.1095 23.928 35.3241 23.536C35.5481 23.1347 35.6601 22.668 35.6601 22.136ZM43.2584 18.16C43.8651 18.16 44.4064 18.286 44.8824 18.538C45.3677 18.79 45.7457 19.1633 46.0164 19.658C46.2871 20.1527 46.4224 20.75 46.4224 21.45V26H44.8404V21.688C44.8404 20.9973 44.6677 20.47 44.3224 20.106C43.9771 19.7327 43.5057 19.546 42.9084 19.546C42.3111 19.546 41.8351 19.7327 41.4804 20.106C41.1351 20.47 40.9624 20.9973 40.9624 21.688V26H39.3664V18.286H40.9624V19.168C41.2237 18.8507 41.5551 18.6033 41.9564 18.426C42.3671 18.2487 42.8011 18.16 43.2584 18.16ZM47.9262 22.136C47.9262 21.3427 48.0849 20.6473 48.4022 20.05C48.7289 19.4433 49.1769 18.9767 49.7462 18.65C50.3155 18.3233 50.9689 18.16 51.7062 18.16C52.6395 18.16 53.4095 18.384 54.0162 18.832C54.6322 19.2707 55.0475 19.9007 55.2622 20.722H53.5402C53.4002 20.3393 53.1762 20.0407 52.8682 19.826C52.5602 19.6113 52.1729 19.504 51.7062 19.504C51.0529 19.504 50.5302 19.7373 50.1382 20.204C49.7555 20.6613 49.5642 21.3053 49.5642 22.136C49.5642 22.9667 49.7555 23.6153 50.1382 24.082C50.5302 24.5487 51.0529 24.782 51.7062 24.782C52.6302 24.782 53.2415 24.376 53.5402 23.564H55.2622C55.0382 24.348 54.6182 24.9733 54.0022 25.44C53.3862 25.8973 52.6209 26.126 51.7062 26.126C50.9689 26.126 50.3155 25.9627 49.7462 25.636C49.1769 25.3 48.7289 24.8333 48.4022 24.236C48.0849 23.6293 47.9262 22.9293 47.9262 22.136ZM63.9227 21.954C63.9227 22.2433 63.9041 22.5047 63.8667 22.738H57.9727C58.0194 23.354 58.2481 23.8487 58.6587 24.222C59.0694 24.5953 59.5734 24.782 60.1707 24.782C61.0294 24.782 61.6361 24.4227 61.9907 23.704H63.7127C63.4794 24.4133 63.0547 24.9967 62.4387 25.454C61.8321 25.902 61.0761 26.126 60.1707 26.126C59.4334 26.126 58.7707 25.9627 58.1827 25.636C57.6041 25.3 57.1467 24.8333 56.8107 24.236C56.4841 23.6293 56.3207 22.9293 56.3207 22.136C56.3207 21.3427 56.4794 20.6473 56.7967 20.05C57.1234 19.4433 57.5761 18.9767 58.1547 18.65C58.7427 18.3233 59.4147 18.16 60.1707 18.16C60.8987 18.16 61.5474 18.3187 62.1167 18.636C62.6861 18.9533 63.1294 19.4013 63.4467 19.98C63.7641 20.5493 63.9227 21.2073 63.9227 21.954ZM62.2567 21.45C62.2474 20.862 62.0374 20.3907 61.6267 20.036C61.2161 19.6813 60.7074 19.504 60.1007 19.504C59.5501 19.504 59.0787 19.6813 58.6867 20.036C58.2947 20.3813 58.0614 20.8527 57.9867 21.45H62.2567ZM67.0894 15.64V26H65.4934V15.64H67.0894Z" fill="#344054"/>
</g>
</g>
<defs>
<filter id="filter0_d_1159_6062" x="0" y="0" width="87" height="44" filterUnits="userSpaceOnUse" color-interpolation-filters="sRGB">
<feFlood flood-opacity="0" result="BackgroundImageFix"/>
<feColorMatrix in="SourceAlpha" type="matrix" values="0 0 0 0 0 0 0 0 0 0 0 0 0 0 0 0 0 0 127 0" result="hardAlpha"/>
<feOffset dy="1"/>
<feGaussianBlur stdDeviation="1"/>
<feColorMatrix type="matrix" values="0 0 0 0 0.0627451 0 0 0 0 0.0941176 0 0 0 0 0.156863 0 0 0 0.05 0"/>
<feBlend mode="normal" in2="BackgroundImageFix" result="effect1_dropShadow_1159_6062"/>
<feBlend mode="normal" in="SourceGraphic" in2="effect1_dropShadow_1159_6062" result="shape"/>
</filter>
<filter id="filter1_d_1159_6062" x="0" y="0" width="87" height="44" filterUnits="userSpaceOnUse" color-interpolation-filters="sRGB">
<feFlood flood-opacity="0" result="BackgroundImageFix"/>
<feColorMatrix in="SourceAlpha" type="matrix" values="0 0 0 0 0 0 0 0 0 0 0 0 0 0 0 0 0 0 127 0" result="hardAlpha"/>
<feOffset dy="1"/>
<feGaussianBlur stdDeviation="1"/>
<feColorMatrix type="matrix" values="0 0 0 0 0.0627451 0 0 0 0 0.0941176 0 0 0 0 0.156863 0 0 0 0.05 0"/>
<feBlend mode="normal" in2="BackgroundImageFix" result="effect1_dropShadow_1159_6062"/>
<feBlend mode="normal" in="SourceGraphic" in2="effect1_dropShadow_1159_6062" result="shape"/>
</filter>
</defs>
</svg>
