<svg width="172" height="44" viewBox="0 0 172 44" fill="none" xmlns="http://www.w3.org/2000/svg">
<g filter="url(#filter0_d_1168_46)">
<rect x="2" y="1" width="168" height="40" rx="8" fill="#344054"/>
<rect x="2.5" y="1.5" width="167" height="39" rx="7.5" stroke="#344054"/>
<mask id="path-3-inside-1_1168_46" fill="white">
<path d="M33.8334 21.8333H28.8334V26.8333H27.1667V21.8333H22.1667V20.1667H27.1667V15.1667H28.8334V20.1667H33.8334V21.8333Z"/>
</mask>
<path d="M33.8334 21.8333V23.5033C34.7557 23.5033 35.5034 22.7556 35.5034 21.8333H33.8334ZM28.8334 21.8333V20.1633C27.911 20.1633 27.1634 20.911 27.1634 21.8333H28.8334ZM28.8334 26.8333V28.5033C29.7557 28.5033 30.5034 27.7556 30.5034 26.8333H28.8334ZM27.1667 26.8333H25.4967C25.4967 27.7556 26.2444 28.5033 27.1667 28.5033V26.8333ZM27.1667 21.8333H28.8367C28.8367 20.911 28.089 20.1633 27.1667 20.1633V21.8333ZM22.1667 21.8333H20.4967C20.4967 22.7556 21.2444 23.5033 22.1667 23.5033V21.8333ZM22.1667 20.1667V18.4967C21.2444 18.4967 20.4967 19.2443 20.4967 20.1667H22.1667ZM27.1667 20.1667V21.8367C28.089 21.8367 28.8367 21.089 28.8367 20.1667H27.1667ZM27.1667 15.1667V13.4967C26.2444 13.4967 25.4967 14.2443 25.4967 15.1667H27.1667ZM28.8334 15.1667H30.5034C30.5034 14.2443 29.7557 13.4967 28.8334 13.4967V15.1667ZM28.8334 20.1667H27.1634C27.1634 21.089 27.911 21.8367 28.8334 21.8367V20.1667ZM33.8334 20.1667H35.5034C35.5034 19.2443 34.7557 18.4967 33.8334 18.4967V20.1667ZM33.8334 20.1633H28.8334V23.5033H33.8334V20.1633ZM27.1634 21.8333V26.8333H30.5034V21.8333H27.1634ZM28.8334 25.1633H27.1667V28.5033H28.8334V25.1633ZM28.8367 26.8333V21.8333H25.4967V26.8333H28.8367ZM27.1667 20.1633H22.1667V23.5033H27.1667V20.1633ZM23.8367 21.8333V20.1667H20.4967V21.8333H23.8367ZM22.1667 21.8367H27.1667V18.4967H22.1667V21.8367ZM28.8367 20.1667V15.1667H25.4967V20.1667H28.8367ZM27.1667 16.8367H28.8334V13.4967H27.1667V16.8367ZM27.1634 15.1667V20.1667H30.5034V15.1667H27.1634ZM28.8334 21.8367H33.8334V18.4967H28.8334V21.8367ZM32.1634 20.1667V21.8333H35.5034V20.1667H32.1634Z" fill="white" mask="url(#path-3-inside-1_1168_46)"/>
<path d="M52.916 24.012H48.842L48.142 26H46.476L49.962 16.256H51.81L55.296 26H53.616L52.916 24.012ZM52.468 22.71L50.886 18.188L49.29 22.71H52.468ZM56.2797 22.108C56.2797 21.3333 56.4384 20.6473 56.7557 20.05C57.0824 19.4527 57.5211 18.9907 58.0717 18.664C58.6317 18.328 59.2524 18.16 59.9337 18.16C60.4377 18.16 60.9324 18.272 61.4177 18.496C61.9124 18.7107 62.3044 19 62.5937 19.364V15.64H64.2037V26H62.5937V24.838C62.3324 25.2113 61.9684 25.5193 61.5017 25.762C61.0444 26.0047 60.5171 26.126 59.9197 26.126C59.2477 26.126 58.6317 25.958 58.0717 25.622C57.5211 25.2767 57.0824 24.8007 56.7557 24.194C56.4384 23.578 56.2797 22.8827 56.2797 22.108ZM62.5937 22.136C62.5937 21.604 62.4817 21.142 62.2577 20.75C62.0431 20.358 61.7584 20.0593 61.4037 19.854C61.0491 19.6487 60.6664 19.546 60.2557 19.546C59.8451 19.546 59.4624 19.6487 59.1077 19.854C58.7531 20.05 58.4637 20.344 58.2397 20.736C58.0251 21.1187 57.9177 21.576 57.9177 22.108C57.9177 22.64 58.0251 23.1067 58.2397 23.508C58.4637 23.9093 58.7531 24.2173 59.1077 24.432C59.4717 24.6373 59.8544 24.74 60.2557 24.74C60.6664 24.74 61.0491 24.6373 61.4037 24.432C61.7584 24.2267 62.0431 23.928 62.2577 23.536C62.4817 23.1347 62.5937 22.668 62.5937 22.136ZM65.768 22.108C65.768 21.3333 65.9267 20.6473 66.244 20.05C66.5707 19.4527 67.0093 18.9907 67.56 18.664C68.12 18.328 68.7407 18.16 69.422 18.16C69.926 18.16 70.4207 18.272 70.906 18.496C71.4007 18.7107 71.7927 19 72.082 19.364V15.64H73.692V26H72.082V24.838C71.8207 25.2113 71.4567 25.5193 70.99 25.762C70.5327 26.0047 70.0053 26.126 69.408 26.126C68.736 26.126 68.12 25.958 67.56 25.622C67.0093 25.2767 66.5707 24.8007 66.244 24.194C65.9267 23.578 65.768 22.8827 65.768 22.108ZM72.082 22.136C72.082 21.604 71.97 21.142 71.746 20.75C71.5313 20.358 71.2467 20.0593 70.892 19.854C70.5373 19.6487 70.1547 19.546 69.744 19.546C69.3333 19.546 68.9507 19.6487 68.596 19.854C68.2413 20.05 67.952 20.344 67.728 20.736C67.5133 21.1187 67.406 21.576 67.406 22.108C67.406 22.64 67.5133 23.1067 67.728 23.508C67.952 23.9093 68.2413 24.2173 68.596 24.432C68.96 24.6373 69.3427 24.74 69.744 24.74C70.1547 24.74 70.5373 24.6373 70.892 24.432C71.2467 24.2267 71.5313 23.928 71.746 23.536C71.97 23.1347 72.082 22.668 72.082 22.136ZM87.419 26H85.823L81.021 18.734V26H79.425V16.256H81.021L85.823 23.508V16.256H87.419V26ZM96.5848 21.954C96.5848 22.2433 96.5662 22.5047 96.5288 22.738H90.6348C90.6815 23.354 90.9102 23.8487 91.3208 24.222C91.7315 24.5953 92.2355 24.782 92.8328 24.782C93.6915 24.782 94.2982 24.4227 94.6528 23.704H96.3748C96.1415 24.4133 95.7168 24.9967 95.1008 25.454C94.4942 25.902 93.7382 26.126 92.8328 26.126C92.0955 26.126 91.4328 25.9627 90.8448 25.636C90.2662 25.3 89.8088 24.8333 89.4728 24.236C89.1462 23.6293 88.9828 22.9293 88.9828 22.136C88.9828 21.3427 89.1415 20.6473 89.4588 20.05C89.7855 19.4433 90.2382 18.9767 90.8168 18.65C91.4048 18.3233 92.0768 18.16 92.8328 18.16C93.5608 18.16 94.2095 18.3187 94.7788 18.636C95.3482 18.9533 95.7915 19.4013 96.1088 19.98C96.4262 20.5493 96.5848 21.2073 96.5848 21.954ZM94.9188 21.45C94.9095 20.862 94.6995 20.3907 94.2888 20.036C93.8782 19.6813 93.3695 19.504 92.7628 19.504C92.2122 19.504 91.7408 19.6813 91.3488 20.036C90.9568 20.3813 90.7235 20.8527 90.6488 21.45H94.9188ZM108.515 18.286L106.121 26H104.441L102.887 20.302L101.333 26H99.6535L97.2455 18.286H98.8695L100.479 24.488L102.117 18.286H103.783L105.351 24.46L106.947 18.286H108.515ZM120.149 19.168C120.149 19.6627 120.032 20.1293 119.799 20.568C119.566 21.0067 119.192 21.366 118.679 21.646C118.166 21.9167 117.508 22.052 116.705 22.052H114.941V26H113.345V16.27H116.705C117.452 16.27 118.082 16.4007 118.595 16.662C119.118 16.914 119.505 17.2593 119.757 17.698C120.018 18.1367 120.149 18.6267 120.149 19.168ZM116.705 20.75C117.312 20.75 117.764 20.6147 118.063 20.344C118.362 20.064 118.511 19.672 118.511 19.168C118.511 18.104 117.909 17.572 116.705 17.572H114.941V20.75H116.705ZM125.017 26.126C124.289 26.126 123.631 25.9627 123.043 25.636C122.455 25.3 121.993 24.8333 121.657 24.236C121.321 23.6293 121.153 22.9293 121.153 22.136C121.153 21.352 121.326 20.6567 121.671 20.05C122.016 19.4433 122.488 18.9767 123.085 18.65C123.682 18.3233 124.35 18.16 125.087 18.16C125.824 18.16 126.492 18.3233 127.089 18.65C127.686 18.9767 128.158 19.4433 128.503 20.05C128.848 20.6567 129.021 21.352 129.021 22.136C129.021 22.92 128.844 23.6153 128.489 24.222C128.134 24.8287 127.649 25.3 127.033 25.636C126.426 25.9627 125.754 26.126 125.017 26.126ZM125.017 24.74C125.428 24.74 125.81 24.642 126.165 24.446C126.529 24.25 126.823 23.956 127.047 23.564C127.271 23.172 127.383 22.696 127.383 22.136C127.383 21.576 127.276 21.1047 127.061 20.722C126.846 20.33 126.562 20.036 126.207 19.84C125.852 19.644 125.47 19.546 125.059 19.546C124.648 19.546 124.266 19.644 123.911 19.84C123.566 20.036 123.29 20.33 123.085 20.722C122.88 21.1047 122.777 21.576 122.777 22.136C122.777 22.9667 122.987 23.6107 123.407 24.068C123.836 24.516 124.373 24.74 125.017 24.74ZM132.195 15.64V26H130.599V15.64H132.195ZM135.102 17.264C134.813 17.264 134.57 17.166 134.374 16.97C134.178 16.774 134.08 16.5313 134.08 16.242C134.08 15.9527 134.178 15.71 134.374 15.514C134.57 15.318 134.813 15.22 135.102 15.22C135.382 15.22 135.62 15.318 135.816 15.514C136.012 15.71 136.11 15.9527 136.11 16.242C136.11 16.5313 136.012 16.774 135.816 16.97C135.62 17.166 135.382 17.264 135.102 17.264ZM135.886 18.286V26H134.29V18.286H135.886ZM137.45 22.136C137.45 21.3427 137.608 20.6473 137.926 20.05C138.252 19.4433 138.7 18.9767 139.27 18.65C139.839 18.3233 140.492 18.16 141.23 18.16C142.163 18.16 142.933 18.384 143.54 18.832C144.156 19.2707 144.571 19.9007 144.786 20.722H143.064C142.924 20.3393 142.7 20.0407 142.392 19.826C142.084 19.6113 141.696 19.504 141.23 19.504C140.576 19.504 140.054 19.7373 139.662 20.204C139.279 20.6613 139.088 21.3053 139.088 22.136C139.088 22.9667 139.279 23.6153 139.662 24.082C140.054 24.5487 140.576 24.782 141.23 24.782C142.154 24.782 142.765 24.376 143.064 23.564H144.786C144.562 24.348 144.142 24.9733 143.526 25.44C142.91 25.8973 142.144 26.126 141.23 26.126C140.492 26.126 139.839 25.9627 139.27 25.636C138.7 25.3 138.252 24.8333 137.926 24.236C137.608 23.6293 137.45 22.9293 137.45 22.136ZM153.32 18.286L148.588 29.626H146.936L148.504 25.874L145.466 18.286H147.244L149.414 24.166L151.668 18.286H153.32Z" fill="white"/>
</g>
<defs>
<filter id="filter0_d_1168_46" x="0" y="0" width="172" height="44" filterUnits="userSpaceOnUse" color-interpolation-filters="sRGB">
<feFlood flood-opacity="0" result="BackgroundImageFix"/>
<feColorMatrix in="SourceAlpha" type="matrix" values="0 0 0 0 0 0 0 0 0 0 0 0 0 0 0 0 0 0 127 0" result="hardAlpha"/>
<feOffset dy="1"/>
<feGaussianBlur stdDeviation="1"/>
<feColorMatrix type="matrix" values="0 0 0 0 0.0627451 0 0 0 0 0.0941176 0 0 0 0 0.156863 0 0 0 0.05 0"/>
<feBlend mode="normal" in2="BackgroundImageFix" result="effect1_dropShadow_1168_46"/>
<feBlend mode="normal" in="SourceGraphic" in2="effect1_dropShadow_1168_46" result="shape"/>
</filter>
</defs>
</svg>
