<svg width="231" height="48" viewBox="0 0 231 48" fill="none" xmlns="http://www.w3.org/2000/svg">
<g filter="url(#filter0_d_1159_6003)">
<rect x="2" y="1" width="227" height="44" rx="8" fill="#F0F9FF"/>
<rect x="2.5" y="1.5" width="226" height="43" rx="7.5" stroke="#F0F9FF"/>
<mask id="path-4-inside-1_1159_6003" fill="white">
<path d="M33.8333 23.8334H28.8333V28.8334H27.1667V23.8334H22.1667V22.1667H27.1667V17.1667H28.8333V22.1667H33.8333V23.8334Z"/>
</mask>
<path d="M33.8333 23.8334V25.5034C34.7556 25.5034 35.5033 24.7557 35.5033 23.8334H33.8333ZM28.8333 23.8334V22.1634C27.911 22.1634 27.1633 22.911 27.1633 23.8334H28.8333ZM28.8333 28.8334V30.5034C29.7556 30.5034 30.5033 29.7557 30.5033 28.8334H28.8333ZM27.1667 28.8334H25.4967C25.4967 29.7557 26.2443 30.5034 27.1667 30.5034V28.8334ZM27.1667 23.8334H28.8367C28.8367 22.911 28.089 22.1634 27.1667 22.1634V23.8334ZM22.1667 23.8334H20.4967C20.4967 24.7557 21.2443 25.5034 22.1667 25.5034V23.8334ZM22.1667 22.1667V20.4967C21.2443 20.4967 20.4967 21.2444 20.4967 22.1667H22.1667ZM27.1667 22.1667V23.8367C28.089 23.8367 28.8367 23.089 28.8367 22.1667H27.1667ZM27.1667 17.1667V15.4967C26.2443 15.4967 25.4967 16.2444 25.4967 17.1667H27.1667ZM28.8333 17.1667H30.5033C30.5033 16.2444 29.7556 15.4967 28.8333 15.4967V17.1667ZM28.8333 22.1667H27.1633C27.1633 23.089 27.911 23.8367 28.8333 23.8367V22.1667ZM33.8333 22.1667H35.5033C35.5033 21.2444 34.7556 20.4967 33.8333 20.4967V22.1667ZM33.8333 22.1634H28.8333V25.5034H33.8333V22.1634ZM27.1633 23.8334V28.8334H30.5033V23.8334H27.1633ZM28.8333 27.1634H27.1667V30.5034H28.8333V27.1634ZM28.8367 28.8334V23.8334H25.4967V28.8334H28.8367ZM27.1667 22.1634H22.1667V25.5034H27.1667V22.1634ZM23.8367 23.8334V22.1667H20.4967V23.8334H23.8367ZM22.1667 23.8367H27.1667V20.4967H22.1667V23.8367ZM28.8367 22.1667V17.1667H25.4967V22.1667H28.8367ZM27.1667 18.8367H28.8333V15.4967H27.1667V18.8367ZM27.1633 17.1667V22.1667H30.5033V17.1667H27.1633ZM28.8333 23.8367H33.8333V20.4967H28.8333V23.8367ZM32.1633 22.1667V23.8334H35.5033V22.1667H32.1633Z" fill="#175CD3" mask="url(#path-4-inside-1_1159_6003)"/>
<path d="M50.864 29.112C50.1173 29.112 49.4453 28.984 48.848 28.728C48.2507 28.4613 47.7813 28.088 47.44 27.608C47.0987 27.128 46.928 26.568 46.928 25.928H48.88C48.9227 26.408 49.1093 26.8027 49.44 27.112C49.7813 27.4213 50.256 27.576 50.864 27.576C51.4933 27.576 51.984 27.4267 52.336 27.128C52.688 26.8187 52.864 26.424 52.864 25.944C52.864 25.5707 52.752 25.2667 52.528 25.032C52.3147 24.7973 52.0427 24.616 51.712 24.488C51.392 24.36 50.944 24.2213 50.368 24.072C49.6427 23.88 49.0507 23.688 48.592 23.496C48.144 23.2933 47.76 22.984 47.44 22.568C47.12 22.152 46.96 21.5973 46.96 20.904C46.96 20.264 47.12 19.704 47.44 19.224C47.76 18.744 48.208 18.376 48.784 18.12C49.36 17.864 50.0267 17.736 50.784 17.736C51.8613 17.736 52.7413 18.008 53.424 18.552C54.1173 19.0853 54.5013 19.8213 54.576 20.76H52.56C52.528 20.3547 52.336 20.008 51.984 19.72C51.632 19.432 51.168 19.288 50.592 19.288C50.0693 19.288 49.6427 19.4213 49.312 19.688C48.9813 19.9547 48.816 20.3387 48.816 20.84C48.816 21.1813 48.9173 21.464 49.12 21.688C49.3333 21.9013 49.6 22.072 49.92 22.2C50.24 22.328 50.6773 22.4667 51.232 22.616C51.968 22.8187 52.5653 23.0213 53.024 23.224C53.4933 23.4267 53.888 23.7413 54.208 24.168C54.5387 24.584 54.704 25.144 54.704 25.848C54.704 26.4133 54.5493 26.9467 54.24 27.448C53.9413 27.9493 53.4987 28.3547 52.912 28.664C52.336 28.9627 51.6533 29.112 50.864 29.112ZM64.8403 20.184V29H63.0163V27.96C62.7283 28.3227 62.3496 28.6107 61.8803 28.824C61.4216 29.0267 60.9309 29.128 60.4083 29.128C59.7149 29.128 59.0909 28.984 58.5363 28.696C57.9923 28.408 57.5603 27.9813 57.2403 27.416C56.9309 26.8507 56.7763 26.168 56.7763 25.368V20.184H58.5843V25.096C58.5843 25.8853 58.7816 26.4933 59.1763 26.92C59.5709 27.336 60.1096 27.544 60.7923 27.544C61.4749 27.544 62.0136 27.336 62.4083 26.92C62.8136 26.4933 63.0163 25.8853 63.0163 25.096V20.184H64.8403ZM69.0709 21.496C69.3802 21.0693 69.8015 20.7227 70.3349 20.456C70.8789 20.1787 71.4815 20.04 72.1429 20.04C72.9215 20.04 73.6255 20.2267 74.2549 20.6C74.8842 20.9733 75.3802 21.5067 75.7429 22.2C76.1055 22.8827 76.2869 23.6667 76.2869 24.552C76.2869 25.4373 76.1055 26.232 75.7429 26.936C75.3802 27.6293 74.8789 28.1733 74.2389 28.568C73.6095 28.952 72.9109 29.144 72.1429 29.144C71.4602 29.144 70.8522 29.0107 70.3189 28.744C69.7962 28.4773 69.3802 28.136 69.0709 27.72V29H67.2469V17.16H69.0709V21.496ZM74.4309 24.552C74.4309 23.944 74.3029 23.4213 74.0469 22.984C73.8015 22.536 73.4709 22.2 73.0549 21.976C72.6495 21.7413 72.2122 21.624 71.7429 21.624C71.2842 21.624 70.8469 21.7413 70.4309 21.976C70.0255 22.2107 69.6949 22.552 69.4389 23C69.1935 23.448 69.0709 23.976 69.0709 24.584C69.0709 25.192 69.1935 25.7253 69.4389 26.184C69.6949 26.632 70.0255 26.9733 70.4309 27.208C70.8469 27.4427 71.2842 27.56 71.7429 27.56C72.2122 27.56 72.6495 27.4427 73.0549 27.208C73.4709 26.9627 73.8015 26.6107 74.0469 26.152C74.3029 25.6933 74.4309 25.16 74.4309 24.552ZM88.7626 20.04C89.456 20.04 90.0746 20.184 90.6186 20.472C91.1733 20.76 91.6053 21.1867 91.9146 21.752C92.2346 22.3173 92.3946 23 92.3946 23.8V29H90.5866V24.072C90.5866 23.2827 90.3893 22.68 89.9946 22.264C89.6 21.8373 89.0613 21.624 88.3786 21.624C87.696 21.624 87.152 21.8373 86.7466 22.264C86.352 22.68 86.1546 23.2827 86.1546 24.072V29H84.3466V24.072C84.3466 23.2827 84.1493 22.68 83.7546 22.264C83.36 21.8373 82.8213 21.624 82.1386 21.624C81.456 21.624 80.912 21.8373 80.5066 22.264C80.112 22.68 79.9146 23.2827 79.9146 24.072V29H78.0906V20.184H79.9146V21.192C80.2133 20.8293 80.592 20.5467 81.0506 20.344C81.5093 20.1413 82 20.04 82.5226 20.04C83.2266 20.04 83.856 20.1893 84.4106 20.488C84.9653 20.7867 85.392 21.2187 85.6906 21.784C85.9573 21.2507 86.3733 20.8293 86.9386 20.52C87.504 20.2 88.112 20.04 88.7626 20.04ZM95.6436 19.016C95.313 19.016 95.0356 18.904 94.8116 18.68C94.5876 18.456 94.4756 18.1787 94.4756 17.848C94.4756 17.5173 94.5876 17.24 94.8116 17.016C95.0356 16.792 95.313 16.68 95.6436 16.68C95.9636 16.68 96.2356 16.792 96.4596 17.016C96.6836 17.24 96.7956 17.5173 96.7956 17.848C96.7956 18.1787 96.6836 18.456 96.4596 18.68C96.2356 18.904 95.9636 19.016 95.6436 19.016ZM96.5396 20.184V29H94.7156V20.184H96.5396ZM101.062 21.672V26.552C101.062 26.8827 101.137 27.1227 101.286 27.272C101.446 27.4107 101.713 27.48 102.086 27.48H103.206V29H101.766C100.945 29 100.316 28.808 99.8784 28.424C99.441 28.04 99.2224 27.416 99.2224 26.552V21.672H98.1824V20.184H99.2224V17.992H101.062V20.184H103.206V21.672H101.062ZM118.18 29H116.356L110.868 20.696V29H109.044V17.864H110.868L116.356 26.152V17.864H118.18V29ZM128.655 24.376C128.655 24.7067 128.634 25.0053 128.591 25.272H121.855C121.908 25.976 122.17 26.5413 122.639 26.968C123.108 27.3947 123.684 27.608 124.367 27.608C125.348 27.608 126.042 27.1973 126.447 26.376H128.415C128.148 27.1867 127.663 27.8533 126.959 28.376C126.266 28.888 125.402 29.144 124.367 29.144C123.524 29.144 122.767 28.9573 122.095 28.584C121.434 28.2 120.911 27.6667 120.527 26.984C120.154 26.2907 119.967 25.4907 119.967 24.584C119.967 23.6773 120.148 22.8827 120.511 22.2C120.884 21.5067 121.402 20.9733 122.063 20.6C122.735 20.2267 123.503 20.04 124.367 20.04C125.199 20.04 125.94 20.2213 126.591 20.584C127.242 20.9467 127.748 21.4587 128.111 22.12C128.474 22.7707 128.655 23.5227 128.655 24.376ZM126.751 23.8C126.74 23.128 126.5 22.5893 126.031 22.184C125.562 21.7787 124.98 21.576 124.287 21.576C123.658 21.576 123.119 21.7787 122.671 22.184C122.223 22.5787 121.956 23.1173 121.871 23.8H126.751ZM142.29 20.184L139.554 29H137.634L135.858 22.488L134.082 29H132.162L129.41 20.184H131.266L133.106 27.272L134.978 20.184H136.882L138.674 27.24L140.498 20.184H142.29ZM153.585 29L151.025 24.552H149.633V29H147.809V17.88H151.649C152.503 17.88 153.223 18.0293 153.809 18.328C154.407 18.6267 154.849 19.0267 155.137 19.528C155.436 20.0293 155.585 20.5893 155.585 21.208C155.585 21.9333 155.372 22.5947 154.945 23.192C154.529 23.7787 153.884 24.1787 153.009 24.392L155.761 29H153.585ZM149.633 23.096H151.649C152.332 23.096 152.844 22.9253 153.185 22.584C153.537 22.2427 153.713 21.784 153.713 21.208C153.713 20.632 153.543 20.184 153.201 19.864C152.86 19.5333 152.343 19.368 151.649 19.368H149.633V23.096ZM165.999 24.376C165.999 24.7067 165.977 25.0053 165.935 25.272H159.199C159.252 25.976 159.513 26.5413 159.983 26.968C160.452 27.3947 161.028 27.608 161.711 27.608C162.692 27.608 163.385 27.1973 163.791 26.376H165.759C165.492 27.1867 165.007 27.8533 164.303 28.376C163.609 28.888 162.745 29.144 161.711 29.144C160.868 29.144 160.111 28.9573 159.439 28.584C158.777 28.2 158.255 27.6667 157.871 26.984C157.497 26.2907 157.311 25.4907 157.311 24.584C157.311 23.6773 157.492 22.8827 157.855 22.2C158.228 21.5067 158.745 20.9733 159.407 20.6C160.079 20.2267 160.847 20.04 161.711 20.04C162.543 20.04 163.284 20.2213 163.935 20.584C164.585 20.9467 165.092 21.4587 165.455 22.12C165.817 22.7707 165.999 23.5227 165.999 24.376ZM164.095 23.8C164.084 23.128 163.844 22.5893 163.375 22.184C162.905 21.7787 162.324 21.576 161.631 21.576C161.001 21.576 160.463 21.7787 160.015 22.184C159.567 22.5787 159.3 23.1173 159.215 23.8H164.095ZM167.186 24.552C167.186 23.6667 167.367 22.8827 167.73 22.2C168.103 21.5173 168.604 20.9893 169.234 20.616C169.874 20.232 170.583 20.04 171.362 20.04C172.044 20.04 172.647 20.1787 173.17 20.456C173.703 20.7333 174.114 21.0693 174.402 21.464V20.184H176.242V33.192H174.402V27.72C174.114 28.1147 173.698 28.4507 173.154 28.728C172.61 29.0053 171.991 29.144 171.298 29.144C170.54 29.144 169.847 28.952 169.218 28.568C168.599 28.1733 168.103 27.6293 167.73 26.936C167.367 26.232 167.186 25.4373 167.186 24.552ZM174.402 24.584C174.402 23.976 174.274 23.448 174.018 23C173.772 22.552 173.447 22.2107 173.042 21.976C172.636 21.7413 172.199 21.624 171.73 21.624C171.26 21.624 170.823 21.7413 170.418 21.976C170.012 22.2 169.682 22.536 169.426 22.984C169.18 23.4213 169.058 23.944 169.058 24.552C169.058 25.16 169.18 25.6933 169.426 26.152C169.682 26.6107 170.012 26.9627 170.418 27.208C170.834 27.4427 171.271 27.56 171.73 27.56C172.199 27.56 172.636 27.4427 173.042 27.208C173.447 26.9733 173.772 26.632 174.018 26.184C174.274 25.7253 174.402 25.192 174.402 24.584ZM186.622 20.184V29H184.798V27.96C184.51 28.3227 184.131 28.6107 183.662 28.824C183.203 29.0267 182.712 29.128 182.19 29.128C181.496 29.128 180.872 28.984 180.318 28.696C179.774 28.408 179.342 27.9813 179.022 27.416C178.712 26.8507 178.558 26.168 178.558 25.368V20.184H180.366V25.096C180.366 25.8853 180.563 26.4933 180.958 26.92C181.352 27.336 181.891 27.544 182.574 27.544C183.256 27.544 183.795 27.336 184.19 26.92C184.595 26.4933 184.798 25.8853 184.798 25.096V20.184H186.622ZM197.108 24.376C197.108 24.7067 197.087 25.0053 197.044 25.272H190.308C190.361 25.976 190.623 26.5413 191.092 26.968C191.561 27.3947 192.137 27.608 192.82 27.608C193.801 27.608 194.495 27.1973 194.9 26.376H196.868C196.601 27.1867 196.116 27.8533 195.412 28.376C194.719 28.888 193.855 29.144 192.82 29.144C191.977 29.144 191.22 28.9573 190.548 28.584C189.887 28.2 189.364 27.6667 188.98 26.984C188.607 26.2907 188.42 25.4907 188.42 24.584C188.42 23.6773 188.601 22.8827 188.964 22.2C189.337 21.5067 189.855 20.9733 190.516 20.6C191.188 20.2267 191.956 20.04 192.82 20.04C193.652 20.04 194.393 20.2213 195.044 20.584C195.695 20.9467 196.201 21.4587 196.564 22.12C196.927 22.7707 197.108 23.5227 197.108 24.376ZM195.204 23.8C195.193 23.128 194.953 22.5893 194.484 22.184C194.015 21.7787 193.433 21.576 192.74 21.576C192.111 21.576 191.572 21.7787 191.124 22.184C190.676 22.5787 190.409 23.1173 190.324 23.8H195.204ZM202.103 29.144C201.41 29.144 200.786 29.0213 200.231 28.776C199.687 28.52 199.255 28.1787 198.935 27.752C198.615 27.3147 198.444 26.8293 198.423 26.296H200.311C200.343 26.6693 200.519 26.984 200.839 27.24C201.17 27.4853 201.58 27.608 202.071 27.608C202.583 27.608 202.978 27.512 203.255 27.32C203.543 27.1173 203.687 26.8613 203.687 26.552C203.687 26.2213 203.527 25.976 203.207 25.816C202.898 25.656 202.402 25.48 201.719 25.288C201.058 25.1067 200.519 24.9307 200.103 24.76C199.687 24.5893 199.324 24.328 199.015 23.976C198.716 23.624 198.567 23.16 198.567 22.584C198.567 22.1147 198.706 21.688 198.983 21.304C199.26 20.9093 199.655 20.6 200.167 20.376C200.69 20.152 201.287 20.04 201.959 20.04C202.962 20.04 203.767 20.296 204.375 20.808C204.994 21.3093 205.324 21.9973 205.367 22.872H203.543C203.511 22.4773 203.351 22.1627 203.063 21.928C202.775 21.6933 202.386 21.576 201.895 21.576C201.415 21.576 201.047 21.6667 200.791 21.848C200.535 22.0293 200.407 22.2693 200.407 22.568C200.407 22.8027 200.492 23 200.663 23.16C200.834 23.32 201.042 23.448 201.287 23.544C201.532 23.6293 201.895 23.7413 202.375 23.88C203.015 24.0507 203.538 24.2267 203.943 24.408C204.359 24.5787 204.716 24.8347 205.015 25.176C205.314 25.5173 205.468 25.9707 205.479 26.536C205.479 27.0373 205.34 27.4853 205.063 27.88C204.786 28.2747 204.391 28.584 203.879 28.808C203.378 29.032 202.786 29.144 202.103 29.144ZM209.578 21.672V26.552C209.578 26.8827 209.653 27.1227 209.802 27.272C209.962 27.4107 210.229 27.48 210.602 27.48H211.722V29H210.282C209.461 29 208.831 28.808 208.394 28.424C207.957 28.04 207.738 27.416 207.738 26.552V21.672H206.698V20.184H207.738V17.992H209.578V20.184H211.722V21.672H209.578Z" fill="#1849A9"/>
</g>
<defs>
<filter id="filter0_d_1159_6003" x="0" y="0" width="231" height="48" filterUnits="userSpaceOnUse" color-interpolation-filters="sRGB">
<feFlood flood-opacity="0" result="BackgroundImageFix"/>
<feColorMatrix in="SourceAlpha" type="matrix" values="0 0 0 0 0 0 0 0 0 0 0 0 0 0 0 0 0 0 127 0" result="hardAlpha"/>
<feOffset dy="1"/>
<feGaussianBlur stdDeviation="1"/>
<feColorMatrix type="matrix" values="0 0 0 0 0.0627451 0 0 0 0 0.0941176 0 0 0 0 0.156863 0 0 0 0.05 0"/>
<feBlend mode="normal" in2="BackgroundImageFix" result="effect1_dropShadow_1159_6003"/>
<feBlend mode="normal" in="SourceGraphic" in2="effect1_dropShadow_1159_6003" result="shape"/>
</filter>
</defs>
</svg>
