<svg width="210" height="44" viewBox="0 0 210 44" fill="none" xmlns="http://www.w3.org/2000/svg">
<g filter="url(#filter0_d_1159_2775)">
<rect x="2" y="1" width="206" height="40" rx="8" fill="#1570EF"/>
<rect x="2.5" y="1.5" width="205" height="39" rx="7.5" stroke="#1570EF"/>
<mask id="path-4-inside-1_1159_2775" fill="white">
<path d="M33.8334 21.8334H28.8334V26.8334H27.1667V21.8334H22.1667V20.1667H27.1667V15.1667H28.8334V20.1667H33.8334V21.8334Z"/>
</mask>
<path d="M33.8334 21.8334V23.5034C34.7557 23.5034 35.5034 22.7557 35.5034 21.8334H33.8334ZM28.8334 21.8334V20.1634C27.911 20.1634 27.1634 20.911 27.1634 21.8334H28.8334ZM28.8334 26.8334V28.5034C29.7557 28.5034 30.5034 27.7557 30.5034 26.8334H28.8334ZM27.1667 26.8334H25.4967C25.4967 27.7557 26.2444 28.5034 27.1667 28.5034V26.8334ZM27.1667 21.8334H28.8367C28.8367 20.911 28.089 20.1634 27.1667 20.1634V21.8334ZM22.1667 21.8334H20.4967C20.4967 22.7557 21.2444 23.5034 22.1667 23.5034V21.8334ZM22.1667 20.1667V18.4967C21.2444 18.4967 20.4967 19.2444 20.4967 20.1667H22.1667ZM27.1667 20.1667V21.8367C28.089 21.8367 28.8367 21.089 28.8367 20.1667H27.1667ZM27.1667 15.1667V13.4967C26.2444 13.4967 25.4967 14.2444 25.4967 15.1667H27.1667ZM28.8334 15.1667H30.5034C30.5034 14.2444 29.7557 13.4967 28.8334 13.4967V15.1667ZM28.8334 20.1667H27.1634C27.1634 21.089 27.911 21.8367 28.8334 21.8367V20.1667ZM33.8334 20.1667H35.5034C35.5034 19.2444 34.7557 18.4967 33.8334 18.4967V20.1667ZM33.8334 20.1634H28.8334V23.5034H33.8334V20.1634ZM27.1634 21.8334V26.8334H30.5034V21.8334H27.1634ZM28.8334 25.1634H27.1667V28.5034H28.8334V25.1634ZM28.8367 26.8334V21.8334H25.4967V26.8334H28.8367ZM27.1667 20.1634H22.1667V23.5034H27.1667V20.1634ZM23.8367 21.8334V20.1667H20.4967V21.8334H23.8367ZM22.1667 21.8367H27.1667V18.4967H22.1667V21.8367ZM28.8367 20.1667V15.1667H25.4967V20.1667H28.8367ZM27.1667 16.8367H28.8334V13.4967H27.1667V16.8367ZM27.1634 15.1667V20.1667H30.5034V15.1667H27.1634ZM28.8334 21.8367H33.8334V18.4967H28.8334V21.8367ZM32.1634 20.1667V21.8334H35.5034V20.1667H32.1634Z" fill="white" mask="url(#path-4-inside-1_1159_2775)"/>
<path d="M50.256 26.098C49.6027 26.098 49.0147 25.986 48.492 25.762C47.9693 25.5287 47.5587 25.202 47.26 24.782C46.9613 24.362 46.812 23.872 46.812 23.312H48.52C48.5573 23.732 48.7207 24.0773 49.01 24.348C49.3087 24.6187 49.724 24.754 50.256 24.754C50.8067 24.754 51.236 24.6233 51.544 24.362C51.852 24.0913 52.006 23.746 52.006 23.326C52.006 22.9993 51.908 22.7333 51.712 22.528C51.5253 22.3227 51.2873 22.164 50.998 22.052C50.718 21.94 50.326 21.8187 49.822 21.688C49.1873 21.52 48.6693 21.352 48.268 21.184C47.876 21.0067 47.54 20.736 47.26 20.372C46.98 20.008 46.84 19.5227 46.84 18.916C46.84 18.356 46.98 17.866 47.26 17.446C47.54 17.026 47.932 16.704 48.436 16.48C48.94 16.256 49.5233 16.144 50.186 16.144C51.1287 16.144 51.8987 16.382 52.496 16.858C53.1027 17.3247 53.4387 17.9687 53.504 18.79H51.74C51.712 18.4353 51.544 18.132 51.236 17.88C50.928 17.628 50.522 17.502 50.018 17.502C49.5607 17.502 49.1873 17.6187 48.898 17.852C48.6087 18.0853 48.464 18.4213 48.464 18.86C48.464 19.1587 48.5527 19.406 48.73 19.602C48.9167 19.7887 49.15 19.938 49.43 20.05C49.71 20.162 50.0927 20.2833 50.578 20.414C51.222 20.5913 51.7447 20.7687 52.146 20.946C52.5567 21.1233 52.902 21.3987 53.182 21.772C53.4713 22.136 53.616 22.626 53.616 23.242C53.616 23.7367 53.4807 24.2033 53.21 24.642C52.9487 25.0807 52.5613 25.4353 52.048 25.706C51.544 25.9673 50.9467 26.098 50.256 26.098ZM62.4852 18.286V26H60.8892V25.09C60.6372 25.4073 60.3059 25.6593 59.8952 25.846C59.4939 26.0233 59.0646 26.112 58.6072 26.112C58.0006 26.112 57.4546 25.986 56.9692 25.734C56.4932 25.482 56.1152 25.1087 55.8352 24.614C55.5646 24.1193 55.4292 23.522 55.4292 22.822V18.286H57.0112V22.584C57.0112 23.2747 57.1839 23.8067 57.5292 24.18C57.8746 24.544 58.3459 24.726 58.9432 24.726C59.5406 24.726 60.0119 24.544 60.3572 24.18C60.7119 23.8067 60.8892 23.2747 60.8892 22.584V18.286H62.4852ZM66.187 19.434C66.4577 19.0607 66.8263 18.7573 67.293 18.524C67.769 18.2813 68.2963 18.16 68.875 18.16C69.5563 18.16 70.1723 18.3233 70.723 18.65C71.2737 18.9767 71.7077 19.4433 72.025 20.05C72.3423 20.6473 72.501 21.3333 72.501 22.108C72.501 22.8827 72.3423 23.578 72.025 24.194C71.7077 24.8007 71.269 25.2767 70.709 25.622C70.1583 25.958 69.547 26.126 68.875 26.126C68.2777 26.126 67.7457 26.0093 67.279 25.776C66.8217 25.5427 66.4577 25.244 66.187 24.88V26H64.591V15.64H66.187V19.434ZM70.877 22.108C70.877 21.576 70.765 21.1187 70.541 20.736C70.3263 20.344 70.037 20.05 69.673 19.854C69.3183 19.6487 68.9357 19.546 68.525 19.546C68.1237 19.546 67.741 19.6487 67.377 19.854C67.0223 20.0593 66.733 20.358 66.509 20.75C66.2943 21.142 66.187 21.604 66.187 22.136C66.187 22.668 66.2943 23.1347 66.509 23.536C66.733 23.928 67.0223 24.2267 67.377 24.432C67.741 24.6373 68.1237 24.74 68.525 24.74C68.9357 24.74 69.3183 24.6373 69.673 24.432C70.037 24.2173 70.3263 23.9093 70.541 23.508C70.765 23.1067 70.877 22.64 70.877 22.108ZM83.4173 18.16C84.024 18.16 84.5653 18.286 85.0413 18.538C85.5266 18.79 85.9046 19.1633 86.1753 19.658C86.4553 20.1527 86.5953 20.75 86.5953 21.45V26H85.0133V21.688C85.0133 20.9973 84.8406 20.47 84.4953 20.106C84.15 19.7327 83.6786 19.546 83.0813 19.546C82.484 19.546 82.008 19.7327 81.6533 20.106C81.308 20.47 81.1353 20.9973 81.1353 21.688V26H79.5533V21.688C79.5533 20.9973 79.3806 20.47 79.0353 20.106C78.69 19.7327 78.2186 19.546 77.6213 19.546C77.024 19.546 76.548 19.7327 76.1933 20.106C75.848 20.47 75.6753 20.9973 75.6753 21.688V26H74.0793V18.286H75.6753V19.168C75.9366 18.8507 76.268 18.6033 76.6693 18.426C77.0706 18.2487 77.5 18.16 77.9573 18.16C78.5733 18.16 79.124 18.2907 79.6093 18.552C80.0946 18.8133 80.468 19.1913 80.7293 19.686C80.9626 19.2193 81.3266 18.8507 81.8213 18.58C82.316 18.3 82.848 18.16 83.4173 18.16ZM89.4382 17.264C89.1488 17.264 88.9062 17.166 88.7102 16.97C88.5142 16.774 88.4162 16.5313 88.4162 16.242C88.4162 15.9527 88.5142 15.71 88.7102 15.514C88.9062 15.318 89.1488 15.22 89.4382 15.22C89.7182 15.22 89.9562 15.318 90.1522 15.514C90.3482 15.71 90.4462 15.9527 90.4462 16.242C90.4462 16.5313 90.3482 16.774 90.1522 16.97C89.9562 17.166 89.7182 17.264 89.4382 17.264ZM90.2222 18.286V26H88.6262V18.286H90.2222ZM94.1796 19.588V23.858C94.1796 24.1473 94.2449 24.3573 94.3756 24.488C94.5156 24.6093 94.7489 24.67 95.0756 24.67H96.0556V26H94.7956C94.0769 26 93.5262 25.832 93.1436 25.496C92.7609 25.16 92.5696 24.614 92.5696 23.858V19.588H91.6596V18.286H92.5696V16.368H94.1796V18.286H96.0556V19.588H94.1796ZM109.157 26H107.561L102.759 18.734V26H101.163V16.256H102.759L107.561 23.508V16.256H109.157V26ZM118.323 21.954C118.323 22.2433 118.304 22.5047 118.267 22.738H112.373C112.42 23.354 112.648 23.8487 113.059 24.222C113.47 24.5953 113.974 24.782 114.571 24.782C115.43 24.782 116.036 24.4227 116.391 23.704H118.113C117.88 24.4133 117.455 24.9967 116.839 25.454C116.232 25.902 115.476 26.126 114.571 26.126C113.834 26.126 113.171 25.9627 112.583 25.636C112.004 25.3 111.547 24.8333 111.211 24.236C110.884 23.6293 110.721 22.9293 110.721 22.136C110.721 21.3427 110.88 20.6473 111.197 20.05C111.524 19.4433 111.976 18.9767 112.555 18.65C113.143 18.3233 113.815 18.16 114.571 18.16C115.299 18.16 115.948 18.3187 116.517 18.636C117.086 18.9533 117.53 19.4013 117.847 19.98C118.164 20.5493 118.323 21.2073 118.323 21.954ZM116.657 21.45C116.648 20.862 116.438 20.3907 116.027 20.036C115.616 19.6813 115.108 19.504 114.501 19.504C113.95 19.504 113.479 19.6813 113.087 20.036C112.695 20.3813 112.462 20.8527 112.387 21.45H116.657ZM130.254 18.286L127.86 26H126.18L124.626 20.302L123.072 26H121.392L118.984 18.286H120.608L122.218 24.488L123.856 18.286H125.522L127.09 24.46L128.686 18.286H130.254ZM140.137 26L137.897 22.108H136.679V26H135.083V16.27H138.443C139.19 16.27 139.82 16.4007 140.333 16.662C140.856 16.9233 141.243 17.2733 141.495 17.712C141.757 18.1507 141.887 18.6407 141.887 19.182C141.887 19.8167 141.701 20.3953 141.327 20.918C140.963 21.4313 140.399 21.7813 139.633 21.968L142.041 26H140.137ZM136.679 20.834H138.443C139.041 20.834 139.489 20.6847 139.787 20.386C140.095 20.0873 140.249 19.686 140.249 19.182C140.249 18.678 140.1 18.286 139.801 18.006C139.503 17.7167 139.05 17.572 138.443 17.572H136.679V20.834ZM150.999 21.954C150.999 22.2433 150.98 22.5047 150.943 22.738H145.049C145.096 23.354 145.324 23.8487 145.735 24.222C146.146 24.5953 146.65 24.782 147.247 24.782C148.106 24.782 148.712 24.4227 149.067 23.704H150.789C150.556 24.4133 150.131 24.9967 149.515 25.454C148.908 25.902 148.152 26.126 147.247 26.126C146.51 26.126 145.847 25.9627 145.259 25.636C144.68 25.3 144.223 24.8333 143.887 24.236C143.56 23.6293 143.397 22.9293 143.397 22.136C143.397 21.3427 143.556 20.6473 143.873 20.05C144.2 19.4433 144.652 18.9767 145.231 18.65C145.819 18.3233 146.491 18.16 147.247 18.16C147.975 18.16 148.624 18.3187 149.193 18.636C149.762 18.9533 150.206 19.4013 150.523 19.98C150.84 20.5493 150.999 21.2073 150.999 21.954ZM149.333 21.45C149.324 20.862 149.114 20.3907 148.703 20.036C148.292 19.6813 147.784 19.504 147.177 19.504C146.626 19.504 146.155 19.6813 145.763 20.036C145.371 20.3813 145.138 20.8527 145.063 21.45H149.333ZM152.038 22.108C152.038 21.3333 152.196 20.6473 152.514 20.05C152.84 19.4527 153.279 18.9907 153.83 18.664C154.39 18.328 155.01 18.16 155.692 18.16C156.289 18.16 156.816 18.2813 157.274 18.524C157.74 18.7667 158.1 19.0607 158.352 19.406V18.286H159.962V29.668H158.352V24.88C158.1 25.2253 157.736 25.5193 157.26 25.762C156.784 26.0047 156.242 26.126 155.636 26.126C154.973 26.126 154.366 25.958 153.816 25.622C153.274 25.2767 152.84 24.8007 152.514 24.194C152.196 23.578 152.038 22.8827 152.038 22.108ZM158.352 22.136C158.352 21.604 158.24 21.142 158.016 20.75C157.801 20.358 157.516 20.0593 157.162 19.854C156.807 19.6487 156.424 19.546 156.014 19.546C155.603 19.546 155.22 19.6487 154.866 19.854C154.511 20.05 154.222 20.344 153.998 20.736C153.783 21.1187 153.676 21.576 153.676 22.108C153.676 22.64 153.783 23.1067 153.998 23.508C154.222 23.9093 154.511 24.2173 154.866 24.432C155.23 24.6373 155.612 24.74 156.014 24.74C156.424 24.74 156.807 24.6373 157.162 24.432C157.516 24.2267 157.801 23.928 158.016 23.536C158.24 23.1347 158.352 22.668 158.352 22.136ZM169.044 18.286V26H167.448V25.09C167.196 25.4073 166.864 25.6593 166.454 25.846C166.052 26.0233 165.623 26.112 165.166 26.112C164.559 26.112 164.013 25.986 163.528 25.734C163.052 25.482 162.674 25.1087 162.394 24.614C162.123 24.1193 161.988 23.522 161.988 22.822V18.286H163.57V22.584C163.57 23.2747 163.742 23.8067 164.088 24.18C164.433 24.544 164.904 24.726 165.502 24.726C166.099 24.726 166.57 24.544 166.916 24.18C167.27 23.8067 167.448 23.2747 167.448 22.584V18.286H169.044ZM178.22 21.954C178.22 22.2433 178.201 22.5047 178.164 22.738H172.27C172.316 23.354 172.545 23.8487 172.956 24.222C173.366 24.5953 173.87 24.782 174.468 24.782C175.326 24.782 175.933 24.4227 176.288 23.704H178.01C177.776 24.4133 177.352 24.9967 176.736 25.454C176.129 25.902 175.373 26.126 174.468 26.126C173.73 26.126 173.068 25.9627 172.48 25.636C171.901 25.3 171.444 24.8333 171.108 24.236C170.781 23.6293 170.618 22.9293 170.618 22.136C170.618 21.3427 170.776 20.6473 171.094 20.05C171.42 19.4433 171.873 18.9767 172.452 18.65C173.04 18.3233 173.712 18.16 174.468 18.16C175.196 18.16 175.844 18.3187 176.414 18.636C176.983 18.9533 177.426 19.4013 177.744 19.98C178.061 20.5493 178.22 21.2073 178.22 21.954ZM176.554 21.45C176.544 20.862 176.334 20.3907 175.924 20.036C175.513 19.6813 175.004 19.504 174.398 19.504C173.847 19.504 173.376 19.6813 172.984 20.036C172.592 20.3813 172.358 20.8527 172.284 21.45H176.554ZM182.59 26.126C181.984 26.126 181.438 26.0187 180.952 25.804C180.476 25.58 180.098 25.2813 179.818 24.908C179.538 24.5253 179.389 24.1007 179.37 23.634H181.022C181.05 23.9607 181.204 24.236 181.484 24.46C181.774 24.6747 182.133 24.782 182.562 24.782C183.01 24.782 183.356 24.698 183.598 24.53C183.85 24.3527 183.976 24.1287 183.976 23.858C183.976 23.5687 183.836 23.354 183.556 23.214C183.286 23.074 182.852 22.92 182.254 22.752C181.676 22.5933 181.204 22.4393 180.84 22.29C180.476 22.1407 180.159 21.912 179.888 21.604C179.627 21.296 179.496 20.89 179.496 20.386C179.496 19.9753 179.618 19.602 179.86 19.266C180.103 18.9207 180.448 18.65 180.896 18.454C181.354 18.258 181.876 18.16 182.464 18.16C183.342 18.16 184.046 18.384 184.578 18.832C185.12 19.2707 185.409 19.8727 185.446 20.638H183.85C183.822 20.2927 183.682 20.0173 183.43 19.812C183.178 19.6067 182.838 19.504 182.408 19.504C181.988 19.504 181.666 19.5833 181.442 19.742C181.218 19.9007 181.106 20.1107 181.106 20.372C181.106 20.5773 181.181 20.75 181.33 20.89C181.48 21.03 181.662 21.142 181.876 21.226C182.091 21.3007 182.408 21.3987 182.828 21.52C183.388 21.6693 183.846 21.8233 184.2 21.982C184.564 22.1313 184.877 22.3553 185.138 22.654C185.4 22.9527 185.535 23.3493 185.544 23.844C185.544 24.2827 185.423 24.6747 185.18 25.02C184.938 25.3653 184.592 25.636 184.144 25.832C183.706 26.028 183.188 26.126 182.59 26.126ZM189.131 19.588V23.858C189.131 24.1473 189.196 24.3573 189.327 24.488C189.467 24.6093 189.7 24.67 190.027 24.67H191.007V26H189.747C189.028 26 188.477 25.832 188.095 25.496C187.712 25.16 187.521 24.614 187.521 23.858V19.588H186.611V18.286H187.521V16.368H189.131V18.286H191.007V19.588H189.131Z" fill="white"/>
</g>
<defs>
<filter id="filter0_d_1159_2775" x="0" y="0" width="210" height="44" filterUnits="userSpaceOnUse" color-interpolation-filters="sRGB">
<feFlood flood-opacity="0" result="BackgroundImageFix"/>
<feColorMatrix in="SourceAlpha" type="matrix" values="0 0 0 0 0 0 0 0 0 0 0 0 0 0 0 0 0 0 127 0" result="hardAlpha"/>
<feOffset dy="1"/>
<feGaussianBlur stdDeviation="1"/>
<feColorMatrix type="matrix" values="0 0 0 0 0.0627451 0 0 0 0 0.0941176 0 0 0 0 0.156863 0 0 0 0.05 0"/>
<feBlend mode="normal" in2="BackgroundImageFix" result="effect1_dropShadow_1159_2775"/>
<feBlend mode="normal" in="SourceGraphic" in2="effect1_dropShadow_1159_2775" result="shape"/>
</filter>
</defs>
</svg>
