<svg width="352" height="40" viewBox="0 0 352 40" fill="none" xmlns="http://www.w3.org/2000/svg">
<g clip-path="url(#clip0_1160_6077)">
<rect width="352" height="40" rx="8" fill="#1570EF"/>
<path d="M154.024 24.528H157.784V26H152.2V14.88H154.024V24.528ZM163.133 26.144C162.301 26.144 161.549 25.9573 160.877 25.584C160.205 25.2 159.677 24.6667 159.293 23.984C158.909 23.2907 158.717 22.4907 158.717 21.584C158.717 20.688 158.915 19.8933 159.309 19.2C159.704 18.5067 160.243 17.9733 160.925 17.6C161.608 17.2267 162.371 17.04 163.213 17.04C164.056 17.04 164.819 17.2267 165.501 17.6C166.184 17.9733 166.723 18.5067 167.117 19.2C167.512 19.8933 167.709 20.688 167.709 21.584C167.709 22.48 167.507 23.2747 167.101 23.968C166.696 24.6613 166.141 25.2 165.437 25.584C164.744 25.9573 163.976 26.144 163.133 26.144ZM163.133 24.56C163.603 24.56 164.04 24.448 164.445 24.224C164.861 24 165.197 23.664 165.453 23.216C165.709 22.768 165.837 22.224 165.837 21.584C165.837 20.944 165.715 20.4053 165.469 19.968C165.224 19.52 164.899 19.184 164.493 18.96C164.088 18.736 163.651 18.624 163.181 18.624C162.712 18.624 162.275 18.736 161.869 18.96C161.475 19.184 161.16 19.52 160.925 19.968C160.691 20.4053 160.573 20.944 160.573 21.584C160.573 22.5333 160.813 23.2693 161.293 23.792C161.784 24.304 162.397 24.56 163.133 24.56ZM173.065 17.04C173.747 17.04 174.35 17.1787 174.873 17.456C175.406 17.7227 175.822 18.0587 176.121 18.464V17.184H177.961V26.144C177.961 26.9547 177.79 27.6747 177.449 28.304C177.107 28.944 176.611 29.4453 175.961 29.808C175.321 30.1707 174.553 30.352 173.657 30.352C172.462 30.352 171.47 30.0693 170.681 29.504C169.891 28.9493 169.443 28.192 169.337 27.232H171.145C171.283 27.6907 171.577 28.0587 172.025 28.336C172.483 28.624 173.027 28.768 173.657 28.768C174.393 28.768 174.985 28.544 175.433 28.096C175.891 27.648 176.121 26.9973 176.121 26.144V24.672C175.811 25.088 175.39 25.44 174.857 25.728C174.334 26.0053 173.737 26.144 173.065 26.144C172.297 26.144 171.593 25.952 170.953 25.568C170.323 25.1733 169.822 24.6293 169.449 23.936C169.086 23.232 168.905 22.4373 168.905 21.552C168.905 20.6667 169.086 19.8827 169.449 19.2C169.822 18.5173 170.323 17.9893 170.953 17.616C171.593 17.232 172.297 17.04 173.065 17.04ZM176.121 21.584C176.121 20.976 175.993 20.448 175.737 20C175.491 19.552 175.166 19.2107 174.761 18.976C174.355 18.7413 173.918 18.624 173.449 18.624C172.979 18.624 172.542 18.7413 172.137 18.976C171.731 19.2 171.401 19.536 171.145 19.984C170.899 20.4213 170.777 20.944 170.777 21.552C170.777 22.16 170.899 22.6933 171.145 23.152C171.401 23.6107 171.731 23.9627 172.137 24.208C172.553 24.4427 172.99 24.56 173.449 24.56C173.918 24.56 174.355 24.4427 174.761 24.208C175.166 23.9733 175.491 23.632 175.737 23.184C175.993 22.7253 176.121 22.192 176.121 21.584ZM185.441 16.016C185.11 16.016 184.833 15.904 184.609 15.68C184.385 15.456 184.273 15.1787 184.273 14.848C184.273 14.5173 184.385 14.24 184.609 14.016C184.833 13.792 185.11 13.68 185.441 13.68C185.761 13.68 186.033 13.792 186.257 14.016C186.481 14.24 186.593 14.5173 186.593 14.848C186.593 15.1787 186.481 15.456 186.257 15.68C186.033 15.904 185.761 16.016 185.441 16.016ZM186.337 17.184V26H184.513V17.184H186.337ZM193.179 17.04C193.873 17.04 194.491 17.184 195.035 17.472C195.59 17.76 196.022 18.1867 196.331 18.752C196.641 19.3173 196.795 20 196.795 20.8V26H194.987V21.072C194.987 20.2827 194.79 19.68 194.395 19.264C194.001 18.8373 193.462 18.624 192.779 18.624C192.097 18.624 191.553 18.8373 191.147 19.264C190.753 19.68 190.555 20.2827 190.555 21.072V26H188.731V17.184H190.555V18.192C190.854 17.8293 191.233 17.5467 191.691 17.344C192.161 17.1413 192.657 17.04 193.179 17.04Z" fill="white"/>
</g>
<defs>
<clipPath id="clip0_1160_6077">
<rect width="352" height="40" fill="white"/>
</clipPath>
</defs>
</svg>
