<svg width="162" height="44" viewBox="0 0 162 44" fill="none" xmlns="http://www.w3.org/2000/svg">
<mask id="path-3-inside-1_1159_6010" fill="white">
<path d="M27.6667 17.4167V15.75H24.3333V17.4167H27.6667ZM19.3333 19.0833V28.25H32.6667V19.0833H19.3333ZM32.6667 17.4167C33.5917 17.4167 34.3333 18.1583 34.3333 19.0833V28.25C34.3333 29.175 33.5917 29.9167 32.6667 29.9167H19.3333C18.4083 29.9167 17.6667 29.175 17.6667 28.25L17.675 19.0833C17.675 18.1583 18.4083 17.4167 19.3333 17.4167H22.6667V15.75C22.6667 14.825 23.4083 14.0833 24.3333 14.0833H27.6667C28.5917 14.0833 29.3333 14.825 29.3333 15.75V17.4167H32.6667Z"/>
</mask>
<path d="M27.6667 17.4167V19.0867C28.589 19.0867 29.3367 18.339 29.3367 17.4167H27.6667ZM27.6667 15.75H29.3367C29.3367 14.8277 28.589 14.08 27.6667 14.08V15.75ZM24.3333 15.75V14.08C23.411 14.08 22.6633 14.8277 22.6633 15.75H24.3333ZM24.3333 17.4167H22.6633C22.6633 18.339 23.411 19.0867 24.3333 19.0867V17.4167ZM19.3333 19.0833V17.4133C18.411 17.4133 17.6633 18.161 17.6633 19.0833H19.3333ZM19.3333 28.25H17.6633C17.6633 29.1723 18.411 29.92 19.3333 29.92V28.25ZM32.6667 28.25V29.92C33.589 29.92 34.3367 29.1723 34.3367 28.25H32.6667ZM32.6667 19.0833H34.3367C34.3367 18.161 33.589 17.4133 32.6667 17.4133V19.0833ZM17.6667 28.25L15.9967 28.2485V28.25H17.6667ZM17.675 19.0833L19.345 19.0849V19.0833H17.675ZM22.6667 17.4167V19.0867C23.589 19.0867 24.3367 18.339 24.3367 17.4167H22.6667ZM29.3333 17.4167H27.6633C27.6633 18.339 28.411 19.0867 29.3333 19.0867V17.4167ZM29.3367 17.4167V15.75H25.9967V17.4167H29.3367ZM27.6667 14.08H24.3333V17.42H27.6667V14.08ZM22.6633 15.75V17.4167H26.0033V15.75H22.6633ZM24.3333 19.0867H27.6667V15.7467H24.3333V19.0867ZM17.6633 19.0833V28.25H21.0033V19.0833H17.6633ZM19.3333 29.92H32.6667V26.58H19.3333V29.92ZM34.3367 28.25V19.0833H30.9967V28.25H34.3367ZM32.6667 17.4133H19.3333V20.7533H32.6667V17.4133ZM32.6667 19.0867C32.6704 19.0867 32.6719 19.087 32.6716 19.087C32.6714 19.0869 32.6707 19.0867 32.6697 19.0863C32.6677 19.0855 32.6665 19.0846 32.666 19.084C32.6654 19.0835 32.6645 19.0823 32.6637 19.0803C32.6633 19.0793 32.6631 19.0786 32.663 19.0784C32.663 19.0781 32.6633 19.0796 32.6633 19.0833H36.0033C36.0033 17.236 34.514 15.7467 32.6667 15.7467V19.0867ZM32.6633 19.0833V28.25H36.0033V19.0833H32.6633ZM32.6633 28.25C32.6633 28.2538 32.663 28.2552 32.663 28.255C32.6631 28.2548 32.6633 28.254 32.6637 28.253C32.6645 28.251 32.6654 28.2499 32.666 28.2493C32.6665 28.2488 32.6677 28.2479 32.6697 28.247C32.6707 28.2466 32.6714 28.2464 32.6716 28.2464C32.6719 28.2463 32.6704 28.2467 32.6667 28.2467V31.5867C34.514 31.5867 36.0033 30.0973 36.0033 28.25H32.6633ZM32.6667 28.2467H19.3333V31.5867H32.6667V28.2467ZM19.3333 28.2467C19.3296 28.2467 19.3281 28.2463 19.3284 28.2464C19.3285 28.2464 19.3293 28.2466 19.3303 28.247C19.3323 28.2479 19.3334 28.2488 19.334 28.2493C19.3345 28.2499 19.3355 28.251 19.3363 28.253C19.3367 28.254 19.3369 28.2548 19.337 28.255C19.337 28.2552 19.3367 28.2538 19.3367 28.25H15.9967C15.9967 30.0973 17.486 31.5867 19.3333 31.5867V28.2467ZM19.3367 28.2515L19.345 19.0849L16.005 19.0818L15.9967 28.2485L19.3367 28.2515ZM19.345 19.0833C19.345 19.0783 19.3455 19.0757 19.3456 19.0751C19.3457 19.0744 19.3458 19.0745 19.3455 19.0752C19.3449 19.0766 19.3439 19.0782 19.3422 19.0799C19.3406 19.0816 19.3378 19.0837 19.3338 19.0854C19.3318 19.0862 19.3302 19.0867 19.3294 19.0868C19.3285 19.087 19.3296 19.0867 19.3333 19.0867V15.7467C17.4751 15.7467 16.005 17.247 16.005 19.0833H19.345ZM19.3333 19.0867H22.6667V15.7467H19.3333V19.0867ZM24.3367 17.4167V15.75H20.9967V17.4167H24.3367ZM24.3367 15.75C24.3367 15.7462 24.337 15.7448 24.337 15.745C24.3369 15.7452 24.3367 15.746 24.3363 15.747C24.3355 15.749 24.3345 15.7501 24.334 15.7507C24.3334 15.7512 24.3323 15.7521 24.3303 15.753C24.3293 15.7534 24.3285 15.7536 24.3284 15.7536C24.3281 15.7537 24.3296 15.7533 24.3333 15.7533V12.4133C22.486 12.4133 20.9967 13.9027 20.9967 15.75H24.3367ZM24.3333 15.7533H27.6667V12.4133H24.3333V15.7533ZM27.6667 15.7533C27.6704 15.7533 27.6719 15.7537 27.6716 15.7536C27.6714 15.7536 27.6707 15.7534 27.6697 15.753C27.6677 15.7521 27.6665 15.7512 27.666 15.7507C27.6654 15.7501 27.6645 15.749 27.6637 15.747C27.6633 15.746 27.6631 15.7452 27.663 15.745C27.663 15.7448 27.6633 15.7462 27.6633 15.75H31.0033C31.0033 13.9027 29.514 12.4133 27.6667 12.4133V15.7533ZM27.6633 15.75V17.4167H31.0033V15.75H27.6633ZM29.3333 19.0867H32.6667V15.7467H29.3333V19.0867Z" fill="#175CD3" mask="url(#path-3-inside-1_1159_6010)"/>
<path d="M56.912 16.88V28H55.088V20.384L51.696 28H50.432L47.024 20.384V28H45.2V16.88H47.168L51.072 25.6L54.96 16.88H56.912ZM67.2454 19.184L61.8374 32.144H59.9494L61.7414 27.856L58.2694 19.184H60.3014L62.7814 25.904L65.3574 19.184H67.2454ZM78.5541 28L75.9941 23.552H74.6021V28H72.7781V16.88H76.6181C77.4715 16.88 78.1915 17.0293 78.7781 17.328C79.3755 17.6267 79.8181 18.0267 80.1061 18.528C80.4048 19.0293 80.5541 19.5893 80.5541 20.208C80.5541 20.9333 80.3408 21.5947 79.9141 22.192C79.4981 22.7787 78.8528 23.1787 77.9781 23.392L80.7301 28H78.5541ZM74.6021 22.096H76.6181C77.3008 22.096 77.8128 21.9253 78.1541 21.584C78.5061 21.2427 78.6821 20.784 78.6821 20.208C78.6821 19.632 78.5115 19.184 78.1701 18.864C77.8288 18.5333 77.3115 18.368 76.6181 18.368H74.6021V22.096ZM90.9675 23.376C90.9675 23.7067 90.9462 24.0053 90.9035 24.272H84.1675C84.2208 24.976 84.4822 25.5413 84.9515 25.968C85.4208 26.3947 85.9968 26.608 86.6795 26.608C87.6608 26.608 88.3542 26.1973 88.7595 25.376H90.7275C90.4608 26.1867 89.9755 26.8533 89.2715 27.376C88.5782 27.888 87.7142 28.144 86.6795 28.144C85.8368 28.144 85.0795 27.9573 84.4075 27.584C83.7462 27.2 83.2235 26.6667 82.8395 25.984C82.4662 25.2907 82.2795 24.4907 82.2795 23.584C82.2795 22.6773 82.4608 21.8827 82.8235 21.2C83.1968 20.5067 83.7142 19.9733 84.3755 19.6C85.0475 19.2267 85.8155 19.04 86.6795 19.04C87.5115 19.04 88.2528 19.2213 88.9035 19.584C89.5542 19.9467 90.0608 20.4587 90.4235 21.12C90.7862 21.7707 90.9675 22.5227 90.9675 23.376ZM89.0635 22.8C89.0528 22.128 88.8128 21.5893 88.3435 21.184C87.8742 20.7787 87.2928 20.576 86.5995 20.576C85.9702 20.576 85.4315 20.7787 84.9835 21.184C84.5355 21.5787 84.2688 22.1173 84.1835 22.8H89.0635ZM92.1545 23.552C92.1545 22.6667 92.3358 21.8827 92.6985 21.2C93.0718 20.5173 93.5732 19.9893 94.2025 19.616C94.8425 19.232 95.5518 19.04 96.3305 19.04C97.0132 19.04 97.6158 19.1787 98.1385 19.456C98.6718 19.7333 99.0825 20.0693 99.3705 20.464V19.184H101.211V32.192H99.3705V26.72C99.0825 27.1147 98.6665 27.4507 98.1225 27.728C97.5785 28.0053 96.9598 28.144 96.2665 28.144C95.5092 28.144 94.8158 27.952 94.1865 27.568C93.5678 27.1733 93.0718 26.6293 92.6985 25.936C92.3358 25.232 92.1545 24.4373 92.1545 23.552ZM99.3705 23.584C99.3705 22.976 99.2425 22.448 98.9865 22C98.7412 21.552 98.4158 21.2107 98.0105 20.976C97.6052 20.7413 97.1678 20.624 96.6985 20.624C96.2292 20.624 95.7918 20.7413 95.3865 20.976C94.9812 21.2 94.6505 21.536 94.3945 21.984C94.1492 22.4213 94.0265 22.944 94.0265 23.552C94.0265 24.16 94.1492 24.6933 94.3945 25.152C94.6505 25.6107 94.9812 25.9627 95.3865 26.208C95.8025 26.4427 96.2398 26.56 96.6985 26.56C97.1678 26.56 97.6052 26.4427 98.0105 26.208C98.4158 25.9733 98.7412 25.632 98.9865 25.184C99.2425 24.7253 99.3705 24.192 99.3705 23.584ZM111.59 19.184V28H109.766V26.96C109.478 27.3227 109.1 27.6107 108.63 27.824C108.172 28.0267 107.681 28.128 107.158 28.128C106.465 28.128 105.841 27.984 105.286 27.696C104.742 27.408 104.31 26.9813 103.99 26.416C103.681 25.8507 103.526 25.168 103.526 24.368V19.184H105.334V24.096C105.334 24.8853 105.532 25.4933 105.926 25.92C106.321 26.336 106.86 26.544 107.542 26.544C108.225 26.544 108.764 26.336 109.158 25.92C109.564 25.4933 109.766 24.8853 109.766 24.096V19.184H111.59ZM122.077 23.376C122.077 23.7067 122.056 24.0053 122.013 24.272H115.277C115.33 24.976 115.592 25.5413 116.061 25.968C116.53 26.3947 117.106 26.608 117.789 26.608C118.77 26.608 119.464 26.1973 119.869 25.376H121.837C121.57 26.1867 121.085 26.8533 120.381 27.376C119.688 27.888 118.824 28.144 117.789 28.144C116.946 28.144 116.189 27.9573 115.517 27.584C114.856 27.2 114.333 26.6667 113.949 25.984C113.576 25.2907 113.389 24.4907 113.389 23.584C113.389 22.6773 113.57 21.8827 113.933 21.2C114.306 20.5067 114.824 19.9733 115.485 19.6C116.157 19.2267 116.925 19.04 117.789 19.04C118.621 19.04 119.362 19.2213 120.013 19.584C120.664 19.9467 121.17 20.4587 121.533 21.12C121.896 21.7707 122.077 22.5227 122.077 23.376ZM120.173 22.8C120.162 22.128 119.922 21.5893 119.453 21.184C118.984 20.7787 118.402 20.576 117.709 20.576C117.08 20.576 116.541 20.7787 116.093 21.184C115.645 21.5787 115.378 22.1173 115.293 22.8H120.173ZM127.072 28.144C126.379 28.144 125.755 28.0213 125.2 27.776C124.656 27.52 124.224 27.1787 123.904 26.752C123.584 26.3147 123.413 25.8293 123.392 25.296H125.28C125.312 25.6693 125.488 25.984 125.808 26.24C126.139 26.4853 126.549 26.608 127.04 26.608C127.552 26.608 127.947 26.512 128.224 26.32C128.512 26.1173 128.656 25.8613 128.656 25.552C128.656 25.2213 128.496 24.976 128.176 24.816C127.867 24.656 127.371 24.48 126.688 24.288C126.027 24.1067 125.488 23.9307 125.072 23.76C124.656 23.5893 124.293 23.328 123.984 22.976C123.685 22.624 123.536 22.16 123.536 21.584C123.536 21.1147 123.675 20.688 123.952 20.304C124.229 19.9093 124.624 19.6 125.136 19.376C125.659 19.152 126.256 19.04 126.928 19.04C127.931 19.04 128.736 19.296 129.344 19.808C129.963 20.3093 130.293 20.9973 130.336 21.872H128.512C128.48 21.4773 128.32 21.1627 128.032 20.928C127.744 20.6933 127.355 20.576 126.864 20.576C126.384 20.576 126.016 20.6667 125.76 20.848C125.504 21.0293 125.376 21.2693 125.376 21.568C125.376 21.8027 125.461 22 125.632 22.16C125.803 22.32 126.011 22.448 126.256 22.544C126.501 22.6293 126.864 22.7413 127.344 22.88C127.984 23.0507 128.507 23.2267 128.912 23.408C129.328 23.5787 129.685 23.8347 129.984 24.176C130.283 24.5173 130.437 24.9707 130.448 25.536C130.448 26.0373 130.309 26.4853 130.032 26.88C129.755 27.2747 129.36 27.584 128.848 27.808C128.347 28.032 127.755 28.144 127.072 28.144ZM134.547 20.672V25.552C134.547 25.8827 134.621 26.1227 134.771 26.272C134.931 26.4107 135.197 26.48 135.571 26.48H136.691V28H135.251C134.429 28 133.8 27.808 133.363 27.424C132.925 27.04 132.707 26.416 132.707 25.552V20.672H131.667V19.184H132.707V16.992H134.547V19.184H136.691V20.672H134.547ZM141.572 28.144C140.879 28.144 140.255 28.0213 139.7 27.776C139.156 27.52 138.724 27.1787 138.404 26.752C138.084 26.3147 137.913 25.8293 137.892 25.296H139.78C139.812 25.6693 139.988 25.984 140.308 26.24C140.639 26.4853 141.049 26.608 141.54 26.608C142.052 26.608 142.447 26.512 142.724 26.32C143.012 26.1173 143.156 25.8613 143.156 25.552C143.156 25.2213 142.996 24.976 142.676 24.816C142.367 24.656 141.871 24.48 141.188 24.288C140.527 24.1067 139.988 23.9307 139.572 23.76C139.156 23.5893 138.793 23.328 138.484 22.976C138.185 22.624 138.036 22.16 138.036 21.584C138.036 21.1147 138.175 20.688 138.452 20.304C138.729 19.9093 139.124 19.6 139.636 19.376C140.159 19.152 140.756 19.04 141.428 19.04C142.431 19.04 143.236 19.296 143.844 19.808C144.463 20.3093 144.793 20.9973 144.836 21.872H143.012C142.98 21.4773 142.82 21.1627 142.532 20.928C142.244 20.6933 141.855 20.576 141.364 20.576C140.884 20.576 140.516 20.6667 140.26 20.848C140.004 21.0293 139.876 21.2693 139.876 21.568C139.876 21.8027 139.961 22 140.132 22.16C140.303 22.32 140.511 22.448 140.756 22.544C141.001 22.6293 141.364 22.7413 141.844 22.88C142.484 23.0507 143.007 23.2267 143.412 23.408C143.828 23.5787 144.185 23.8347 144.484 24.176C144.783 24.5173 144.937 24.9707 144.948 25.536C144.948 26.0373 144.809 26.4853 144.532 26.88C144.255 27.2747 143.86 27.584 143.348 27.808C142.847 28.032 142.255 28.144 141.572 28.144Z" fill="#1849A9"/>
</svg>
