<svg width="40" height="40" viewBox="0 0 40 40" fill="none" xmlns="http://www.w3.org/2000/svg">
<rect x="0.5" y="0.5" width="39" height="39" rx="7.5" fill="#1570EF"/>
<rect x="0.5" y="0.5" width="39" height="39" rx="7.5" stroke="#1570EF"/>
<mask id="path-3-inside-1_1159_6036" fill="white">
<path d="M15.3417 15L14.1667 16.175L17.9834 20L14.1667 23.825L15.3417 25L20.3417 20L15.3417 15Z"/>
<path d="M20.8334 15L19.6584 16.175L23.475 20L19.6584 23.825L20.8334 25L25.8334 20L20.8334 15Z"/>
</mask>
<path d="M15.3417 15L16.5226 13.8191C15.8704 13.167 14.813 13.167 14.1608 13.8191L15.3417 15ZM14.1667 16.175L12.9858 14.9941C12.3341 15.6458 12.3336 16.7022 12.9845 17.3546L14.1667 16.175ZM17.9834 20L19.1655 21.1796C19.816 20.5277 19.816 19.4723 19.1655 18.8204L17.9834 20ZM14.1667 23.825L12.9845 22.6454C12.3336 23.2978 12.3341 24.3542 12.9858 25.0059L14.1667 23.825ZM15.3417 25L14.1608 26.1809C14.813 26.833 15.8704 26.833 16.5226 26.1809L15.3417 25ZM20.3417 20L21.5226 21.1809C22.1747 20.5287 22.1747 19.4713 21.5226 18.8191L20.3417 20ZM20.8334 15L22.0142 13.8191C21.362 13.167 20.3047 13.167 19.6525 13.8191L20.8334 15ZM19.6584 16.175L18.4775 14.9941C17.8258 15.6458 17.8252 16.7022 18.4762 17.3546L19.6584 16.175ZM23.475 20L24.6572 21.1796C25.3076 20.5277 25.3076 19.4723 24.6572 18.8204L23.475 20ZM19.6584 23.825L18.4762 22.6454C17.8252 23.2978 17.8258 24.3542 18.4775 25.0059L19.6584 23.825ZM20.8334 25L19.6525 26.1809C20.3047 26.833 21.362 26.833 22.0142 26.1809L20.8334 25ZM25.8334 20L27.0142 21.1809C27.6664 20.5287 27.6664 19.4713 27.0142 18.8191L25.8334 20ZM14.1608 13.8191L12.9858 14.9941L15.3476 17.3559L16.5226 16.1809L14.1608 13.8191ZM12.9845 17.3546L16.8012 21.1796L19.1655 18.8204L15.3488 14.9954L12.9845 17.3546ZM16.8012 18.8204L12.9845 22.6454L15.3488 25.0046L19.1655 21.1796L16.8012 18.8204ZM12.9858 25.0059L14.1608 26.1809L16.5226 23.8191L15.3476 22.6441L12.9858 25.0059ZM16.5226 26.1809L21.5226 21.1809L19.1608 18.8191L14.1608 23.8191L16.5226 26.1809ZM21.5226 18.8191L16.5226 13.8191L14.1608 16.1809L19.1608 21.1809L21.5226 18.8191ZM19.6525 13.8191L18.4775 14.9941L20.8392 17.3559L22.0142 16.1809L19.6525 13.8191ZM18.4762 17.3546L22.2929 21.1796L24.6572 18.8204L20.8405 14.9954L18.4762 17.3546ZM22.2929 18.8204L18.4762 22.6454L20.8405 25.0046L24.6572 21.1796L22.2929 18.8204ZM18.4775 25.0059L19.6525 26.1809L22.0142 23.8191L20.8392 22.6441L18.4775 25.0059ZM22.0142 26.1809L27.0142 21.1809L24.6525 18.8191L19.6525 23.8191L22.0142 26.1809ZM27.0142 18.8191L22.0142 13.8191L19.6525 16.1809L24.6525 21.1809L27.0142 18.8191Z" fill="white" mask="url(#path-3-inside-1_1159_6036)"/>
</svg>
