<svg width="71" height="44" viewBox="0 0 71 44" fill="none" xmlns="http://www.w3.org/2000/svg">
<g filter="url(#filter0_d_1159_6063)">
<rect x="2" y="1" width="67" height="40" rx="8" fill="#344054"/>
<rect x="2.5" y="1.5" width="66" height="39" rx="7.5" stroke="#344054"/>
<path d="M22.256 26.098C21.6027 26.098 21.0147 25.986 20.492 25.762C19.9693 25.5287 19.5587 25.202 19.26 24.782C18.9613 24.362 18.812 23.872 18.812 23.312H20.52C20.5573 23.732 20.7207 24.0773 21.01 24.348C21.3087 24.6187 21.724 24.754 22.256 24.754C22.8067 24.754 23.236 24.6233 23.544 24.362C23.852 24.0913 24.006 23.746 24.006 23.326C24.006 22.9993 23.908 22.7333 23.712 22.528C23.5253 22.3227 23.2873 22.164 22.998 22.052C22.718 21.94 22.326 21.8187 21.822 21.688C21.1873 21.52 20.6693 21.352 20.268 21.184C19.876 21.0067 19.54 20.736 19.26 20.372C18.98 20.008 18.84 19.5227 18.84 18.916C18.84 18.356 18.98 17.866 19.26 17.446C19.54 17.026 19.932 16.704 20.436 16.48C20.94 16.256 21.5233 16.144 22.186 16.144C23.1287 16.144 23.8987 16.382 24.496 16.858C25.1027 17.3247 25.4387 17.9687 25.504 18.79H23.74C23.712 18.4353 23.544 18.132 23.236 17.88C22.928 17.628 22.522 17.502 22.018 17.502C21.5607 17.502 21.1873 17.6187 20.898 17.852C20.6087 18.0853 20.464 18.4213 20.464 18.86C20.464 19.1587 20.5527 19.406 20.73 19.602C20.9167 19.7887 21.15 19.938 21.43 20.05C21.71 20.162 22.0927 20.2833 22.578 20.414C23.222 20.5913 23.7447 20.7687 24.146 20.946C24.5567 21.1233 24.902 21.3987 25.182 21.772C25.4713 22.136 25.616 22.626 25.616 23.242C25.616 23.7367 25.4807 24.2033 25.21 24.642C24.9487 25.0807 24.5613 25.4353 24.048 25.706C23.544 25.9673 22.9467 26.098 22.256 26.098ZM26.9672 22.108C26.9672 21.3333 27.1259 20.6473 27.4432 20.05C27.7699 19.4527 28.2086 18.9907 28.7592 18.664C29.3192 18.328 29.9352 18.16 30.6072 18.16C31.2139 18.16 31.7412 18.2813 32.1892 18.524C32.6466 18.7573 33.0106 19.0513 33.2812 19.406V18.286H34.8912V26H33.2812V24.852C33.0106 25.216 32.6419 25.5193 32.1752 25.762C31.7086 26.0047 31.1766 26.126 30.5792 26.126C29.9166 26.126 29.3099 25.958 28.7592 25.622C28.2086 25.2767 27.7699 24.8007 27.4432 24.194C27.1259 23.578 26.9672 22.8827 26.9672 22.108ZM33.2812 22.136C33.2812 21.604 33.1692 21.142 32.9452 20.75C32.7306 20.358 32.4459 20.0593 32.0912 19.854C31.7366 19.6487 31.3539 19.546 30.9432 19.546C30.5326 19.546 30.1499 19.6487 29.7952 19.854C29.4406 20.05 29.1512 20.344 28.9272 20.736C28.7126 21.1187 28.6052 21.576 28.6052 22.108C28.6052 22.64 28.7126 23.1067 28.9272 23.508C29.1512 23.9093 29.4406 24.2173 29.7952 24.432C30.1592 24.6373 30.5419 24.74 30.9432 24.74C31.3539 24.74 31.7366 24.6373 32.0912 24.432C32.4459 24.2267 32.7306 23.928 32.9452 23.536C33.1692 23.1347 33.2812 22.668 33.2812 22.136ZM39.9695 24.572L42.1535 18.286H43.8475L40.9075 26H39.0035L36.0775 18.286H37.7855L39.9695 24.572ZM52.1239 21.954C52.1239 22.2433 52.1052 22.5047 52.0679 22.738H46.1739C46.2206 23.354 46.4492 23.8487 46.8599 24.222C47.2706 24.5953 47.7746 24.782 48.3719 24.782C49.2306 24.782 49.8372 24.4227 50.1919 23.704H51.9139C51.6806 24.4133 51.2559 24.9967 50.6399 25.454C50.0332 25.902 49.2772 26.126 48.3719 26.126C47.6346 26.126 46.9719 25.9627 46.3839 25.636C45.8052 25.3 45.3479 24.8333 45.0119 24.236C44.6852 23.6293 44.5219 22.9293 44.5219 22.136C44.5219 21.3427 44.6806 20.6473 44.9979 20.05C45.3246 19.4433 45.7772 18.9767 46.3559 18.65C46.9439 18.3233 47.6159 18.16 48.3719 18.16C49.0999 18.16 49.7486 18.3187 50.3179 18.636C50.8872 18.9533 51.3306 19.4013 51.6479 19.98C51.9652 20.5493 52.1239 21.2073 52.1239 21.954ZM50.4579 21.45C50.4486 20.862 50.2386 20.3907 49.8279 20.036C49.4172 19.6813 48.9086 19.504 48.3019 19.504C47.7512 19.504 47.2799 19.6813 46.8879 20.036C46.4959 20.3813 46.2626 20.8527 46.1879 21.45H50.4579Z" fill="white"/>
</g>
<defs>
<filter id="filter0_d_1159_6063" x="0" y="0" width="71" height="44" filterUnits="userSpaceOnUse" color-interpolation-filters="sRGB">
<feFlood flood-opacity="0" result="BackgroundImageFix"/>
<feColorMatrix in="SourceAlpha" type="matrix" values="0 0 0 0 0 0 0 0 0 0 0 0 0 0 0 0 0 0 127 0" result="hardAlpha"/>
<feOffset dy="1"/>
<feGaussianBlur stdDeviation="1"/>
<feColorMatrix type="matrix" values="0 0 0 0 0.0627451 0 0 0 0 0.0941176 0 0 0 0 0.156863 0 0 0 0.05 0"/>
<feBlend mode="normal" in2="BackgroundImageFix" result="effect1_dropShadow_1159_6063"/>
<feBlend mode="normal" in="SourceGraphic" in2="effect1_dropShadow_1159_6063" result="shape"/>
</filter>
</defs>
</svg>
