<svg width="59" height="22" viewBox="0 0 59 22" fill="none" xmlns="http://www.w3.org/2000/svg">
<g style="mix-blend-mode:multiply">
<rect width="59" height="22" rx="10" fill="#FEF3F2"/>
<path d="M11.9189 6.66C12.8069 6.66 13.5829 6.832 14.2469 7.176C14.9189 7.512 15.4349 8 15.7949 8.64C16.1629 9.272 16.3469 10.012 16.3469 10.86C16.3469 11.708 16.1629 12.444 15.7949 13.068C15.4349 13.692 14.9189 14.172 14.2469 14.508C13.5829 14.836 12.8069 15 11.9189 15H9.19492V6.66H11.9189ZM11.9189 13.884C12.8949 13.884 13.6429 13.62 14.1629 13.092C14.6829 12.564 14.9429 11.82 14.9429 10.86C14.9429 9.892 14.6829 9.136 14.1629 8.592C13.6429 8.048 12.8949 7.776 11.9189 7.776H10.5629V13.884H11.9189ZM23.7627 11.532C23.7627 11.78 23.7467 12.004 23.7147 12.204H18.6627C18.7027 12.732 18.8987 13.156 19.2507 13.476C19.6027 13.796 20.0347 13.956 20.5467 13.956C21.2827 13.956 21.8027 13.648 22.1067 13.032H23.5827C23.3827 13.64 23.0187 14.14 22.4907 14.532C21.9707 14.916 21.3227 15.108 20.5467 15.108C19.9147 15.108 19.3467 14.968 18.8427 14.688C18.3467 14.4 17.9547 14 17.6667 13.488C17.3867 12.968 17.2467 12.368 17.2467 11.688C17.2467 11.008 17.3827 10.412 17.6547 9.9C17.9347 9.38 18.3227 8.98 18.8187 8.7C19.3227 8.42 19.8987 8.28 20.5467 8.28C21.1707 8.28 21.7267 8.416 22.2147 8.688C22.7027 8.96 23.0827 9.344 23.3547 9.84C23.6267 10.328 23.7627 10.892 23.7627 11.532ZM22.3347 11.1C22.3267 10.596 22.1467 10.192 21.7947 9.888C21.4427 9.584 21.0067 9.432 20.4867 9.432C20.0147 9.432 19.6107 9.584 19.2747 9.888C18.9387 10.184 18.7387 10.588 18.6747 11.1H22.3347ZM28.445 8.28C28.965 8.28 29.429 8.388 29.837 8.604C30.253 8.82 30.577 9.14 30.809 9.564C31.041 9.988 31.157 10.5 31.157 11.1V15H29.801V11.304C29.801 10.712 29.653 10.26 29.357 9.948C29.061 9.628 28.657 9.468 28.145 9.468C27.633 9.468 27.225 9.628 26.921 9.948C26.625 10.26 26.477 10.712 26.477 11.304V15H25.109V8.388H26.477V9.144C26.701 8.872 26.985 8.66 27.329 8.508C27.681 8.356 28.053 8.28 28.445 8.28ZM33.598 7.512C33.35 7.512 33.142 7.428 32.974 7.26C32.806 7.092 32.722 6.884 32.722 6.636C32.722 6.388 32.806 6.18 32.974 6.012C33.142 5.844 33.35 5.76 33.598 5.76C33.838 5.76 34.042 5.844 34.21 6.012C34.378 6.18 34.462 6.388 34.462 6.636C34.462 6.884 34.378 7.092 34.21 7.26C34.042 7.428 33.838 7.512 33.598 7.512ZM34.27 8.388V15H32.902V8.388H34.27ZM42.126 11.532C42.126 11.78 42.11 12.004 42.078 12.204H37.026C37.066 12.732 37.262 13.156 37.614 13.476C37.966 13.796 38.398 13.956 38.91 13.956C39.646 13.956 40.166 13.648 40.47 13.032H41.946C41.746 13.64 41.382 14.14 40.854 14.532C40.334 14.916 39.686 15.108 38.91 15.108C38.278 15.108 37.71 14.968 37.206 14.688C36.71 14.4 36.318 14 36.03 13.488C35.75 12.968 35.61 12.368 35.61 11.688C35.61 11.008 35.746 10.412 36.018 9.9C36.298 9.38 36.686 8.98 37.182 8.7C37.686 8.42 38.262 8.28 38.91 8.28C39.534 8.28 40.09 8.416 40.578 8.688C41.066 8.96 41.446 9.344 41.718 9.84C41.99 10.328 42.126 10.892 42.126 11.532ZM40.698 11.1C40.69 10.596 40.51 10.192 40.158 9.888C39.806 9.584 39.37 9.432 38.85 9.432C38.378 9.432 37.974 9.584 37.638 9.888C37.302 10.184 37.102 10.588 37.038 11.1H40.698ZM43.0163 11.664C43.0163 11 43.1523 10.412 43.4243 9.9C43.7043 9.388 44.0803 8.992 44.5523 8.712C45.0323 8.424 45.5643 8.28 46.1483 8.28C46.5803 8.28 47.0043 8.376 47.4203 8.568C47.8443 8.752 48.1803 9 48.4283 9.312V6.12H49.8083V15H48.4283V14.004C48.2043 14.324 47.8923 14.588 47.4923 14.796C47.1003 15.004 46.6483 15.108 46.1363 15.108C45.5603 15.108 45.0323 14.964 44.5523 14.676C44.0803 14.38 43.7043 13.972 43.4243 13.452C43.1523 12.924 43.0163 12.328 43.0163 11.664ZM48.4283 11.688C48.4283 11.232 48.3323 10.836 48.1403 10.5C47.9563 10.164 47.7123 9.908 47.4083 9.732C47.1043 9.556 46.7763 9.468 46.4243 9.468C46.0723 9.468 45.7443 9.556 45.4403 9.732C45.1363 9.9 44.8883 10.152 44.6963 10.488C44.5123 10.816 44.4203 11.208 44.4203 11.664C44.4203 12.12 44.5123 12.52 44.6963 12.864C44.8883 13.208 45.1363 13.472 45.4403 13.656C45.7523 13.832 46.0803 13.92 46.4243 13.92C46.7763 13.92 47.1043 13.832 47.4083 13.656C47.7123 13.48 47.9563 13.224 48.1403 12.888C48.3323 12.544 48.4283 12.144 48.4283 11.688Z" fill="#B42318"/>
</g>
</svg>
