<svg width="66" height="22" viewBox="0 0 66 22" fill="none" xmlns="http://www.w3.org/2000/svg">
<g style="mix-blend-mode:multiply">
<rect width="66" height="22" rx="10" fill="#EFF8FF"/>
<path d="M14.9527 9.144C14.9527 9.568 14.8527 9.968 14.6527 10.344C14.4527 10.72 14.1327 11.028 13.6927 11.268C13.2527 11.5 12.6887 11.616 12.0007 11.616H10.4887V15H9.1207V6.66H12.0007C12.6407 6.66 13.1807 6.772 13.6207 6.996C14.0687 7.212 14.4007 7.508 14.6167 7.884C14.8407 8.26 14.9527 8.68 14.9527 9.144ZM12.0007 10.5C12.5207 10.5 12.9087 10.384 13.1647 10.152C13.4207 9.912 13.5487 9.576 13.5487 9.144C13.5487 8.232 13.0327 7.776 12.0007 7.776H10.4887V10.5H12.0007ZM22.3174 11.532C22.3174 11.78 22.3014 12.004 22.2694 12.204H17.2174C17.2574 12.732 17.4534 13.156 17.8054 13.476C18.1574 13.796 18.5894 13.956 19.1014 13.956C19.8374 13.956 20.3574 13.648 20.6614 13.032H22.1374C21.9374 13.64 21.5734 14.14 21.0454 14.532C20.5254 14.916 19.8774 15.108 19.1014 15.108C18.4694 15.108 17.9014 14.968 17.3974 14.688C16.9014 14.4 16.5094 14 16.2214 13.488C15.9414 12.968 15.8014 12.368 15.8014 11.688C15.8014 11.008 15.9374 10.412 16.2094 9.9C16.4894 9.38 16.8774 8.98 17.3734 8.7C17.8774 8.42 18.4534 8.28 19.1014 8.28C19.7254 8.28 20.2814 8.416 20.7694 8.688C21.2574 8.96 21.6374 9.344 21.9094 9.84C22.1814 10.328 22.3174 10.892 22.3174 11.532ZM20.8894 11.1C20.8814 10.596 20.7014 10.192 20.3494 9.888C19.9974 9.584 19.5614 9.432 19.0414 9.432C18.5694 9.432 18.1654 9.584 17.8294 9.888C17.4934 10.184 17.2934 10.588 17.2294 11.1H20.8894ZM26.9997 8.28C27.5197 8.28 27.9837 8.388 28.3917 8.604C28.8077 8.82 29.1317 9.14 29.3637 9.564C29.5957 9.988 29.7117 10.5 29.7117 11.1V15H28.3557V11.304C28.3557 10.712 28.2077 10.26 27.9117 9.948C27.6157 9.628 27.2117 9.468 26.6997 9.468C26.1877 9.468 25.7797 9.628 25.4757 9.948C25.1797 10.26 25.0317 10.712 25.0317 11.304V15H23.6637V8.388H25.0317V9.144C25.2557 8.872 25.5397 8.66 25.8837 8.508C26.2357 8.356 26.6077 8.28 26.9997 8.28ZM31.0006 11.664C31.0006 11 31.1366 10.412 31.4086 9.9C31.6886 9.388 32.0646 8.992 32.5366 8.712C33.0166 8.424 33.5486 8.28 34.1326 8.28C34.5646 8.28 34.9886 8.376 35.4046 8.568C35.8286 8.752 36.1646 9 36.4126 9.312V6.12H37.7926V15H36.4126V14.004C36.1886 14.324 35.8766 14.588 35.4766 14.796C35.0846 15.004 34.6326 15.108 34.1206 15.108C33.5446 15.108 33.0166 14.964 32.5366 14.676C32.0646 14.38 31.6886 13.972 31.4086 13.452C31.1366 12.924 31.0006 12.328 31.0006 11.664ZM36.4126 11.688C36.4126 11.232 36.3166 10.836 36.1246 10.5C35.9406 10.164 35.6966 9.908 35.3926 9.732C35.0886 9.556 34.7606 9.468 34.4086 9.468C34.0566 9.468 33.7286 9.556 33.4246 9.732C33.1206 9.9 32.8726 10.152 32.6806 10.488C32.4966 10.816 32.4046 11.208 32.4046 11.664C32.4046 12.12 32.4966 12.52 32.6806 12.864C32.8726 13.208 33.1206 13.472 33.4246 13.656C33.7366 13.832 34.0646 13.92 34.4086 13.92C34.7606 13.92 35.0886 13.832 35.3926 13.656C35.6966 13.48 35.9406 13.224 36.1246 12.888C36.3166 12.544 36.4126 12.144 36.4126 11.688ZM40.2855 7.512C40.0375 7.512 39.8295 7.428 39.6615 7.26C39.4935 7.092 39.4095 6.884 39.4095 6.636C39.4095 6.388 39.4935 6.18 39.6615 6.012C39.8295 5.844 40.0375 5.76 40.2855 5.76C40.5255 5.76 40.7295 5.844 40.8975 6.012C41.0655 6.18 41.1495 6.388 41.1495 6.636C41.1495 6.884 41.0655 7.092 40.8975 7.26C40.7295 7.428 40.5255 7.512 40.2855 7.512ZM40.9575 8.388V15H39.5895V8.388H40.9575ZM46.0895 8.28C46.6095 8.28 47.0735 8.388 47.4815 8.604C47.8975 8.82 48.2215 9.14 48.4535 9.564C48.6855 9.988 48.8015 10.5 48.8015 11.1V15H47.4455V11.304C47.4455 10.712 47.2975 10.26 47.0015 9.948C46.7055 9.628 46.3015 9.468 45.7895 9.468C45.2775 9.468 44.8695 9.628 44.5655 9.948C44.2695 10.26 44.1215 10.712 44.1215 11.304V15H42.7535V8.388H44.1215V9.144C44.3455 8.872 44.6295 8.66 44.9735 8.508C45.3255 8.356 45.6975 8.28 46.0895 8.28ZM53.2105 8.28C53.7225 8.28 54.1745 8.384 54.5665 8.592C54.9665 8.792 55.2785 9.044 55.5025 9.348V8.388H56.8825V15.108C56.8825 15.716 56.7545 16.256 56.4985 16.728C56.2425 17.208 55.8705 17.584 55.3825 17.856C54.9025 18.128 54.3265 18.264 53.6545 18.264C52.7585 18.264 52.0145 18.052 51.4225 17.628C50.8305 17.212 50.4945 16.644 50.4145 15.924H51.7705C51.8745 16.268 52.0945 16.544 52.4305 16.752C52.7745 16.968 53.1825 17.076 53.6545 17.076C54.2065 17.076 54.6505 16.908 54.9865 16.572C55.3305 16.236 55.5025 15.748 55.5025 15.108V14.004C55.2705 14.316 54.9545 14.58 54.5545 14.796C54.1625 15.004 53.7145 15.108 53.2105 15.108C52.6345 15.108 52.1065 14.964 51.6265 14.676C51.1545 14.38 50.7785 13.972 50.4985 13.452C50.2265 12.924 50.0905 12.328 50.0905 11.664C50.0905 11 50.2265 10.412 50.4985 9.9C50.7785 9.388 51.1545 8.992 51.6265 8.712C52.1065 8.424 52.6345 8.28 53.2105 8.28ZM55.5025 11.688C55.5025 11.232 55.4065 10.836 55.2145 10.5C55.0305 10.164 54.7865 9.908 54.4825 9.732C54.1785 9.556 53.8505 9.468 53.4985 9.468C53.1465 9.468 52.8185 9.556 52.5145 9.732C52.2105 9.9 51.9625 10.152 51.7705 10.488C51.5865 10.816 51.4945 11.208 51.4945 11.664C51.4945 12.12 51.5865 12.52 51.7705 12.864C51.9625 13.208 52.2105 13.472 52.5145 13.656C52.8265 13.832 53.1545 13.92 53.4985 13.92C53.8505 13.92 54.1785 13.832 54.4825 13.656C54.7865 13.48 55.0305 13.224 55.2145 12.888C55.4065 12.544 55.5025 12.144 55.5025 11.688Z" fill="#175CD3"/>
</g>
</svg>
