<svg width="77" height="24" viewBox="0 0 77 24" fill="none" xmlns="http://www.w3.org/2000/svg">
<rect x="0.75" y="0.75" width="75.5" height="22.5" rx="11.25" stroke="#039855" stroke-width="1.5"/>
<path d="M12.5307 8.278V11.54H16.0867V12.59H12.5307V15.95H16.5067V17H11.2567V7.228H16.5067V8.278H12.5307ZM22.1724 9.188C23.1058 9.188 23.8618 9.47267 24.4404 10.042C25.0191 10.602 25.3084 11.414 25.3084 12.478V17H24.0484V12.66C24.0484 11.8947 23.8571 11.3113 23.4744 10.91C23.0918 10.4993 22.5691 10.294 21.9064 10.294C21.2344 10.294 20.6978 10.504 20.2964 10.924C19.9044 11.344 19.7084 11.9553 19.7084 12.758V17H18.4344V9.328H19.7084V10.42C19.9604 10.028 20.3011 9.72467 20.7304 9.51C21.1691 9.29533 21.6498 9.188 22.1724 9.188ZM26.9135 13.136C26.9135 12.352 27.0722 11.666 27.3895 11.078C27.7069 10.4807 28.1409 10.0187 28.6915 9.692C29.2515 9.36533 29.8722 9.202 30.5535 9.202C31.2255 9.202 31.8089 9.34667 32.3035 9.636C32.7982 9.92533 33.1669 10.2893 33.4095 10.728V9.328H34.6975V17H33.4095V15.572C33.1575 16.02 32.7795 16.3933 32.2755 16.692C31.7809 16.9813 31.2022 17.126 30.5395 17.126C29.8582 17.126 29.2422 16.958 28.6915 16.622C28.1409 16.286 27.7069 15.8147 27.3895 15.208C27.0722 14.6013 26.9135 13.9107 26.9135 13.136ZM33.4095 13.15C33.4095 12.5713 33.2929 12.0673 33.0595 11.638C32.8262 11.2087 32.5089 10.882 32.1075 10.658C31.7155 10.4247 31.2815 10.308 30.8055 10.308C30.3295 10.308 29.8955 10.42 29.5035 10.644C29.1115 10.868 28.7989 11.1947 28.5655 11.624C28.3322 12.0533 28.2155 12.5573 28.2155 13.136C28.2155 13.724 28.3322 14.2373 28.5655 14.676C28.7989 15.1053 29.1115 15.4367 29.5035 15.67C29.8955 15.894 30.3295 16.006 30.8055 16.006C31.2815 16.006 31.7155 15.894 32.1075 15.67C32.5089 15.4367 32.8262 15.1053 33.0595 14.676C33.2929 14.2373 33.4095 13.7287 33.4095 13.15ZM38.1245 10.756C38.3858 10.2987 38.7685 9.92533 39.2725 9.636C39.7765 9.34667 40.3505 9.202 40.9945 9.202C41.6851 9.202 42.3058 9.36533 42.8565 9.692C43.4071 10.0187 43.8411 10.4807 44.1585 11.078C44.4758 11.666 44.6345 12.352 44.6345 13.136C44.6345 13.9107 44.4758 14.6013 44.1585 15.208C43.8411 15.8147 43.4025 16.286 42.8425 16.622C42.2918 16.958 41.6758 17.126 40.9945 17.126C40.3318 17.126 39.7485 16.9813 39.2445 16.692C38.7498 16.4027 38.3765 16.034 38.1245 15.586V17H36.8505V6.64H38.1245V10.756ZM43.3325 13.136C43.3325 12.5573 43.2158 12.0533 42.9825 11.624C42.7491 11.1947 42.4318 10.868 42.0305 10.644C41.6385 10.42 41.2045 10.308 40.7285 10.308C40.2618 10.308 39.8278 10.4247 39.4265 10.658C39.0345 10.882 38.7171 11.2133 38.4745 11.652C38.2411 12.0813 38.1245 12.5807 38.1245 13.15C38.1245 13.7287 38.2411 14.2373 38.4745 14.676C38.7171 15.1053 39.0345 15.4367 39.4265 15.67C39.8278 15.894 40.2618 16.006 40.7285 16.006C41.2045 16.006 41.6385 15.894 42.0305 15.67C42.4318 15.4367 42.7491 15.1053 42.9825 14.676C43.2158 14.2373 43.3325 13.724 43.3325 13.136ZM47.5854 6.64V17H46.3114V6.64H47.5854ZM56.7567 12.87C56.7567 13.1127 56.7427 13.3693 56.7147 13.64H50.5827C50.6294 14.396 50.886 14.9887 51.3527 15.418C51.8287 15.838 52.4027 16.048 53.0747 16.048C53.6254 16.048 54.0827 15.922 54.4467 15.67C54.82 15.4087 55.0814 15.0633 55.2307 14.634H56.6027C56.3974 15.3713 55.9867 15.9733 55.3707 16.44C54.7547 16.8973 53.9894 17.126 53.0747 17.126C52.3467 17.126 51.6934 16.9627 51.1147 16.636C50.5454 16.3093 50.0974 15.8473 49.7707 15.25C49.444 14.6433 49.2807 13.9433 49.2807 13.15C49.2807 12.3567 49.4394 11.6613 49.7567 11.064C50.074 10.4667 50.5174 10.0093 51.0867 9.692C51.6654 9.36533 52.328 9.202 53.0747 9.202C53.8027 9.202 54.4467 9.36067 55.0067 9.678C55.5667 9.99533 55.996 10.434 56.2947 10.994C56.6027 11.5447 56.7567 12.17 56.7567 12.87ZM55.4407 12.604C55.4407 12.1187 55.3334 11.7033 55.1187 11.358C54.904 11.0033 54.61 10.7373 54.2367 10.56C53.8727 10.3733 53.4667 10.28 53.0187 10.28C52.3747 10.28 51.824 10.4853 51.3667 10.896C50.9187 11.3067 50.662 11.876 50.5967 12.604H55.4407ZM57.9624 13.136C57.9624 12.352 58.121 11.666 58.4384 11.078C58.7557 10.4807 59.1897 10.0187 59.7404 9.692C60.3004 9.36533 60.9257 9.202 61.6164 9.202C62.2137 9.202 62.769 9.342 63.2824 9.622C63.7957 9.89267 64.1877 10.252 64.4584 10.7V6.64H65.7464V17H64.4584V15.558C64.2064 16.0153 63.833 16.3933 63.3384 16.692C62.8437 16.9813 62.265 17.126 61.6024 17.126C60.921 17.126 60.3004 16.958 59.7404 16.622C59.1897 16.286 58.7557 15.8147 58.4384 15.208C58.121 14.6013 57.9624 13.9107 57.9624 13.136ZM64.4584 13.15C64.4584 12.5713 64.3417 12.0673 64.1084 11.638C63.875 11.2087 63.5577 10.882 63.1564 10.658C62.7644 10.4247 62.3304 10.308 61.8544 10.308C61.3784 10.308 60.9444 10.42 60.5524 10.644C60.1604 10.868 59.8477 11.1947 59.6144 11.624C59.381 12.0533 59.2644 12.5573 59.2644 13.136C59.2644 13.724 59.381 14.2373 59.6144 14.676C59.8477 15.1053 60.1604 15.4367 60.5524 15.67C60.9444 15.894 61.3784 16.006 61.8544 16.006C62.3304 16.006 62.7644 15.894 63.1564 15.67C63.5577 15.4367 63.875 15.1053 64.1084 14.676C64.3417 14.2373 64.4584 13.7287 64.4584 13.15Z" fill="#039855"/>
</svg>
