<svg width="82" height="24" viewBox="0 0 82 24" fill="none" xmlns="http://www.w3.org/2000/svg">
<rect x="0.75" y="0.75" width="80.5" height="22.5" rx="11.25" stroke="#E7A63F" stroke-width="1.5"/>
<path d="M14.532 7.242C15.596 7.242 16.5153 7.44267 17.29 7.844C18.074 8.236 18.6713 8.80067 19.082 9.538C19.502 10.2753 19.712 11.1433 19.712 12.142C19.712 13.1407 19.502 14.0087 19.082 14.746C18.6713 15.474 18.074 16.034 17.29 16.426C16.5153 16.8087 15.596 17 14.532 17H11.494V7.242H14.532ZM14.532 15.95C15.792 15.95 16.7533 15.6187 17.416 14.956C18.0787 14.284 18.41 13.346 18.41 12.142C18.41 10.9287 18.074 9.98133 17.402 9.3C16.7393 8.61867 15.7827 8.278 14.532 8.278H12.768V15.95H14.532ZM22.0505 8.082C21.8078 8.082 21.6025 7.998 21.4345 7.83C21.2665 7.662 21.1825 7.45667 21.1825 7.214C21.1825 6.97133 21.2665 6.766 21.4345 6.598C21.6025 6.43 21.8078 6.346 22.0505 6.346C22.2838 6.346 22.4798 6.43 22.6385 6.598C22.8065 6.766 22.8905 6.97133 22.8905 7.214C22.8905 7.45667 22.8065 7.662 22.6385 7.83C22.4798 7.998 22.2838 8.082 22.0505 8.082ZM22.6665 9.328V17H21.3925V9.328H22.6665ZM27.5538 17.126C26.9658 17.126 26.4384 17.028 25.9718 16.832C25.5051 16.6267 25.1364 16.3467 24.8658 15.992C24.5951 15.628 24.4458 15.2127 24.4178 14.746H25.7338C25.7711 15.1287 25.9484 15.4413 26.2658 15.684C26.5924 15.9267 27.0171 16.048 27.5398 16.048C28.0251 16.048 28.4078 15.9407 28.6878 15.726C28.9678 15.5113 29.1078 15.2407 29.1078 14.914C29.1078 14.578 28.9584 14.3307 28.6598 14.172C28.3611 14.004 27.8991 13.8407 27.2738 13.682C26.7044 13.5327 26.2378 13.3833 25.8738 13.234C25.5191 13.0753 25.2111 12.8467 24.9498 12.548C24.6978 12.24 24.5718 11.8387 24.5718 11.344C24.5718 10.952 24.6884 10.5927 24.9218 10.266C25.1551 9.93933 25.4864 9.68267 25.9158 9.496C26.3451 9.3 26.8351 9.202 27.3858 9.202C28.2351 9.202 28.9211 9.41667 29.4438 9.846C29.9664 10.2753 30.2464 10.8633 30.2838 11.61H29.0098C28.9818 11.2087 28.8184 10.8867 28.5198 10.644C28.2304 10.4013 27.8384 10.28 27.3438 10.28C26.8864 10.28 26.5224 10.378 26.2518 10.574C25.9811 10.77 25.8458 11.0267 25.8458 11.344C25.8458 11.596 25.9251 11.806 26.0838 11.974C26.2518 12.1327 26.4571 12.2633 26.6998 12.366C26.9518 12.4593 27.2971 12.5667 27.7358 12.688C28.2864 12.8373 28.7344 12.9867 29.0798 13.136C29.4251 13.276 29.7191 13.4907 29.9618 13.78C30.2138 14.0693 30.3444 14.4473 30.3538 14.914C30.3538 15.334 30.2371 15.712 30.0038 16.048C29.7704 16.384 29.4391 16.65 29.0098 16.846C28.5898 17.0327 28.1044 17.126 27.5538 17.126ZM31.6762 13.136C31.6762 12.352 31.8349 11.666 32.1522 11.078C32.4696 10.4807 32.9036 10.0187 33.4542 9.692C34.0142 9.36533 34.6349 9.202 35.3162 9.202C35.9882 9.202 36.5716 9.34667 37.0662 9.636C37.5609 9.92533 37.9296 10.2893 38.1722 10.728V9.328H39.4602V17H38.1722V15.572C37.9202 16.02 37.5422 16.3933 37.0382 16.692C36.5436 16.9813 35.9649 17.126 35.3022 17.126C34.6209 17.126 34.0049 16.958 33.4542 16.622C32.9036 16.286 32.4696 15.8147 32.1522 15.208C31.8349 14.6013 31.6762 13.9107 31.6762 13.136ZM38.1722 13.15C38.1722 12.5713 38.0556 12.0673 37.8222 11.638C37.5889 11.2087 37.2716 10.882 36.8702 10.658C36.4782 10.4247 36.0442 10.308 35.5682 10.308C35.0922 10.308 34.6582 10.42 34.2662 10.644C33.8742 10.868 33.5616 11.1947 33.3282 11.624C33.0949 12.0533 32.9782 12.5573 32.9782 13.136C32.9782 13.724 33.0949 14.2373 33.3282 14.676C33.5616 15.1053 33.8742 15.4367 34.2662 15.67C34.6582 15.894 35.0922 16.006 35.5682 16.006C36.0442 16.006 36.4782 15.894 36.8702 15.67C37.2716 15.4367 37.5889 15.1053 37.8222 14.676C38.0556 14.2373 38.1722 13.7287 38.1722 13.15ZM42.8872 10.756C43.1485 10.2987 43.5312 9.92533 44.0352 9.636C44.5392 9.34667 45.1132 9.202 45.7572 9.202C46.4478 9.202 47.0685 9.36533 47.6192 9.692C48.1698 10.0187 48.6038 10.4807 48.9212 11.078C49.2385 11.666 49.3972 12.352 49.3972 13.136C49.3972 13.9107 49.2385 14.6013 48.9212 15.208C48.6038 15.8147 48.1652 16.286 47.6052 16.622C47.0545 16.958 46.4385 17.126 45.7572 17.126C45.0945 17.126 44.5112 16.9813 44.0072 16.692C43.5125 16.4027 43.1392 16.034 42.8872 15.586V17H41.6132V6.64H42.8872V10.756ZM48.0952 13.136C48.0952 12.5573 47.9785 12.0533 47.7452 11.624C47.5118 11.1947 47.1945 10.868 46.7932 10.644C46.4012 10.42 45.9672 10.308 45.4912 10.308C45.0245 10.308 44.5905 10.4247 44.1892 10.658C43.7972 10.882 43.4798 11.2133 43.2372 11.652C43.0038 12.0813 42.8872 12.5807 42.8872 13.15C42.8872 13.7287 43.0038 14.2373 43.2372 14.676C43.4798 15.1053 43.7972 15.4367 44.1892 15.67C44.5905 15.894 45.0245 16.006 45.4912 16.006C45.9672 16.006 46.4012 15.894 46.7932 15.67C47.1945 15.4367 47.5118 15.1053 47.7452 14.676C47.9785 14.2373 48.0952 13.724 48.0952 13.136ZM52.3481 6.64V17H51.0741V6.64H52.3481ZM61.5194 12.87C61.5194 13.1127 61.5054 13.3693 61.4774 13.64H55.3454C55.3921 14.396 55.6487 14.9887 56.1154 15.418C56.5914 15.838 57.1654 16.048 57.8374 16.048C58.3881 16.048 58.8454 15.922 59.2094 15.67C59.5827 15.4087 59.8441 15.0633 59.9934 14.634H61.3654C61.1601 15.3713 60.7494 15.9733 60.1334 16.44C59.5174 16.8973 58.7521 17.126 57.8374 17.126C57.1094 17.126 56.4561 16.9627 55.8774 16.636C55.3081 16.3093 54.8601 15.8473 54.5334 15.25C54.2067 14.6433 54.0434 13.9433 54.0434 13.15C54.0434 12.3567 54.2021 11.6613 54.5194 11.064C54.8367 10.4667 55.2801 10.0093 55.8494 9.692C56.4281 9.36533 57.0907 9.202 57.8374 9.202C58.5654 9.202 59.2094 9.36067 59.7694 9.678C60.3294 9.99533 60.7587 10.434 61.0574 10.994C61.3654 11.5447 61.5194 12.17 61.5194 12.87ZM60.2034 12.604C60.2034 12.1187 60.0961 11.7033 59.8814 11.358C59.6667 11.0033 59.3727 10.7373 58.9994 10.56C58.6354 10.3733 58.2294 10.28 57.7814 10.28C57.1374 10.28 56.5867 10.4853 56.1294 10.896C55.6814 11.3067 55.4247 11.876 55.3594 12.604H60.2034ZM62.725 13.136C62.725 12.352 62.8837 11.666 63.201 11.078C63.5184 10.4807 63.9524 10.0187 64.503 9.692C65.063 9.36533 65.6884 9.202 66.379 9.202C66.9764 9.202 67.5317 9.342 68.045 9.622C68.5584 9.89267 68.9504 10.252 69.221 10.7V6.64H70.509V17H69.221V15.558C68.969 16.0153 68.5957 16.3933 68.101 16.692C67.6064 16.9813 67.0277 17.126 66.365 17.126C65.6837 17.126 65.063 16.958 64.503 16.622C63.9524 16.286 63.5184 15.8147 63.201 15.208C62.8837 14.6013 62.725 13.9107 62.725 13.136ZM69.221 13.15C69.221 12.5713 69.1044 12.0673 68.871 11.638C68.6377 11.2087 68.3204 10.882 67.919 10.658C67.527 10.4247 67.093 10.308 66.617 10.308C66.141 10.308 65.707 10.42 65.315 10.644C64.923 10.868 64.6104 11.1947 64.377 11.624C64.1437 12.0533 64.027 12.5573 64.027 13.136C64.027 13.724 64.1437 14.2373 64.377 14.676C64.6104 15.1053 64.923 15.4367 65.315 15.67C65.707 15.894 66.141 16.006 66.617 16.006C67.093 16.006 67.527 15.894 67.919 15.67C68.3204 15.4367 68.6377 15.1053 68.871 14.676C69.1044 14.2373 69.221 13.7287 69.221 13.15Z" fill="#E7A63F"/>
</svg>
