<svg width="41" height="20" viewBox="0 0 41 20" fill="none" xmlns="http://www.w3.org/2000/svg">
<g style="mix-blend-mode:multiply">
<rect width="40.5301" height="19.3825" rx="9.69126" fill="#F4F3FF"/>
<path d="M14.4449 9.00126C14.4449 9.78924 14.3008 10.4667 14.0125 11.0337C13.7242 11.5982 13.329 12.033 12.827 12.3381C12.3273 12.6408 11.7591 12.7922 11.1225 12.7922C10.4835 12.7922 9.91289 12.6408 9.4108 12.3381C8.91111 12.033 8.51712 11.597 8.22884 11.0301C7.94056 10.4631 7.79642 9.78683 7.79642 9.00126C7.79642 8.21329 7.94056 7.53703 8.22884 6.97247C8.51712 6.40552 8.91111 5.97069 9.4108 5.66799C9.91289 5.36289 10.4835 5.21034 11.1225 5.21034C11.7591 5.21034 12.3273 5.36289 12.827 5.66799C13.329 5.97069 13.7242 6.40552 14.0125 6.97247C14.3008 7.53703 14.4449 8.21329 14.4449 9.00126ZM13.3423 9.00126C13.3423 8.40067 13.245 7.89498 13.0504 7.48417C12.8582 7.07097 12.5939 6.75866 12.2576 6.54726C11.9237 6.33345 11.5453 6.22654 11.1225 6.22654C10.6973 6.22654 10.3177 6.33345 9.98376 6.54726C9.64983 6.75866 9.38557 7.07097 9.19098 7.48417C8.9988 7.89498 8.9027 8.40067 8.9027 9.00126C8.9027 9.60185 8.9988 10.1088 9.19098 10.522C9.38557 10.9328 9.64983 11.2451 9.98376 11.4589C10.3177 11.6703 10.6973 11.776 11.1225 11.776C11.5453 11.776 11.9237 11.6703 12.2576 11.4589C12.5939 11.2451 12.8582 10.9328 13.0504 10.522C13.245 10.1088 13.3423 9.60185 13.3423 9.00126ZM15.7467 14.7669V7.15625H16.7989V8.05353H16.889C16.9515 7.93822 17.0416 7.80489 17.1593 7.65354C17.277 7.50219 17.4404 7.37006 17.6494 7.25715C17.8584 7.14184 18.1347 7.08418 18.4782 7.08418C18.925 7.08418 19.3238 7.19709 19.6746 7.42292C20.0253 7.64874 20.3004 7.97426 20.4998 8.39947C20.7016 8.82469 20.8025 9.33639 20.8025 9.93458C20.8025 10.5328 20.7028 11.0457 20.5034 11.4733C20.304 11.8985 20.0301 12.2264 19.6818 12.4571C19.3334 12.6853 18.9358 12.7994 18.489 12.7994C18.1527 12.7994 17.8776 12.7429 17.6638 12.63C17.4524 12.5171 17.2866 12.385 17.1665 12.2336C17.0464 12.0823 16.9539 11.9478 16.889 11.83H16.8242V14.7669H15.7467ZM16.8026 9.92377C16.8026 10.313 16.859 10.6541 16.9719 10.9472C17.0848 11.2403 17.2482 11.4697 17.462 11.6354C17.6758 11.7988 17.9377 11.8805 18.2476 11.8805C18.5695 11.8805 18.8385 11.7952 19.0548 11.6246C19.271 11.4517 19.4343 11.2174 19.5448 10.9219C19.6578 10.6265 19.7142 10.2937 19.7142 9.92377C19.7142 9.55861 19.659 9.23069 19.5484 8.94C19.4403 8.64932 19.277 8.41989 19.0584 8.25173C18.8422 8.08356 18.5719 7.99948 18.2476 7.99948C17.9353 7.99948 17.671 8.07996 17.4548 8.24092C17.241 8.40188 17.0788 8.6265 16.9683 8.91478C16.8578 9.20306 16.8026 9.53939 16.8026 9.92377ZM24.3952 12.803C23.8499 12.803 23.3802 12.6865 22.9862 12.4535C22.5946 12.218 22.2919 11.8877 22.0781 11.4625C21.8667 11.0349 21.761 10.534 21.761 9.9598C21.761 9.39285 21.8667 8.89316 22.0781 8.46073C22.2919 8.02831 22.5898 7.69078 22.9718 7.44814C23.3562 7.2055 23.8054 7.08418 24.3195 7.08418C24.6318 7.08418 24.9345 7.13583 25.2276 7.23913C25.5207 7.34244 25.7838 7.5046 26.0168 7.72561C26.2498 7.94663 26.4336 8.23371 26.5681 8.58686C26.7027 8.9376 26.7699 9.36402 26.7699 9.86611V10.2481H22.37V9.4409H25.7141C25.7141 9.15742 25.6564 8.90637 25.5411 8.68776C25.4258 8.46674 25.2637 8.29257 25.0546 8.16524C24.848 8.03792 24.6054 7.97426 24.3267 7.97426C24.024 7.97426 23.7598 8.04873 23.534 8.19768C23.3105 8.34422 23.1376 8.53641 23.015 8.77424C22.8949 9.00967 22.8349 9.26552 22.8349 9.54179V10.1724C22.8349 10.5424 22.8997 10.8571 23.0295 11.1165C23.1616 11.376 23.3454 11.5742 23.5808 11.7111C23.8162 11.8457 24.0913 11.9129 24.406 11.9129C24.6102 11.9129 24.7964 11.8841 24.9646 11.8264C25.1327 11.7664 25.2781 11.6775 25.4006 11.5598C25.5231 11.4421 25.6168 11.2967 25.6817 11.1237L26.7015 11.3075C26.6198 11.6078 26.4732 11.8709 26.2618 12.0967C26.0528 12.3201 25.7898 12.4943 25.4727 12.6192C25.158 12.7417 24.7988 12.803 24.3952 12.803ZM29.0429 9.40486V12.6913H27.9654V7.15625H28.9996V8.05714H29.0681C29.1954 7.76405 29.3948 7.52862 29.6663 7.35084C29.9401 7.17307 30.2849 7.08418 30.7005 7.08418C31.0777 7.08418 31.408 7.16346 31.6915 7.32202C31.9749 7.47817 32.1948 7.7112 32.3509 8.0211C32.5071 8.33101 32.5851 8.71418 32.5851 9.17063V12.6913H31.5077V9.30036C31.5077 8.89916 31.4032 8.58566 31.1942 8.35983C30.9852 8.13161 30.6981 8.0175 30.3329 8.0175C30.0831 8.0175 29.8609 8.07155 29.6663 8.17966C29.4741 8.28776 29.3215 8.44632 29.2086 8.65532C29.0981 8.86193 29.0429 9.11177 29.0429 9.40486Z" fill="#5925DC"/>
</g>
</svg>
