<svg width="76" height="22" viewBox="0 0 76 22" fill="none" xmlns="http://www.w3.org/2000/svg">
<g style="mix-blend-mode:multiply">
<rect width="76" height="22" rx="10" fill="#ECFDF3"/>
<path d="M14.2561 13.296H10.7641L10.1641 15H8.73613L11.7241 6.648H13.3081L16.2961 15H14.8561L14.2561 13.296ZM13.8721 12.18L12.5161 8.304L11.1481 12.18H13.8721ZM18.9633 9.36C19.1953 9.056 19.5113 8.8 19.9113 8.592C20.3113 8.384 20.7633 8.28 21.2673 8.28C21.8433 8.28 22.3673 8.424 22.8393 8.712C23.3193 8.992 23.6953 9.388 23.9673 9.9C24.2393 10.412 24.3753 11 24.3753 11.664C24.3753 12.328 24.2393 12.924 23.9673 13.452C23.6953 13.972 23.3193 14.38 22.8393 14.676C22.3673 14.964 21.8433 15.108 21.2673 15.108C20.7633 15.108 20.3153 15.008 19.9233 14.808C19.5313 14.6 19.2113 14.344 18.9633 14.04V18.144H17.5953V8.388H18.9633V9.36ZM22.9833 11.664C22.9833 11.208 22.8873 10.816 22.6953 10.488C22.5113 10.152 22.2633 9.9 21.9513 9.732C21.6473 9.556 21.3193 9.468 20.9673 9.468C20.6233 9.468 20.2953 9.556 19.9833 9.732C19.6793 9.908 19.4313 10.164 19.2393 10.5C19.0553 10.836 18.9633 11.232 18.9633 11.688C18.9633 12.144 19.0553 12.544 19.2393 12.888C19.4313 13.224 19.6793 13.48 19.9833 13.656C20.2953 13.832 20.6233 13.92 20.9673 13.92C21.3193 13.92 21.6473 13.832 21.9513 13.656C22.2633 13.472 22.5113 13.208 22.6953 12.864C22.8873 12.52 22.9833 12.12 22.9833 11.664ZM27.0961 9.36C27.3281 9.056 27.6441 8.8 28.0441 8.592C28.4441 8.384 28.8961 8.28 29.4001 8.28C29.9761 8.28 30.5001 8.424 30.9721 8.712C31.4521 8.992 31.8281 9.388 32.1001 9.9C32.3721 10.412 32.5081 11 32.5081 11.664C32.5081 12.328 32.3721 12.924 32.1001 13.452C31.8281 13.972 31.4521 14.38 30.9721 14.676C30.5001 14.964 29.9761 15.108 29.4001 15.108C28.8961 15.108 28.4481 15.008 28.0561 14.808C27.6641 14.6 27.3441 14.344 27.0961 14.04V18.144H25.7281V8.388H27.0961V9.36ZM31.1161 11.664C31.1161 11.208 31.0201 10.816 30.8281 10.488C30.6441 10.152 30.3961 9.9 30.0841 9.732C29.7801 9.556 29.4521 9.468 29.1001 9.468C28.7561 9.468 28.4281 9.556 28.1161 9.732C27.8121 9.908 27.5641 10.164 27.3721 10.5C27.1881 10.836 27.0961 11.232 27.0961 11.688C27.0961 12.144 27.1881 12.544 27.3721 12.888C27.5641 13.224 27.8121 13.48 28.1161 13.656C28.4281 13.832 28.7561 13.92 29.1001 13.92C29.4521 13.92 29.7801 13.832 30.0841 13.656C30.3961 13.472 30.6441 13.208 30.8281 12.864C31.0201 12.52 31.1161 12.12 31.1161 11.664ZM35.2289 9.348C35.4289 9.012 35.6929 8.752 36.0209 8.568C36.3569 8.376 36.7529 8.28 37.2089 8.28V9.696H36.8609C36.3249 9.696 35.9169 9.832 35.6369 10.104C35.3649 10.376 35.2289 10.848 35.2289 11.52V15H33.8609V8.388H35.2289V9.348ZM41.3344 15.108C40.7104 15.108 40.1464 14.968 39.6424 14.688C39.1384 14.4 38.7424 14 38.4544 13.488C38.1664 12.968 38.0224 12.368 38.0224 11.688C38.0224 11.016 38.1704 10.42 38.4664 9.9C38.7624 9.38 39.1664 8.98 39.6784 8.7C40.1904 8.42 40.7624 8.28 41.3944 8.28C42.0264 8.28 42.5984 8.42 43.1104 8.7C43.6224 8.98 44.0264 9.38 44.3224 9.9C44.6184 10.42 44.7664 11.016 44.7664 11.688C44.7664 12.36 44.6144 12.956 44.3104 13.476C44.0064 13.996 43.5904 14.4 43.0624 14.688C42.5424 14.968 41.9664 15.108 41.3344 15.108ZM41.3344 13.92C41.6864 13.92 42.0144 13.836 42.3184 13.668C42.6304 13.5 42.8824 13.248 43.0744 12.912C43.2664 12.576 43.3624 12.168 43.3624 11.688C43.3624 11.208 43.2704 10.804 43.0864 10.476C42.9024 10.14 42.6584 9.888 42.3544 9.72C42.0504 9.552 41.7224 9.468 41.3704 9.468C41.0184 9.468 40.6904 9.552 40.3864 9.72C40.0904 9.888 39.8544 10.14 39.6784 10.476C39.5024 10.804 39.4144 11.208 39.4144 11.688C39.4144 12.4 39.5944 12.952 39.9544 13.344C40.3224 13.728 40.7824 13.92 41.3344 13.92ZM48.6748 13.776L50.5468 8.388H51.9987L49.4788 15H47.8468L45.3388 8.388H46.8027L48.6748 13.776ZM59.0928 11.532C59.0928 11.78 59.0768 12.004 59.0448 12.204H53.9928C54.0328 12.732 54.2288 13.156 54.5808 13.476C54.9328 13.796 55.3648 13.956 55.8768 13.956C56.6128 13.956 57.1328 13.648 57.4368 13.032H58.9128C58.7128 13.64 58.3488 14.14 57.8208 14.532C57.3008 14.916 56.6528 15.108 55.8768 15.108C55.2448 15.108 54.6768 14.968 54.1728 14.688C53.6768 14.4 53.2848 14 52.9968 13.488C52.7168 12.968 52.5768 12.368 52.5768 11.688C52.5768 11.008 52.7128 10.412 52.9848 9.9C53.2648 9.38 53.6528 8.98 54.1488 8.7C54.6528 8.42 55.2288 8.28 55.8768 8.28C56.5008 8.28 57.0568 8.416 57.5448 8.688C58.0328 8.96 58.4128 9.344 58.6848 9.84C58.9568 10.328 59.0928 10.892 59.0928 11.532ZM57.6648 11.1C57.6568 10.596 57.4768 10.192 57.1248 9.888C56.7728 9.584 56.3368 9.432 55.8168 9.432C55.3448 9.432 54.9408 9.584 54.6048 9.888C54.2688 10.184 54.0688 10.588 54.0048 11.1H57.6648ZM59.9831 11.664C59.9831 11 60.1191 10.412 60.3911 9.9C60.6711 9.388 61.0471 8.992 61.5191 8.712C61.9991 8.424 62.5311 8.28 63.1151 8.28C63.5471 8.28 63.9711 8.376 64.3871 8.568C64.8111 8.752 65.1471 9 65.3951 9.312V6.12H66.7751V15H65.3951V14.004C65.1711 14.324 64.8591 14.588 64.4591 14.796C64.0671 15.004 63.6151 15.108 63.1031 15.108C62.5271 15.108 61.9991 14.964 61.5191 14.676C61.0471 14.38 60.6711 13.972 60.3911 13.452C60.1191 12.924 59.9831 12.328 59.9831 11.664ZM65.3951 11.688C65.3951 11.232 65.2991 10.836 65.1071 10.5C64.9231 10.164 64.6791 9.908 64.3751 9.732C64.0711 9.556 63.7431 9.468 63.3911 9.468C63.0391 9.468 62.7111 9.556 62.4071 9.732C62.1031 9.9 61.8551 10.152 61.6631 10.488C61.4791 10.816 61.3871 11.208 61.3871 11.664C61.3871 12.12 61.4791 12.52 61.6631 12.864C61.8551 13.208 62.1031 13.472 62.4071 13.656C62.7191 13.832 63.0471 13.92 63.3911 13.92C63.7431 13.92 64.0711 13.832 64.3751 13.656C64.6791 13.48 64.9231 13.224 65.1071 12.888C65.2991 12.544 65.3951 12.144 65.3951 11.688Z" fill="#027A48"/>
</g>
</svg>
