<svg width="82" height="24" viewBox="0 0 82 24" fill="none" xmlns="http://www.w3.org/2000/svg">
<rect x="0.75" y="0.75" width="80.5" height="22.5" rx="11.25" stroke="#D92D20" stroke-width="1.5"/>
<path d="M16.6662 17L14.3422 13.01H12.8022V17H11.5282V7.242H14.6782C15.4155 7.242 16.0362 7.368 16.5402 7.62C17.0535 7.872 17.4362 8.21267 17.6882 8.642C17.9402 9.07133 18.0662 9.56133 18.0662 10.112C18.0662 10.784 17.8702 11.3767 17.4782 11.89C17.0955 12.4033 16.5169 12.744 15.7422 12.912L18.1922 17H16.6662ZM12.8022 11.988H14.6782C15.3689 11.988 15.8869 11.82 16.2322 11.484C16.5775 11.1387 16.7502 10.6813 16.7502 10.112C16.7502 9.53333 16.5775 9.08533 16.2322 8.768C15.8962 8.45067 15.3782 8.292 14.6782 8.292H12.8022V11.988ZM27.0458 12.87C27.0458 13.1127 27.0318 13.3693 27.0038 13.64H20.8718C20.9184 14.396 21.1751 14.9887 21.6418 15.418C22.1178 15.838 22.6918 16.048 23.3638 16.048C23.9144 16.048 24.3718 15.922 24.7358 15.67C25.1091 15.4087 25.3704 15.0633 25.5198 14.634H26.8918C26.6864 15.3713 26.2758 15.9733 25.6598 16.44C25.0438 16.8973 24.2784 17.126 23.3638 17.126C22.6358 17.126 21.9824 16.9627 21.4038 16.636C20.8344 16.3093 20.3864 15.8473 20.0598 15.25C19.7331 14.6433 19.5698 13.9433 19.5698 13.15C19.5698 12.3567 19.7284 11.6613 20.0458 11.064C20.3631 10.4667 20.8064 10.0093 21.3758 9.692C21.9544 9.36533 22.6171 9.202 23.3638 9.202C24.0918 9.202 24.7358 9.36067 25.2958 9.678C25.8558 9.99533 26.2851 10.434 26.5838 10.994C26.8918 11.5447 27.0458 12.17 27.0458 12.87ZM25.7298 12.604C25.7298 12.1187 25.6224 11.7033 25.4078 11.358C25.1931 11.0033 24.8991 10.7373 24.5258 10.56C24.1618 10.3733 23.7558 10.28 23.3078 10.28C22.6638 10.28 22.1131 10.4853 21.6558 10.896C21.2078 11.3067 20.9511 11.876 20.8858 12.604H25.7298ZM29.4134 8.082C29.1707 8.082 28.9654 7.998 28.7974 7.83C28.6387 7.662 28.5594 7.45667 28.5594 7.214C28.5594 6.97133 28.6387 6.766 28.7974 6.598C28.9654 6.43 29.1707 6.346 29.4134 6.346C29.6561 6.346 29.8567 6.43 30.0154 6.598C30.1834 6.766 30.2674 6.97133 30.2674 7.214C30.2674 7.45667 30.1834 7.662 30.0154 7.83C29.8567 7.998 29.6561 8.082 29.4134 8.082ZM30.0434 18.666C30.0434 19.3473 29.8707 19.8467 29.5254 20.164C29.1801 20.4813 28.6761 20.64 28.0134 20.64H27.2714V19.562H27.8034C28.1581 19.562 28.4054 19.492 28.5454 19.352C28.6947 19.212 28.7694 18.974 28.7694 18.638V9.328H30.0434V18.666ZM39.2001 12.87C39.2001 13.1127 39.1861 13.3693 39.1581 13.64H33.0261C33.0727 14.396 33.3294 14.9887 33.7961 15.418C34.2721 15.838 34.8461 16.048 35.5181 16.048C36.0687 16.048 36.5261 15.922 36.8901 15.67C37.2634 15.4087 37.5247 15.0633 37.6741 14.634H39.0461C38.8407 15.3713 38.4301 15.9733 37.8141 16.44C37.1981 16.8973 36.4327 17.126 35.5181 17.126C34.7901 17.126 34.1367 16.9627 33.5581 16.636C32.9887 16.3093 32.5407 15.8473 32.2141 15.25C31.8874 14.6433 31.7241 13.9433 31.7241 13.15C31.7241 12.3567 31.8827 11.6613 32.2001 11.064C32.5174 10.4667 32.9607 10.0093 33.5301 9.692C34.1087 9.36533 34.7714 9.202 35.5181 9.202C36.2461 9.202 36.8901 9.36067 37.4501 9.678C38.0101 9.99533 38.4394 10.434 38.7381 10.994C39.0461 11.5447 39.2001 12.17 39.2001 12.87ZM37.8841 12.604C37.8841 12.1187 37.7767 11.7033 37.5621 11.358C37.3474 11.0033 37.0534 10.7373 36.6801 10.56C36.3161 10.3733 35.9101 10.28 35.4621 10.28C34.8181 10.28 34.2674 10.4853 33.8101 10.896C33.3621 11.3067 33.1054 11.876 33.0401 12.604H37.8841ZM40.4057 13.15C40.4057 12.3567 40.5644 11.666 40.8817 11.078C41.199 10.4807 41.6377 10.0187 42.1977 9.692C42.767 9.36533 43.4157 9.202 44.1437 9.202C45.0864 9.202 45.861 9.43067 46.4677 9.888C47.0837 10.3453 47.4897 10.98 47.6857 11.792H46.3137C46.183 11.3253 45.9264 10.9567 45.5437 10.686C45.1704 10.4153 44.7037 10.28 44.1437 10.28C43.4157 10.28 42.8277 10.532 42.3797 11.036C41.9317 11.5307 41.7077 12.2353 41.7077 13.15C41.7077 14.074 41.9317 14.788 42.3797 15.292C42.8277 15.796 43.4157 16.048 44.1437 16.048C44.7037 16.048 45.1704 15.9173 45.5437 15.656C45.917 15.3947 46.1737 15.0213 46.3137 14.536H47.6857C47.4804 15.32 47.0697 15.95 46.4537 16.426C45.8377 16.8927 45.0677 17.126 44.1437 17.126C43.4157 17.126 42.767 16.9627 42.1977 16.636C41.6377 16.3093 41.199 15.8473 40.8817 15.25C40.5644 14.6527 40.4057 13.9527 40.4057 13.15ZM50.9396 10.378V14.9C50.9396 15.2733 51.019 15.5393 51.1776 15.698C51.3363 15.8473 51.6116 15.922 52.0036 15.922H52.9416V17H51.7936C51.0843 17 50.5523 16.8367 50.1976 16.51C49.843 16.1833 49.6656 15.6467 49.6656 14.9V10.378H48.6716V9.328H49.6656V7.396H50.9396V9.328H52.9416V10.378H50.9396ZM61.4852 12.87C61.4852 13.1127 61.4712 13.3693 61.4432 13.64H55.3112C55.3579 14.396 55.6146 14.9887 56.0812 15.418C56.5572 15.838 57.1312 16.048 57.8032 16.048C58.3539 16.048 58.8112 15.922 59.1752 15.67C59.5486 15.4087 59.8099 15.0633 59.9592 14.634H61.3312C61.1259 15.3713 60.7152 15.9733 60.0992 16.44C59.4832 16.8973 58.7179 17.126 57.8032 17.126C57.0752 17.126 56.4219 16.9627 55.8432 16.636C55.2739 16.3093 54.8259 15.8473 54.4992 15.25C54.1726 14.6433 54.0092 13.9433 54.0092 13.15C54.0092 12.3567 54.1679 11.6613 54.4852 11.064C54.8026 10.4667 55.2459 10.0093 55.8152 9.692C56.3939 9.36533 57.0566 9.202 57.8032 9.202C58.5312 9.202 59.1752 9.36067 59.7352 9.678C60.2952 9.99533 60.7246 10.434 61.0232 10.994C61.3312 11.5447 61.4852 12.17 61.4852 12.87ZM60.1692 12.604C60.1692 12.1187 60.0619 11.7033 59.8472 11.358C59.6326 11.0033 59.3386 10.7373 58.9652 10.56C58.6012 10.3733 58.1952 10.28 57.7472 10.28C57.1032 10.28 56.5526 10.4853 56.0952 10.896C55.6472 11.3067 55.3906 11.876 55.3252 12.604H60.1692ZM62.6909 13.136C62.6909 12.352 62.8495 11.666 63.1669 11.078C63.4842 10.4807 63.9182 10.0187 64.4689 9.692C65.0289 9.36533 65.6542 9.202 66.3449 9.202C66.9422 9.202 67.4975 9.342 68.0109 9.622C68.5242 9.89267 68.9162 10.252 69.1869 10.7V6.64H70.4749V17H69.1869V15.558C68.9349 16.0153 68.5615 16.3933 68.0669 16.692C67.5722 16.9813 66.9935 17.126 66.3309 17.126C65.6495 17.126 65.0289 16.958 64.4689 16.622C63.9182 16.286 63.4842 15.8147 63.1669 15.208C62.8495 14.6013 62.6909 13.9107 62.6909 13.136ZM69.1869 13.15C69.1869 12.5713 69.0702 12.0673 68.8369 11.638C68.6035 11.2087 68.2862 10.882 67.8849 10.658C67.4929 10.4247 67.0589 10.308 66.5829 10.308C66.1069 10.308 65.6729 10.42 65.2809 10.644C64.8889 10.868 64.5762 11.1947 64.3429 11.624C64.1095 12.0533 63.9929 12.5573 63.9929 13.136C63.9929 13.724 64.1095 14.2373 64.3429 14.676C64.5762 15.1053 64.8889 15.4367 65.2809 15.67C65.6729 15.894 66.1069 16.006 66.5829 16.006C67.0589 16.006 67.4929 15.894 67.8849 15.67C68.2862 15.4367 68.6035 15.1053 68.8369 14.676C69.0702 14.2373 69.1869 13.7287 69.1869 13.15Z" fill="#D92D20"/>
</svg>
