<svg width="123" height="24" viewBox="0 0 123 24" fill="none" xmlns="http://www.w3.org/2000/svg">
<g style="mix-blend-mode:multiply">
<rect width="123" height="24" rx="12" fill="#EAECF0"/>
<path d="M8.94178 11.812C8.94178 10.996 9.12578 10.264 9.49378 9.616C9.86178 8.96 10.3618 8.448 10.9938 8.08C11.6338 7.712 12.3418 7.528 13.1178 7.528C14.0298 7.528 14.8258 7.748 15.5058 8.188C16.1858 8.628 16.6818 9.252 16.9938 10.06H15.6858C15.4538 9.556 15.1178 9.168 14.6778 8.896C14.2458 8.624 13.7258 8.488 13.1178 8.488C12.5338 8.488 12.0098 8.624 11.5458 8.896C11.0818 9.168 10.7178 9.556 10.4538 10.06C10.1898 10.556 10.0578 11.14 10.0578 11.812C10.0578 12.476 10.1898 13.06 10.4538 13.564C10.7178 14.06 11.0818 14.444 11.5458 14.716C12.0098 14.988 12.5338 15.124 13.1178 15.124C13.7258 15.124 14.2458 14.992 14.6778 14.728C15.1178 14.456 15.4538 14.068 15.6858 13.564H16.9938C16.6818 14.364 16.1858 14.984 15.5058 15.424C14.8258 15.856 14.0298 16.072 13.1178 16.072C12.3418 16.072 11.6338 15.892 10.9938 15.532C10.3618 15.164 9.86178 14.656 9.49378 14.008C9.12578 13.36 8.94178 12.628 8.94178 11.812ZM21.4873 16.108C20.8713 16.108 20.3113 15.968 19.8073 15.688C19.3113 15.408 18.9193 15.012 18.6313 14.5C18.3513 13.98 18.2113 13.38 18.2113 12.7C18.2113 12.028 18.3553 11.436 18.6433 10.924C18.9393 10.404 19.3393 10.008 19.8433 9.736C20.3473 9.456 20.9113 9.316 21.5353 9.316C22.1593 9.316 22.7233 9.456 23.2273 9.736C23.7313 10.008 24.1273 10.4 24.4153 10.912C24.7113 11.424 24.8593 12.02 24.8593 12.7C24.8593 13.38 24.7073 13.98 24.4033 14.5C24.1073 15.012 23.7033 15.408 23.1913 15.688C22.6793 15.968 22.1113 16.108 21.4873 16.108ZM21.4873 15.148C21.8793 15.148 22.2473 15.056 22.5913 14.872C22.9353 14.688 23.2113 14.412 23.4193 14.044C23.6353 13.676 23.7433 13.228 23.7433 12.7C23.7433 12.172 23.6393 11.724 23.4313 11.356C23.2233 10.988 22.9513 10.716 22.6153 10.54C22.2793 10.356 21.9153 10.264 21.5233 10.264C21.1233 10.264 20.7553 10.356 20.4193 10.54C20.0913 10.716 19.8273 10.988 19.6273 11.356C19.4273 11.724 19.3273 12.172 19.3273 12.7C19.3273 13.236 19.4233 13.688 19.6153 14.056C19.8153 14.424 20.0793 14.7 20.4073 14.884C20.7353 15.06 21.0953 15.148 21.4873 15.148ZM34.2031 9.304C34.7151 9.304 35.1711 9.412 35.5711 9.628C35.9711 9.836 36.2871 10.152 36.5191 10.576C36.7511 11 36.8671 11.516 36.8671 12.124V16H35.7871V12.28C35.7871 11.624 35.6231 11.124 35.2951 10.78C34.9751 10.428 34.5391 10.252 33.9871 10.252C33.4191 10.252 32.9671 10.436 32.6311 10.804C32.2951 11.164 32.1271 11.688 32.1271 12.376V16H31.0471V12.28C31.0471 11.624 30.8831 11.124 30.5551 10.78C30.2351 10.428 29.7991 10.252 29.2471 10.252C28.6791 10.252 28.2271 10.436 27.8911 10.804C27.5551 11.164 27.3871 11.688 27.3871 12.376V16H26.2951V9.424H27.3871V10.372C27.6031 10.028 27.8911 9.764 28.2511 9.58C28.6191 9.396 29.0231 9.304 29.4631 9.304C30.0151 9.304 30.5031 9.428 30.9271 9.676C31.3511 9.924 31.6671 10.288 31.8751 10.768C32.0591 10.304 32.3631 9.944 32.7871 9.688C33.2111 9.432 33.6831 9.304 34.2031 9.304ZM39.7504 10.636C39.9664 10.26 40.2864 9.948 40.7104 9.7C41.1424 9.444 41.6424 9.316 42.2104 9.316C42.7944 9.316 43.3224 9.456 43.7944 9.736C44.2744 10.016 44.6504 10.412 44.9224 10.924C45.1944 11.428 45.3304 12.016 45.3304 12.688C45.3304 13.352 45.1944 13.944 44.9224 14.464C44.6504 14.984 44.2744 15.388 43.7944 15.676C43.3224 15.964 42.7944 16.108 42.2104 16.108C41.6504 16.108 41.1544 15.984 40.7224 15.736C40.2984 15.48 39.9744 15.164 39.7504 14.788V19.12H38.6584V9.424H39.7504V10.636ZM44.2144 12.688C44.2144 12.192 44.1144 11.76 43.9144 11.392C43.7144 11.024 43.4424 10.744 43.0984 10.552C42.7624 10.36 42.3904 10.264 41.9824 10.264C41.5824 10.264 41.2104 10.364 40.8664 10.564C40.5304 10.756 40.2584 11.04 40.0504 11.416C39.8504 11.784 39.7504 12.212 39.7504 12.7C39.7504 13.196 39.8504 13.632 40.0504 14.008C40.2584 14.376 40.5304 14.66 40.8664 14.86C41.2104 15.052 41.5824 15.148 41.9824 15.148C42.3904 15.148 42.7624 15.052 43.0984 14.86C43.4424 14.66 43.7144 14.376 43.9144 14.008C44.1144 13.632 44.2144 13.192 44.2144 12.688ZM46.3598 12.688C46.3598 12.016 46.4958 11.428 46.7678 10.924C47.0398 10.412 47.4118 10.016 47.8838 9.736C48.3638 9.456 48.8958 9.316 49.4798 9.316C50.0558 9.316 50.5558 9.44 50.9798 9.688C51.4038 9.936 51.7198 10.248 51.9278 10.624V9.424H53.0318V16H51.9278V14.776C51.7118 15.16 51.3878 15.48 50.9558 15.736C50.5318 15.984 50.0358 16.108 49.4678 16.108C48.8838 16.108 48.3558 15.964 47.8838 15.676C47.4118 15.388 47.0398 14.984 46.7678 14.464C46.4958 13.944 46.3598 13.352 46.3598 12.688ZM51.9278 12.7C51.9278 12.204 51.8278 11.772 51.6278 11.404C51.4278 11.036 51.1558 10.756 50.8118 10.564C50.4758 10.364 50.1038 10.264 49.6958 10.264C49.2878 10.264 48.9158 10.36 48.5798 10.552C48.2438 10.744 47.9758 11.024 47.7758 11.392C47.5758 11.76 47.4758 12.192 47.4758 12.688C47.4758 13.192 47.5758 13.632 47.7758 14.008C47.9758 14.376 48.2438 14.66 48.5798 14.86C48.9158 15.052 49.2878 15.148 49.6958 15.148C50.1038 15.148 50.4758 15.052 50.8118 14.86C51.1558 14.66 51.4278 14.376 51.6278 14.008C51.8278 13.632 51.9278 13.196 51.9278 12.7ZM58.0811 9.304C58.8811 9.304 59.5291 9.548 60.0251 10.036C60.5211 10.516 60.7691 11.212 60.7691 12.124V16H59.6891V12.28C59.6891 11.624 59.5251 11.124 59.1971 10.78C58.8691 10.428 58.4211 10.252 57.8531 10.252C57.2771 10.252 56.8171 10.432 56.4731 10.792C56.1371 11.152 55.9691 11.676 55.9691 12.364V16H54.8771V9.424H55.9691V10.36C56.1851 10.024 56.4771 9.764 56.8451 9.58C57.2211 9.396 57.6331 9.304 58.0811 9.304ZM68.2169 9.424L64.2569 19.096H63.1289L64.4249 15.928L61.7729 9.424H62.9849L65.0489 14.752L67.0889 9.424H68.2169ZM75.1178 7.636C76.0298 7.636 76.8178 7.808 77.4818 8.152C78.1538 8.488 78.6658 8.972 79.0178 9.604C79.3778 10.236 79.5578 10.98 79.5578 11.836C79.5578 12.692 79.3778 13.436 79.0178 14.068C78.6658 14.692 78.1538 15.172 77.4818 15.508C76.8178 15.836 76.0298 16 75.1178 16H72.5138V7.636H75.1178ZM75.1178 15.1C76.1978 15.1 77.0218 14.816 77.5898 14.248C78.1578 13.672 78.4418 12.868 78.4418 11.836C78.4418 10.796 78.1538 9.984 77.5778 9.4C77.0098 8.816 76.1898 8.524 75.1178 8.524H73.6058V15.1H75.1178ZM86.9982 12.46C86.9982 12.668 86.9862 12.888 86.9622 13.12H81.7062C81.7462 13.768 81.9662 14.276 82.3662 14.644C82.7742 15.004 83.2662 15.184 83.8422 15.184C84.3142 15.184 84.7062 15.076 85.0182 14.86C85.3382 14.636 85.5622 14.34 85.6902 13.972H86.8662C86.6902 14.604 86.3382 15.12 85.8102 15.52C85.2822 15.912 84.6262 16.108 83.8422 16.108C83.2182 16.108 82.6582 15.968 82.1622 15.688C81.6742 15.408 81.2902 15.012 81.0102 14.5C80.7302 13.98 80.5902 13.38 80.5902 12.7C80.5902 12.02 80.7262 11.424 80.9982 10.912C81.2702 10.4 81.6502 10.008 82.1382 9.736C82.6342 9.456 83.2022 9.316 83.8422 9.316C84.4662 9.316 85.0182 9.452 85.4982 9.724C85.9782 9.996 86.3462 10.372 86.6022 10.852C86.8662 11.324 86.9982 11.86 86.9982 12.46ZM85.8702 12.232C85.8702 11.816 85.7782 11.46 85.5942 11.164C85.4102 10.86 85.1582 10.632 84.8382 10.48C84.5262 10.32 84.1782 10.24 83.7942 10.24C83.2422 10.24 82.7702 10.416 82.3782 10.768C81.9942 11.12 81.7742 11.608 81.7182 12.232H85.8702ZM91.1156 10.324H89.7356V16H88.6436V10.324H87.7916V9.424H88.6436V8.956C88.6436 8.22 88.8316 7.684 89.2076 7.348C89.5916 7.004 90.2036 6.832 91.0436 6.832V7.744C90.5636 7.744 90.2236 7.84 90.0236 8.032C89.8316 8.216 89.7356 8.524 89.7356 8.956V9.424H91.1156V10.324ZM91.9808 12.688C91.9808 12.016 92.1168 11.428 92.3888 10.924C92.6608 10.412 93.0328 10.016 93.5048 9.736C93.9848 9.456 94.5168 9.316 95.1008 9.316C95.6768 9.316 96.1768 9.44 96.6008 9.688C97.0248 9.936 97.3408 10.248 97.5488 10.624V9.424H98.6528V16H97.5488V14.776C97.3328 15.16 97.0088 15.48 96.5768 15.736C96.1528 15.984 95.6568 16.108 95.0888 16.108C94.5048 16.108 93.9768 15.964 93.5048 15.676C93.0328 15.388 92.6608 14.984 92.3888 14.464C92.1168 13.944 91.9808 13.352 91.9808 12.688ZM97.5488 12.7C97.5488 12.204 97.4488 11.772 97.2488 11.404C97.0488 11.036 96.7768 10.756 96.4328 10.564C96.0968 10.364 95.7248 10.264 95.3168 10.264C94.9088 10.264 94.5368 10.36 94.2008 10.552C93.8648 10.744 93.5968 11.024 93.3968 11.392C93.1968 11.76 93.0968 12.192 93.0968 12.688C93.0968 13.192 93.1968 13.632 93.3968 14.008C93.5968 14.376 93.8648 14.66 94.2008 14.86C94.5368 15.052 94.9088 15.148 95.3168 15.148C95.7248 15.148 96.0968 15.052 96.4328 14.86C96.7768 14.66 97.0488 14.376 97.2488 14.008C97.4488 13.632 97.5488 13.196 97.5488 12.7ZM106.33 9.424V16H105.238V15.028C105.03 15.364 104.738 15.628 104.362 15.82C103.994 16.004 103.586 16.096 103.138 16.096C102.626 16.096 102.166 15.992 101.758 15.784C101.35 15.568 101.026 15.248 100.786 14.824C100.554 14.4 100.438 13.884 100.438 13.276V9.424H101.518V13.132C101.518 13.78 101.682 14.28 102.01 14.632C102.338 14.976 102.786 15.148 103.354 15.148C103.938 15.148 104.398 14.968 104.734 14.608C105.07 14.248 105.238 13.724 105.238 13.036V9.424H106.33ZM109.266 7.12V16H108.174V7.12H109.266ZM112.459 10.324V14.2C112.459 14.52 112.527 14.748 112.663 14.884C112.799 15.012 113.035 15.076 113.371 15.076H114.175V16H113.191C112.583 16 112.127 15.86 111.823 15.58C111.519 15.3 111.367 14.84 111.367 14.2V10.324H110.515V9.424H111.367V7.768H112.459V9.424H114.175V10.324H112.459Z" fill="black"/>
</g>
</svg>
