<svg width="1440" height="76" viewBox="0 0 1440 76" fill="none" xmlns="http://www.w3.org/2000/svg">
<mask id="path-1-inside-1_1177_16244" fill="white">
<path d="M0 0H1440V76H0V0Z"/>
</mask>
<path d="M0 0H1440V76H0V0Z" fill="white"/>
<path d="M1440 75H0V77H1440V75Z" fill="#EAECF0" mask="url(#path-1-inside-1_1177_16244)"/>
<mask id="path-3-inside-2_1177_16244" fill="white">
<path d="M24 26.5H187V49.5H24V26.5Z"/>
</mask>
<path d="M186 26.5V49.5H188V26.5H186Z" fill="#EAECF0" mask="url(#path-3-inside-2_1177_16244)"/>
<mask id="path-7-inside-3_1177_16244" fill="white">
<path d="M214.667 33.4167V31.75H211.333V33.4167H214.667ZM206.333 35.0833V44.25H219.667V35.0833H206.333ZM219.667 33.4167C220.592 33.4167 221.333 34.1583 221.333 35.0833V44.25C221.333 45.175 220.592 45.9167 219.667 45.9167H206.333C205.408 45.9167 204.667 45.175 204.667 44.25L204.675 35.0833C204.675 34.1583 205.408 33.4167 206.333 33.4167H209.667V31.75C209.667 30.825 210.408 30.0833 211.333 30.0833H214.667C215.592 30.0833 216.333 30.825 216.333 31.75V33.4167H219.667Z"/>
</mask>
<path d="M214.667 33.4167V35.0867C215.589 35.0867 216.337 34.339 216.337 33.4167H214.667ZM214.667 31.75H216.337C216.337 30.8277 215.589 30.08 214.667 30.08V31.75ZM211.333 31.75V30.08C210.411 30.08 209.663 30.8277 209.663 31.75H211.333ZM211.333 33.4167H209.663C209.663 34.339 210.411 35.0867 211.333 35.0867V33.4167ZM206.333 35.0833V33.4133C205.411 33.4133 204.663 34.161 204.663 35.0833H206.333ZM206.333 44.25H204.663C204.663 45.1723 205.411 45.92 206.333 45.92V44.25ZM219.667 44.25V45.92C220.589 45.92 221.337 45.1723 221.337 44.25H219.667ZM219.667 35.0833H221.337C221.337 34.161 220.589 33.4133 219.667 33.4133V35.0833ZM204.667 44.25L202.997 44.2485V44.25H204.667ZM204.675 35.0833L206.345 35.0848V35.0833H204.675ZM209.667 33.4167V35.0867C210.589 35.0867 211.337 34.339 211.337 33.4167H209.667ZM216.333 33.4167H214.663C214.663 34.339 215.411 35.0867 216.333 35.0867V33.4167ZM216.337 33.4167V31.75H212.997V33.4167H216.337ZM214.667 30.08H211.333V33.42H214.667V30.08ZM209.663 31.75V33.4167H213.003V31.75H209.663ZM211.333 35.0867H214.667V31.7467H211.333V35.0867ZM204.663 35.0833V44.25H208.003V35.0833H204.663ZM206.333 45.92H219.667V42.58H206.333V45.92ZM221.337 44.25V35.0833H217.997V44.25H221.337ZM219.667 33.4133H206.333V36.7533H219.667V33.4133ZM219.667 35.0867C219.67 35.0867 219.672 35.087 219.672 35.087C219.671 35.0869 219.671 35.0867 219.67 35.0863C219.668 35.0855 219.667 35.0845 219.666 35.084C219.665 35.0834 219.664 35.0823 219.664 35.0803C219.663 35.0793 219.663 35.0785 219.663 35.0784C219.663 35.0781 219.663 35.0796 219.663 35.0833H223.003C223.003 33.236 221.514 31.7467 219.667 31.7467V35.0867ZM219.663 35.0833V44.25H223.003V35.0833H219.663ZM219.663 44.25C219.663 44.2538 219.663 44.2552 219.663 44.255C219.663 44.2548 219.663 44.254 219.664 44.253C219.664 44.251 219.665 44.2499 219.666 44.2493C219.667 44.2488 219.668 44.2479 219.67 44.247C219.671 44.2466 219.671 44.2464 219.672 44.2464C219.672 44.2463 219.67 44.2467 219.667 44.2467V47.5867C221.514 47.5867 223.003 46.0973 223.003 44.25H219.663ZM219.667 44.2467H206.333V47.5867H219.667V44.2467ZM206.333 44.2467C206.33 44.2467 206.328 44.2463 206.328 44.2464C206.329 44.2464 206.329 44.2466 206.33 44.247C206.332 44.2479 206.333 44.2488 206.334 44.2493C206.335 44.2499 206.335 44.251 206.336 44.253C206.337 44.254 206.337 44.2548 206.337 44.255C206.337 44.2552 206.337 44.2538 206.337 44.25H202.997C202.997 46.0973 204.486 47.5867 206.333 47.5867V44.2467ZM206.337 44.2515L206.345 35.0848L203.005 35.0818L202.997 44.2485L206.337 44.2515ZM206.345 35.0833C206.345 35.0783 206.345 35.0757 206.346 35.0751C206.346 35.0743 206.346 35.0745 206.345 35.0752C206.345 35.0766 206.344 35.0782 206.342 35.0799C206.341 35.0816 206.338 35.0837 206.334 35.0854C206.332 35.0862 206.33 35.0867 206.329 35.0868C206.328 35.087 206.33 35.0867 206.333 35.0867V31.7467C204.475 31.7467 203.005 33.247 203.005 35.0833H206.345ZM206.333 35.0867H209.667V31.7467H206.333V35.0867ZM211.337 33.4167V31.75H207.997V33.4167H211.337ZM211.337 31.75C211.337 31.7462 211.337 31.7448 211.337 31.745C211.337 31.7452 211.337 31.746 211.336 31.747C211.335 31.749 211.335 31.7501 211.334 31.7507C211.333 31.7512 211.332 31.7521 211.33 31.753C211.329 31.7534 211.329 31.7536 211.328 31.7536C211.328 31.7537 211.33 31.7533 211.333 31.7533V28.4133C209.486 28.4133 207.997 29.9027 207.997 31.75H211.337ZM211.333 31.7533H214.667V28.4133H211.333V31.7533ZM214.667 31.7533C214.67 31.7533 214.672 31.7537 214.672 31.7536C214.671 31.7536 214.671 31.7534 214.67 31.753C214.668 31.7521 214.667 31.7512 214.666 31.7507C214.665 31.7501 214.664 31.749 214.664 31.747C214.663 31.746 214.663 31.7452 214.663 31.745C214.663 31.7448 214.663 31.7462 214.663 31.75H218.003C218.003 29.9027 216.514 28.4133 214.667 28.4133V31.7533ZM214.663 31.75V33.4167H218.003V31.75H214.663ZM216.333 35.0867H219.667V31.7467H216.333V35.0867Z" fill="#667085" mask="url(#path-7-inside-3_1177_16244)"/>
<path d="M243.912 32.88V44H242.088V36.384L238.696 44H237.432L234.024 36.384V44H232.2V32.88H234.168L238.072 41.6L241.96 32.88H243.912ZM254.245 35.184L248.837 48.144H246.949L248.741 43.856L245.269 35.184H247.301L249.781 41.904L252.357 35.184H254.245ZM265.554 44L262.994 39.552H261.602V44H259.778V32.88H263.618C264.471 32.88 265.191 33.0293 265.778 33.328C266.375 33.6267 266.818 34.0267 267.106 34.528C267.405 35.0293 267.554 35.5893 267.554 36.208C267.554 36.9333 267.341 37.5947 266.914 38.192C266.498 38.7787 265.853 39.1787 264.978 39.392L267.73 44H265.554ZM261.602 38.096H263.618C264.301 38.096 264.813 37.9253 265.154 37.584C265.506 37.2427 265.682 36.784 265.682 36.208C265.682 35.632 265.511 35.184 265.17 34.864C264.829 34.5333 264.311 34.368 263.618 34.368H261.602V38.096ZM277.968 39.376C277.968 39.7067 277.946 40.0053 277.904 40.272H271.168C271.221 40.976 271.482 41.5413 271.952 41.968C272.421 42.3947 272.997 42.608 273.68 42.608C274.661 42.608 275.354 42.1973 275.76 41.376H277.727C277.461 42.1867 276.976 42.8533 276.272 43.376C275.578 43.888 274.714 44.144 273.68 44.144C272.837 44.144 272.08 43.9573 271.408 43.584C270.746 43.2 270.224 42.6667 269.84 41.984C269.466 41.2907 269.28 40.4907 269.28 39.584C269.28 38.6773 269.461 37.8827 269.824 37.2C270.197 36.5067 270.714 35.9733 271.376 35.6C272.048 35.2267 272.816 35.04 273.68 35.04C274.512 35.04 275.253 35.2213 275.904 35.584C276.554 35.9467 277.061 36.4587 277.424 37.12C277.786 37.7707 277.968 38.5227 277.968 39.376ZM276.064 38.8C276.053 38.128 275.813 37.5893 275.344 37.184C274.874 36.7787 274.293 36.576 273.6 36.576C272.97 36.576 272.432 36.7787 271.984 37.184C271.536 37.5787 271.269 38.1173 271.184 38.8H276.064ZM279.155 39.552C279.155 38.6667 279.336 37.8827 279.699 37.2C280.072 36.5173 280.573 35.9893 281.203 35.616C281.843 35.232 282.552 35.04 283.331 35.04C284.013 35.04 284.616 35.1787 285.139 35.456C285.672 35.7333 286.083 36.0693 286.371 36.464V35.184H288.211V48.192H286.371V42.72C286.083 43.1147 285.667 43.4507 285.123 43.728C284.579 44.0053 283.96 44.144 283.266 44.144C282.509 44.144 281.816 43.952 281.187 43.568C280.568 43.1733 280.072 42.6293 279.699 41.936C279.336 41.232 279.155 40.4373 279.155 39.552ZM286.371 39.584C286.371 38.976 286.243 38.448 285.987 38C285.741 37.552 285.416 37.2107 285.011 36.976C284.605 36.7413 284.168 36.624 283.699 36.624C283.229 36.624 282.792 36.7413 282.387 36.976C281.981 37.2 281.651 37.536 281.395 37.984C281.149 38.4213 281.027 38.944 281.027 39.552C281.027 40.16 281.149 40.6933 281.395 41.152C281.651 41.6107 281.981 41.9627 282.387 42.208C282.803 42.4427 283.24 42.56 283.699 42.56C284.168 42.56 284.605 42.4427 285.011 42.208C285.416 41.9733 285.741 41.632 285.987 41.184C286.243 40.7253 286.371 40.192 286.371 39.584ZM298.59 35.184V44H296.766V42.96C296.478 43.3227 296.1 43.6107 295.63 43.824C295.172 44.0267 294.681 44.128 294.158 44.128C293.465 44.128 292.841 43.984 292.286 43.696C291.742 43.408 291.31 42.9813 290.99 42.416C290.681 41.8507 290.526 41.168 290.526 40.368V35.184H292.334V40.096C292.334 40.8853 292.532 41.4933 292.926 41.92C293.321 42.336 293.86 42.544 294.542 42.544C295.225 42.544 295.764 42.336 296.158 41.92C296.564 41.4933 296.766 40.8853 296.766 40.096V35.184H298.59ZM309.077 39.376C309.077 39.7067 309.056 40.0053 309.013 40.272H302.277C302.33 40.976 302.592 41.5413 303.061 41.968C303.53 42.3947 304.106 42.608 304.789 42.608C305.77 42.608 306.464 42.1973 306.869 41.376H308.837C308.57 42.1867 308.085 42.8533 307.381 43.376C306.688 43.888 305.824 44.144 304.789 44.144C303.946 44.144 303.189 43.9573 302.517 43.584C301.856 43.2 301.333 42.6667 300.949 41.984C300.576 41.2907 300.389 40.4907 300.389 39.584C300.389 38.6773 300.57 37.8827 300.933 37.2C301.306 36.5067 301.824 35.9733 302.485 35.6C303.157 35.2267 303.925 35.04 304.789 35.04C305.621 35.04 306.362 35.2213 307.013 35.584C307.664 35.9467 308.17 36.4587 308.533 37.12C308.896 37.7707 309.077 38.5227 309.077 39.376ZM307.173 38.8C307.162 38.128 306.922 37.5893 306.453 37.184C305.984 36.7787 305.402 36.576 304.709 36.576C304.08 36.576 303.541 36.7787 303.093 37.184C302.645 37.5787 302.378 38.1173 302.293 38.8H307.173ZM314.072 44.144C313.379 44.144 312.755 44.0213 312.2 43.776C311.656 43.52 311.224 43.1787 310.904 42.752C310.584 42.3147 310.413 41.8293 310.392 41.296H312.28C312.312 41.6693 312.488 41.984 312.808 42.24C313.139 42.4853 313.549 42.608 314.04 42.608C314.552 42.608 314.947 42.512 315.224 42.32C315.512 42.1173 315.656 41.8613 315.656 41.552C315.656 41.2213 315.496 40.976 315.176 40.816C314.867 40.656 314.371 40.48 313.688 40.288C313.027 40.1067 312.488 39.9307 312.072 39.76C311.656 39.5893 311.293 39.328 310.984 38.976C310.685 38.624 310.536 38.16 310.536 37.584C310.536 37.1147 310.675 36.688 310.952 36.304C311.229 35.9093 311.624 35.6 312.136 35.376C312.659 35.152 313.256 35.04 313.928 35.04C314.931 35.04 315.736 35.296 316.344 35.808C316.963 36.3093 317.293 36.9973 317.336 37.872H315.512C315.48 37.4773 315.32 37.1627 315.032 36.928C314.744 36.6933 314.355 36.576 313.864 36.576C313.384 36.576 313.016 36.6667 312.76 36.848C312.504 37.0293 312.376 37.2693 312.376 37.568C312.376 37.8027 312.461 38 312.632 38.16C312.803 38.32 313.011 38.448 313.256 38.544C313.501 38.6293 313.864 38.7413 314.344 38.88C314.984 39.0507 315.507 39.2267 315.912 39.408C316.328 39.5787 316.685 39.8347 316.984 40.176C317.283 40.5173 317.437 40.9707 317.448 41.536C317.448 42.0373 317.309 42.4853 317.032 42.88C316.755 43.2747 316.36 43.584 315.848 43.808C315.347 44.032 314.755 44.144 314.072 44.144ZM321.547 36.672V41.552C321.547 41.8827 321.621 42.1227 321.771 42.272C321.931 42.4107 322.197 42.48 322.571 42.48H323.691V44H322.251C321.429 44 320.8 43.808 320.363 43.424C319.925 43.04 319.707 42.416 319.707 41.552V36.672H318.667V35.184H319.707V32.992H321.547V35.184H323.691V36.672H321.547ZM328.572 44.144C327.879 44.144 327.255 44.0213 326.7 43.776C326.156 43.52 325.724 43.1787 325.404 42.752C325.084 42.3147 324.913 41.8293 324.892 41.296H326.78C326.812 41.6693 326.988 41.984 327.308 42.24C327.639 42.4853 328.049 42.608 328.54 42.608C329.052 42.608 329.447 42.512 329.724 42.32C330.012 42.1173 330.156 41.8613 330.156 41.552C330.156 41.2213 329.996 40.976 329.676 40.816C329.367 40.656 328.871 40.48 328.188 40.288C327.527 40.1067 326.988 39.9307 326.572 39.76C326.156 39.5893 325.793 39.328 325.484 38.976C325.185 38.624 325.036 38.16 325.036 37.584C325.036 37.1147 325.175 36.688 325.452 36.304C325.729 35.9093 326.124 35.6 326.636 35.376C327.159 35.152 327.756 35.04 328.428 35.04C329.431 35.04 330.236 35.296 330.844 35.808C331.463 36.3093 331.793 36.9973 331.836 37.872H330.012C329.98 37.4773 329.82 37.1627 329.532 36.928C329.244 36.6933 328.855 36.576 328.364 36.576C327.884 36.576 327.516 36.6667 327.26 36.848C327.004 37.0293 326.876 37.2693 326.876 37.568C326.876 37.8027 326.961 38 327.132 38.16C327.303 38.32 327.511 38.448 327.756 38.544C328.001 38.6293 328.364 38.7413 328.844 38.88C329.484 39.0507 330.007 39.2267 330.412 39.408C330.828 39.5787 331.185 39.8347 331.484 40.176C331.783 40.5173 331.937 40.9707 331.948 41.536C331.948 42.0373 331.809 42.4853 331.532 42.88C331.255 43.2747 330.86 43.584 330.348 43.808C329.847 44.032 329.255 44.144 328.572 44.144Z" fill="#475467"/>
<path d="M375 35.6875C376.842 35.6875 378.333 34.1958 378.333 32.3542C378.333 30.5125 376.842 29.0208 375 29.0208C373.158 29.0208 371.667 30.5125 371.667 32.3542C371.667 34.1958 373.158 35.6875 375 35.6875ZM375 30.6875C375.917 30.6875 376.667 31.4375 376.667 32.3542C376.667 33.2708 375.917 34.0208 375 34.0208C374.083 34.0208 373.333 33.2708 373.333 32.3542C373.333 31.4375 374.083 30.6875 375 30.6875ZM375 37.8125C373.033 35.9792 370.4 34.8542 367.5 34.8542V44.0208C370.4 44.0208 373.033 45.1458 375 46.9792C376.967 45.1542 379.6 44.0208 382.5 44.0208V34.8542C379.6 34.8542 376.967 35.9792 375 37.8125ZM380.833 42.4625C378.725 42.7458 376.725 43.5458 375 44.8125C373.283 43.5458 371.275 42.7375 369.167 42.4542V36.6625C370.917 36.9792 372.542 37.7875 373.867 39.0208L375 40.0875L376.133 39.0292C377.458 37.7958 379.083 36.9875 380.833 36.6708V42.4625Z" fill="#667085"/>
<path d="M396.024 42.528H399.784V44H394.2V32.88H396.024V42.528ZM409.389 39.376C409.389 39.7067 409.368 40.0053 409.325 40.272H402.589C402.643 40.976 402.904 41.5413 403.373 41.968C403.843 42.3947 404.419 42.608 405.101 42.608C406.083 42.608 406.776 42.1973 407.181 41.376H409.149C408.883 42.1867 408.397 42.8533 407.693 43.376C407 43.888 406.136 44.144 405.101 44.144C404.259 44.144 403.501 43.9573 402.829 43.584C402.168 43.2 401.645 42.6667 401.261 41.984C400.888 41.2907 400.701 40.4907 400.701 39.584C400.701 38.6773 400.883 37.8827 401.245 37.2C401.619 36.5067 402.136 35.9733 402.797 35.6C403.469 35.2267 404.237 35.04 405.101 35.04C405.933 35.04 406.675 35.2213 407.325 35.584C407.976 35.9467 408.483 36.4587 408.845 37.12C409.208 37.7707 409.389 38.5227 409.389 39.376ZM407.485 38.8C407.475 38.128 407.235 37.5893 406.765 37.184C406.296 36.7787 405.715 36.576 405.021 36.576C404.392 36.576 403.853 36.7787 403.405 37.184C402.957 37.5787 402.691 38.1173 402.605 38.8H407.485ZM410.576 39.552C410.576 38.6667 410.758 37.8827 411.12 37.2C411.494 36.5173 411.995 35.9893 412.624 35.616C413.264 35.232 413.968 35.04 414.736 35.04C415.43 35.04 416.032 35.1787 416.544 35.456C417.067 35.7227 417.483 36.0587 417.792 36.464V35.184H419.632V44H417.792V42.688C417.483 43.104 417.062 43.4507 416.528 43.728C415.995 44.0053 415.387 44.144 414.704 44.144C413.947 44.144 413.254 43.952 412.624 43.568C411.995 43.1733 411.494 42.6293 411.12 41.936C410.758 41.232 410.576 40.4373 410.576 39.552ZM417.792 39.584C417.792 38.976 417.664 38.448 417.408 38C417.163 37.552 416.838 37.2107 416.432 36.976C416.027 36.7413 415.59 36.624 415.12 36.624C414.651 36.624 414.214 36.7413 413.808 36.976C413.403 37.2 413.072 37.536 412.816 37.984C412.571 38.4213 412.448 38.944 412.448 39.552C412.448 40.16 412.571 40.6933 412.816 41.152C413.072 41.6107 413.403 41.9627 413.808 42.208C414.224 42.4427 414.662 42.56 415.12 42.56C415.59 42.56 416.027 42.4427 416.432 42.208C416.838 41.9733 417.163 41.632 417.408 41.184C417.664 40.7253 417.792 40.192 417.792 39.584ZM423.852 36.464C424.119 36.016 424.471 35.6693 424.908 35.424C425.356 35.168 425.884 35.04 426.492 35.04V36.928H426.028C425.313 36.928 424.769 37.1093 424.396 37.472C424.033 37.8347 423.852 38.464 423.852 39.36V44H422.028V35.184H423.852V36.464ZM432.617 35.04C433.31 35.04 433.929 35.184 434.473 35.472C435.027 35.76 435.459 36.1867 435.769 36.752C436.078 37.3173 436.233 38 436.233 38.8V44H434.425V39.072C434.425 38.2827 434.227 37.68 433.833 37.264C433.438 36.8373 432.899 36.624 432.217 36.624C431.534 36.624 430.99 36.8373 430.585 37.264C430.19 37.68 429.993 38.2827 429.993 39.072V44H428.169V35.184H429.993V36.192C430.291 35.8293 430.67 35.5467 431.129 35.344C431.598 35.1413 432.094 35.04 432.617 35.04ZM454.428 32.88V44H452.604V36.384L449.212 44H447.948L444.54 36.384V44H442.716V32.88H444.684L448.588 41.6L452.476 32.88H454.428ZM460.649 44.144C459.817 44.144 459.065 43.9573 458.393 43.584C457.721 43.2 457.193 42.6667 456.809 41.984C456.425 41.2907 456.233 40.4907 456.233 39.584C456.233 38.688 456.43 37.8933 456.825 37.2C457.22 36.5067 457.758 35.9733 458.441 35.6C459.124 35.2267 459.886 35.04 460.729 35.04C461.572 35.04 462.334 35.2267 463.017 35.6C463.7 35.9733 464.238 36.5067 464.633 37.2C465.028 37.8933 465.225 38.688 465.225 39.584C465.225 40.48 465.022 41.2747 464.617 41.968C464.212 42.6613 463.657 43.2 462.953 43.584C462.26 43.9573 461.492 44.144 460.649 44.144ZM460.649 42.56C461.118 42.56 461.556 42.448 461.961 42.224C462.377 42 462.713 41.664 462.969 41.216C463.225 40.768 463.353 40.224 463.353 39.584C463.353 38.944 463.23 38.4053 462.985 37.968C462.74 37.52 462.414 37.184 462.009 36.96C461.604 36.736 461.166 36.624 460.697 36.624C460.228 36.624 459.79 36.736 459.385 36.96C458.99 37.184 458.676 37.52 458.441 37.968C458.206 38.4053 458.089 38.944 458.089 39.584C458.089 40.5333 458.329 41.2693 458.809 41.792C459.3 42.304 459.913 42.56 460.649 42.56ZM468.852 36.464C469.119 36.016 469.471 35.6693 469.908 35.424C470.356 35.168 470.884 35.04 471.492 35.04V36.928H471.028C470.313 36.928 469.769 37.1093 469.396 37.472C469.033 37.8347 468.852 38.464 468.852 39.36V44H467.028V35.184H468.852V36.464ZM481.249 39.376C481.249 39.7067 481.227 40.0053 481.185 40.272H474.449C474.502 40.976 474.763 41.5413 475.233 41.968C475.702 42.3947 476.278 42.608 476.961 42.608C477.942 42.608 478.635 42.1973 479.041 41.376H481.009C480.742 42.1867 480.257 42.8533 479.553 43.376C478.859 43.888 477.995 44.144 476.961 44.144C476.118 44.144 475.361 43.9573 474.689 43.584C474.027 43.2 473.505 42.6667 473.121 41.984C472.747 41.2907 472.561 40.4907 472.561 39.584C472.561 38.6773 472.742 37.8827 473.105 37.2C473.478 36.5067 473.995 35.9733 474.657 35.6C475.329 35.2267 476.097 35.04 476.961 35.04C477.793 35.04 478.534 35.2213 479.185 35.584C479.835 35.9467 480.342 36.4587 480.705 37.12C481.067 37.7707 481.249 38.5227 481.249 39.376ZM479.345 38.8C479.334 38.128 479.094 37.5893 478.625 37.184C478.155 36.7787 477.574 36.576 476.881 36.576C476.251 36.576 475.713 36.7787 475.265 37.184C474.817 37.5787 474.55 38.1173 474.465 38.8H479.345Z" fill="#475467"/>
<g filter="url(#filter0_d_1177_16244)">
<rect x="510" y="16" width="227" height="44" rx="8" fill="#F0F9FF"/>
<rect x="510.5" y="16.5" width="226" height="43" rx="7.5" stroke="#F0F9FF"/>
<mask id="path-17-inside-4_1177_16244" fill="white">
<path d="M541.833 38.8333H536.833V43.8333H535.167V38.8333H530.167V37.1667H535.167V32.1667H536.833V37.1667H541.833V38.8333Z"/>
</mask>
<path d="M541.833 38.8333V40.5033C542.756 40.5033 543.503 39.7557 543.503 38.8333H541.833ZM536.833 38.8333V37.1633C535.911 37.1633 535.163 37.911 535.163 38.8333H536.833ZM536.833 43.8333V45.5033C537.756 45.5033 538.503 44.7557 538.503 43.8333H536.833ZM535.167 43.8333H533.497C533.497 44.7557 534.244 45.5033 535.167 45.5033V43.8333ZM535.167 38.8333H536.837C536.837 37.911 536.089 37.1633 535.167 37.1633V38.8333ZM530.167 38.8333H528.497C528.497 39.7557 529.244 40.5033 530.167 40.5033V38.8333ZM530.167 37.1667V35.4967C529.244 35.4967 528.497 36.2444 528.497 37.1667H530.167ZM535.167 37.1667V38.8367C536.089 38.8367 536.837 38.089 536.837 37.1667H535.167ZM535.167 32.1667V30.4967C534.244 30.4967 533.497 31.2444 533.497 32.1667H535.167ZM536.833 32.1667H538.503C538.503 31.2444 537.756 30.4967 536.833 30.4967V32.1667ZM536.833 37.1667H535.163C535.163 38.089 535.911 38.8367 536.833 38.8367V37.1667ZM541.833 37.1667H543.503C543.503 36.2444 542.756 35.4967 541.833 35.4967V37.1667ZM541.833 37.1633H536.833V40.5033H541.833V37.1633ZM535.163 38.8333V43.8333H538.503V38.8333H535.163ZM536.833 42.1633H535.167V45.5033H536.833V42.1633ZM536.837 43.8333V38.8333H533.497V43.8333H536.837ZM535.167 37.1633H530.167V40.5033H535.167V37.1633ZM531.837 38.8333V37.1667H528.497V38.8333H531.837ZM530.167 38.8367H535.167V35.4967H530.167V38.8367ZM536.837 37.1667V32.1667H533.497V37.1667H536.837ZM535.167 33.8367H536.833V30.4967H535.167V33.8367ZM535.163 32.1667V37.1667H538.503V32.1667H535.163ZM536.833 38.8367H541.833V35.4967H536.833V38.8367ZM540.163 37.1667V38.8333H543.503V37.1667H540.163Z" fill="#175CD3" mask="url(#path-17-inside-4_1177_16244)"/>
<path d="M558.864 44.112C558.117 44.112 557.445 43.984 556.848 43.728C556.251 43.4613 555.781 43.088 555.44 42.608C555.099 42.128 554.928 41.568 554.928 40.928H556.88C556.923 41.408 557.109 41.8027 557.44 42.112C557.781 42.4213 558.256 42.576 558.864 42.576C559.493 42.576 559.984 42.4267 560.336 42.128C560.688 41.8187 560.864 41.424 560.864 40.944C560.864 40.5707 560.752 40.2667 560.528 40.032C560.315 39.7973 560.043 39.616 559.712 39.488C559.392 39.36 558.944 39.2213 558.368 39.072C557.643 38.88 557.051 38.688 556.592 38.496C556.144 38.2933 555.76 37.984 555.44 37.568C555.12 37.152 554.96 36.5973 554.96 35.904C554.96 35.264 555.12 34.704 555.44 34.224C555.76 33.744 556.208 33.376 556.784 33.12C557.36 32.864 558.027 32.736 558.784 32.736C559.861 32.736 560.741 33.008 561.424 33.552C562.117 34.0853 562.501 34.8213 562.576 35.76H560.56C560.528 35.3547 560.336 35.008 559.984 34.72C559.632 34.432 559.168 34.288 558.592 34.288C558.069 34.288 557.643 34.4213 557.312 34.688C556.981 34.9547 556.816 35.3387 556.816 35.84C556.816 36.1813 556.917 36.464 557.12 36.688C557.333 36.9013 557.6 37.072 557.92 37.2C558.24 37.328 558.677 37.4667 559.232 37.616C559.968 37.8187 560.565 38.0213 561.024 38.224C561.493 38.4267 561.888 38.7413 562.208 39.168C562.539 39.584 562.704 40.144 562.704 40.848C562.704 41.4133 562.549 41.9467 562.24 42.448C561.941 42.9493 561.499 43.3547 560.912 43.664C560.336 43.9627 559.653 44.112 558.864 44.112ZM572.84 35.184V44H571.016V42.96C570.728 43.3227 570.35 43.6107 569.88 43.824C569.422 44.0267 568.931 44.128 568.408 44.128C567.715 44.128 567.091 43.984 566.536 43.696C565.992 43.408 565.56 42.9813 565.24 42.416C564.931 41.8507 564.776 41.168 564.776 40.368V35.184H566.584V40.096C566.584 40.8853 566.782 41.4933 567.176 41.92C567.571 42.336 568.11 42.544 568.792 42.544C569.475 42.544 570.014 42.336 570.408 41.92C570.814 41.4933 571.016 40.8853 571.016 40.096V35.184H572.84ZM577.071 36.496C577.38 36.0693 577.802 35.7227 578.335 35.456C578.879 35.1787 579.482 35.04 580.143 35.04C580.922 35.04 581.626 35.2267 582.255 35.6C582.884 35.9733 583.38 36.5067 583.743 37.2C584.106 37.8827 584.287 38.6667 584.287 39.552C584.287 40.4373 584.106 41.232 583.743 41.936C583.38 42.6293 582.879 43.1733 582.239 43.568C581.61 43.952 580.911 44.144 580.143 44.144C579.46 44.144 578.852 44.0107 578.319 43.744C577.796 43.4773 577.38 43.136 577.071 42.72V44H575.247V32.16H577.071V36.496ZM582.431 39.552C582.431 38.944 582.303 38.4213 582.047 37.984C581.802 37.536 581.471 37.2 581.055 36.976C580.65 36.7413 580.212 36.624 579.743 36.624C579.284 36.624 578.847 36.7413 578.431 36.976C578.026 37.2107 577.695 37.552 577.439 38C577.194 38.448 577.071 38.976 577.071 39.584C577.071 40.192 577.194 40.7253 577.439 41.184C577.695 41.632 578.026 41.9733 578.431 42.208C578.847 42.4427 579.284 42.56 579.743 42.56C580.212 42.56 580.65 42.4427 581.055 42.208C581.471 41.9627 581.802 41.6107 582.047 41.152C582.303 40.6933 582.431 40.16 582.431 39.552ZM596.763 35.04C597.456 35.04 598.075 35.184 598.619 35.472C599.173 35.76 599.605 36.1867 599.915 36.752C600.235 37.3173 600.395 38 600.395 38.8V44H598.587V39.072C598.587 38.2827 598.389 37.68 597.995 37.264C597.6 36.8373 597.061 36.624 596.379 36.624C595.696 36.624 595.152 36.8373 594.747 37.264C594.352 37.68 594.155 38.2827 594.155 39.072V44H592.347V39.072C592.347 38.2827 592.149 37.68 591.755 37.264C591.36 36.8373 590.821 36.624 590.139 36.624C589.456 36.624 588.912 36.8373 588.507 37.264C588.112 37.68 587.915 38.2827 587.915 39.072V44H586.091V35.184H587.915V36.192C588.213 35.8293 588.592 35.5467 589.051 35.344C589.509 35.1413 590 35.04 590.523 35.04C591.227 35.04 591.856 35.1893 592.411 35.488C592.965 35.7867 593.392 36.2187 593.691 36.784C593.957 36.2507 594.373 35.8293 594.939 35.52C595.504 35.2 596.112 35.04 596.763 35.04ZM603.644 34.016C603.313 34.016 603.036 33.904 602.812 33.68C602.588 33.456 602.476 33.1787 602.476 32.848C602.476 32.5173 602.588 32.24 602.812 32.016C603.036 31.792 603.313 31.68 603.644 31.68C603.964 31.68 604.236 31.792 604.46 32.016C604.684 32.24 604.796 32.5173 604.796 32.848C604.796 33.1787 604.684 33.456 604.46 33.68C604.236 33.904 603.964 34.016 603.644 34.016ZM604.54 35.184V44H602.716V35.184H604.54ZM609.062 36.672V41.552C609.062 41.8827 609.137 42.1227 609.286 42.272C609.446 42.4107 609.713 42.48 610.086 42.48H611.206V44H609.766C608.945 44 608.316 43.808 607.878 43.424C607.441 43.04 607.222 42.416 607.222 41.552V36.672H606.182V35.184H607.222V32.992H609.062V35.184H611.206V36.672H609.062ZM626.18 44H624.356L618.868 35.696V44H617.044V32.864H618.868L624.356 41.152V32.864H626.18V44ZM636.655 39.376C636.655 39.7067 636.634 40.0053 636.591 40.272H629.855C629.908 40.976 630.17 41.5413 630.639 41.968C631.108 42.3947 631.684 42.608 632.367 42.608C633.348 42.608 634.042 42.1973 634.447 41.376H636.415C636.148 42.1867 635.663 42.8533 634.959 43.376C634.266 43.888 633.402 44.144 632.367 44.144C631.524 44.144 630.767 43.9573 630.095 43.584C629.434 43.2 628.911 42.6667 628.527 41.984C628.154 41.2907 627.967 40.4907 627.967 39.584C627.967 38.6773 628.148 37.8827 628.511 37.2C628.884 36.5067 629.402 35.9733 630.063 35.6C630.735 35.2267 631.503 35.04 632.367 35.04C633.199 35.04 633.94 35.2213 634.591 35.584C635.242 35.9467 635.748 36.4587 636.111 37.12C636.474 37.7707 636.655 38.5227 636.655 39.376ZM634.751 38.8C634.74 38.128 634.5 37.5893 634.031 37.184C633.562 36.7787 632.98 36.576 632.287 36.576C631.658 36.576 631.119 36.7787 630.671 37.184C630.223 37.5787 629.956 38.1173 629.871 38.8H634.751ZM650.29 35.184L647.554 44H645.634L643.858 37.488L642.082 44H640.162L637.41 35.184H639.266L641.106 42.272L642.978 35.184H644.882L646.674 42.24L648.498 35.184H650.29ZM661.585 44L659.025 39.552H657.633V44H655.809V32.88H659.649C660.503 32.88 661.223 33.0293 661.809 33.328C662.407 33.6267 662.849 34.0267 663.137 34.528C663.436 35.0293 663.585 35.5893 663.585 36.208C663.585 36.9333 663.372 37.5947 662.945 38.192C662.529 38.7787 661.884 39.1787 661.009 39.392L663.761 44H661.585ZM657.633 38.096H659.649C660.332 38.096 660.844 37.9253 661.185 37.584C661.537 37.2427 661.713 36.784 661.713 36.208C661.713 35.632 661.543 35.184 661.201 34.864C660.86 34.5333 660.343 34.368 659.649 34.368H657.633V38.096ZM673.999 39.376C673.999 39.7067 673.977 40.0053 673.935 40.272H667.199C667.252 40.976 667.513 41.5413 667.983 41.968C668.452 42.3947 669.028 42.608 669.711 42.608C670.692 42.608 671.385 42.1973 671.791 41.376H673.759C673.492 42.1867 673.007 42.8533 672.303 43.376C671.609 43.888 670.745 44.144 669.711 44.144C668.868 44.144 668.111 43.9573 667.439 43.584C666.777 43.2 666.255 42.6667 665.871 41.984C665.497 41.2907 665.311 40.4907 665.311 39.584C665.311 38.6773 665.492 37.8827 665.855 37.2C666.228 36.5067 666.745 35.9733 667.407 35.6C668.079 35.2267 668.847 35.04 669.711 35.04C670.543 35.04 671.284 35.2213 671.935 35.584C672.585 35.9467 673.092 36.4587 673.455 37.12C673.817 37.7707 673.999 38.5227 673.999 39.376ZM672.095 38.8C672.084 38.128 671.844 37.5893 671.375 37.184C670.905 36.7787 670.324 36.576 669.631 36.576C669.001 36.576 668.463 36.7787 668.015 37.184C667.567 37.5787 667.3 38.1173 667.215 38.8H672.095ZM675.186 39.552C675.186 38.6667 675.367 37.8827 675.73 37.2C676.103 36.5173 676.604 35.9893 677.234 35.616C677.874 35.232 678.583 35.04 679.362 35.04C680.044 35.04 680.647 35.1787 681.17 35.456C681.703 35.7333 682.114 36.0693 682.402 36.464V35.184H684.242V48.192H682.402V42.72C682.114 43.1147 681.698 43.4507 681.154 43.728C680.61 44.0053 679.991 44.144 679.298 44.144C678.54 44.144 677.847 43.952 677.218 43.568C676.599 43.1733 676.103 42.6293 675.73 41.936C675.367 41.232 675.186 40.4373 675.186 39.552ZM682.402 39.584C682.402 38.976 682.274 38.448 682.018 38C681.772 37.552 681.447 37.2107 681.042 36.976C680.636 36.7413 680.199 36.624 679.73 36.624C679.26 36.624 678.823 36.7413 678.418 36.976C678.012 37.2 677.682 37.536 677.426 37.984C677.18 38.4213 677.058 38.944 677.058 39.552C677.058 40.16 677.18 40.6933 677.426 41.152C677.682 41.6107 678.012 41.9627 678.418 42.208C678.834 42.4427 679.271 42.56 679.73 42.56C680.199 42.56 680.636 42.4427 681.042 42.208C681.447 41.9733 681.772 41.632 682.018 41.184C682.274 40.7253 682.402 40.192 682.402 39.584ZM694.622 35.184V44H692.798V42.96C692.51 43.3227 692.131 43.6107 691.662 43.824C691.203 44.0267 690.712 44.128 690.19 44.128C689.496 44.128 688.872 43.984 688.318 43.696C687.774 43.408 687.342 42.9813 687.022 42.416C686.712 41.8507 686.558 41.168 686.558 40.368V35.184H688.366V40.096C688.366 40.8853 688.563 41.4933 688.958 41.92C689.352 42.336 689.891 42.544 690.574 42.544C691.256 42.544 691.795 42.336 692.19 41.92C692.595 41.4933 692.798 40.8853 692.798 40.096V35.184H694.622ZM705.108 39.376C705.108 39.7067 705.087 40.0053 705.044 40.272H698.308C698.361 40.976 698.623 41.5413 699.092 41.968C699.561 42.3947 700.137 42.608 700.82 42.608C701.801 42.608 702.495 42.1973 702.9 41.376H704.868C704.601 42.1867 704.116 42.8533 703.412 43.376C702.719 43.888 701.855 44.144 700.82 44.144C699.977 44.144 699.22 43.9573 698.548 43.584C697.887 43.2 697.364 42.6667 696.98 41.984C696.607 41.2907 696.42 40.4907 696.42 39.584C696.42 38.6773 696.601 37.8827 696.964 37.2C697.337 36.5067 697.855 35.9733 698.516 35.6C699.188 35.2267 699.956 35.04 700.82 35.04C701.652 35.04 702.393 35.2213 703.044 35.584C703.695 35.9467 704.201 36.4587 704.564 37.12C704.927 37.7707 705.108 38.5227 705.108 39.376ZM703.204 38.8C703.193 38.128 702.953 37.5893 702.484 37.184C702.015 36.7787 701.433 36.576 700.74 36.576C700.111 36.576 699.572 36.7787 699.124 37.184C698.676 37.5787 698.409 38.1173 698.324 38.8H703.204ZM710.103 44.144C709.41 44.144 708.786 44.0213 708.231 43.776C707.687 43.52 707.255 43.1787 706.935 42.752C706.615 42.3147 706.444 41.8293 706.423 41.296H708.311C708.343 41.6693 708.519 41.984 708.839 42.24C709.17 42.4853 709.58 42.608 710.071 42.608C710.583 42.608 710.978 42.512 711.255 42.32C711.543 42.1173 711.687 41.8613 711.687 41.552C711.687 41.2213 711.527 40.976 711.207 40.816C710.898 40.656 710.402 40.48 709.719 40.288C709.058 40.1067 708.519 39.9307 708.103 39.76C707.687 39.5893 707.324 39.328 707.015 38.976C706.716 38.624 706.567 38.16 706.567 37.584C706.567 37.1147 706.706 36.688 706.983 36.304C707.26 35.9093 707.655 35.6 708.167 35.376C708.69 35.152 709.287 35.04 709.959 35.04C710.962 35.04 711.767 35.296 712.375 35.808C712.994 36.3093 713.324 36.9973 713.367 37.872H711.543C711.511 37.4773 711.351 37.1627 711.063 36.928C710.775 36.6933 710.386 36.576 709.895 36.576C709.415 36.576 709.047 36.6667 708.791 36.848C708.535 37.0293 708.407 37.2693 708.407 37.568C708.407 37.8027 708.492 38 708.663 38.16C708.834 38.32 709.042 38.448 709.287 38.544C709.532 38.6293 709.895 38.7413 710.375 38.88C711.015 39.0507 711.538 39.2267 711.943 39.408C712.359 39.5787 712.716 39.8347 713.015 40.176C713.314 40.5173 713.468 40.9707 713.479 41.536C713.479 42.0373 713.34 42.4853 713.063 42.88C712.786 43.2747 712.391 43.584 711.879 43.808C711.378 44.032 710.786 44.144 710.103 44.144ZM717.578 36.672V41.552C717.578 41.8827 717.653 42.1227 717.802 42.272C717.962 42.4107 718.229 42.48 718.602 42.48H719.722V44H718.282C717.461 44 716.831 43.808 716.394 43.424C715.957 43.04 715.738 42.416 715.738 41.552V36.672H714.698V35.184H715.738V32.992H717.578V35.184H719.722V36.672H717.578Z" fill="#1849A9"/>
</g>
<path d="M1239.13 39.8792H1238.47L1238.24 39.6542C1239.05 38.7042 1239.55 37.4708 1239.55 36.1292C1239.55 33.1375 1237.12 30.7125 1234.13 30.7125C1231.14 30.7125 1228.71 33.1375 1228.71 36.1292C1228.71 39.1208 1231.14 41.5458 1234.13 41.5458C1235.47 41.5458 1236.7 41.0542 1237.65 40.2375L1237.88 40.4708V41.1292L1242.05 45.2875L1243.29 44.0458L1239.13 39.8792ZM1234.13 39.8792C1232.05 39.8792 1230.38 38.2042 1230.38 36.1292C1230.38 34.0542 1232.05 32.3792 1234.13 32.3792C1236.2 32.3792 1237.88 34.0542 1237.88 36.1292C1237.88 38.2042 1236.2 39.8792 1234.13 39.8792Z" fill="#667085"/>
<mask id="path-23-inside-5_1177_16244" fill="white">
<path d="M1291 44H1293V42H1291V44ZM1292 28C1286.48 28 1282 32.48 1282 38C1282 43.52 1286.48 48 1292 48C1297.52 48 1302 43.52 1302 38C1302 32.48 1297.52 28 1292 28ZM1292 46C1287.59 46 1284 42.41 1284 38C1284 33.59 1287.59 30 1292 30C1296.41 30 1300 33.59 1300 38C1300 42.41 1296.41 46 1292 46ZM1292 32C1289.79 32 1288 33.79 1288 36H1290C1290 34.9 1290.9 34 1292 34C1293.1 34 1294 34.9 1294 36C1294 38 1291 37.75 1291 41H1293C1293 38.75 1296 38.5 1296 36C1296 33.79 1294.21 32 1292 32Z"/>
</mask>
<path d="M1291 44H1289C1289 45.1046 1289.9 46 1291 46V44ZM1293 44V46C1294.1 46 1295 45.1046 1295 44H1293ZM1293 42H1295C1295 40.8954 1294.1 40 1293 40V42ZM1291 42V40C1289.9 40 1289 40.8954 1289 42H1291ZM1288 36H1286C1286 37.1046 1286.9 38 1288 38V36ZM1290 36V38C1291.1 38 1292 37.1046 1292 36H1290ZM1291 41H1289C1289 42.1046 1289.9 43 1291 43V41ZM1293 41V43C1294.1 43 1295 42.1046 1295 41H1293ZM1291 46H1293V42H1291V46ZM1295 44V42H1291V44H1295ZM1293 40H1291V44H1293V40ZM1289 42V44H1293V42H1289ZM1292 26C1285.38 26 1280 31.3754 1280 38H1284C1284 33.5846 1287.58 30 1292 30V26ZM1280 38C1280 44.6246 1285.38 50 1292 50V46C1287.58 46 1284 42.4154 1284 38H1280ZM1292 50C1298.62 50 1304 44.6246 1304 38H1300C1300 42.4154 1296.42 46 1292 46V50ZM1304 38C1304 31.3754 1298.62 26 1292 26V30C1296.42 30 1300 33.5846 1300 38H1304ZM1292 44C1288.69 44 1286 41.3054 1286 38H1282C1282 43.5146 1286.49 48 1292 48V44ZM1286 38C1286 34.6946 1288.69 32 1292 32V28C1286.49 28 1282 32.4854 1282 38H1286ZM1292 32C1295.31 32 1298 34.6946 1298 38H1302C1302 32.4854 1297.51 28 1292 28V32ZM1298 38C1298 41.3054 1295.31 44 1292 44V48C1297.51 48 1302 43.5146 1302 38H1298ZM1292 30C1288.69 30 1286 32.6854 1286 36H1290C1290 34.8946 1290.89 34 1292 34V30ZM1288 38H1290V34H1288V38ZM1292 36V32C1289.8 32 1288 33.7954 1288 36H1292ZM1292 36H1296C1296 33.7954 1294.2 32 1292 32V36ZM1292 36C1292 36.001 1292 35.999 1292 35.9999C1292 36.0009 1292 35.9989 1292 35.9998C1292 35.9996 1292 35.9994 1292 35.9991C1292 35.9986 1292 35.9977 1292 35.9967C1292 35.9945 1292 35.9913 1292 35.9872C1292 35.9789 1292 35.9677 1292.01 35.9542C1292.01 35.9258 1292.02 35.8954 1292.03 35.8662C1292.06 35.8061 1292.08 35.789 1292.05 35.8208C1291.92 35.9694 1291.79 36.043 1291.26 36.4632C1290.83 36.8057 1290.23 37.3195 1289.76 38.0936C1289.27 38.8982 1289 39.856 1289 41H1293C1293 40.519 1293.1 40.2893 1293.18 40.1642C1293.27 40.0086 1293.42 39.8506 1293.74 39.5993C1293.96 39.4257 1294.58 38.9837 1295.01 38.5152C1295.55 37.9185 1296 37.0973 1296 36H1292ZM1291 43H1293V39H1291V43ZM1295 41C1295 40.9242 1294.93 40.8778 1295.82 40.0989C1296.54 39.4638 1298 38.2382 1298 36H1294C1294 36.2618 1293.96 36.4112 1293.18 37.0886C1292.57 37.6222 1291 38.8258 1291 41H1295ZM1298 36C1298 32.6854 1295.31 30 1292 30V34C1293.11 34 1294 34.8946 1294 36H1298Z" fill="#344054" mask="url(#path-23-inside-5_1177_16244)"/>
<mask id="path-25-inside-6_1177_16244" fill="white">
<path d="M1340 47.75C1341.1 47.75 1342 46.85 1342 45.75H1338C1338 46.85 1338.9 47.75 1340 47.75ZM1346 41.75V36.75C1346 33.68 1344.37 31.11 1341.5 30.43V29.75C1341.5 28.92 1340.83 28.25 1340 28.25C1339.17 28.25 1338.5 28.92 1338.5 29.75V30.43C1335.64 31.11 1334 33.67 1334 36.75V41.75L1332 43.75V44.75H1348V43.75L1346 41.75ZM1344 42.75H1336V36.75C1336 34.27 1337.51 32.25 1340 32.25C1342.49 32.25 1344 34.27 1344 36.75V42.75Z"/>
</mask>
<path d="M1342 45.75H1344C1344 44.6454 1343.1 43.75 1342 43.75V45.75ZM1338 45.75V43.75C1336.9 43.75 1336 44.6454 1336 45.75H1338ZM1346 41.75H1344C1344 42.2804 1344.21 42.7891 1344.59 43.1642L1346 41.75ZM1341.5 30.43H1339.5C1339.5 31.3569 1340.14 32.1624 1341.04 32.3761L1341.5 30.43ZM1338.5 30.43L1338.96 32.3758C1339.86 32.1615 1340.5 31.3564 1340.5 30.43H1338.5ZM1334 41.75L1335.41 43.1642C1335.79 42.7891 1336 42.2804 1336 41.75H1334ZM1332 43.75L1330.59 42.3358C1330.21 42.7109 1330 43.2196 1330 43.75H1332ZM1332 44.75H1330C1330 45.8546 1330.9 46.75 1332 46.75V44.75ZM1348 44.75V46.75C1349.1 46.75 1350 45.8546 1350 44.75H1348ZM1348 43.75H1350C1350 43.2196 1349.79 42.7109 1349.41 42.3358L1348 43.75ZM1344 42.75V44.75C1345.1 44.75 1346 43.8546 1346 42.75H1344ZM1336 42.75H1334C1334 43.8546 1334.9 44.75 1336 44.75V42.75ZM1340 49.75C1342.2 49.75 1344 47.9546 1344 45.75H1340V49.75ZM1342 43.75H1338V47.75H1342V43.75ZM1336 45.75C1336 47.9546 1337.8 49.75 1340 49.75V45.75H1336ZM1348 41.75V36.75H1344V41.75H1348ZM1348 36.75C1348 32.9844 1345.94 29.4267 1341.96 28.4839L1341.04 32.3761C1342.8 32.7933 1344 34.3756 1344 36.75H1348ZM1343.5 30.43V29.75H1339.5V30.43H1343.5ZM1343.5 29.75C1343.5 27.8154 1341.93 26.25 1340 26.25V30.25C1339.73 30.25 1339.5 30.0246 1339.5 29.75H1343.5ZM1340 26.25C1338.07 26.25 1336.5 27.8154 1336.5 29.75H1340.5C1340.5 30.0246 1340.27 30.25 1340 30.25V26.25ZM1336.5 29.75V30.43H1340.5V29.75H1336.5ZM1338.04 28.4842C1334.07 29.4266 1332 32.9688 1332 36.75H1336C1336 34.3712 1337.21 32.7934 1338.96 32.3758L1338.04 28.4842ZM1332 36.75V41.75H1336V36.75H1332ZM1332.59 40.3358L1330.59 42.3358L1333.41 45.1642L1335.41 43.1642L1332.59 40.3358ZM1330 43.75V44.75H1334V43.75H1330ZM1332 46.75H1348V42.75H1332V46.75ZM1350 44.75V43.75H1346V44.75H1350ZM1349.41 42.3358L1347.41 40.3358L1344.59 43.1642L1346.59 45.1642L1349.41 42.3358ZM1344 40.75H1336V44.75H1344V40.75ZM1338 42.75V36.75H1334V42.75H1338ZM1338 36.75C1338 35.9024 1338.26 35.2581 1338.59 34.8609C1338.9 34.4961 1339.34 34.25 1340 34.25V30.25C1338.17 30.25 1336.61 31.0139 1335.54 32.2791C1334.5 33.5119 1334 35.1176 1334 36.75H1338ZM1340 34.25C1340.66 34.25 1341.1 34.4961 1341.41 34.8609C1341.74 35.2581 1342 35.9024 1342 36.75H1346C1346 35.1176 1345.5 33.5119 1344.46 32.2791C1343.39 31.0139 1341.83 30.25 1340 30.25V34.25ZM1342 36.75V42.75H1346V36.75H1342Z" fill="#344054" mask="url(#path-25-inside-6_1177_16244)"/>
<rect x="1335.55" y="28.5" width="12" height="12" rx="6" fill="#B42318"/>
<rect x="1376" y="18" width="40" height="40" rx="20" fill="#072136"/>
<path d="M1396.8 32.88V44H1394.98V36.384L1391.59 44H1390.32L1386.91 36.384V44H1385.09V32.88H1387.06L1390.96 41.6L1394.85 32.88H1396.8ZM1404.98 44L1402.42 39.552H1401.02V44H1399.2V32.88H1403.04C1403.89 32.88 1404.61 33.0293 1405.2 33.328C1405.8 33.6267 1406.24 34.0267 1406.53 34.528C1406.83 35.0293 1406.98 35.5893 1406.98 36.208C1406.98 36.9333 1406.76 37.5947 1406.34 38.192C1405.92 38.7787 1405.27 39.1787 1404.4 39.392L1407.15 44H1404.98ZM1401.02 38.096H1403.04C1403.72 38.096 1404.23 37.9253 1404.58 37.584C1404.93 37.2427 1405.1 36.784 1405.1 36.208C1405.1 35.632 1404.93 35.184 1404.59 34.864C1404.25 34.5333 1403.73 34.368 1403.04 34.368H1401.02V38.096Z" fill="white"/>
<defs>
<filter id="filter0_d_1177_16244" x="508" y="15" width="231" height="48" filterUnits="userSpaceOnUse" color-interpolation-filters="sRGB">
<feFlood flood-opacity="0" result="BackgroundImageFix"/>
<feColorMatrix in="SourceAlpha" type="matrix" values="0 0 0 0 0 0 0 0 0 0 0 0 0 0 0 0 0 0 127 0" result="hardAlpha"/>
<feOffset dy="1"/>
<feGaussianBlur stdDeviation="1"/>
<feColorMatrix type="matrix" values="0 0 0 0 0.0627451 0 0 0 0 0.0941176 0 0 0 0 0.156863 0 0 0 0.05 0"/>
<feBlend mode="normal" in2="BackgroundImageFix" result="effect1_dropShadow_1177_16244"/>
<feBlend mode="normal" in="SourceGraphic" in2="effect1_dropShadow_1177_16244" result="shape"/>
</filter>
</defs>
</svg>
