<svg width="920" height="251" viewBox="0 0 920 251" fill="none" xmlns="http://www.w3.org/2000/svg">
<path d="M234.395 9.872V35H229.355V24.308H218.591V35H213.551V9.872H218.591V20.204H229.355V9.872H234.395ZM257.176 24.596C257.176 25.316 257.128 25.964 257.032 26.54H242.452C242.572 27.98 243.076 29.108 243.964 29.924C244.852 30.74 245.944 31.148 247.24 31.148C249.112 31.148 250.444 30.344 251.236 28.736H256.672C256.096 30.656 254.992 32.24 253.36 33.488C251.728 34.712 249.724 35.324 247.348 35.324C245.428 35.324 243.7 34.904 242.164 34.064C240.652 33.2 239.464 31.988 238.6 30.428C237.76 28.868 237.34 27.068 237.34 25.028C237.34 22.964 237.76 21.152 238.6 19.592C239.44 18.032 240.616 16.832 242.128 15.992C243.64 15.152 245.38 14.732 247.348 14.732C249.244 14.732 250.936 15.14 252.424 15.956C253.936 16.772 255.1 17.936 255.916 19.448C256.756 20.936 257.176 22.652 257.176 24.596ZM251.956 23.156C251.932 21.86 251.464 20.828 250.552 20.06C249.64 19.268 248.524 18.872 247.204 18.872C245.956 18.872 244.9 19.256 244.036 20.024C243.196 20.768 242.68 21.812 242.488 23.156H251.956ZM265.174 8.36V35H260.134V8.36H265.174ZM274.474 8.36V35H269.434V8.36H274.474ZM287.59 35.324C285.67 35.324 283.942 34.904 282.406 34.064C280.87 33.2 279.658 31.988 278.77 30.428C277.906 28.868 277.474 27.068 277.474 25.028C277.474 22.988 277.918 21.188 278.806 19.628C279.718 18.068 280.954 16.868 282.514 16.028C284.074 15.164 285.814 14.732 287.734 14.732C289.654 14.732 291.394 15.164 292.954 16.028C294.514 16.868 295.738 18.068 296.626 19.628C297.538 21.188 297.994 22.988 297.994 25.028C297.994 27.068 297.526 28.868 296.59 30.428C295.678 31.988 294.43 33.2 292.846 34.064C291.286 34.904 289.534 35.324 287.59 35.324ZM287.59 30.932C288.502 30.932 289.354 30.716 290.146 30.284C290.962 29.828 291.61 29.156 292.09 28.268C292.57 27.38 292.81 26.3 292.81 25.028C292.81 23.132 292.306 21.68 291.298 20.672C290.314 19.64 289.102 19.124 287.662 19.124C286.222 19.124 285.01 19.64 284.026 20.672C283.066 21.68 282.586 23.132 282.586 25.028C282.586 26.924 283.054 28.388 283.99 29.42C284.95 30.428 286.15 30.932 287.59 30.932ZM307.487 9.44L306.911 26.828H302.663L302.051 9.44H307.487ZM304.895 35.252C303.983 35.252 303.227 34.976 302.627 34.424C302.051 33.848 301.763 33.14 301.763 32.3C301.763 31.46 302.051 30.764 302.627 30.212C303.227 29.636 303.983 29.348 304.895 29.348C305.783 29.348 306.515 29.636 307.091 30.212C307.667 30.764 307.955 31.46 307.955 32.3C307.955 33.14 307.667 33.848 307.091 34.424C306.515 34.976 305.783 35.252 304.895 35.252ZM341.679 9.872V35H336.639V24.308H325.875V35H320.835V9.872H325.875V20.204H336.639V9.872H341.679ZM354.776 35.324C352.856 35.324 351.128 34.904 349.592 34.064C348.056 33.2 346.844 31.988 345.956 30.428C345.092 28.868 344.66 27.068 344.66 25.028C344.66 22.988 345.104 21.188 345.992 19.628C346.904 18.068 348.14 16.868 349.7 16.028C351.26 15.164 353 14.732 354.92 14.732C356.84 14.732 358.58 15.164 360.14 16.028C361.7 16.868 362.924 18.068 363.812 19.628C364.724 21.188 365.18 22.988 365.18 25.028C365.18 27.068 364.712 28.868 363.776 30.428C362.864 31.988 361.616 33.2 360.032 34.064C358.472 34.904 356.72 35.324 354.776 35.324ZM354.776 30.932C355.688 30.932 356.54 30.716 357.332 30.284C358.148 29.828 358.796 29.156 359.276 28.268C359.756 27.38 359.996 26.3 359.996 25.028C359.996 23.132 359.492 21.68 358.484 20.672C357.5 19.64 356.288 19.124 354.848 19.124C353.408 19.124 352.196 19.64 351.212 20.672C350.252 21.68 349.772 23.132 349.772 25.028C349.772 26.924 350.24 28.388 351.176 29.42C352.136 30.428 353.336 30.932 354.776 30.932ZM395.805 15.056L389.973 35H384.537L380.901 21.068L377.265 35H371.793L365.925 15.056H371.037L374.565 30.248L378.381 15.056H383.709L387.453 30.212L390.981 15.056H395.805ZM404.374 25.028C404.374 22.964 404.794 21.164 405.634 19.628C406.474 18.068 407.638 16.868 409.126 16.028C410.614 15.164 412.318 14.732 414.238 14.732C416.71 14.732 418.75 15.356 420.358 16.604C421.99 17.828 423.082 19.556 423.634 21.788H418.198C417.91 20.924 417.418 20.252 416.722 19.772C416.05 19.268 415.21 19.016 414.202 19.016C412.762 19.016 411.622 19.544 410.782 20.6C409.942 21.632 409.522 23.108 409.522 25.028C409.522 26.924 409.942 28.4 410.782 29.456C411.622 30.488 412.762 31.004 414.202 31.004C416.242 31.004 417.574 30.092 418.198 28.268H423.634C423.082 30.428 421.99 32.144 420.358 33.416C418.726 34.688 416.686 35.324 414.238 35.324C412.318 35.324 410.614 34.904 409.126 34.064C407.638 33.2 406.474 32 405.634 30.464C404.794 28.904 404.374 27.092 404.374 25.028ZM425.31 24.956C425.31 22.94 425.706 21.152 426.498 19.592C427.314 18.032 428.406 16.832 429.774 15.992C431.166 15.152 432.714 14.732 434.418 14.732C435.906 14.732 437.202 15.032 438.306 15.632C439.434 16.232 440.334 16.988 441.006 17.9V15.056H446.082V35H441.006V32.084C440.358 33.02 439.458 33.8 438.306 34.424C437.178 35.024 435.87 35.324 434.382 35.324C432.702 35.324 431.166 34.892 429.774 34.028C428.406 33.164 427.314 31.952 426.498 30.392C425.706 28.808 425.31 26.996 425.31 24.956ZM441.006 25.028C441.006 23.804 440.766 22.76 440.286 21.896C439.806 21.008 439.158 20.336 438.342 19.88C437.526 19.4 436.65 19.16 435.714 19.16C434.778 19.16 433.914 19.388 433.122 19.844C432.33 20.3 431.682 20.972 431.178 21.86C430.698 22.724 430.458 23.756 430.458 24.956C430.458 26.156 430.698 27.212 431.178 28.124C431.682 29.012 432.33 29.696 433.122 30.176C433.938 30.656 434.802 30.896 435.714 30.896C436.65 30.896 437.526 30.668 438.342 30.212C439.158 29.732 439.806 29.06 440.286 28.196C440.766 27.308 441.006 26.252 441.006 25.028ZM461.337 14.768C463.713 14.768 465.633 15.524 467.097 17.036C468.561 18.524 469.293 20.612 469.293 23.3V35H464.253V23.984C464.253 22.4 463.857 21.188 463.065 20.348C462.273 19.484 461.193 19.052 459.825 19.052C458.433 19.052 457.329 19.484 456.513 20.348C455.721 21.188 455.325 22.4 455.325 23.984V35H450.285V15.056H455.325V17.54C455.997 16.676 456.849 16.004 457.881 15.524C458.937 15.02 460.089 14.768 461.337 14.768ZM508.872 15.056L503.04 35H497.604L493.968 21.068L490.332 35H484.86L478.992 15.056H484.104L487.632 30.248L491.448 15.056H496.776L500.52 30.212L504.048 15.056H508.872ZM529.419 24.596C529.419 25.316 529.371 25.964 529.275 26.54H514.695C514.815 27.98 515.319 29.108 516.207 29.924C517.095 30.74 518.187 31.148 519.483 31.148C521.355 31.148 522.687 30.344 523.479 28.736H528.915C528.339 30.656 527.235 32.24 525.603 33.488C523.971 34.712 521.967 35.324 519.591 35.324C517.671 35.324 515.943 34.904 514.407 34.064C512.895 33.2 511.707 31.988 510.843 30.428C510.003 28.868 509.583 27.068 509.583 25.028C509.583 22.964 510.003 21.152 510.843 19.592C511.683 18.032 512.859 16.832 514.371 15.992C515.883 15.152 517.623 14.732 519.591 14.732C521.487 14.732 523.179 15.14 524.667 15.956C526.179 16.772 527.343 17.936 528.159 19.448C528.999 20.936 529.419 22.652 529.419 24.596ZM524.199 23.156C524.175 21.86 523.707 20.828 522.795 20.06C521.883 19.268 520.767 18.872 519.447 18.872C518.199 18.872 517.143 19.256 516.279 20.024C515.439 20.768 514.923 21.812 514.731 23.156H524.199ZM551.468 14.768C552.98 14.768 554.324 15.104 555.5 15.776C556.676 16.424 557.588 17.396 558.236 18.692C558.908 19.964 559.244 21.5 559.244 23.3V35H554.204V23.984C554.204 22.4 553.808 21.188 553.016 20.348C552.224 19.484 551.144 19.052 549.776 19.052C548.384 19.052 547.28 19.484 546.464 20.348C545.672 21.188 545.276 22.4 545.276 23.984V35H540.236V8.36H545.276V17.54C545.924 16.676 546.788 16.004 547.868 15.524C548.948 15.02 550.148 14.768 551.468 14.768ZM581.856 24.596C581.856 25.316 581.808 25.964 581.712 26.54H567.132C567.252 27.98 567.756 29.108 568.644 29.924C569.532 30.74 570.624 31.148 571.92 31.148C573.792 31.148 575.124 30.344 575.916 28.736H581.352C580.776 30.656 579.672 32.24 578.04 33.488C576.408 34.712 574.404 35.324 572.028 35.324C570.108 35.324 568.38 34.904 566.844 34.064C565.332 33.2 564.144 31.988 563.28 30.428C562.44 28.868 562.02 27.068 562.02 25.028C562.02 22.964 562.44 21.152 563.28 19.592C564.12 18.032 565.296 16.832 566.808 15.992C568.32 15.152 570.06 14.732 572.028 14.732C573.924 14.732 575.616 15.14 577.104 15.956C578.616 16.772 579.78 17.936 580.596 19.448C581.436 20.936 581.856 22.652 581.856 24.596ZM576.636 23.156C576.612 21.86 576.144 20.828 575.232 20.06C574.32 19.268 573.204 18.872 571.884 18.872C570.636 18.872 569.58 19.256 568.716 20.024C567.876 20.768 567.36 21.812 567.168 23.156H576.636ZM589.855 8.36V35H584.815V8.36H589.855ZM599.155 17.936C599.803 17.024 600.691 16.268 601.819 15.668C602.971 15.044 604.279 14.732 605.743 14.732C607.447 14.732 608.983 15.152 610.351 15.992C611.743 16.832 612.835 18.032 613.627 19.592C614.443 21.128 614.851 22.916 614.851 24.956C614.851 26.996 614.443 28.808 613.627 30.392C612.835 31.952 611.743 33.164 610.351 34.028C608.983 34.892 607.447 35.324 605.743 35.324C604.279 35.324 602.983 35.024 601.855 34.424C600.751 33.824 599.851 33.068 599.155 32.156V44.504H594.115V15.056H599.155V17.936ZM609.703 24.956C609.703 23.756 609.451 22.724 608.947 21.86C608.467 20.972 607.819 20.3 607.003 19.844C606.211 19.388 605.347 19.16 604.411 19.16C603.499 19.16 602.635 19.4 601.819 19.88C601.027 20.336 600.379 21.008 599.875 21.896C599.395 22.784 599.155 23.828 599.155 25.028C599.155 26.228 599.395 27.272 599.875 28.16C600.379 29.048 601.027 29.732 601.819 30.212C602.635 30.668 603.499 30.896 604.411 30.896C605.347 30.896 606.211 30.656 607.003 30.176C607.819 29.696 608.467 29.012 608.947 28.124C609.451 27.236 609.703 26.18 609.703 24.956ZM644.731 15.056L632.383 44.432H627.019L631.339 34.496L623.347 15.056H628.999L634.147 28.988L639.367 15.056H644.731ZM655.584 35.324C653.664 35.324 651.936 34.904 650.4 34.064C648.864 33.2 647.652 31.988 646.764 30.428C645.9 28.868 645.468 27.068 645.468 25.028C645.468 22.988 645.912 21.188 646.8 19.628C647.712 18.068 648.948 16.868 650.508 16.028C652.068 15.164 653.808 14.732 655.728 14.732C657.648 14.732 659.388 15.164 660.948 16.028C662.508 16.868 663.732 18.068 664.62 19.628C665.532 21.188 665.988 22.988 665.988 25.028C665.988 27.068 665.52 28.868 664.584 30.428C663.672 31.988 662.424 33.2 660.84 34.064C659.28 34.904 657.528 35.324 655.584 35.324ZM655.584 30.932C656.496 30.932 657.348 30.716 658.14 30.284C658.956 29.828 659.604 29.156 660.084 28.268C660.564 27.38 660.804 26.3 660.804 25.028C660.804 23.132 660.3 21.68 659.292 20.672C658.308 19.64 657.096 19.124 655.656 19.124C654.216 19.124 653.004 19.64 652.02 20.672C651.06 21.68 650.58 23.132 650.58 25.028C650.58 26.924 651.048 28.388 651.984 29.42C652.944 30.428 654.144 30.932 655.584 30.932ZM687.793 15.056V35H682.717V32.48C682.069 33.344 681.217 34.028 680.161 34.532C679.129 35.012 678.001 35.252 676.777 35.252C675.217 35.252 673.837 34.928 672.637 34.28C671.437 33.608 670.489 32.636 669.793 31.364C669.121 30.068 668.785 28.532 668.785 26.756V15.056H673.825V26.036C673.825 27.62 674.221 28.844 675.013 29.708C675.805 30.548 676.885 30.968 678.253 30.968C679.645 30.968 680.737 30.548 681.529 29.708C682.321 28.844 682.717 27.62 682.717 26.036V15.056H687.793ZM699.066 9.008C701.562 9.008 703.566 9.692 705.078 11.06C706.614 12.404 707.382 14.264 707.382 16.64C707.382 18.992 706.626 20.792 705.114 22.04C703.602 23.264 701.598 23.876 699.102 23.876L698.958 26.648H694.53L694.35 20.528H695.97C698.058 20.528 699.666 20.252 700.794 19.7C701.922 19.148 702.486 18.14 702.486 16.676C702.486 15.62 702.174 14.78 701.55 14.156C700.95 13.532 700.122 13.22 699.066 13.22C697.962 13.22 697.098 13.52 696.474 14.12C695.874 14.72 695.574 15.548 695.574 16.604H690.822C690.798 15.14 691.11 13.832 691.758 12.68C692.406 11.528 693.354 10.628 694.602 9.98C695.874 9.332 697.362 9.008 699.066 9.008ZM696.726 35.252C695.814 35.252 695.058 34.976 694.458 34.424C693.882 33.848 693.594 33.14 693.594 32.3C693.594 31.46 693.882 30.764 694.458 30.212C695.058 29.636 695.814 29.348 696.726 29.348C697.614 29.348 698.346 29.636 698.922 30.212C699.498 30.764 699.786 31.46 699.786 32.3C699.786 33.14 699.498 33.848 698.922 34.424C698.346 34.976 697.614 35.252 696.726 35.252Z" fill="#344054"/>
<rect x="0.5" y="84.5" width="211" height="166" rx="7.5" fill="#FCFCFD"/>
<rect x="0.5" y="84.5" width="211" height="166" rx="7.5" stroke="#EAECF0"/>
<path d="M125.97 122.036C130.958 128.809 134.118 137.385 131.483 145.425C128.941 153.18 121.137 157.425 113.461 160.203C106.411 162.754 98.8747 162.873 92.1441 159.661C84.9176 156.212 78.4282 150.593 76.8519 142.73C75.233 134.655 78.7847 126.561 84.2642 120.356C89.7423 114.152 97.3201 109.893 105.556 110.225C113.845 110.558 121.066 115.379 125.97 122.036Z" fill="#F0F9FF"/>
<path d="M116.667 127H111.333V124.333C111.333 122.853 110.147 121.667 108.667 121.667H103.333C101.853 121.667 100.667 122.853 100.667 124.333V127H95.3333C93.8533 127 92.68 128.187 92.68 129.667L92.6666 144.333C92.6666 145.813 93.8533 147 95.3333 147H116.667C118.147 147 119.333 145.813 119.333 144.333V129.667C119.333 128.187 118.147 127 116.667 127ZM103.333 124.333H108.667V127H103.333V124.333ZM116.667 144.333H95.3333V129.667H116.667V144.333Z" fill="#2E90FA"/>
<path d="M78.58 193.126C77.704 193.126 76.912 192.976 76.204 192.676C75.508 192.376 74.956 191.944 74.548 191.38C74.14 190.816 73.93 190.15 73.918 189.382H76.618C76.654 189.898 76.834 190.306 77.158 190.606C77.494 190.906 77.95 191.056 78.526 191.056C79.114 191.056 79.576 190.918 79.912 190.642C80.248 190.354 80.416 189.982 80.416 189.526C80.416 189.154 80.302 188.848 80.074 188.608C79.846 188.368 79.558 188.182 79.21 188.05C78.874 187.906 78.406 187.75 77.806 187.582C76.99 187.342 76.324 187.108 75.808 186.88C75.304 186.64 74.866 186.286 74.494 185.818C74.134 185.338 73.954 184.702 73.954 183.91C73.954 183.166 74.14 182.518 74.512 181.966C74.884 181.414 75.406 180.994 76.078 180.706C76.75 180.406 77.518 180.256 78.382 180.256C79.678 180.256 80.728 180.574 81.532 181.21C82.348 181.834 82.798 182.71 82.882 183.838H80.11C80.086 183.406 79.9 183.052 79.552 182.776C79.216 182.488 78.766 182.344 78.202 182.344C77.71 182.344 77.314 182.47 77.014 182.722C76.726 182.974 76.582 183.34 76.582 183.82C76.582 184.156 76.69 184.438 76.906 184.666C77.134 184.882 77.41 185.062 77.734 185.206C78.07 185.338 78.538 185.494 79.138 185.674C79.954 185.914 80.62 186.154 81.136 186.394C81.652 186.634 82.096 186.994 82.468 187.474C82.84 187.954 83.026 188.584 83.026 189.364C83.026 190.036 82.852 190.66 82.504 191.236C82.156 191.812 81.646 192.274 80.974 192.622C80.302 192.958 79.504 193.126 78.58 193.126ZM94.6248 183.028V193H92.0868V191.74C91.7628 192.172 91.3368 192.514 90.8088 192.766C90.2928 193.006 89.7288 193.126 89.1168 193.126C88.3368 193.126 87.6468 192.964 87.0468 192.64C86.4468 192.304 85.9728 191.818 85.6248 191.182C85.2888 190.534 85.1208 189.766 85.1208 188.878V183.028H87.6408V188.518C87.6408 189.31 87.8388 189.922 88.2348 190.354C88.6308 190.774 89.1708 190.984 89.8548 190.984C90.5508 190.984 91.0968 190.774 91.4928 190.354C91.8888 189.922 92.0868 189.31 92.0868 188.518V183.028H94.6248ZM99.6311 184.486C99.9551 184.006 100.399 183.616 100.963 183.316C101.539 183.016 102.193 182.866 102.925 182.866C103.777 182.866 104.545 183.076 105.229 183.496C105.925 183.916 106.471 184.516 106.867 185.296C107.275 186.064 107.479 186.958 107.479 187.978C107.479 188.998 107.275 189.904 106.867 190.696C106.471 191.476 105.925 192.082 105.229 192.514C104.545 192.946 103.777 193.162 102.925 193.162C102.181 193.162 101.527 193.018 100.963 192.73C100.411 192.43 99.9671 192.046 99.6311 191.578V193H97.1111V179.68H99.6311V184.486ZM104.905 187.978C104.905 187.378 104.779 186.862 104.527 186.43C104.287 185.986 103.963 185.65 103.555 185.422C103.159 185.194 102.727 185.08 102.259 185.08C101.803 185.08 101.371 185.2 100.963 185.44C100.567 185.668 100.243 186.004 99.9911 186.448C99.7511 186.892 99.6311 187.414 99.6311 188.014C99.6311 188.614 99.7511 189.136 99.9911 189.58C100.243 190.024 100.567 190.366 100.963 190.606C101.371 190.834 101.803 190.948 102.259 190.948C102.727 190.948 103.159 190.828 103.555 190.588C103.963 190.348 104.287 190.006 104.527 189.562C104.779 189.118 104.905 188.59 104.905 187.978ZM121.694 182.884C122.918 182.884 123.902 183.262 124.646 184.018C125.402 184.762 125.78 185.806 125.78 187.15V193H123.26V187.492C123.26 186.712 123.062 186.118 122.666 185.71C122.27 185.29 121.73 185.08 121.046 185.08C120.362 185.08 119.816 185.29 119.408 185.71C119.012 186.118 118.814 186.712 118.814 187.492V193H116.294V187.492C116.294 186.712 116.096 186.118 115.7 185.71C115.304 185.29 114.764 185.08 114.08 185.08C113.384 185.08 112.832 185.29 112.424 185.71C112.028 186.118 111.83 186.712 111.83 187.492V193H109.31V183.028H111.83V184.234C112.154 183.814 112.568 183.484 113.072 183.244C113.588 183.004 114.152 182.884 114.764 182.884C115.544 182.884 116.24 183.052 116.852 183.388C117.464 183.712 117.938 184.18 118.274 184.792C118.598 184.216 119.066 183.754 119.678 183.406C120.302 183.058 120.974 182.884 121.694 182.884ZM129.45 181.84C129.006 181.84 128.634 181.702 128.334 181.426C128.046 181.138 127.902 180.784 127.902 180.364C127.902 179.944 128.046 179.596 128.334 179.32C128.634 179.032 129.006 178.888 129.45 178.888C129.894 178.888 130.26 179.032 130.548 179.32C130.848 179.596 130.998 179.944 130.998 180.364C130.998 180.784 130.848 181.138 130.548 181.426C130.26 181.702 129.894 181.84 129.45 181.84ZM130.692 183.028V193H128.172V183.028H130.692ZM136.115 185.098V189.922C136.115 190.258 136.193 190.504 136.349 190.66C136.517 190.804 136.793 190.876 137.177 190.876H138.347V193H136.763C134.639 193 133.577 191.968 133.577 189.904V185.098H132.389V183.028H133.577V180.562H136.115V183.028H138.347V185.098H136.115Z" fill="#1570EF"/>
<path d="M58.75 221H57.112L50.524 211.01V221H48.886V208.436H50.524L57.112 218.408V208.436H58.75V221ZM70.5423 215.69C70.5423 216.002 70.5243 216.332 70.4883 216.68H62.6043C62.6643 217.652 62.9943 218.414 63.5943 218.966C64.2063 219.506 64.9443 219.776 65.8083 219.776C66.5163 219.776 67.1043 219.614 67.5723 219.29C68.0523 218.954 68.3883 218.51 68.5803 217.958H70.3443C70.0803 218.906 69.5523 219.68 68.7603 220.28C67.9683 220.868 66.9843 221.162 65.8083 221.162C64.8723 221.162 64.0323 220.952 63.2883 220.532C62.5563 220.112 61.9803 219.518 61.5603 218.75C61.1403 217.97 60.9303 217.07 60.9303 216.05C60.9303 215.03 61.1343 214.136 61.5423 213.368C61.9503 212.6 62.5203 212.012 63.2523 211.604C63.9963 211.184 64.8483 210.974 65.8083 210.974C66.7443 210.974 67.5723 211.178 68.2923 211.586C69.0123 211.994 69.5643 212.558 69.9483 213.278C70.3443 213.986 70.5423 214.79 70.5423 215.69ZM68.8503 215.348C68.8503 214.724 68.7123 214.19 68.4363 213.746C68.1603 213.29 67.7823 212.948 67.3023 212.72C66.8343 212.48 66.3123 212.36 65.7363 212.36C64.9083 212.36 64.2003 212.624 63.6123 213.152C63.0363 213.68 62.7063 214.412 62.6223 215.348H68.8503ZM85.8444 211.136L82.7664 221H81.0744L78.6984 213.17L76.3224 221H74.6304L71.5344 211.136H73.2084L75.4764 219.416L77.9244 211.136H79.5984L81.9924 219.434L84.2244 211.136H85.8444ZM98.8748 221L95.8868 215.87H93.9068V221H92.2688V208.454H96.3188C97.2668 208.454 98.0648 208.616 98.7128 208.94C99.3728 209.264 99.8648 209.702 100.189 210.254C100.513 210.806 100.675 211.436 100.675 212.144C100.675 213.008 100.423 213.77 99.9188 214.43C99.4268 215.09 98.6828 215.528 97.6868 215.744L100.837 221H98.8748ZM93.9068 214.556H96.3188C97.2068 214.556 97.8728 214.34 98.3168 213.908C98.7608 213.464 98.9828 212.876 98.9828 212.144C98.9828 211.4 98.7608 210.824 98.3168 210.416C97.8848 210.008 97.2188 209.804 96.3188 209.804H93.9068V214.556ZM112.22 215.69C112.22 216.002 112.202 216.332 112.166 216.68H104.282C104.342 217.652 104.672 218.414 105.272 218.966C105.884 219.506 106.622 219.776 107.486 219.776C108.194 219.776 108.782 219.614 109.25 219.29C109.73 218.954 110.066 218.51 110.258 217.958H112.022C111.758 218.906 111.23 219.68 110.438 220.28C109.646 220.868 108.662 221.162 107.486 221.162C106.55 221.162 105.71 220.952 104.966 220.532C104.234 220.112 103.658 219.518 103.238 218.75C102.818 217.97 102.608 217.07 102.608 216.05C102.608 215.03 102.812 214.136 103.22 213.368C103.628 212.6 104.198 212.012 104.93 211.604C105.674 211.184 106.526 210.974 107.486 210.974C108.422 210.974 109.25 211.178 109.97 211.586C110.69 211.994 111.242 212.558 111.626 213.278C112.022 213.986 112.22 214.79 112.22 215.69ZM110.528 215.348C110.528 214.724 110.39 214.19 110.114 213.746C109.838 213.29 109.46 212.948 108.98 212.72C108.512 212.48 107.99 212.36 107.414 212.36C106.586 212.36 105.878 212.624 105.29 213.152C104.714 213.68 104.384 214.412 104.3 215.348H110.528ZM113.77 216.032C113.77 215.024 113.974 214.142 114.382 213.386C114.79 212.618 115.348 212.024 116.056 211.604C116.776 211.184 117.58 210.974 118.468 210.974C119.32 210.974 120.064 211.166 120.7 211.55C121.348 211.922 121.822 212.384 122.122 212.936V211.136H123.778V225.68H122.122V219.182C121.81 219.734 121.33 220.202 120.682 220.586C120.034 220.97 119.278 221.162 118.414 221.162C117.55 221.162 116.764 220.946 116.056 220.514C115.348 220.082 114.79 219.476 114.382 218.696C113.974 217.916 113.77 217.028 113.77 216.032ZM122.122 216.05C122.122 215.306 121.972 214.658 121.672 214.106C121.372 213.554 120.964 213.134 120.448 212.846C119.944 212.546 119.386 212.396 118.774 212.396C118.162 212.396 117.604 212.54 117.1 212.828C116.596 213.116 116.194 213.536 115.894 214.088C115.594 214.64 115.444 215.288 115.444 216.032C115.444 216.788 115.594 217.448 115.894 218.012C116.194 218.564 116.596 218.99 117.1 219.29C117.604 219.578 118.162 219.722 118.774 219.722C119.386 219.722 119.944 219.578 120.448 219.29C120.964 218.99 121.372 218.564 121.672 218.012C121.972 217.448 122.122 216.794 122.122 216.05ZM135.294 211.136V221H133.656V219.542C133.344 220.046 132.906 220.442 132.342 220.73C131.79 221.006 131.178 221.144 130.506 221.144C129.738 221.144 129.048 220.988 128.436 220.676C127.824 220.352 127.338 219.872 126.978 219.236C126.63 218.6 126.456 217.826 126.456 216.914V211.136H128.076V216.698C128.076 217.67 128.322 218.42 128.814 218.948C129.306 219.464 129.978 219.722 130.83 219.722C131.706 219.722 132.396 219.452 132.9 218.912C133.404 218.372 133.656 217.586 133.656 216.554V211.136H135.294ZM147.06 215.69C147.06 216.002 147.042 216.332 147.006 216.68H139.122C139.182 217.652 139.512 218.414 140.112 218.966C140.724 219.506 141.462 219.776 142.326 219.776C143.034 219.776 143.622 219.614 144.09 219.29C144.57 218.954 144.906 218.51 145.098 217.958H146.862C146.598 218.906 146.07 219.68 145.278 220.28C144.486 220.868 143.502 221.162 142.326 221.162C141.39 221.162 140.55 220.952 139.806 220.532C139.074 220.112 138.498 219.518 138.078 218.75C137.658 217.97 137.448 217.07 137.448 216.05C137.448 215.03 137.652 214.136 138.06 213.368C138.468 212.6 139.038 212.012 139.77 211.604C140.514 211.184 141.366 210.974 142.326 210.974C143.262 210.974 144.09 211.178 144.81 211.586C145.53 211.994 146.082 212.558 146.466 213.278C146.862 213.986 147.06 214.79 147.06 215.69ZM145.368 215.348C145.368 214.724 145.23 214.19 144.954 213.746C144.678 213.29 144.3 212.948 143.82 212.72C143.352 212.48 142.83 212.36 142.254 212.36C141.426 212.36 140.718 212.624 140.13 213.152C139.554 213.68 139.224 214.412 139.14 215.348H145.368ZM152.714 221.162C151.958 221.162 151.28 221.036 150.68 220.784C150.08 220.52 149.606 220.16 149.258 219.704C148.91 219.236 148.718 218.702 148.682 218.102H150.374C150.422 218.594 150.65 218.996 151.058 219.308C151.478 219.62 152.024 219.776 152.696 219.776C153.32 219.776 153.812 219.638 154.172 219.362C154.532 219.086 154.712 218.738 154.712 218.318C154.712 217.886 154.52 217.568 154.136 217.364C153.752 217.148 153.158 216.938 152.354 216.734C151.622 216.542 151.022 216.35 150.554 216.158C150.098 215.954 149.702 215.66 149.366 215.276C149.042 214.88 148.88 214.364 148.88 213.728C148.88 213.224 149.03 212.762 149.33 212.342C149.63 211.922 150.056 211.592 150.608 211.352C151.16 211.1 151.79 210.974 152.498 210.974C153.59 210.974 154.472 211.25 155.144 211.802C155.816 212.354 156.176 213.11 156.224 214.07H154.586C154.55 213.554 154.34 213.14 153.956 212.828C153.584 212.516 153.08 212.36 152.444 212.36C151.856 212.36 151.388 212.486 151.04 212.738C150.692 212.99 150.518 213.32 150.518 213.728C150.518 214.052 150.62 214.322 150.824 214.538C151.04 214.742 151.304 214.91 151.616 215.042C151.94 215.162 152.384 215.3 152.948 215.456C153.656 215.648 154.232 215.84 154.676 216.032C155.12 216.212 155.498 216.488 155.81 216.86C156.134 217.232 156.302 217.718 156.314 218.318C156.314 218.858 156.164 219.344 155.864 219.776C155.564 220.208 155.138 220.55 154.586 220.802C154.046 221.042 153.422 221.162 152.714 221.162ZM160.624 212.486V218.3C160.624 218.78 160.726 219.122 160.93 219.326C161.134 219.518 161.488 219.614 161.992 219.614H163.198V221H161.722C160.81 221 160.126 220.79 159.67 220.37C159.214 219.95 158.986 219.26 158.986 218.3V212.486H157.708V211.136H158.986V208.652H160.624V211.136H163.198V212.486H160.624Z" fill="#344054"/>
<rect x="236.5" y="84.5" width="211" height="166" rx="7.5" fill="#FCFCFD"/>
<rect x="236.5" y="84.5" width="211" height="166" rx="7.5" stroke="#EAECF0"/>
<path d="M351.06 110.536C358.585 113.296 365.495 118.07 368.213 125.569C370.959 133.142 369.083 141.468 364.738 148.261C360.425 155.003 353.627 159.963 345.638 160.858C337.651 161.754 330.008 158.326 324.199 152.806C318.202 147.107 313.907 139.551 314.567 131.332C315.252 122.809 320.121 114.92 327.584 110.667C334.727 106.597 343.336 107.703 351.06 110.536Z" fill="#F4F3FF"/>
<path opacity="0.3" d="M351.333 141.84V132.573C348.533 133.08 345.933 134.373 343.813 136.346L342 138.04L340.187 136.346C338.067 134.373 335.467 133.08 332.667 132.573V141.84C336.04 142.293 339.253 143.573 342 145.613C344.76 143.586 347.96 142.293 351.333 141.84Z" fill="#BDB4FE"/>
<path opacity="0.3" d="M342 128.333C343.473 128.333 344.667 127.139 344.667 125.667C344.667 124.194 343.473 123 342 123C340.527 123 339.333 124.194 339.333 125.667C339.333 127.139 340.527 128.333 342 128.333Z" fill="#7A5AF8"/>
<path d="M347.333 125.667C347.333 122.72 344.947 120.333 342 120.333C339.053 120.333 336.667 122.72 336.667 125.667C336.667 128.613 339.053 131 342 131C344.947 131 347.333 128.613 347.333 125.667ZM339.333 125.667C339.333 124.2 340.533 123 342 123C343.467 123 344.667 124.2 344.667 125.667C344.667 127.133 343.467 128.333 342 128.333C340.533 128.333 339.333 127.133 339.333 125.667ZM330 144.333C334.64 144.333 338.853 146.133 342 149.067C345.147 146.147 349.36 144.333 354 144.333V129.667C349.36 129.667 345.147 131.467 342 134.4C338.853 131.467 334.64 129.667 330 129.667V144.333ZM332.667 132.573C335.467 133.08 338.067 134.373 340.187 136.347L342 138.04L343.813 136.347C345.933 134.373 348.533 133.08 351.333 132.573V141.84C347.96 142.293 344.76 143.573 342 145.6C339.253 143.573 336.04 142.28 332.667 141.827V132.573Z" fill="#7A5AF8"/>
<path d="M320.262 205.002H324.402V207H317.742V194.436H320.262V205.002ZM335.274 201.798C335.274 202.158 335.25 202.482 335.202 202.77H327.912C327.972 203.49 328.224 204.054 328.668 204.462C329.112 204.87 329.658 205.074 330.306 205.074C331.242 205.074 331.908 204.672 332.304 203.868H335.022C334.734 204.828 334.182 205.62 333.366 206.244C332.55 206.856 331.548 207.162 330.36 207.162C329.4 207.162 328.536 206.952 327.768 206.532C327.012 206.1 326.418 205.494 325.986 204.714C325.566 203.934 325.356 203.034 325.356 202.014C325.356 200.982 325.566 200.076 325.986 199.296C326.406 198.516 326.994 197.916 327.75 197.496C328.506 197.076 329.376 196.866 330.36 196.866C331.308 196.866 332.154 197.07 332.898 197.478C333.654 197.886 334.236 198.468 334.644 199.224C335.064 199.968 335.274 200.826 335.274 201.798ZM332.664 201.078C332.652 200.43 332.418 199.914 331.962 199.53C331.506 199.134 330.948 198.936 330.288 198.936C329.664 198.936 329.136 199.128 328.704 199.512C328.284 199.884 328.026 200.406 327.93 201.078H332.664ZM336.465 201.978C336.465 200.97 336.663 200.076 337.059 199.296C337.467 198.516 338.013 197.916 338.697 197.496C339.393 197.076 340.167 196.866 341.019 196.866C341.763 196.866 342.411 197.016 342.963 197.316C343.527 197.616 343.977 197.994 344.313 198.45V197.028H346.851V207H344.313V205.542C343.989 206.01 343.539 206.4 342.963 206.712C342.399 207.012 341.745 207.162 341.001 207.162C340.161 207.162 339.393 206.946 338.697 206.514C338.013 206.082 337.467 205.476 337.059 204.696C336.663 203.904 336.465 202.998 336.465 201.978ZM344.313 202.014C344.313 201.402 344.193 200.88 343.953 200.448C343.713 200.004 343.389 199.668 342.981 199.44C342.573 199.2 342.135 199.08 341.667 199.08C341.199 199.08 340.767 199.194 340.371 199.422C339.975 199.65 339.651 199.986 339.399 200.43C339.159 200.862 339.039 201.378 339.039 201.978C339.039 202.578 339.159 203.106 339.399 203.562C339.651 204.006 339.975 204.348 340.371 204.588C340.779 204.828 341.211 204.948 341.667 204.948C342.135 204.948 342.573 204.834 342.981 204.606C343.389 204.366 343.713 204.03 343.953 203.598C344.193 203.154 344.313 202.626 344.313 202.014ZM351.832 198.576C352.156 198.048 352.576 197.634 353.092 197.334C353.62 197.034 354.22 196.884 354.892 196.884V199.53H354.226C353.434 199.53 352.834 199.716 352.426 200.088C352.03 200.46 351.832 201.108 351.832 202.032V207H349.312V197.028H351.832V198.576ZM362.116 196.884C363.304 196.884 364.264 197.262 364.996 198.018C365.728 198.762 366.094 199.806 366.094 201.15V207H363.574V201.492C363.574 200.7 363.376 200.094 362.98 199.674C362.584 199.242 362.044 199.026 361.36 199.026C360.664 199.026 360.112 199.242 359.704 199.674C359.308 200.094 359.11 200.7 359.11 201.492V207H356.59V197.028H359.11V198.27C359.446 197.838 359.872 197.502 360.388 197.262C360.916 197.01 361.492 196.884 362.116 196.884Z" fill="#1570EF"/>
<rect x="472.5" y="84.5" width="211" height="166" rx="7.5" fill="#FCFCFD"/>
<rect x="472.5" y="84.5" width="211" height="166" rx="7.5" stroke="#EAECF0"/>
<path d="M578.262 109.301C586.047 110.118 593.155 113.549 597.943 119.606C603.089 126.116 606.561 134.307 604.293 142.23C601.983 150.298 594.829 156.129 586.716 158.826C579.125 161.35 570.992 159.589 564.094 155.594C557.38 151.706 552.513 145.545 550.894 138.081C549.156 130.069 549.613 121.129 555.318 115.13C560.978 109.177 569.996 108.433 578.262 109.301Z" fill="#FFFAEB"/>
<path opacity="0.3" d="M568.667 125.667V144.333H587.333V125.667H568.667ZM580.667 141.667H571.333V139H580.667V141.667ZM584.667 136.333H571.333V133.667H584.667V136.333ZM584.667 131H571.333V128.333H584.667V131Z" fill="#FEC84B"/>
<path d="M587.333 123H568.667C567.2 123 566 124.2 566 125.667V144.333C566 145.8 567.2 147 568.667 147H587.333C588.8 147 590 145.8 590 144.333V125.667C590 124.2 588.8 123 587.333 123ZM587.333 144.333H568.667V125.667H587.333V144.333ZM584.667 136.333H571.333V133.667H584.667V136.333ZM584.667 131H571.333V128.333H584.667V131ZM580.667 141.667H571.333V139H580.667V141.667Z" fill="#F79009"/>
<path d="M553.222 193L550.45 188.104H549.262V193H546.742V180.436H551.458C552.43 180.436 553.258 180.61 553.942 180.958C554.626 181.294 555.136 181.756 555.472 182.344C555.82 182.92 555.994 183.568 555.994 184.288C555.994 185.116 555.754 185.866 555.274 186.538C554.794 187.198 554.08 187.654 553.132 187.906L556.138 193H553.222ZM549.262 186.214H551.368C552.052 186.214 552.562 186.052 552.898 185.728C553.234 185.392 553.402 184.93 553.402 184.342C553.402 183.766 553.234 183.322 552.898 183.01C552.562 182.686 552.052 182.524 551.368 182.524H549.262V186.214ZM567.543 187.798C567.543 188.158 567.519 188.482 567.471 188.77H560.181C560.241 189.49 560.493 190.054 560.937 190.462C561.381 190.87 561.927 191.074 562.575 191.074C563.511 191.074 564.177 190.672 564.573 189.868H567.291C567.003 190.828 566.451 191.62 565.635 192.244C564.819 192.856 563.817 193.162 562.629 193.162C561.669 193.162 560.805 192.952 560.037 192.532C559.281 192.1 558.687 191.494 558.255 190.714C557.835 189.934 557.625 189.034 557.625 188.014C557.625 186.982 557.835 186.076 558.255 185.296C558.675 184.516 559.263 183.916 560.019 183.496C560.775 183.076 561.645 182.866 562.629 182.866C563.577 182.866 564.423 183.07 565.167 183.478C565.923 183.886 566.505 184.468 566.913 185.224C567.333 185.968 567.543 186.826 567.543 187.798ZM564.933 187.078C564.921 186.43 564.687 185.914 564.231 185.53C563.775 185.134 563.217 184.936 562.557 184.936C561.933 184.936 561.405 185.128 560.973 185.512C560.553 185.884 560.295 186.406 560.199 187.078H564.933ZM573.541 190.678L576.061 183.028H578.743L575.053 193H571.993L568.321 183.028H571.021L573.541 190.678ZM581.436 181.84C580.992 181.84 580.62 181.702 580.32 181.426C580.032 181.138 579.888 180.784 579.888 180.364C579.888 179.944 580.032 179.596 580.32 179.32C580.62 179.032 580.992 178.888 581.436 178.888C581.88 178.888 582.246 179.032 582.534 179.32C582.834 179.596 582.984 179.944 582.984 180.364C582.984 180.784 582.834 181.138 582.534 181.426C582.246 181.702 581.88 181.84 581.436 181.84ZM582.678 183.028V193H580.158V183.028H582.678ZM594.438 187.798C594.438 188.158 594.414 188.482 594.366 188.77H587.076C587.136 189.49 587.388 190.054 587.832 190.462C588.276 190.87 588.822 191.074 589.47 191.074C590.406 191.074 591.072 190.672 591.468 189.868H594.186C593.898 190.828 593.346 191.62 592.53 192.244C591.714 192.856 590.712 193.162 589.524 193.162C588.564 193.162 587.7 192.952 586.932 192.532C586.176 192.1 585.582 191.494 585.15 190.714C584.73 189.934 584.52 189.034 584.52 188.014C584.52 186.982 584.73 186.076 585.15 185.296C585.57 184.516 586.158 183.916 586.914 183.496C587.67 183.076 588.54 182.866 589.524 182.866C590.472 182.866 591.318 183.07 592.062 183.478C592.818 183.886 593.4 184.468 593.808 185.224C594.228 185.968 594.438 186.826 594.438 187.798ZM591.828 187.078C591.816 186.43 591.582 185.914 591.126 185.53C590.67 185.134 590.112 184.936 589.452 184.936C588.828 184.936 588.3 185.128 587.868 185.512C587.448 185.884 587.19 186.406 587.094 187.078H591.828ZM610.101 183.028L607.185 193H604.467L602.649 186.034L600.831 193H598.095L595.161 183.028H597.717L599.481 190.624L601.389 183.028H604.053L605.925 190.606L607.689 183.028H610.101Z" fill="#1570EF"/>
<path d="M524.17 208.454L520.084 216.266V221H518.446V216.266L514.342 208.454H516.16L519.256 214.808L522.352 208.454H524.17ZM530.2 221.162C529.276 221.162 528.436 220.952 527.68 220.532C526.936 220.112 526.348 219.518 525.916 218.75C525.496 217.97 525.286 217.07 525.286 216.05C525.286 215.042 525.502 214.154 525.934 213.386C526.378 212.606 526.978 212.012 527.734 211.604C528.49 211.184 529.336 210.974 530.272 210.974C531.208 210.974 532.054 211.184 532.81 211.604C533.566 212.012 534.16 212.6 534.592 213.368C535.036 214.136 535.258 215.03 535.258 216.05C535.258 217.07 535.03 217.97 534.574 218.75C534.13 219.518 533.524 220.112 532.756 220.532C531.988 220.952 531.136 221.162 530.2 221.162ZM530.2 219.722C530.788 219.722 531.34 219.584 531.856 219.308C532.372 219.032 532.786 218.618 533.098 218.066C533.422 217.514 533.584 216.842 533.584 216.05C533.584 215.258 533.428 214.586 533.116 214.034C532.804 213.482 532.396 213.074 531.892 212.81C531.388 212.534 530.842 212.396 530.254 212.396C529.654 212.396 529.102 212.534 528.598 212.81C528.106 213.074 527.71 213.482 527.41 214.034C527.11 214.586 526.96 215.258 526.96 216.05C526.96 216.854 527.104 217.532 527.392 218.084C527.692 218.636 528.088 219.05 528.58 219.326C529.072 219.59 529.612 219.722 530.2 219.722ZM546.159 211.136V221H544.521V219.542C544.209 220.046 543.771 220.442 543.207 220.73C542.655 221.006 542.043 221.144 541.371 221.144C540.603 221.144 539.913 220.988 539.301 220.676C538.689 220.352 538.203 219.872 537.843 219.236C537.495 218.6 537.321 217.826 537.321 216.914V211.136H538.941V216.698C538.941 217.67 539.187 218.42 539.679 218.948C540.171 219.464 540.843 219.722 541.695 219.722C542.571 219.722 543.261 219.452 543.765 218.912C544.269 218.372 544.521 217.586 544.521 216.554V211.136H546.159ZM550.563 212.738C550.851 212.174 551.259 211.736 551.787 211.424C552.327 211.112 552.981 210.956 553.749 210.956V212.648H553.317C551.481 212.648 550.563 213.644 550.563 215.636V221H548.925V211.136H550.563V212.738ZM567.045 221L564.057 215.87H562.077V221H560.439V208.454H564.489C565.437 208.454 566.235 208.616 566.883 208.94C567.543 209.264 568.035 209.702 568.359 210.254C568.683 210.806 568.845 211.436 568.845 212.144C568.845 213.008 568.593 213.77 568.089 214.43C567.597 215.09 566.853 215.528 565.857 215.744L569.007 221H567.045ZM562.077 214.556H564.489C565.377 214.556 566.043 214.34 566.487 213.908C566.931 213.464 567.153 212.876 567.153 212.144C567.153 211.4 566.931 210.824 566.487 210.416C566.055 210.008 565.389 209.804 564.489 209.804H562.077V214.556ZM580.39 215.69C580.39 216.002 580.372 216.332 580.336 216.68H572.452C572.512 217.652 572.842 218.414 573.442 218.966C574.054 219.506 574.792 219.776 575.656 219.776C576.364 219.776 576.952 219.614 577.42 219.29C577.9 218.954 578.236 218.51 578.428 217.958H580.192C579.928 218.906 579.4 219.68 578.608 220.28C577.816 220.868 576.832 221.162 575.656 221.162C574.72 221.162 573.88 220.952 573.136 220.532C572.404 220.112 571.828 219.518 571.408 218.75C570.988 217.97 570.778 217.07 570.778 216.05C570.778 215.03 570.982 214.136 571.39 213.368C571.798 212.6 572.368 212.012 573.1 211.604C573.844 211.184 574.696 210.974 575.656 210.974C576.592 210.974 577.42 211.178 578.14 211.586C578.86 211.994 579.412 212.558 579.796 213.278C580.192 213.986 580.39 214.79 580.39 215.69ZM578.698 215.348C578.698 214.724 578.56 214.19 578.284 213.746C578.008 213.29 577.63 212.948 577.15 212.72C576.682 212.48 576.16 212.36 575.584 212.36C574.756 212.36 574.048 212.624 573.46 213.152C572.884 213.68 572.554 214.412 572.47 215.348H578.698ZM581.94 216.032C581.94 215.024 582.144 214.142 582.552 213.386C582.96 212.618 583.518 212.024 584.226 211.604C584.946 211.184 585.75 210.974 586.638 210.974C587.49 210.974 588.234 211.166 588.87 211.55C589.518 211.922 589.992 212.384 590.292 212.936V211.136H591.948V225.68H590.292V219.182C589.98 219.734 589.5 220.202 588.852 220.586C588.204 220.97 587.448 221.162 586.584 221.162C585.72 221.162 584.934 220.946 584.226 220.514C583.518 220.082 582.96 219.476 582.552 218.696C582.144 217.916 581.94 217.028 581.94 216.032ZM590.292 216.05C590.292 215.306 590.142 214.658 589.842 214.106C589.542 213.554 589.134 213.134 588.618 212.846C588.114 212.546 587.556 212.396 586.944 212.396C586.332 212.396 585.774 212.54 585.27 212.828C584.766 213.116 584.364 213.536 584.064 214.088C583.764 214.64 583.614 215.288 583.614 216.032C583.614 216.788 583.764 217.448 584.064 218.012C584.364 218.564 584.766 218.99 585.27 219.29C585.774 219.578 586.332 219.722 586.944 219.722C587.556 219.722 588.114 219.578 588.618 219.29C589.134 218.99 589.542 218.564 589.842 218.012C590.142 217.448 590.292 216.794 590.292 216.05ZM603.464 211.136V221H601.826V219.542C601.514 220.046 601.076 220.442 600.512 220.73C599.96 221.006 599.348 221.144 598.676 221.144C597.908 221.144 597.218 220.988 596.606 220.676C595.994 220.352 595.508 219.872 595.148 219.236C594.8 218.6 594.626 217.826 594.626 216.914V211.136H596.246V216.698C596.246 217.67 596.492 218.42 596.984 218.948C597.476 219.464 598.148 219.722 599 219.722C599.876 219.722 600.566 219.452 601.07 218.912C601.574 218.372 601.826 217.586 601.826 216.554V211.136H603.464ZM615.23 215.69C615.23 216.002 615.212 216.332 615.176 216.68H607.292C607.352 217.652 607.682 218.414 608.282 218.966C608.894 219.506 609.632 219.776 610.496 219.776C611.204 219.776 611.792 219.614 612.26 219.29C612.74 218.954 613.076 218.51 613.268 217.958H615.032C614.768 218.906 614.24 219.68 613.448 220.28C612.656 220.868 611.672 221.162 610.496 221.162C609.56 221.162 608.72 220.952 607.976 220.532C607.244 220.112 606.668 219.518 606.248 218.75C605.828 217.97 605.618 217.07 605.618 216.05C605.618 215.03 605.822 214.136 606.23 213.368C606.638 212.6 607.208 212.012 607.94 211.604C608.684 211.184 609.536 210.974 610.496 210.974C611.432 210.974 612.26 211.178 612.98 211.586C613.7 211.994 614.252 212.558 614.636 213.278C615.032 213.986 615.23 214.79 615.23 215.69ZM613.538 215.348C613.538 214.724 613.4 214.19 613.124 213.746C612.848 213.29 612.47 212.948 611.99 212.72C611.522 212.48 611 212.36 610.424 212.36C609.596 212.36 608.888 212.624 608.3 213.152C607.724 213.68 607.394 214.412 607.31 215.348H613.538ZM620.884 221.162C620.128 221.162 619.45 221.036 618.85 220.784C618.25 220.52 617.776 220.16 617.428 219.704C617.08 219.236 616.888 218.702 616.852 218.102H618.544C618.592 218.594 618.82 218.996 619.228 219.308C619.648 219.62 620.194 219.776 620.866 219.776C621.49 219.776 621.982 219.638 622.342 219.362C622.702 219.086 622.882 218.738 622.882 218.318C622.882 217.886 622.69 217.568 622.306 217.364C621.922 217.148 621.328 216.938 620.524 216.734C619.792 216.542 619.192 216.35 618.724 216.158C618.268 215.954 617.872 215.66 617.536 215.276C617.212 214.88 617.05 214.364 617.05 213.728C617.05 213.224 617.2 212.762 617.5 212.342C617.8 211.922 618.226 211.592 618.778 211.352C619.33 211.1 619.96 210.974 620.668 210.974C621.76 210.974 622.642 211.25 623.314 211.802C623.986 212.354 624.346 213.11 624.394 214.07H622.756C622.72 213.554 622.51 213.14 622.126 212.828C621.754 212.516 621.25 212.36 620.614 212.36C620.026 212.36 619.558 212.486 619.21 212.738C618.862 212.99 618.688 213.32 618.688 213.728C618.688 214.052 618.79 214.322 618.994 214.538C619.21 214.742 619.474 214.91 619.786 215.042C620.11 215.162 620.554 215.3 621.118 215.456C621.826 215.648 622.402 215.84 622.846 216.032C623.29 216.212 623.668 216.488 623.98 216.86C624.304 217.232 624.472 217.718 624.484 218.318C624.484 218.858 624.334 219.344 624.034 219.776C623.734 220.208 623.308 220.55 622.756 220.802C622.216 221.042 621.592 221.162 620.884 221.162ZM628.794 212.486V218.3C628.794 218.78 628.896 219.122 629.1 219.326C629.304 219.518 629.658 219.614 630.162 219.614H631.368V221H629.892C628.98 221 628.296 220.79 627.84 220.37C627.384 219.95 627.156 219.26 627.156 218.3V212.486H625.878V211.136H627.156V208.652H628.794V211.136H631.368V212.486H628.794ZM636.845 221.162C636.089 221.162 635.411 221.036 634.811 220.784C634.211 220.52 633.737 220.16 633.389 219.704C633.041 219.236 632.849 218.702 632.813 218.102H634.505C634.553 218.594 634.781 218.996 635.189 219.308C635.609 219.62 636.155 219.776 636.827 219.776C637.451 219.776 637.943 219.638 638.303 219.362C638.663 219.086 638.843 218.738 638.843 218.318C638.843 217.886 638.651 217.568 638.267 217.364C637.883 217.148 637.289 216.938 636.485 216.734C635.753 216.542 635.153 216.35 634.685 216.158C634.229 215.954 633.833 215.66 633.497 215.276C633.173 214.88 633.011 214.364 633.011 213.728C633.011 213.224 633.161 212.762 633.461 212.342C633.761 211.922 634.187 211.592 634.739 211.352C635.291 211.1 635.921 210.974 636.629 210.974C637.721 210.974 638.603 211.25 639.275 211.802C639.947 212.354 640.307 213.11 640.355 214.07H638.717C638.681 213.554 638.471 213.14 638.087 212.828C637.715 212.516 637.211 212.36 636.575 212.36C635.987 212.36 635.519 212.486 635.171 212.738C634.823 212.99 634.649 213.32 634.649 213.728C634.649 214.052 634.751 214.322 634.955 214.538C635.171 214.742 635.435 214.91 635.747 215.042C636.071 215.162 636.515 215.3 637.079 215.456C637.787 215.648 638.363 215.84 638.807 216.032C639.251 216.212 639.629 216.488 639.941 216.86C640.265 217.232 640.433 217.718 640.445 218.318C640.445 218.858 640.295 219.344 639.995 219.776C639.695 220.208 639.269 220.55 638.717 220.802C638.177 221.042 637.553 221.162 636.845 221.162Z" fill="#344054"/>
<rect x="708.5" y="84.5" width="211" height="166" rx="7.5" fill="#FCFCFD"/>
<rect x="708.5" y="84.5" width="211" height="166" rx="7.5" stroke="#EAECF0"/>
<path d="M813.966 109.011C822.062 109.168 830.563 111.018 835.422 117.342C840.238 123.61 839.41 131.994 837.465 139.596C835.522 147.192 832.083 154.703 824.949 158.278C817.459 162.03 808.294 161.904 800.946 157.893C793.916 154.055 790.706 146.396 789.076 138.695C787.449 131.002 787.092 122.582 792.188 116.505C797.318 110.387 805.869 108.854 813.966 109.011Z" fill="#ECFDF3"/>
<path opacity="0.3" d="M804.667 143H811.107L811.893 143.787L814 145.893L816.12 143.773L816.893 143H823.333V124.333H804.667V143ZM815.333 141.667H812.667V139H815.333V141.667ZM814 125.667C816.947 125.667 819.333 128.053 819.333 131C819.333 134.333 815.333 134.667 815.333 137.667H812.667C812.667 133.333 816.667 133.667 816.667 131C816.667 129.533 815.467 128.333 814 128.333C812.533 128.333 811.333 129.533 811.333 131H808.667C808.667 128.053 811.053 125.667 814 125.667Z" fill="#6CE9A6"/>
<path d="M826 124.333C826 122.867 824.8 121.667 823.333 121.667H804.667C803.187 121.667 802 122.867 802 124.333V143C802 144.467 803.187 145.667 804.667 145.667H810L814 149.667L818 145.667H823.333C824.8 145.667 826 144.467 826 143V124.333ZM823.333 143H816.893L816.107 143.787L814 145.893L811.88 143.773L811.107 143H804.667V124.333H823.333V143ZM812.667 139H815.333V141.667H812.667V139ZM814 128.333C815.467 128.333 816.667 129.533 816.667 131C816.667 133.667 812.667 133.333 812.667 137.667H815.333C815.333 134.667 819.333 134.333 819.333 131C819.333 128.053 816.947 125.667 814 125.667C811.053 125.667 808.667 128.053 808.667 131H811.333C811.333 129.533 812.533 128.333 814 128.333Z" fill="#12B76A"/>
<path d="M789.164 194.436V207H786.644V201.654H781.262V207H778.742V194.436H781.262V199.602H786.644V194.436H789.164ZM800.914 201.798C800.914 202.158 800.89 202.482 800.842 202.77H793.552C793.612 203.49 793.864 204.054 794.308 204.462C794.752 204.87 795.298 205.074 795.946 205.074C796.882 205.074 797.548 204.672 797.944 203.868H800.662C800.374 204.828 799.822 205.62 799.006 206.244C798.19 206.856 797.188 207.162 796 207.162C795.04 207.162 794.176 206.952 793.408 206.532C792.652 206.1 792.058 205.494 791.626 204.714C791.206 203.934 790.996 203.034 790.996 202.014C790.996 200.982 791.206 200.076 791.626 199.296C792.046 198.516 792.634 197.916 793.39 197.496C794.146 197.076 795.016 196.866 796 196.866C796.948 196.866 797.794 197.07 798.538 197.478C799.294 197.886 799.876 198.468 800.284 199.224C800.704 199.968 800.914 200.826 800.914 201.798ZM798.304 201.078C798.292 200.43 798.058 199.914 797.602 199.53C797.146 199.134 796.588 198.936 795.928 198.936C795.304 198.936 794.776 199.128 794.344 199.512C793.924 199.884 793.666 200.406 793.57 201.078H798.304ZM805.274 193.68V207H802.754V193.68H805.274ZM810.283 198.468C810.607 198.012 811.051 197.634 811.615 197.334C812.191 197.022 812.845 196.866 813.577 196.866C814.429 196.866 815.197 197.076 815.881 197.496C816.577 197.916 817.123 198.516 817.519 199.296C817.927 200.064 818.131 200.958 818.131 201.978C818.131 202.998 817.927 203.904 817.519 204.696C817.123 205.476 816.577 206.082 815.881 206.514C815.197 206.946 814.429 207.162 813.577 207.162C812.845 207.162 812.197 207.012 811.633 206.712C811.081 206.412 810.631 206.034 810.283 205.578V211.752H807.763V197.028H810.283V198.468ZM815.557 201.978C815.557 201.378 815.431 200.862 815.179 200.43C814.939 199.986 814.615 199.65 814.207 199.422C813.811 199.194 813.379 199.08 812.911 199.08C812.455 199.08 812.023 199.2 811.615 199.44C811.219 199.668 810.895 200.004 810.643 200.448C810.403 200.892 810.283 201.414 810.283 202.014C810.283 202.614 810.403 203.136 810.643 203.58C810.895 204.024 811.219 204.366 811.615 204.606C812.023 204.834 812.455 204.948 812.911 204.948C813.379 204.948 813.811 204.828 814.207 204.588C814.615 204.348 814.939 204.006 815.179 203.562C815.431 203.118 815.557 202.59 815.557 201.978ZM837.95 194.436V207H835.43V198.828L832.064 207H830.156L826.772 198.828V207H824.252V194.436H827.114L831.11 203.778L835.106 194.436H837.95ZM849.711 201.798C849.711 202.158 849.687 202.482 849.639 202.77H842.349C842.409 203.49 842.661 204.054 843.105 204.462C843.549 204.87 844.095 205.074 844.743 205.074C845.679 205.074 846.345 204.672 846.741 203.868H849.459C849.171 204.828 848.619 205.62 847.803 206.244C846.987 206.856 845.985 207.162 844.797 207.162C843.837 207.162 842.973 206.952 842.205 206.532C841.449 206.1 840.855 205.494 840.423 204.714C840.003 203.934 839.793 203.034 839.793 202.014C839.793 200.982 840.003 200.076 840.423 199.296C840.843 198.516 841.431 197.916 842.187 197.496C842.943 197.076 843.813 196.866 844.797 196.866C845.745 196.866 846.591 197.07 847.335 197.478C848.091 197.886 848.673 198.468 849.081 199.224C849.501 199.968 849.711 200.826 849.711 201.798ZM847.101 201.078C847.089 200.43 846.855 199.914 846.399 199.53C845.943 199.134 845.385 198.936 844.725 198.936C844.101 198.936 843.573 199.128 843.141 199.512C842.721 199.884 842.463 200.406 842.367 201.078H847.101Z" fill="#1570EF"/>
</svg>
