<svg width="391" height="18" viewBox="0 0 391 18" fill="none" xmlns="http://www.w3.org/2000/svg">
<path d="M7.56 4.66V13H6.192V9.352H2.268V13H0.9V4.66H2.268V8.236H6.192V4.66H7.56ZM12.2289 13.108C11.6049 13.108 11.0409 12.968 10.5369 12.688C10.0329 12.4 9.63694 12 9.34894 11.488C9.06094 10.968 8.91694 10.368 8.91694 9.688C8.91694 9.016 9.06494 8.42 9.36094 7.9C9.65694 7.38 10.0609 6.98 10.5729 6.7C11.0849 6.42 11.6569 6.28 12.2889 6.28C12.9209 6.28 13.4929 6.42 14.0049 6.7C14.5169 6.98 14.9209 7.38 15.2169 7.9C15.5129 8.42 15.6609 9.016 15.6609 9.688C15.6609 10.36 15.5089 10.956 15.2049 11.476C14.9009 11.996 14.4849 12.4 13.9569 12.688C13.4369 12.968 12.8609 13.108 12.2289 13.108ZM12.2289 11.92C12.5809 11.92 12.9089 11.836 13.2129 11.668C13.5249 11.5 13.7769 11.248 13.9689 10.912C14.1609 10.576 14.2569 10.168 14.2569 9.688C14.2569 9.208 14.1649 8.804 13.9809 8.476C13.7969 8.14 13.5529 7.888 13.2489 7.72C12.9449 7.552 12.6169 7.468 12.2649 7.468C11.9129 7.468 11.5849 7.552 11.2809 7.72C10.9849 7.888 10.7489 8.14 10.5729 8.476C10.3969 8.804 10.3089 9.208 10.3089 9.688C10.3089 10.4 10.4889 10.952 10.8489 11.344C11.2169 11.728 11.6769 11.92 12.2289 11.92ZM25.0173 6.28C25.5373 6.28 26.0013 6.388 26.4093 6.604C26.8253 6.82 27.1493 7.14 27.3813 7.564C27.6213 7.988 27.7413 8.5 27.7413 9.1V13H26.3853V9.304C26.3853 8.712 26.2373 8.26 25.9413 7.948C25.6453 7.628 25.2413 7.468 24.7293 7.468C24.2173 7.468 23.8093 7.628 23.5053 7.948C23.2093 8.26 23.0613 8.712 23.0613 9.304V13H21.7053V9.304C21.7053 8.712 21.5573 8.26 21.2613 7.948C20.9653 7.628 20.5613 7.468 20.0493 7.468C19.5373 7.468 19.1293 7.628 18.8253 7.948C18.5293 8.26 18.3813 8.712 18.3813 9.304V13H17.0133V6.388H18.3813V7.144C18.6053 6.872 18.8893 6.66 19.2333 6.508C19.5773 6.356 19.9453 6.28 20.3373 6.28C20.8653 6.28 21.3373 6.392 21.7533 6.616C22.1693 6.84 22.4893 7.164 22.7133 7.588C22.9133 7.188 23.2253 6.872 23.6493 6.64C24.0733 6.4 24.5293 6.28 25.0173 6.28ZM35.542 9.532C35.542 9.78 35.526 10.004 35.494 10.204H30.442C30.482 10.732 30.678 11.156 31.03 11.476C31.382 11.796 31.814 11.956 32.326 11.956C33.062 11.956 33.582 11.648 33.886 11.032H35.362C35.162 11.64 34.798 12.14 34.27 12.532C33.75 12.916 33.102 13.108 32.326 13.108C31.694 13.108 31.126 12.968 30.622 12.688C30.126 12.4 29.734 12 29.446 11.488C29.166 10.968 29.026 10.368 29.026 9.688C29.026 9.008 29.162 8.412 29.434 7.9C29.714 7.38 30.102 6.98 30.598 6.7C31.102 6.42 31.678 6.28 32.326 6.28C32.95 6.28 33.506 6.416 33.994 6.688C34.482 6.96 34.862 7.344 35.134 7.84C35.406 8.328 35.542 8.892 35.542 9.532ZM34.114 9.1C34.106 8.596 33.926 8.192 33.574 7.888C33.222 7.584 32.786 7.432 32.266 7.432C31.794 7.432 31.39 7.584 31.054 7.888C30.718 8.184 30.518 8.588 30.454 9.1H34.114Z" fill="#666666"/>
<path d="M47.0575 13.115L47.9425 14L52.9425 9L47.9425 4L47.0575 4.885L51.1725 9L47.0575 13.115Z" fill="#666666"/>
<path d="M70.268 5.764V8.212H73.148V9.328H70.268V11.884H73.508V13H68.9V4.648H73.508V5.764H70.268ZM83.197 6.28C83.717 6.28 84.181 6.388 84.589 6.604C85.005 6.82 85.329 7.14 85.561 7.564C85.801 7.988 85.921 8.5 85.921 9.1V13H84.565V9.304C84.565 8.712 84.417 8.26 84.121 7.948C83.825 7.628 83.421 7.468 82.909 7.468C82.397 7.468 81.989 7.628 81.685 7.948C81.389 8.26 81.241 8.712 81.241 9.304V13H79.885V9.304C79.885 8.712 79.737 8.26 79.441 7.948C79.145 7.628 78.741 7.468 78.229 7.468C77.717 7.468 77.309 7.628 77.005 7.948C76.709 8.26 76.561 8.712 76.561 9.304V13H75.193V6.388H76.561V7.144C76.785 6.872 77.069 6.66 77.413 6.508C77.757 6.356 78.125 6.28 78.517 6.28C79.045 6.28 79.517 6.392 79.933 6.616C80.349 6.84 80.669 7.164 80.893 7.588C81.093 7.188 81.405 6.872 81.829 6.64C82.253 6.4 82.709 6.28 83.197 6.28ZM89.0297 7.36C89.2617 7.056 89.5777 6.8 89.9777 6.592C90.3777 6.384 90.8297 6.28 91.3337 6.28C91.9097 6.28 92.4337 6.424 92.9057 6.712C93.3857 6.992 93.7617 7.388 94.0337 7.9C94.3057 8.412 94.4417 9 94.4417 9.664C94.4417 10.328 94.3057 10.924 94.0337 11.452C93.7617 11.972 93.3857 12.38 92.9057 12.676C92.4337 12.964 91.9097 13.108 91.3337 13.108C90.8297 13.108 90.3817 13.008 89.9897 12.808C89.5977 12.6 89.2777 12.344 89.0297 12.04V16.144H87.6617V6.388H89.0297V7.36ZM93.0497 9.664C93.0497 9.208 92.9537 8.816 92.7617 8.488C92.5777 8.152 92.3297 7.9 92.0177 7.732C91.7137 7.556 91.3857 7.468 91.0337 7.468C90.6897 7.468 90.3617 7.556 90.0497 7.732C89.7457 7.908 89.4977 8.164 89.3057 8.5C89.1217 8.836 89.0297 9.232 89.0297 9.688C89.0297 10.144 89.1217 10.544 89.3057 10.888C89.4977 11.224 89.7457 11.48 90.0497 11.656C90.3617 11.832 90.6897 11.92 91.0337 11.92C91.3857 11.92 91.7137 11.832 92.0177 11.656C92.3297 11.472 92.5777 11.208 92.7617 10.864C92.9537 10.52 93.0497 10.12 93.0497 9.664ZM97.1625 4.12V13H95.7945V4.12H97.1625ZM101.827 13.108C101.203 13.108 100.639 12.968 100.135 12.688C99.6306 12.4 99.2346 12 98.9466 11.488C98.6586 10.968 98.5146 10.368 98.5146 9.688C98.5146 9.016 98.6626 8.42 98.9586 7.9C99.2546 7.38 99.6586 6.98 100.171 6.7C100.683 6.42 101.255 6.28 101.887 6.28C102.519 6.28 103.091 6.42 103.603 6.7C104.115 6.98 104.519 7.38 104.815 7.9C105.111 8.42 105.259 9.016 105.259 9.688C105.259 10.36 105.107 10.956 104.803 11.476C104.499 11.996 104.083 12.4 103.555 12.688C103.035 12.968 102.459 13.108 101.827 13.108ZM101.827 11.92C102.179 11.92 102.507 11.836 102.811 11.668C103.123 11.5 103.375 11.248 103.567 10.912C103.759 10.576 103.855 10.168 103.855 9.688C103.855 9.208 103.763 8.804 103.579 8.476C103.395 8.14 103.151 7.888 102.847 7.72C102.543 7.552 102.215 7.468 101.863 7.468C101.511 7.468 101.183 7.552 100.879 7.72C100.583 7.888 100.347 8.14 100.171 8.476C99.9946 8.804 99.9066 9.208 99.9066 9.688C99.9066 10.4 100.087 10.952 100.447 11.344C100.815 11.728 101.275 11.92 101.827 11.92ZM112.563 6.388L108.507 16.108H107.091L108.435 12.892L105.831 6.388H107.355L109.215 11.428L111.147 6.388H112.563ZM119.655 9.532C119.655 9.78 119.639 10.004 119.607 10.204H114.555C114.595 10.732 114.791 11.156 115.143 11.476C115.495 11.796 115.927 11.956 116.439 11.956C117.175 11.956 117.695 11.648 117.999 11.032H119.475C119.275 11.64 118.911 12.14 118.383 12.532C117.863 12.916 117.215 13.108 116.439 13.108C115.807 13.108 115.239 12.968 114.735 12.688C114.239 12.4 113.847 12 113.559 11.488C113.279 10.968 113.139 10.368 113.139 9.688C113.139 9.008 113.275 8.412 113.547 7.9C113.827 7.38 114.215 6.98 114.711 6.7C115.215 6.42 115.791 6.28 116.439 6.28C117.063 6.28 117.619 6.416 118.107 6.688C118.595 6.96 118.975 7.344 119.247 7.84C119.519 8.328 119.655 8.892 119.655 9.532ZM118.227 9.1C118.219 8.596 118.039 8.192 117.687 7.888C117.335 7.584 116.899 7.432 116.379 7.432C115.907 7.432 115.503 7.584 115.167 7.888C114.831 8.184 114.631 8.588 114.567 9.1H118.227ZM122.37 7.348C122.57 7.012 122.834 6.752 123.162 6.568C123.498 6.376 123.894 6.28 124.35 6.28V7.696H124.002C123.466 7.696 123.058 7.832 122.778 8.104C122.506 8.376 122.37 8.848 122.37 9.52V13H121.002V6.388H122.37V7.348ZM128.007 13.108C127.487 13.108 127.019 13.016 126.603 12.832C126.195 12.64 125.871 12.384 125.631 12.064C125.391 11.736 125.263 11.372 125.247 10.972H126.663C126.687 11.252 126.819 11.488 127.059 11.68C127.307 11.864 127.615 11.956 127.983 11.956C128.367 11.956 128.663 11.884 128.871 11.74C129.087 11.588 129.195 11.396 129.195 11.164C129.195 10.916 129.075 10.732 128.835 10.612C128.603 10.492 128.231 10.36 127.719 10.216C127.223 10.08 126.819 9.948 126.507 9.82C126.195 9.692 125.923 9.496 125.691 9.232C125.467 8.968 125.355 8.62 125.355 8.188C125.355 7.836 125.459 7.516 125.667 7.228C125.875 6.932 126.171 6.7 126.555 6.532C126.947 6.364 127.395 6.28 127.899 6.28C128.651 6.28 129.255 6.472 129.711 6.856C130.175 7.232 130.423 7.748 130.455 8.404H129.087C129.063 8.108 128.943 7.872 128.727 7.696C128.511 7.52 128.219 7.432 127.851 7.432C127.491 7.432 127.215 7.5 127.023 7.636C126.831 7.772 126.735 7.952 126.735 8.176C126.735 8.352 126.799 8.5 126.927 8.62C127.055 8.74 127.211 8.836 127.395 8.908C127.579 8.972 127.851 9.056 128.211 9.16C128.691 9.288 129.083 9.42 129.387 9.556C129.699 9.684 129.967 9.876 130.191 10.132C130.415 10.388 130.531 10.728 130.539 11.152C130.539 11.528 130.435 11.864 130.227 12.16C130.019 12.456 129.723 12.688 129.339 12.856C128.963 13.024 128.519 13.108 128.007 13.108Z" fill="#666666"/>
<path d="M143.057 13.115L143.942 14L148.942 9L143.942 4L143.057 4.885L147.172 9L143.057 13.115Z" fill="#666666"/>
<path d="M164.444 8.812C164.444 7.996 164.632 7.264 165.008 6.616C165.392 5.968 165.908 5.464 166.556 5.104C167.212 4.736 167.928 4.552 168.704 4.552C169.592 4.552 170.38 4.772 171.068 5.212C171.764 5.644 172.268 6.26 172.58 7.06H170.936C170.72 6.62 170.42 6.292 170.036 6.076C169.652 5.86 169.208 5.752 168.704 5.752C168.152 5.752 167.66 5.876 167.228 6.124C166.796 6.372 166.456 6.728 166.208 7.192C165.968 7.656 165.848 8.196 165.848 8.812C165.848 9.428 165.968 9.968 166.208 10.432C166.456 10.896 166.796 11.256 167.228 11.512C167.66 11.76 168.152 11.884 168.704 11.884C169.208 11.884 169.652 11.776 170.036 11.56C170.42 11.344 170.72 11.016 170.936 10.576H172.58C172.268 11.376 171.764 11.992 171.068 12.424C170.38 12.856 169.592 13.072 168.704 13.072C167.92 13.072 167.204 12.892 166.556 12.532C165.908 12.164 165.392 11.656 165.008 11.008C164.632 10.36 164.444 9.628 164.444 8.812ZM177.049 13.108C176.425 13.108 175.861 12.968 175.357 12.688C174.853 12.4 174.457 12 174.169 11.488C173.881 10.968 173.737 10.368 173.737 9.688C173.737 9.016 173.885 8.42 174.181 7.9C174.477 7.38 174.881 6.98 175.393 6.7C175.905 6.42 176.477 6.28 177.109 6.28C177.741 6.28 178.313 6.42 178.825 6.7C179.337 6.98 179.741 7.38 180.037 7.9C180.333 8.42 180.481 9.016 180.481 9.688C180.481 10.36 180.329 10.956 180.025 11.476C179.721 11.996 179.305 12.4 178.777 12.688C178.257 12.968 177.681 13.108 177.049 13.108ZM177.049 11.92C177.401 11.92 177.729 11.836 178.033 11.668C178.345 11.5 178.597 11.248 178.789 10.912C178.981 10.576 179.077 10.168 179.077 9.688C179.077 9.208 178.985 8.804 178.801 8.476C178.617 8.14 178.373 7.888 178.069 7.72C177.765 7.552 177.437 7.468 177.085 7.468C176.733 7.468 176.405 7.552 176.101 7.72C175.805 7.888 175.569 8.14 175.393 8.476C175.217 8.804 175.129 9.208 175.129 9.688C175.129 10.4 175.309 10.952 175.669 11.344C176.037 11.728 176.497 11.92 177.049 11.92ZM189.838 6.28C190.358 6.28 190.822 6.388 191.23 6.604C191.646 6.82 191.97 7.14 192.202 7.564C192.442 7.988 192.562 8.5 192.562 9.1V13H191.206V9.304C191.206 8.712 191.058 8.26 190.762 7.948C190.466 7.628 190.062 7.468 189.55 7.468C189.038 7.468 188.63 7.628 188.326 7.948C188.03 8.26 187.882 8.712 187.882 9.304V13H186.526V9.304C186.526 8.712 186.378 8.26 186.082 7.948C185.786 7.628 185.382 7.468 184.87 7.468C184.358 7.468 183.95 7.628 183.646 7.948C183.35 8.26 183.202 8.712 183.202 9.304V13H181.834V6.388H183.202V7.144C183.426 6.872 183.71 6.66 184.054 6.508C184.398 6.356 184.766 6.28 185.158 6.28C185.686 6.28 186.158 6.392 186.574 6.616C186.99 6.84 187.31 7.164 187.534 7.588C187.734 7.188 188.046 6.872 188.47 6.64C188.894 6.4 189.35 6.28 189.838 6.28ZM195.67 7.36C195.902 7.056 196.218 6.8 196.618 6.592C197.018 6.384 197.47 6.28 197.974 6.28C198.55 6.28 199.074 6.424 199.546 6.712C200.026 6.992 200.402 7.388 200.674 7.9C200.946 8.412 201.082 9 201.082 9.664C201.082 10.328 200.946 10.924 200.674 11.452C200.402 11.972 200.026 12.38 199.546 12.676C199.074 12.964 198.55 13.108 197.974 13.108C197.47 13.108 197.022 13.008 196.63 12.808C196.238 12.6 195.918 12.344 195.67 12.04V16.144H194.302V6.388H195.67V7.36ZM199.69 9.664C199.69 9.208 199.594 8.816 199.402 8.488C199.218 8.152 198.97 7.9 198.658 7.732C198.354 7.556 198.026 7.468 197.674 7.468C197.33 7.468 197.002 7.556 196.69 7.732C196.386 7.908 196.138 8.164 195.946 8.5C195.762 8.836 195.67 9.232 195.67 9.688C195.67 10.144 195.762 10.544 195.946 10.888C196.138 11.224 196.386 11.48 196.69 11.656C197.002 11.832 197.33 11.92 197.674 11.92C198.026 11.92 198.354 11.832 198.658 11.656C198.97 11.472 199.218 11.208 199.402 10.864C199.594 10.52 199.69 10.12 199.69 9.664ZM201.979 9.664C201.979 9 202.115 8.412 202.387 7.9C202.667 7.388 203.043 6.992 203.515 6.712C203.995 6.424 204.523 6.28 205.099 6.28C205.619 6.28 206.071 6.384 206.455 6.592C206.847 6.792 207.159 7.044 207.391 7.348V6.388H208.771V13H207.391V12.016C207.159 12.328 206.843 12.588 206.443 12.796C206.043 13.004 205.587 13.108 205.075 13.108C204.507 13.108 203.987 12.964 203.515 12.676C203.043 12.38 202.667 11.972 202.387 11.452C202.115 10.924 201.979 10.328 201.979 9.664ZM207.391 9.688C207.391 9.232 207.295 8.836 207.103 8.5C206.919 8.164 206.675 7.908 206.371 7.732C206.067 7.556 205.739 7.468 205.387 7.468C205.035 7.468 204.707 7.556 204.403 7.732C204.099 7.9 203.851 8.152 203.659 8.488C203.475 8.816 203.383 9.208 203.383 9.664C203.383 10.12 203.475 10.52 203.659 10.864C203.851 11.208 204.099 11.472 204.403 11.656C204.715 11.832 205.043 11.92 205.387 11.92C205.739 11.92 206.067 11.832 206.371 11.656C206.675 11.48 206.919 11.224 207.103 10.888C207.295 10.544 207.391 10.144 207.391 9.688ZM213.904 6.28C214.424 6.28 214.888 6.388 215.296 6.604C215.712 6.82 216.036 7.14 216.268 7.564C216.5 7.988 216.616 8.5 216.616 9.1V13H215.26V9.304C215.26 8.712 215.112 8.26 214.816 7.948C214.52 7.628 214.116 7.468 213.604 7.468C213.092 7.468 212.684 7.628 212.38 7.948C212.084 8.26 211.936 8.712 211.936 9.304V13H210.568V6.388H211.936V7.144C212.16 6.872 212.444 6.66 212.788 6.508C213.14 6.356 213.512 6.28 213.904 6.28ZM224.313 6.388L220.257 16.108H218.841L220.185 12.892L217.581 6.388H219.105L220.965 11.428L222.897 6.388H224.313Z" fill="#666666"/>
<path d="M236.057 13.115L236.942 14L241.942 9L236.942 4L236.057 4.885L240.172 9L236.057 13.115Z" fill="#666666"/>
<path d="M260.648 13.084C260.088 13.084 259.584 12.988 259.136 12.796C258.688 12.596 258.336 12.316 258.08 11.956C257.824 11.596 257.696 11.176 257.696 10.696H259.16C259.192 11.056 259.332 11.352 259.58 11.584C259.836 11.816 260.192 11.932 260.648 11.932C261.12 11.932 261.488 11.82 261.752 11.596C262.016 11.364 262.148 11.068 262.148 10.708C262.148 10.428 262.064 10.2 261.896 10.024C261.736 9.848 261.532 9.712 261.284 9.616C261.044 9.52 260.708 9.416 260.276 9.304C259.732 9.16 259.288 9.016 258.944 8.872C258.608 8.72 258.32 8.488 258.08 8.176C257.84 7.864 257.72 7.448 257.72 6.928C257.72 6.448 257.84 6.028 258.08 5.668C258.32 5.308 258.656 5.032 259.088 4.84C259.52 4.648 260.02 4.552 260.588 4.552C261.396 4.552 262.056 4.756 262.568 5.164C263.088 5.564 263.376 6.116 263.432 6.82H261.92C261.896 6.516 261.752 6.256 261.488 6.04C261.224 5.824 260.876 5.716 260.444 5.716C260.052 5.716 259.732 5.816 259.484 6.016C259.236 6.216 259.112 6.504 259.112 6.88C259.112 7.136 259.188 7.348 259.34 7.516C259.5 7.676 259.7 7.804 259.94 7.9C260.18 7.996 260.508 8.1 260.924 8.212C261.476 8.364 261.924 8.516 262.268 8.668C262.62 8.82 262.916 9.056 263.156 9.376C263.404 9.688 263.528 10.108 263.528 10.636C263.528 11.06 263.412 11.46 263.18 11.836C262.956 12.212 262.624 12.516 262.184 12.748C261.752 12.972 261.24 13.084 260.648 13.084ZM271.202 9.532C271.202 9.78 271.186 10.004 271.154 10.204H266.102C266.142 10.732 266.338 11.156 266.69 11.476C267.042 11.796 267.474 11.956 267.986 11.956C268.722 11.956 269.242 11.648 269.546 11.032H271.022C270.822 11.64 270.458 12.14 269.93 12.532C269.41 12.916 268.762 13.108 267.986 13.108C267.354 13.108 266.786 12.968 266.282 12.688C265.786 12.4 265.394 12 265.106 11.488C264.826 10.968 264.686 10.368 264.686 9.688C264.686 9.008 264.822 8.412 265.094 7.9C265.374 7.38 265.762 6.98 266.258 6.7C266.762 6.42 267.338 6.28 267.986 6.28C268.61 6.28 269.166 6.416 269.654 6.688C270.142 6.96 270.522 7.344 270.794 7.84C271.066 8.328 271.202 8.892 271.202 9.532ZM269.774 9.1C269.766 8.596 269.586 8.192 269.234 7.888C268.882 7.584 268.446 7.432 267.926 7.432C267.454 7.432 267.05 7.584 266.714 7.888C266.378 8.184 266.178 8.588 266.114 9.1H269.774ZM274.144 7.504V11.164C274.144 11.412 274.2 11.592 274.312 11.704C274.432 11.808 274.632 11.86 274.912 11.86H275.752V13H274.672C274.056 13 273.584 12.856 273.256 12.568C272.928 12.28 272.764 11.812 272.764 11.164V7.504H271.984V6.388H272.764V4.744H274.144V6.388H275.752V7.504H274.144ZM278.609 7.504V11.164C278.609 11.412 278.665 11.592 278.777 11.704C278.897 11.808 279.097 11.86 279.377 11.86H280.217V13H279.137C278.521 13 278.049 12.856 277.721 12.568C277.393 12.28 277.229 11.812 277.229 11.164V7.504H276.449V6.388H277.229V4.744H278.609V6.388H280.217V7.504H278.609ZM282.174 5.512C281.926 5.512 281.718 5.428 281.55 5.26C281.382 5.092 281.298 4.884 281.298 4.636C281.298 4.388 281.382 4.18 281.55 4.012C281.718 3.844 281.926 3.76 282.174 3.76C282.414 3.76 282.618 3.844 282.786 4.012C282.954 4.18 283.038 4.388 283.038 4.636C283.038 4.884 282.954 5.092 282.786 5.26C282.618 5.428 282.414 5.512 282.174 5.512ZM282.846 6.388V13H281.478V6.388H282.846ZM287.978 6.28C288.498 6.28 288.962 6.388 289.37 6.604C289.786 6.82 290.11 7.14 290.342 7.564C290.574 7.988 290.69 8.5 290.69 9.1V13H289.334V9.304C289.334 8.712 289.186 8.26 288.89 7.948C288.594 7.628 288.19 7.468 287.678 7.468C287.166 7.468 286.758 7.628 286.454 7.948C286.158 8.26 286.01 8.712 286.01 9.304V13H284.642V6.388H286.01V7.144C286.234 6.872 286.518 6.66 286.862 6.508C287.214 6.356 287.586 6.28 287.978 6.28ZM295.099 6.28C295.611 6.28 296.063 6.384 296.455 6.592C296.855 6.792 297.167 7.044 297.391 7.348V6.388H298.771V13.108C298.771 13.716 298.643 14.256 298.387 14.728C298.131 15.208 297.759 15.584 297.271 15.856C296.791 16.128 296.215 16.264 295.543 16.264C294.647 16.264 293.903 16.052 293.311 15.628C292.719 15.212 292.383 14.644 292.303 13.924H293.659C293.763 14.268 293.983 14.544 294.319 14.752C294.663 14.968 295.071 15.076 295.543 15.076C296.095 15.076 296.539 14.908 296.875 14.572C297.219 14.236 297.391 13.748 297.391 13.108V12.004C297.159 12.316 296.843 12.58 296.443 12.796C296.051 13.004 295.603 13.108 295.099 13.108C294.523 13.108 293.995 12.964 293.515 12.676C293.043 12.38 292.667 11.972 292.387 11.452C292.115 10.924 291.979 10.328 291.979 9.664C291.979 9 292.115 8.412 292.387 7.9C292.667 7.388 293.043 6.992 293.515 6.712C293.995 6.424 294.523 6.28 295.099 6.28ZM297.391 9.688C297.391 9.232 297.295 8.836 297.103 8.5C296.919 8.164 296.675 7.908 296.371 7.732C296.067 7.556 295.739 7.468 295.387 7.468C295.035 7.468 294.707 7.556 294.403 7.732C294.099 7.9 293.851 8.152 293.659 8.488C293.475 8.816 293.383 9.208 293.383 9.664C293.383 10.12 293.475 10.52 293.659 10.864C293.851 11.208 294.099 11.472 294.403 11.656C294.715 11.832 295.043 11.92 295.387 11.92C295.739 11.92 296.067 11.832 296.371 11.656C296.675 11.48 296.919 11.224 297.103 10.888C297.295 10.544 297.391 10.144 297.391 9.688ZM302.968 13.108C302.448 13.108 301.98 13.016 301.564 12.832C301.156 12.64 300.832 12.384 300.592 12.064C300.352 11.736 300.224 11.372 300.208 10.972H301.624C301.648 11.252 301.78 11.488 302.02 11.68C302.268 11.864 302.576 11.956 302.944 11.956C303.328 11.956 303.624 11.884 303.832 11.74C304.048 11.588 304.156 11.396 304.156 11.164C304.156 10.916 304.036 10.732 303.796 10.612C303.564 10.492 303.192 10.36 302.68 10.216C302.184 10.08 301.78 9.948 301.468 9.82C301.156 9.692 300.884 9.496 300.652 9.232C300.428 8.968 300.316 8.62 300.316 8.188C300.316 7.836 300.42 7.516 300.628 7.228C300.836 6.932 301.132 6.7 301.516 6.532C301.908 6.364 302.356 6.28 302.86 6.28C303.612 6.28 304.216 6.472 304.672 6.856C305.136 7.232 305.384 7.748 305.416 8.404H304.048C304.024 8.108 303.904 7.872 303.688 7.696C303.472 7.52 303.18 7.432 302.812 7.432C302.452 7.432 302.176 7.5 301.984 7.636C301.792 7.772 301.696 7.952 301.696 8.176C301.696 8.352 301.76 8.5 301.888 8.62C302.016 8.74 302.172 8.836 302.356 8.908C302.54 8.972 302.812 9.056 303.172 9.16C303.652 9.288 304.044 9.42 304.348 9.556C304.66 9.684 304.928 9.876 305.152 10.132C305.376 10.388 305.492 10.728 305.5 11.152C305.5 11.528 305.396 11.864 305.188 12.16C304.98 12.456 304.684 12.688 304.3 12.856C303.924 13.024 303.48 13.108 302.968 13.108Z" fill="#666666"/>
<path d="M318.057 13.115L318.942 14L323.942 9L318.942 4L318.057 4.885L322.172 9L318.057 13.115Z" fill="#666666"/>
<path d="M348.96 4.624V13H347.28V7.552L345.036 13H343.764L341.508 7.552V13H339.828V4.624H341.736L344.4 10.852L347.064 4.624H348.96ZM356.981 6.352L352.865 16.144H351.077L352.517 12.832L349.853 6.352H351.737L353.453 10.996L355.193 6.352H356.981ZM366.854 7.216C366.854 7.664 366.746 8.084 366.53 8.476C366.322 8.868 365.99 9.184 365.534 9.424C365.086 9.664 364.518 9.784 363.83 9.784H362.426V13H360.746V4.624H363.83C364.478 4.624 365.03 4.736 365.486 4.96C365.942 5.184 366.282 5.492 366.506 5.884C366.738 6.276 366.854 6.72 366.854 7.216ZM363.758 8.428C364.222 8.428 364.566 8.324 364.79 8.116C365.014 7.9 365.126 7.6 365.126 7.216C365.126 6.4 364.67 5.992 363.758 5.992H362.426V8.428H363.758ZM367.615 9.652C367.615 8.98 367.747 8.384 368.011 7.864C368.283 7.344 368.647 6.944 369.103 6.664C369.567 6.384 370.083 6.244 370.651 6.244C371.147 6.244 371.579 6.344 371.947 6.544C372.323 6.744 372.623 6.996 372.847 7.3V6.352H374.539V13H372.847V12.028C372.631 12.34 372.331 12.6 371.947 12.808C371.571 13.008 371.135 13.108 370.639 13.108C370.079 13.108 369.567 12.964 369.103 12.676C368.647 12.388 368.283 11.984 368.011 11.464C367.747 10.936 367.615 10.332 367.615 9.652ZM372.847 9.676C372.847 9.268 372.767 8.92 372.607 8.632C372.447 8.336 372.231 8.112 371.959 7.96C371.687 7.8 371.395 7.72 371.083 7.72C370.771 7.72 370.483 7.796 370.219 7.948C369.955 8.1 369.739 8.324 369.571 8.62C369.411 8.908 369.331 9.252 369.331 9.652C369.331 10.052 369.411 10.404 369.571 10.708C369.739 11.004 369.955 11.232 370.219 11.392C370.491 11.552 370.779 11.632 371.083 11.632C371.395 11.632 371.687 11.556 371.959 11.404C372.231 11.244 372.447 11.02 372.607 10.732C372.767 10.436 372.847 10.084 372.847 9.676ZM378.784 6.244C379.28 6.244 379.716 6.344 380.092 6.544C380.468 6.736 380.764 6.988 380.98 7.3V6.352H382.672V13.048C382.672 13.664 382.548 14.212 382.3 14.692C382.052 15.18 381.68 15.564 381.184 15.844C380.688 16.132 380.088 16.276 379.384 16.276C378.44 16.276 377.664 16.056 377.056 15.616C376.456 15.176 376.116 14.576 376.036 13.816H377.704C377.792 14.12 377.98 14.36 378.268 14.536C378.564 14.72 378.92 14.812 379.336 14.812C379.824 14.812 380.22 14.664 380.524 14.368C380.828 14.08 380.98 13.64 380.98 13.048V12.016C380.764 12.328 380.464 12.588 380.08 12.796C379.704 13.004 379.272 13.108 378.784 13.108C378.224 13.108 377.712 12.964 377.248 12.676C376.784 12.388 376.416 11.984 376.144 11.464C375.88 10.936 375.748 10.332 375.748 9.652C375.748 8.98 375.88 8.384 376.144 7.864C376.416 7.344 376.78 6.944 377.236 6.664C377.7 6.384 378.216 6.244 378.784 6.244ZM380.98 9.676C380.98 9.268 380.9 8.92 380.74 8.632C380.58 8.336 380.364 8.112 380.092 7.96C379.82 7.8 379.528 7.72 379.216 7.72C378.904 7.72 378.616 7.796 378.352 7.948C378.088 8.1 377.872 8.324 377.704 8.62C377.544 8.908 377.464 9.252 377.464 9.652C377.464 10.052 377.544 10.404 377.704 10.708C377.872 11.004 378.088 11.232 378.352 11.392C378.624 11.552 378.912 11.632 379.216 11.632C379.528 11.632 379.82 11.556 380.092 11.404C380.364 11.244 380.58 11.02 380.74 10.732C380.9 10.436 380.98 10.084 380.98 9.676ZM390.492 9.532C390.492 9.772 390.476 9.988 390.444 10.18H385.584C385.624 10.66 385.792 11.036 386.088 11.308C386.384 11.58 386.748 11.716 387.18 11.716C387.804 11.716 388.248 11.448 388.512 10.912H390.324C390.132 11.552 389.764 12.08 389.22 12.496C388.676 12.904 388.008 13.108 387.216 13.108C386.576 13.108 386 12.968 385.488 12.688C384.984 12.4 384.588 11.996 384.3 11.476C384.02 10.956 383.88 10.356 383.88 9.676C383.88 8.988 384.02 8.384 384.3 7.864C384.58 7.344 384.972 6.944 385.476 6.664C385.98 6.384 386.56 6.244 387.216 6.244C387.848 6.244 388.412 6.38 388.908 6.652C389.412 6.924 389.8 7.312 390.072 7.816C390.352 8.312 390.492 8.884 390.492 9.532ZM388.752 9.052C388.744 8.62 388.588 8.276 388.284 8.02C387.98 7.756 387.608 7.624 387.168 7.624C386.752 7.624 386.4 7.752 386.112 8.008C385.832 8.256 385.66 8.604 385.596 9.052H388.752Z" fill="#666666"/>
</svg>
