<svg width="360" height="52" viewBox="0 0 360 52" fill="none" xmlns="http://www.w3.org/2000/svg">
<g filter="url(#filter0_dd_1171_7558)">
<g filter="url(#filter1_d_1171_7558)">
<g clip-path="url(#clip0_1171_7558)">
<rect x="4" y="4" width="352" height="44" rx="8" fill="white"/>
<path d="M20.688 22.032V25.76H24.752V26.96H20.688V30.8H25.232V32H19.232V20.832H25.232V22.032H20.688ZM31.7071 23.072C32.7738 23.072 33.6378 23.3973 34.2991 24.048C34.9605 24.688 35.2911 25.616 35.2911 26.832V32H33.8511V27.04C33.8511 26.1653 33.6325 25.4987 33.1951 25.04C32.7578 24.5707 32.1605 24.336 31.4031 24.336C30.6351 24.336 30.0218 24.576 29.5631 25.056C29.1151 25.536 28.8911 26.2347 28.8911 27.152V32H27.4351V23.232H28.8911V24.48C29.1791 24.032 29.5685 23.6853 30.0591 23.44C30.5605 23.1947 31.1098 23.072 31.7071 23.072ZM41.2855 23.088C42.0428 23.088 42.7042 23.2533 43.2695 23.584C43.8455 23.9147 44.2722 24.3307 44.5495 24.832V23.232H46.0215V32.192C46.0215 32.992 45.8508 33.7013 45.5095 34.32C45.1682 34.9493 44.6775 35.44 44.0375 35.792C43.4082 36.144 42.6722 36.32 41.8295 36.32C40.6775 36.32 39.7175 36.048 38.9495 35.504C38.1815 34.96 37.7282 34.2187 37.5895 33.28H39.0295C39.1895 33.8133 39.5202 34.24 40.0215 34.56C40.5228 34.8907 41.1255 35.056 41.8295 35.056C42.6295 35.056 43.2802 34.8053 43.7815 34.304C44.2935 33.8027 44.5495 33.0987 44.5495 32.192V30.352C44.2615 30.864 43.8348 31.2907 43.2695 31.632C42.7042 31.9733 42.0428 32.144 41.2855 32.144C40.5068 32.144 39.7975 31.952 39.1575 31.568C38.5282 31.184 38.0322 30.6453 37.6695 29.952C37.3068 29.2587 37.1255 28.4693 37.1255 27.584C37.1255 26.688 37.3068 25.904 37.6695 25.232C38.0322 24.5493 38.5282 24.0213 39.1575 23.648C39.7975 23.2747 40.5068 23.088 41.2855 23.088ZM44.5495 27.6C44.5495 26.9387 44.4162 26.3627 44.1495 25.872C43.8828 25.3813 43.5202 25.008 43.0615 24.752C42.6135 24.4853 42.1175 24.352 41.5735 24.352C41.0295 24.352 40.5335 24.48 40.0855 24.736C39.6375 24.992 39.2802 25.3653 39.0135 25.856C38.7468 26.3467 38.6135 26.9227 38.6135 27.584C38.6135 28.256 38.7468 28.8427 39.0135 29.344C39.2802 29.8347 39.6375 30.2133 40.0855 30.48C40.5335 30.736 41.0295 30.864 41.5735 30.864C42.1175 30.864 42.6135 30.736 43.0615 30.48C43.5202 30.2133 43.8828 29.8347 44.1495 29.344C44.4162 28.8427 44.5495 28.2613 44.5495 27.6ZM49.938 20.16V32H48.482V20.16H49.938ZM53.1715 21.808C52.8942 21.808 52.6595 21.712 52.4675 21.52C52.2755 21.328 52.1795 21.0933 52.1795 20.816C52.1795 20.5387 52.2755 20.304 52.4675 20.112C52.6595 19.92 52.8942 19.824 53.1715 19.824C53.4382 19.824 53.6622 19.92 53.8435 20.112C54.0355 20.304 54.1315 20.5387 54.1315 20.816C54.1315 21.0933 54.0355 21.328 53.8435 21.52C53.6622 21.712 53.4382 21.808 53.1715 21.808ZM53.8755 23.232V32H52.4195V23.232H53.8755ZM59.461 32.144C58.789 32.144 58.1863 32.032 57.653 31.808C57.1197 31.5733 56.6983 31.2533 56.389 30.848C56.0797 30.432 55.909 29.9573 55.877 29.424H57.381C57.4237 29.8613 57.6263 30.2187 57.989 30.496C58.3623 30.7733 58.8477 30.912 59.445 30.912C59.9997 30.912 60.437 30.7893 60.757 30.544C61.077 30.2987 61.237 29.9893 61.237 29.616C61.237 29.232 61.0663 28.9493 60.725 28.768C60.3837 28.576 59.8557 28.3893 59.141 28.208C58.4903 28.0373 57.957 27.8667 57.541 27.696C57.1357 27.5147 56.7837 27.2533 56.485 26.912C56.197 26.56 56.053 26.1013 56.053 25.536C56.053 25.088 56.1863 24.6773 56.453 24.304C56.7197 23.9307 57.0983 23.6373 57.589 23.424C58.0797 23.2 58.6397 23.088 59.269 23.088C60.2397 23.088 61.0237 23.3333 61.621 23.824C62.2183 24.3147 62.5383 24.9867 62.581 25.84H61.125C61.093 25.3813 60.9063 25.0133 60.565 24.736C60.2343 24.4587 59.7863 24.32 59.221 24.32C58.6983 24.32 58.2823 24.432 57.973 24.656C57.6637 24.88 57.509 25.1733 57.509 25.536C57.509 25.824 57.5997 26.064 57.781 26.256C57.973 26.4373 58.2077 26.5867 58.485 26.704C58.773 26.8107 59.1677 26.9333 59.669 27.072C60.2983 27.2427 60.8103 27.4133 61.205 27.584C61.5997 27.744 61.9357 27.9893 62.213 28.32C62.501 28.6507 62.6503 29.0827 62.661 29.616C62.661 30.096 62.5277 30.528 62.261 30.912C61.9943 31.296 61.6157 31.6 61.125 31.824C60.645 32.0373 60.0903 32.144 59.461 32.144ZM69.0684 23.072C69.7297 23.072 70.327 23.216 70.8604 23.504C71.3937 23.7813 71.8097 24.2027 72.1084 24.768C72.4177 25.3333 72.5724 26.0213 72.5724 26.832V32H71.1324V27.04C71.1324 26.1653 70.9137 25.4987 70.4764 25.04C70.039 24.5707 69.4417 24.336 68.6844 24.336C67.9164 24.336 67.303 24.576 66.8444 25.056C66.3964 25.536 66.1724 26.2347 66.1724 27.152V32H64.7164V20.16H66.1724V24.48C66.4604 24.032 66.855 23.6853 67.3564 23.44C67.8684 23.1947 68.439 23.072 69.0684 23.072Z" fill="#475467"/>
<path d="M277.768 32.112C277.032 32.112 276.371 31.984 275.784 31.728C275.208 31.4613 274.755 31.0987 274.424 30.64C274.093 30.1707 273.923 29.632 273.912 29.024H275.464C275.517 29.5467 275.731 29.9893 276.104 30.352C276.488 30.704 277.043 30.88 277.768 30.88C278.461 30.88 279.005 30.7093 279.4 30.368C279.805 30.016 280.008 29.568 280.008 29.024C280.008 28.5973 279.891 28.2507 279.656 27.984C279.421 27.7173 279.128 27.5147 278.776 27.376C278.424 27.2373 277.949 27.088 277.352 26.928C276.616 26.736 276.024 26.544 275.576 26.352C275.139 26.16 274.76 25.8613 274.44 25.456C274.131 25.04 273.976 24.4853 273.976 23.792C273.976 23.184 274.131 22.6453 274.44 22.176C274.749 21.7067 275.181 21.344 275.736 21.088C276.301 20.832 276.947 20.704 277.672 20.704C278.717 20.704 279.571 20.9653 280.232 21.488C280.904 22.0107 281.283 22.704 281.368 23.568H279.768C279.715 23.1413 279.491 22.768 279.096 22.448C278.701 22.1173 278.179 21.952 277.528 21.952C276.92 21.952 276.424 22.112 276.04 22.432C275.656 22.7413 275.464 23.1787 275.464 23.744C275.464 24.1493 275.576 24.48 275.8 24.736C276.035 24.992 276.317 25.1893 276.648 25.328C276.989 25.456 277.464 25.6053 278.072 25.776C278.808 25.9787 279.4 26.1813 279.848 26.384C280.296 26.576 280.68 26.88 281 27.296C281.32 27.7013 281.48 28.256 281.48 28.96C281.48 29.504 281.336 30.016 281.048 30.496C280.76 30.976 280.333 31.3653 279.768 31.664C279.203 31.9627 278.536 32.112 277.768 32.112ZM291.623 27.28C291.623 27.5573 291.607 27.8507 291.575 28.16H284.567C284.62 29.024 284.913 29.7013 285.447 30.192C285.991 30.672 286.647 30.912 287.415 30.912C288.044 30.912 288.567 30.768 288.983 30.48C289.409 30.1813 289.708 29.7867 289.879 29.296H291.447C291.212 30.1387 290.743 30.8267 290.039 31.36C289.335 31.8827 288.46 32.144 287.415 32.144C286.583 32.144 285.836 31.9573 285.175 31.584C284.524 31.2107 284.012 30.6827 283.639 30C283.265 29.3067 283.079 28.5067 283.079 27.6C283.079 26.6933 283.26 25.8987 283.623 25.216C283.985 24.5333 284.492 24.0107 285.143 23.648C285.804 23.2747 286.561 23.088 287.415 23.088C288.247 23.088 288.983 23.2693 289.623 23.632C290.263 23.9947 290.753 24.496 291.095 25.136C291.447 25.7653 291.623 26.48 291.623 27.28ZM290.119 26.976C290.119 26.4213 289.996 25.9467 289.751 25.552C289.505 25.1467 289.169 24.8427 288.743 24.64C288.327 24.4267 287.863 24.32 287.351 24.32C286.615 24.32 285.985 24.5547 285.463 25.024C284.951 25.4933 284.657 26.144 284.583 26.976H290.119ZM295.001 20.16V32H293.545V20.16H295.001ZM305.482 27.28C305.482 27.5573 305.466 27.8507 305.434 28.16H298.426C298.479 29.024 298.773 29.7013 299.306 30.192C299.85 30.672 300.506 30.912 301.274 30.912C301.903 30.912 302.426 30.768 302.842 30.48C303.269 30.1813 303.567 29.7867 303.738 29.296H305.306C305.071 30.1387 304.602 30.8267 303.898 31.36C303.194 31.8827 302.319 32.144 301.274 32.144C300.442 32.144 299.695 31.9573 299.034 31.584C298.383 31.2107 297.871 30.6827 297.498 30C297.125 29.3067 296.938 28.5067 296.938 27.6C296.938 26.6933 297.119 25.8987 297.482 25.216C297.845 24.5333 298.351 24.0107 299.002 23.648C299.663 23.2747 300.421 23.088 301.274 23.088C302.106 23.088 302.842 23.2693 303.482 23.632C304.122 23.9947 304.613 24.496 304.954 25.136C305.306 25.7653 305.482 26.48 305.482 27.28ZM303.978 26.976C303.978 26.4213 303.855 25.9467 303.61 25.552C303.365 25.1467 303.029 24.8427 302.602 24.64C302.186 24.4267 301.722 24.32 301.21 24.32C300.474 24.32 299.845 24.5547 299.322 25.024C298.81 25.4933 298.517 26.144 298.442 26.976H303.978ZM306.86 27.6C306.86 26.6933 307.041 25.904 307.404 25.232C307.767 24.5493 308.268 24.0213 308.908 23.648C309.559 23.2747 310.3 23.088 311.132 23.088C312.209 23.088 313.095 23.3493 313.788 23.872C314.492 24.3947 314.956 25.12 315.18 26.048H313.612C313.463 25.5147 313.169 25.0933 312.732 24.784C312.305 24.4747 311.772 24.32 311.132 24.32C310.3 24.32 309.628 24.608 309.116 25.184C308.604 25.7493 308.348 26.5547 308.348 27.6C308.348 28.656 308.604 29.472 309.116 30.048C309.628 30.624 310.3 30.912 311.132 30.912C311.772 30.912 312.305 30.7627 312.732 30.464C313.159 30.1653 313.452 29.7387 313.612 29.184H315.18C314.945 30.08 314.476 30.8 313.772 31.344C313.068 31.8773 312.188 32.144 311.132 32.144C310.3 32.144 309.559 31.9573 308.908 31.584C308.268 31.2107 307.767 30.6827 307.404 30C307.041 29.3173 306.86 28.5173 306.86 27.6ZM318.899 24.432V29.6C318.899 30.0267 318.989 30.3307 319.171 30.512C319.352 30.6827 319.667 30.768 320.115 30.768H321.187V32H319.875C319.064 32 318.456 31.8133 318.051 31.44C317.645 31.0667 317.443 30.4533 317.443 29.6V24.432H316.307V23.232H317.443V21.024H318.899V23.232H321.187V24.432H318.899Z" fill="#101828"/>
<path d="M327 23.5L332 28.5L337 23.5" stroke="#475467" stroke-width="1.66667" stroke-linecap="round" stroke-linejoin="round"/>
</g>
<rect x="4.5" y="4.5" width="351" height="43" rx="7.5" stroke="#D0D5DD"/>
</g>
</g>
<defs>
<filter id="filter0_dd_1171_7558" x="0" y="0" width="360" height="52" filterUnits="userSpaceOnUse" color-interpolation-filters="sRGB">
<feFlood flood-opacity="0" result="BackgroundImageFix"/>
<feColorMatrix in="SourceAlpha" type="matrix" values="0 0 0 0 0 0 0 0 0 0 0 0 0 0 0 0 0 0 127 0" result="hardAlpha"/>
<feMorphology radius="4" operator="dilate" in="SourceAlpha" result="effect1_dropShadow_1171_7558"/>
<feOffset/>
<feColorMatrix type="matrix" values="0 0 0 0 0.997059 0 0 0 0 0.892745 0 0 0 0 0.885294 0 0 0 1 0"/>
<feBlend mode="normal" in2="BackgroundImageFix" result="effect1_dropShadow_1171_7558"/>
<feColorMatrix in="SourceAlpha" type="matrix" values="0 0 0 0 0 0 0 0 0 0 0 0 0 0 0 0 0 0 127 0" result="hardAlpha"/>
<feOffset dy="1"/>
<feGaussianBlur stdDeviation="1"/>
<feColorMatrix type="matrix" values="0 0 0 0 0.0627451 0 0 0 0 0.0941176 0 0 0 0 0.156863 0 0 0 0.05 0"/>
<feBlend mode="normal" in2="effect1_dropShadow_1171_7558" result="effect2_dropShadow_1171_7558"/>
<feBlend mode="normal" in="SourceGraphic" in2="effect2_dropShadow_1171_7558" result="shape"/>
</filter>
<filter id="filter1_d_1171_7558" x="2" y="3" width="356" height="48" filterUnits="userSpaceOnUse" color-interpolation-filters="sRGB">
<feFlood flood-opacity="0" result="BackgroundImageFix"/>
<feColorMatrix in="SourceAlpha" type="matrix" values="0 0 0 0 0 0 0 0 0 0 0 0 0 0 0 0 0 0 127 0" result="hardAlpha"/>
<feOffset dy="1"/>
<feGaussianBlur stdDeviation="1"/>
<feColorMatrix type="matrix" values="0 0 0 0 0.0627451 0 0 0 0 0.0941176 0 0 0 0 0.156863 0 0 0 0.05 0"/>
<feBlend mode="normal" in2="BackgroundImageFix" result="effect1_dropShadow_1171_7558"/>
<feBlend mode="normal" in="SourceGraphic" in2="effect1_dropShadow_1171_7558" result="shape"/>
</filter>
<clipPath id="clip0_1171_7558">
<rect x="4" y="4" width="352" height="44" rx="8" fill="white"/>
</clipPath>
</defs>
</svg>
