<svg width="433" height="93" viewBox="0 0 433 93" fill="none" xmlns="http://www.w3.org/2000/svg">
<g filter="url(#filter0_dd_1171_8736)">
<path d="M9.232 13L7.312 9.664H6.268V13H4.9V4.66H7.78C8.42 4.66 8.96 4.772 9.4 4.996C9.848 5.22 10.18 5.52 10.396 5.896C10.62 6.272 10.732 6.692 10.732 7.156C10.732 7.7 10.572 8.196 10.252 8.644C9.94 9.084 9.456 9.384 8.8 9.544L10.864 13H9.232ZM6.268 8.572H7.78C8.292 8.572 8.676 8.444 8.932 8.188C9.196 7.932 9.328 7.588 9.328 7.156C9.328 6.724 9.2 6.388 8.944 6.148C8.688 5.9 8.3 5.776 7.78 5.776H6.268V8.572ZM18.47 6.388V13H17.102V12.22C16.886 12.492 16.602 12.708 16.25 12.868C15.906 13.02 15.538 13.096 15.146 13.096C14.626 13.096 14.158 12.988 13.742 12.772C13.334 12.556 13.01 12.236 12.77 11.812C12.538 11.388 12.422 10.876 12.422 10.276V6.388H13.778V10.072C13.778 10.664 13.926 11.12 14.222 11.44C14.518 11.752 14.922 11.908 15.434 11.908C15.946 11.908 16.35 11.752 16.646 11.44C16.95 11.12 17.102 10.664 17.102 10.072V6.388H18.47ZM21.643 4.12V13H20.275V4.12H21.643ZM29.4991 9.532C29.4991 9.78 29.4831 10.004 29.4511 10.204H24.3991C24.4391 10.732 24.6351 11.156 24.9871 11.476C25.3391 11.796 25.7711 11.956 26.2831 11.956C27.0191 11.956 27.5391 11.648 27.8431 11.032H29.3191C29.1191 11.64 28.7551 12.14 28.2271 12.532C27.7071 12.916 27.0591 13.108 26.2831 13.108C25.6511 13.108 25.0831 12.968 24.5791 12.688C24.0831 12.4 23.6911 12 23.4031 11.488C23.1231 10.968 22.9831 10.368 22.9831 9.688C22.9831 9.008 23.1191 8.412 23.3911 7.9C23.6711 7.38 24.0591 6.98 24.5551 6.7C25.0591 6.42 25.6351 6.28 26.2831 6.28C26.9071 6.28 27.4631 6.416 27.9511 6.688C28.4391 6.96 28.8191 7.344 29.0911 7.84C29.3631 8.328 29.4991 8.892 29.4991 9.532ZM28.0711 9.1C28.0631 8.596 27.8831 8.192 27.5311 7.888C27.1791 7.584 26.7431 7.432 26.2231 7.432C25.7511 7.432 25.3471 7.584 25.0111 7.888C24.6751 8.184 24.4751 8.588 24.4111 9.1H28.0711Z" fill="#666666"/>
<path d="M37.7665 4.852L38.3065 5.812L36.6625 6.424L38.3065 7.036L37.7545 8.02L36.3865 6.94L36.6385 8.68H35.5345L35.7625 6.94L34.3945 8.044L33.8185 7.024L35.4505 6.412L33.8185 5.824L34.3705 4.84L35.7745 5.92L35.5345 4.168H36.6505L36.3865 5.92L37.7665 4.852Z" fill="#FF0000"/>
<g filter="url(#filter1_d_1171_8736)">
<g clip-path="url(#clip0_1171_8736)">
<rect x="4" y="24" width="425" height="40" rx="8" fill="white"/>
<path d="M18.602 44.114C18.602 43.162 18.8167 42.308 19.246 41.552C19.6753 40.7867 20.2587 40.1893 20.996 39.76C21.7427 39.3307 22.5687 39.116 23.474 39.116C24.538 39.116 25.4667 39.3727 26.26 39.886C27.0533 40.3993 27.632 41.1273 27.996 42.07H26.47C26.1993 41.482 25.8073 41.0293 25.294 40.712C24.79 40.3947 24.1833 40.236 23.474 40.236C22.7927 40.236 22.1813 40.3947 21.64 40.712C21.0987 41.0293 20.674 41.482 20.366 42.07C20.058 42.6487 19.904 43.33 19.904 44.114C19.904 44.8887 20.058 45.57 20.366 46.158C20.674 46.7367 21.0987 47.1847 21.64 47.502C22.1813 47.8193 22.7927 47.978 23.474 47.978C24.1833 47.978 24.79 47.824 25.294 47.516C25.8073 47.1987 26.1993 46.746 26.47 46.158H27.996C27.632 47.0913 27.0533 47.8147 26.26 48.328C25.4667 48.832 24.538 49.084 23.474 49.084C22.5687 49.084 21.7427 48.874 20.996 48.454C20.2587 48.0247 19.6753 47.432 19.246 46.676C18.8167 45.92 18.602 45.066 18.602 44.114ZM30.5505 40.082C30.3078 40.082 30.1025 39.998 29.9345 39.83C29.7665 39.662 29.6825 39.4567 29.6825 39.214C29.6825 38.9713 29.7665 38.766 29.9345 38.598C30.1025 38.43 30.3078 38.346 30.5505 38.346C30.7838 38.346 30.9798 38.43 31.1385 38.598C31.3065 38.766 31.3905 38.9713 31.3905 39.214C31.3905 39.4567 31.3065 39.662 31.1385 39.83C30.9798 39.998 30.7838 40.082 30.5505 40.082ZM31.1665 41.328V49H29.8925V41.328H31.1665ZM34.8918 42.378V46.9C34.8918 47.2733 34.9711 47.5393 35.1298 47.698C35.2884 47.8473 35.5638 47.922 35.9558 47.922H36.8938V49H35.7458C35.0364 49 34.5044 48.8367 34.1498 48.51C33.7951 48.1833 33.6178 47.6467 33.6178 46.9V42.378H32.6238V41.328H33.6178V39.396H34.8918V41.328H36.8938V42.378H34.8918ZM45.0454 41.328L40.4254 52.612H39.1094L40.6214 48.916L37.5274 41.328H38.9414L41.3494 47.544L43.7294 41.328H45.0454ZM53.4045 49.126C52.6858 49.126 52.0325 48.9627 51.4445 48.636C50.8658 48.3093 50.4085 47.8473 50.0725 47.25C49.7458 46.6433 49.5825 45.9433 49.5825 45.15C49.5825 44.366 49.7505 43.6753 50.0865 43.078C50.4318 42.4713 50.8985 42.0093 51.4865 41.692C52.0745 41.3653 52.7325 41.202 53.4605 41.202C54.1885 41.202 54.8465 41.3653 55.4345 41.692C56.0225 42.0093 56.4845 42.4667 56.8205 43.064C57.1658 43.6613 57.3385 44.3567 57.3385 45.15C57.3385 45.9433 57.1611 46.6433 56.8065 47.25C56.4611 47.8473 55.9898 48.3093 55.3925 48.636C54.7951 48.9627 54.1325 49.126 53.4045 49.126ZM53.4045 48.006C53.8618 48.006 54.2911 47.8987 54.6925 47.684C55.0938 47.4693 55.4158 47.1473 55.6585 46.718C55.9105 46.2887 56.0365 45.766 56.0365 45.15C56.0365 44.534 55.9151 44.0113 55.6725 43.582C55.4298 43.1527 55.1125 42.8353 54.7205 42.63C54.3285 42.4153 53.9038 42.308 53.4465 42.308C52.9798 42.308 52.5505 42.4153 52.1585 42.63C51.7758 42.8353 51.4678 43.1527 51.2345 43.582C51.0011 44.0113 50.8845 44.534 50.8845 45.15C50.8845 45.7753 50.9965 46.3027 51.2205 46.732C51.4538 47.1613 51.7618 47.4833 52.1445 47.698C52.5271 47.9033 52.9471 48.006 53.4045 48.006ZM62.1355 42.378H60.5255V49H59.2515V42.378H58.2575V41.328H59.2515V40.782C59.2515 39.9233 59.4709 39.298 59.9095 38.906C60.3575 38.5047 61.0715 38.304 62.0515 38.304V39.368C61.4915 39.368 61.0949 39.48 60.8615 39.704C60.6375 39.9187 60.5255 40.278 60.5255 40.782V41.328H62.1355V42.378ZM72.4914 49L70.1674 45.01H68.6274V49H67.3534V39.242H70.5034C71.2407 39.242 71.8614 39.368 72.3654 39.62C72.8787 39.872 73.2614 40.2127 73.5134 40.642C73.7654 41.0713 73.8914 41.5613 73.8914 42.112C73.8914 42.784 73.6954 43.3767 73.3034 43.89C72.9207 44.4033 72.3421 44.744 71.5674 44.912L74.0174 49H72.4914ZM68.6274 43.988H70.5034C71.1941 43.988 71.7121 43.82 72.0574 43.484C72.4027 43.1387 72.5754 42.6813 72.5754 42.112C72.5754 41.5333 72.4027 41.0853 72.0574 40.768C71.7214 40.4507 71.2034 40.292 70.5034 40.292H68.6274V43.988ZM82.871 44.87C82.871 45.1127 82.857 45.3693 82.829 45.64H76.697C76.7436 46.396 77.0003 46.9887 77.467 47.418C77.943 47.838 78.517 48.048 79.189 48.048C79.7396 48.048 80.197 47.922 80.561 47.67C80.9343 47.4087 81.1956 47.0633 81.345 46.634H82.717C82.5116 47.3713 82.101 47.9733 81.485 48.44C80.869 48.8973 80.1036 49.126 79.189 49.126C78.461 49.126 77.8076 48.9627 77.229 48.636C76.6596 48.3093 76.2116 47.8473 75.885 47.25C75.5583 46.6433 75.395 45.9433 75.395 45.15C75.395 44.3567 75.5536 43.6613 75.871 43.064C76.1883 42.4667 76.6316 42.0093 77.201 41.692C77.7796 41.3653 78.4423 41.202 79.189 41.202C79.917 41.202 80.561 41.3607 81.121 41.678C81.681 41.9953 82.1103 42.434 82.409 42.994C82.717 43.5447 82.871 44.17 82.871 44.87ZM81.555 44.604C81.555 44.1187 81.4476 43.7033 81.233 43.358C81.0183 43.0033 80.7243 42.7373 80.351 42.56C79.987 42.3733 79.581 42.28 79.133 42.28C78.489 42.28 77.9383 42.4853 77.481 42.896C77.033 43.3067 76.7763 43.876 76.711 44.604H81.555ZM87.2686 49.126C86.6806 49.126 86.1533 49.028 85.6866 48.832C85.2199 48.6267 84.8513 48.3467 84.5806 47.992C84.3099 47.628 84.1606 47.2127 84.1326 46.746H85.4486C85.4859 47.1287 85.6633 47.4413 85.9806 47.684C86.3073 47.9267 86.7319 48.048 87.2546 48.048C87.7399 48.048 88.1226 47.9407 88.4026 47.726C88.6826 47.5113 88.8226 47.2407 88.8226 46.914C88.8226 46.578 88.6733 46.3307 88.3746 46.172C88.0759 46.004 87.6139 45.8407 86.9886 45.682C86.4193 45.5327 85.9526 45.3833 85.5886 45.234C85.2339 45.0753 84.9259 44.8467 84.6646 44.548C84.4126 44.24 84.2866 43.8387 84.2866 43.344C84.2866 42.952 84.4033 42.5927 84.6366 42.266C84.8699 41.9393 85.2013 41.6827 85.6306 41.496C86.0599 41.3 86.5499 41.202 87.1006 41.202C87.9499 41.202 88.6359 41.4167 89.1586 41.846C89.6813 42.2753 89.9613 42.8633 89.9986 43.61H88.7246C88.6966 43.2087 88.5333 42.8867 88.2346 42.644C87.9453 42.4013 87.5533 42.28 87.0586 42.28C86.6013 42.28 86.2373 42.378 85.9666 42.574C85.6959 42.77 85.5606 43.0267 85.5606 43.344C85.5606 43.596 85.6399 43.806 85.7986 43.974C85.9666 44.1327 86.1719 44.2633 86.4146 44.366C86.6666 44.4593 87.0119 44.5667 87.4506 44.688C88.0013 44.8373 88.4493 44.9867 88.7946 45.136C89.1399 45.276 89.4339 45.4907 89.6766 45.78C89.9286 46.0693 90.0593 46.4473 90.0686 46.914C90.0686 47.334 89.9519 47.712 89.7186 48.048C89.4853 48.384 89.1539 48.65 88.7246 48.846C88.3046 49.0327 87.8193 49.126 87.2686 49.126ZM92.5251 40.082C92.2824 40.082 92.0771 39.998 91.9091 39.83C91.7411 39.662 91.6571 39.4567 91.6571 39.214C91.6571 38.9713 91.7411 38.766 91.9091 38.598C92.0771 38.43 92.2824 38.346 92.5251 38.346C92.7584 38.346 92.9544 38.43 93.1131 38.598C93.2811 38.766 93.3651 38.9713 93.3651 39.214C93.3651 39.4567 93.2811 39.662 93.1131 39.83C92.9544 39.998 92.7584 40.082 92.5251 40.082ZM93.1411 41.328V49H91.8671V41.328H93.1411ZM94.8364 45.136C94.8364 44.352 94.995 43.666 95.3124 43.078C95.6297 42.4807 96.0637 42.0187 96.6144 41.692C97.1744 41.3653 97.7997 41.202 98.4904 41.202C99.0877 41.202 99.643 41.342 100.156 41.622C100.67 41.8927 101.062 42.252 101.332 42.7V38.64H102.62V49H101.332V47.558C101.08 48.0153 100.707 48.3933 100.212 48.692C99.7177 48.9813 99.139 49.126 98.4764 49.126C97.795 49.126 97.1744 48.958 96.6144 48.622C96.0637 48.286 95.6297 47.8147 95.3124 47.208C94.995 46.6013 94.8364 45.9107 94.8364 45.136ZM101.332 45.15C101.332 44.5713 101.216 44.0673 100.982 43.638C100.749 43.2087 100.432 42.882 100.03 42.658C99.6384 42.4247 99.2044 42.308 98.7284 42.308C98.2524 42.308 97.8184 42.42 97.4264 42.644C97.0344 42.868 96.7217 43.1947 96.4884 43.624C96.255 44.0533 96.1384 44.5573 96.1384 45.136C96.1384 45.724 96.255 46.2373 96.4884 46.676C96.7217 47.1053 97.0344 47.4367 97.4264 47.67C97.8184 47.894 98.2524 48.006 98.7284 48.006C99.2044 48.006 99.6384 47.894 100.03 47.67C100.432 47.4367 100.749 47.1053 100.982 46.676C101.216 46.2373 101.332 45.7287 101.332 45.15ZM111.773 44.87C111.773 45.1127 111.759 45.3693 111.731 45.64H105.599C105.646 46.396 105.903 46.9887 106.369 47.418C106.845 47.838 107.419 48.048 108.091 48.048C108.642 48.048 109.099 47.922 109.463 47.67C109.837 47.4087 110.098 47.0633 110.247 46.634H111.619C111.414 47.3713 111.003 47.9733 110.387 48.44C109.771 48.8973 109.006 49.126 108.091 49.126C107.363 49.126 106.71 48.9627 106.131 48.636C105.562 48.3093 105.114 47.8473 104.787 47.25C104.461 46.6433 104.297 45.9433 104.297 45.15C104.297 44.3567 104.456 43.6613 104.773 43.064C105.091 42.4667 105.534 42.0093 106.103 41.692C106.682 41.3653 107.345 41.202 108.091 41.202C108.819 41.202 109.463 41.3607 110.023 41.678C110.583 41.9953 111.013 42.434 111.311 42.994C111.619 43.5447 111.773 44.17 111.773 44.87ZM110.457 44.604C110.457 44.1187 110.35 43.7033 110.135 43.358C109.921 43.0033 109.627 42.7373 109.253 42.56C108.889 42.3733 108.483 42.28 108.035 42.28C107.391 42.28 106.841 42.4853 106.383 42.896C105.935 43.3067 105.679 43.876 105.613 44.604H110.457ZM117.193 41.188C118.126 41.188 118.882 41.4727 119.461 42.042C120.04 42.602 120.329 43.414 120.329 44.478V49H119.069V44.66C119.069 43.8947 118.878 43.3113 118.495 42.91C118.112 42.4993 117.59 42.294 116.927 42.294C116.255 42.294 115.718 42.504 115.317 42.924C114.925 43.344 114.729 43.9553 114.729 44.758V49H113.455V41.328H114.729V42.42C114.981 42.028 115.322 41.7247 115.751 41.51C116.19 41.2953 116.67 41.188 117.193 41.188ZM121.934 45.15C121.934 44.3567 122.093 43.666 122.41 43.078C122.727 42.4807 123.166 42.0187 123.726 41.692C124.295 41.3653 124.944 41.202 125.672 41.202C126.615 41.202 127.389 41.4307 127.996 41.888C128.612 42.3453 129.018 42.98 129.214 43.792H127.842C127.711 43.3253 127.455 42.9567 127.072 42.686C126.699 42.4153 126.232 42.28 125.672 42.28C124.944 42.28 124.356 42.532 123.908 43.036C123.46 43.5307 123.236 44.2353 123.236 45.15C123.236 46.074 123.46 46.788 123.908 47.292C124.356 47.796 124.944 48.048 125.672 48.048C126.232 48.048 126.699 47.9173 127.072 47.656C127.445 47.3947 127.702 47.0213 127.842 46.536H129.214C129.009 47.32 128.598 47.95 127.982 48.426C127.366 48.8927 126.596 49.126 125.672 49.126C124.944 49.126 124.295 48.9627 123.726 48.636C123.166 48.3093 122.727 47.8473 122.41 47.25C122.093 46.6527 121.934 45.9527 121.934 45.15ZM137.914 44.87C137.914 45.1127 137.9 45.3693 137.872 45.64H131.74C131.787 46.396 132.043 46.9887 132.51 47.418C132.986 47.838 133.56 48.048 134.232 48.048C134.783 48.048 135.24 47.922 135.604 47.67C135.977 47.4087 136.239 47.0633 136.388 46.634H137.76C137.555 47.3713 137.144 47.9733 136.528 48.44C135.912 48.8973 135.147 49.126 134.232 49.126C133.504 49.126 132.851 48.9627 132.272 48.636C131.703 48.3093 131.255 47.8473 130.928 47.25C130.601 46.6433 130.438 45.9433 130.438 45.15C130.438 44.3567 130.597 43.6613 130.914 43.064C131.231 42.4667 131.675 42.0093 132.244 41.692C132.823 41.3653 133.485 41.202 134.232 41.202C134.96 41.202 135.604 41.3607 136.164 41.678C136.724 41.9953 137.153 42.434 137.452 42.994C137.76 43.5447 137.914 44.17 137.914 44.87ZM136.598 44.604C136.598 44.1187 136.491 43.7033 136.276 43.358C136.061 43.0033 135.767 42.7373 135.394 42.56C135.03 42.3733 134.624 42.28 134.176 42.28C133.532 42.28 132.981 42.4853 132.524 42.896C132.076 43.3067 131.819 43.876 131.754 44.604H136.598Z" fill="black"/>
<path d="M400 41.5L405 46.5L410 41.5" stroke="#475467" stroke-width="1.66667" stroke-linecap="round" stroke-linejoin="round"/>
</g>
<rect x="4.5" y="24.5" width="424" height="39" rx="7.5" stroke="#D0D5DD"/>
</g>
</g>
<g filter="url(#filter2_dd_1171_8736)">
<path d="M11.084 75.242V76.278H8.424V85H7.15V76.278H4.476V75.242H11.084ZM16.4602 77.188C17.0389 77.188 17.5616 77.314 18.0282 77.566C18.4949 77.8087 18.8589 78.1773 19.1202 78.672C19.3909 79.1667 19.5262 79.7687 19.5262 80.478V85H18.2662V80.66C18.2662 79.8947 18.0749 79.3113 17.6922 78.91C17.3096 78.4993 16.7869 78.294 16.1242 78.294C15.4522 78.294 14.9156 78.504 14.5142 78.924C14.1222 79.344 13.9262 79.9553 13.9262 80.758V85H12.6522V74.64H13.9262V78.42C14.1782 78.028 14.5236 77.7247 14.9622 77.51C15.4102 77.2953 15.9096 77.188 16.4602 77.188ZM22.2653 76.082C22.0226 76.082 21.8173 75.998 21.6493 75.83C21.4813 75.662 21.3973 75.4567 21.3973 75.214C21.3973 74.9713 21.4813 74.766 21.6493 74.598C21.8173 74.43 22.0226 74.346 22.2653 74.346C22.4986 74.346 22.6946 74.43 22.8533 74.598C23.0213 74.766 23.1053 74.9713 23.1053 75.214C23.1053 75.4567 23.0213 75.662 22.8533 75.83C22.6946 75.998 22.4986 76.082 22.2653 76.082ZM22.8813 77.328V85H21.6073V77.328H22.8813ZM27.7686 85.126C27.1806 85.126 26.6533 85.028 26.1866 84.832C25.7199 84.6267 25.3513 84.3467 25.0806 83.992C24.8099 83.628 24.6606 83.2127 24.6326 82.746H25.9486C25.9859 83.1287 26.1633 83.4413 26.4806 83.684C26.8073 83.9267 27.2319 84.048 27.7546 84.048C28.2399 84.048 28.6226 83.9407 28.9026 83.726C29.1826 83.5113 29.3226 83.2407 29.3226 82.914C29.3226 82.578 29.1733 82.3307 28.8746 82.172C28.5759 82.004 28.1139 81.8407 27.4886 81.682C26.9193 81.5327 26.4526 81.3833 26.0886 81.234C25.7339 81.0753 25.4259 80.8467 25.1646 80.548C24.9126 80.24 24.7866 79.8387 24.7866 79.344C24.7866 78.952 24.9033 78.5927 25.1366 78.266C25.3699 77.9393 25.7013 77.6827 26.1306 77.496C26.5599 77.3 27.0499 77.202 27.6006 77.202C28.4499 77.202 29.1359 77.4167 29.6586 77.846C30.1813 78.2753 30.4613 78.8633 30.4986 79.61H29.2246C29.1966 79.2087 29.0333 78.8867 28.7346 78.644C28.4453 78.4013 28.0533 78.28 27.5586 78.28C27.1013 78.28 26.7373 78.378 26.4666 78.574C26.1959 78.77 26.0606 79.0267 26.0606 79.344C26.0606 79.596 26.1399 79.806 26.2986 79.974C26.4666 80.1327 26.6719 80.2633 26.9146 80.366C27.1666 80.4593 27.5119 80.5667 27.9506 80.688C28.5013 80.8373 28.9493 80.9867 29.2946 81.136C29.6399 81.276 29.9339 81.4907 30.1766 81.78C30.4286 82.0693 30.5593 82.4473 30.5686 82.914C30.5686 83.334 30.4519 83.712 30.2186 84.048C29.9853 84.384 29.6539 84.65 29.2246 84.846C28.8046 85.0327 28.3193 85.126 27.7686 85.126ZM36.7575 76.082C36.5148 76.082 36.3095 75.998 36.1415 75.83C35.9735 75.662 35.8895 75.4567 35.8895 75.214C35.8895 74.9713 35.9735 74.766 36.1415 74.598C36.3095 74.43 36.5148 74.346 36.7575 74.346C36.9908 74.346 37.1868 74.43 37.3455 74.598C37.5135 74.766 37.5975 74.9713 37.5975 75.214C37.5975 75.4567 37.5135 75.662 37.3455 75.83C37.1868 75.998 36.9908 76.082 36.7575 76.082ZM37.3735 77.328V85H36.0995V77.328H37.3735ZM42.2608 85.126C41.6728 85.126 41.1455 85.028 40.6788 84.832C40.2121 84.6267 39.8435 84.3467 39.5728 83.992C39.3021 83.628 39.1528 83.2127 39.1248 82.746H40.4408C40.4781 83.1287 40.6555 83.4413 40.9728 83.684C41.2995 83.9267 41.7241 84.048 42.2468 84.048C42.7321 84.048 43.1148 83.9407 43.3948 83.726C43.6748 83.5113 43.8148 83.2407 43.8148 82.914C43.8148 82.578 43.6655 82.3307 43.3668 82.172C43.0681 82.004 42.6061 81.8407 41.9808 81.682C41.4115 81.5327 40.9448 81.3833 40.5808 81.234C40.2261 81.0753 39.9181 80.8467 39.6568 80.548C39.4048 80.24 39.2788 79.8387 39.2788 79.344C39.2788 78.952 39.3955 78.5927 39.6288 78.266C39.8621 77.9393 40.1935 77.6827 40.6228 77.496C41.0521 77.3 41.5421 77.202 42.0928 77.202C42.9421 77.202 43.6281 77.4167 44.1508 77.846C44.6735 78.2753 44.9535 78.8633 44.9908 79.61H43.7168C43.6888 79.2087 43.5255 78.8867 43.2268 78.644C42.9375 78.4013 42.5455 78.28 42.0508 78.28C41.5935 78.28 41.2295 78.378 40.9588 78.574C40.6881 78.77 40.5528 79.0267 40.5528 79.344C40.5528 79.596 40.6321 79.806 40.7908 79.974C40.9588 80.1327 41.1641 80.2633 41.4068 80.366C41.6588 80.4593 42.0041 80.5667 42.4428 80.688C42.9935 80.8373 43.4415 80.9867 43.7868 81.136C44.1321 81.276 44.4261 81.4907 44.6688 81.78C44.9208 82.0693 45.0515 82.4473 45.0608 82.914C45.0608 83.334 44.9441 83.712 44.7108 84.048C44.4775 84.384 44.1461 84.65 43.7168 84.846C43.2968 85.0327 42.8115 85.126 42.2608 85.126ZM50.1157 81.136C50.1157 80.352 50.2743 79.666 50.5917 79.078C50.909 78.4807 51.343 78.0187 51.8937 77.692C52.4537 77.3653 53.0743 77.202 53.7557 77.202C54.4277 77.202 55.011 77.3467 55.5057 77.636C56.0003 77.9253 56.369 78.2893 56.6117 78.728V77.328H57.8997V85H56.6117V83.572C56.3597 84.02 55.9817 84.3933 55.4777 84.692C54.983 84.9813 54.4043 85.126 53.7417 85.126C53.0603 85.126 52.4443 84.958 51.8937 84.622C51.343 84.286 50.909 83.8147 50.5917 83.208C50.2743 82.6013 50.1157 81.9107 50.1157 81.136ZM56.6117 81.15C56.6117 80.5713 56.495 80.0673 56.2617 79.638C56.0283 79.2087 55.711 78.882 55.3097 78.658C54.9177 78.4247 54.4837 78.308 54.0077 78.308C53.5317 78.308 53.0977 78.42 52.7057 78.644C52.3137 78.868 52.001 79.1947 51.7677 79.624C51.5343 80.0533 51.4177 80.5573 51.4177 81.136C51.4177 81.724 51.5343 82.2373 51.7677 82.676C52.001 83.1053 52.3137 83.4367 52.7057 83.67C53.0977 83.894 53.5317 84.006 54.0077 84.006C54.4837 84.006 54.9177 83.894 55.3097 83.67C55.711 83.4367 56.0283 83.1053 56.2617 82.676C56.495 82.2373 56.6117 81.7287 56.6117 81.15ZM67.593 77.188C68.1717 77.188 68.6944 77.314 69.161 77.566C69.6277 77.8087 69.9917 78.1773 70.253 78.672C70.5237 79.1667 70.659 79.7687 70.659 80.478V85H69.399V80.66C69.399 79.8947 69.2077 79.3113 68.825 78.91C68.4424 78.4993 67.9197 78.294 67.257 78.294C66.585 78.294 66.0484 78.504 65.647 78.924C65.255 79.344 65.059 79.9553 65.059 80.758V85H63.785V74.64H65.059V78.42C65.311 78.028 65.6564 77.7247 66.095 77.51C66.543 77.2953 67.0424 77.188 67.593 77.188ZM73.3981 76.082C73.1554 76.082 72.9501 75.998 72.7821 75.83C72.6141 75.662 72.5301 75.4567 72.5301 75.214C72.5301 74.9713 72.6141 74.766 72.7821 74.598C72.9501 74.43 73.1554 74.346 73.3981 74.346C73.6314 74.346 73.8274 74.43 73.9861 74.598C74.1541 74.766 74.2381 74.9713 74.2381 75.214C74.2381 75.4567 74.1541 75.662 73.9861 75.83C73.8274 75.998 73.6314 76.082 73.3981 76.082ZM74.0141 77.328V85H72.7401V77.328H74.0141ZM79.9234 77.188C80.8568 77.188 81.6128 77.4727 82.1914 78.042C82.7701 78.602 83.0594 79.414 83.0594 80.478V85H81.7994V80.66C81.7994 79.8947 81.6081 79.3113 81.2254 78.91C80.8428 78.4993 80.3201 78.294 79.6574 78.294C78.9854 78.294 78.4488 78.504 78.0474 78.924C77.6554 79.344 77.4594 79.9553 77.4594 80.758V85H76.1854V77.328H77.4594V78.42C77.7114 78.028 78.0521 77.7247 78.4814 77.51C78.9201 77.2953 79.4008 77.188 79.9234 77.188ZM86.6945 78.378V82.9C86.6945 83.2733 86.7738 83.5393 86.9325 83.698C87.0912 83.8473 87.3665 83.922 87.7585 83.922H88.6965V85H87.5485C86.8392 85 86.3072 84.8367 85.9525 84.51C85.5978 84.1833 85.4205 83.6467 85.4205 82.9V78.378H84.4265V77.328H85.4205V75.396H86.6945V77.328H88.6965V78.378H86.6945ZM95.5265 78.378V82.9C95.5265 83.2733 95.6059 83.5393 95.7645 83.698C95.9232 83.8473 96.1985 83.922 96.5905 83.922H97.5285V85H96.3805C95.6712 85 95.1392 84.8367 94.7845 84.51C94.4299 84.1833 94.2525 83.6467 94.2525 82.9V78.378H93.2585V77.328H94.2525V75.396H95.5265V77.328H97.5285V78.378H95.5265ZM106.072 80.87C106.072 81.1127 106.058 81.3693 106.03 81.64H99.8981C99.9448 82.396 100.201 82.9887 100.668 83.418C101.144 83.838 101.718 84.048 102.39 84.048C102.941 84.048 103.398 83.922 103.762 83.67C104.135 83.4087 104.397 83.0633 104.546 82.634H105.918C105.713 83.3713 105.302 83.9733 104.686 84.44C104.07 84.8973 103.305 85.126 102.39 85.126C101.662 85.126 101.009 84.9627 100.43 84.636C99.8608 84.3093 99.4128 83.8473 99.0861 83.25C98.7595 82.6433 98.5961 81.9433 98.5961 81.15C98.5961 80.3567 98.7548 79.6613 99.0721 79.064C99.3895 78.4667 99.8328 78.0093 100.402 77.692C100.981 77.3653 101.643 77.202 102.39 77.202C103.118 77.202 103.762 77.3607 104.322 77.678C104.882 77.9953 105.311 78.434 105.61 78.994C105.918 79.5447 106.072 80.17 106.072 80.87ZM104.756 80.604C104.756 80.1187 104.649 79.7033 104.434 79.358C104.219 79.0033 103.925 78.7373 103.552 78.56C103.188 78.3733 102.782 78.28 102.334 78.28C101.69 78.28 101.139 78.4853 100.682 78.896C100.234 79.3067 99.9775 79.876 99.9121 80.604H104.756ZM111.758 85L109.938 82.144L108.188 85H106.858L109.336 81.192L106.858 77.328H108.3L110.12 80.17L111.856 77.328H113.186L110.722 81.122L113.2 85H111.758ZM116.007 78.378V82.9C116.007 83.2733 116.086 83.5393 116.245 83.698C116.404 83.8473 116.679 83.922 117.071 83.922H118.009V85H116.861C116.152 85 115.62 84.8367 115.265 84.51C114.91 84.1833 114.733 83.6467 114.733 82.9V78.378H113.739V77.328H114.733V75.396H116.007V77.328H118.009V78.378H116.007ZM124.839 78.378V82.9C124.839 83.2733 124.918 83.5393 125.077 83.698C125.236 83.8473 125.511 83.922 125.903 83.922H126.841V85H125.693C124.984 85 124.452 84.8367 124.097 84.51C123.742 84.1833 123.565 83.6467 123.565 82.9V78.378H122.571V77.328H123.565V75.396H124.839V77.328H126.841V78.378H124.839ZM131.731 85.126C131.012 85.126 130.359 84.9627 129.771 84.636C129.192 84.3093 128.735 83.8473 128.399 83.25C128.072 82.6433 127.909 81.9433 127.909 81.15C127.909 80.366 128.077 79.6753 128.413 79.078C128.758 78.4713 129.225 78.0093 129.813 77.692C130.401 77.3653 131.059 77.202 131.787 77.202C132.515 77.202 133.173 77.3653 133.761 77.692C134.349 78.0093 134.811 78.4667 135.147 79.064C135.492 79.6613 135.665 80.3567 135.665 81.15C135.665 81.9433 135.487 82.6433 135.133 83.25C134.787 83.8473 134.316 84.3093 133.719 84.636C133.121 84.9627 132.459 85.126 131.731 85.126ZM131.731 84.006C132.188 84.006 132.617 83.8987 133.019 83.684C133.42 83.4693 133.742 83.1473 133.985 82.718C134.237 82.2887 134.363 81.766 134.363 81.15C134.363 80.534 134.241 80.0113 133.999 79.582C133.756 79.1527 133.439 78.8353 133.047 78.63C132.655 78.4153 132.23 78.308 131.773 78.308C131.306 78.308 130.877 78.4153 130.485 78.63C130.102 78.8353 129.794 79.1527 129.561 79.582C129.327 80.0113 129.211 80.534 129.211 81.15C129.211 81.7753 129.323 82.3027 129.547 82.732C129.78 83.1613 130.088 83.4833 130.471 83.698C130.853 83.9033 131.273 84.006 131.731 84.006ZM144.88 77.188C145.459 77.188 145.981 77.314 146.448 77.566C146.915 77.8087 147.279 78.1773 147.54 78.672C147.811 79.1667 147.946 79.7687 147.946 80.478V85H146.686V80.66C146.686 79.8947 146.495 79.3113 146.112 78.91C145.729 78.4993 145.207 78.294 144.544 78.294C143.872 78.294 143.335 78.504 142.934 78.924C142.542 79.344 142.346 79.9553 142.346 80.758V85H141.072V74.64H142.346V78.42C142.598 78.028 142.943 77.7247 143.382 77.51C143.83 77.2953 144.329 77.188 144.88 77.188ZM157.027 80.87C157.027 81.1127 157.013 81.3693 156.985 81.64H150.853C150.9 82.396 151.157 82.9887 151.623 83.418C152.099 83.838 152.673 84.048 153.345 84.048C153.896 84.048 154.353 83.922 154.717 83.67C155.091 83.4087 155.352 83.0633 155.501 82.634H156.873C156.668 83.3713 156.257 83.9733 155.641 84.44C155.025 84.8973 154.26 85.126 153.345 85.126C152.617 85.126 151.964 84.9627 151.385 84.636C150.816 84.3093 150.368 83.8473 150.041 83.25C149.715 82.6433 149.551 81.9433 149.551 81.15C149.551 80.3567 149.71 79.6613 150.027 79.064C150.345 78.4667 150.788 78.0093 151.357 77.692C151.936 77.3653 152.599 77.202 153.345 77.202C154.073 77.202 154.717 77.3607 155.277 77.678C155.837 77.9953 156.267 78.434 156.565 78.994C156.873 79.5447 157.027 80.17 157.027 80.87ZM155.711 80.604C155.711 80.1187 155.604 79.7033 155.389 79.358C155.175 79.0033 154.881 78.7373 154.507 78.56C154.143 78.3733 153.737 78.28 153.289 78.28C152.645 78.28 152.095 78.4853 151.637 78.896C151.189 79.3067 150.933 79.876 150.867 80.604H155.711ZM159.983 74.64V85H158.709V74.64H159.983ZM163.428 78.742C163.68 78.3033 164.054 77.9393 164.548 77.65C165.052 77.3513 165.636 77.202 166.298 77.202C166.98 77.202 167.596 77.3653 168.146 77.692C168.706 78.0187 169.145 78.4807 169.462 79.078C169.78 79.666 169.938 80.352 169.938 81.136C169.938 81.9107 169.78 82.6013 169.462 83.208C169.145 83.8147 168.706 84.286 168.146 84.622C167.596 84.958 166.98 85.126 166.298 85.126C165.645 85.126 165.066 84.9813 164.562 84.692C164.068 84.3933 163.69 84.0247 163.428 83.586V88.64H162.154V77.328H163.428V78.742ZM168.636 81.136C168.636 80.5573 168.52 80.0533 168.286 79.624C168.053 79.1947 167.736 78.868 167.334 78.644C166.942 78.42 166.508 78.308 166.032 78.308C165.566 78.308 165.132 78.4247 164.73 78.658C164.338 78.882 164.021 79.2133 163.778 79.652C163.545 80.0813 163.428 80.5807 163.428 81.15C163.428 81.7287 163.545 82.2373 163.778 82.676C164.021 83.1053 164.338 83.4367 164.73 83.67C165.132 83.894 165.566 84.006 166.032 84.006C166.508 84.006 166.942 83.894 167.334 83.67C167.736 83.4367 168.053 83.1053 168.286 82.676C168.52 82.2373 168.636 81.724 168.636 81.136ZM182.152 77.328V85H180.878V83.866C180.635 84.258 180.294 84.566 179.856 84.79C179.426 85.0047 178.95 85.112 178.428 85.112C177.83 85.112 177.294 84.9907 176.818 84.748C176.342 84.496 175.964 84.1227 175.684 83.628C175.413 83.1333 175.278 82.5313 175.278 81.822V77.328H176.538V81.654C176.538 82.41 176.729 82.9933 177.112 83.404C177.494 83.8053 178.017 84.006 178.68 84.006C179.361 84.006 179.898 83.796 180.29 83.376C180.682 82.956 180.878 82.3447 180.878 81.542V77.328H182.152ZM187.019 85.126C186.431 85.126 185.903 85.028 185.437 84.832C184.97 84.6267 184.601 84.3467 184.331 83.992C184.06 83.628 183.911 83.2127 183.883 82.746H185.199C185.236 83.1287 185.413 83.4413 185.731 83.684C186.057 83.9267 186.482 84.048 187.005 84.048C187.49 84.048 187.873 83.9407 188.153 83.726C188.433 83.5113 188.573 83.2407 188.573 82.914C188.573 82.578 188.423 82.3307 188.125 82.172C187.826 82.004 187.364 81.8407 186.739 81.682C186.169 81.5327 185.703 81.3833 185.339 81.234C184.984 81.0753 184.676 80.8467 184.415 80.548C184.163 80.24 184.037 79.8387 184.037 79.344C184.037 78.952 184.153 78.5927 184.387 78.266C184.62 77.9393 184.951 77.6827 185.381 77.496C185.81 77.3 186.3 77.202 186.851 77.202C187.7 77.202 188.386 77.4167 188.909 77.846C189.431 78.2753 189.711 78.8633 189.749 79.61H188.475C188.447 79.2087 188.283 78.8867 187.985 78.644C187.695 78.4013 187.303 78.28 186.809 78.28C186.351 78.28 185.987 78.378 185.717 78.574C185.446 78.77 185.311 79.0267 185.311 79.344C185.311 79.596 185.39 79.806 185.549 79.974C185.717 80.1327 185.922 80.2633 186.165 80.366C186.417 80.4593 186.762 80.5667 187.201 80.688C187.751 80.8373 188.199 80.9867 188.545 81.136C188.89 81.276 189.184 81.4907 189.427 81.78C189.679 82.0693 189.809 82.4473 189.819 82.914C189.819 83.334 189.702 83.712 189.469 84.048C189.235 84.384 188.904 84.65 188.475 84.846C188.055 85.0327 187.569 85.126 187.019 85.126ZM198.617 80.87C198.617 81.1127 198.603 81.3693 198.575 81.64H192.443C192.49 82.396 192.746 82.9887 193.213 83.418C193.689 83.838 194.263 84.048 194.935 84.048C195.486 84.048 195.943 83.922 196.307 83.67C196.68 83.4087 196.942 83.0633 197.091 82.634H198.463C198.258 83.3713 197.847 83.9733 197.231 84.44C196.615 84.8973 195.85 85.126 194.935 85.126C194.207 85.126 193.554 84.9627 192.975 84.636C192.406 84.3093 191.958 83.8473 191.631 83.25C191.304 82.6433 191.141 81.9433 191.141 81.15C191.141 80.3567 191.3 79.6613 191.617 79.064C191.934 78.4667 192.378 78.0093 192.947 77.692C193.526 77.3653 194.188 77.202 194.935 77.202C195.663 77.202 196.307 77.3607 196.867 77.678C197.427 77.9953 197.856 78.434 198.155 78.994C198.463 79.5447 198.617 80.17 198.617 80.87ZM197.301 80.604C197.301 80.1187 197.194 79.7033 196.979 79.358C196.764 79.0033 196.47 78.7373 196.097 78.56C195.733 78.3733 195.327 78.28 194.879 78.28C194.235 78.28 193.684 78.4853 193.227 78.896C192.779 79.3067 192.522 79.876 192.457 80.604H197.301ZM201.573 78.574C201.797 78.1353 202.114 77.7947 202.525 77.552C202.945 77.3093 203.453 77.188 204.051 77.188V78.504H203.715C202.287 78.504 201.573 79.2787 201.573 80.828V85H200.299V77.328H201.573V78.574ZM205.927 85.084C205.685 85.084 205.479 85 205.311 84.832C205.143 84.664 205.059 84.4587 205.059 84.216C205.059 83.9733 205.143 83.768 205.311 83.6C205.479 83.432 205.685 83.348 205.927 83.348C206.161 83.348 206.357 83.432 206.515 83.6C206.683 83.768 206.767 83.9733 206.767 84.216C206.767 84.4587 206.683 84.664 206.515 84.832C206.357 85 206.161 85.084 205.927 85.084Z" fill="#667085"/>
</g>
<defs>
<filter id="filter0_dd_1171_8736" x="0" y="-4" width="433" height="72" filterUnits="userSpaceOnUse" color-interpolation-filters="sRGB">
<feFlood flood-opacity="0" result="BackgroundImageFix"/>
<feColorMatrix in="SourceAlpha" type="matrix" values="0 0 0 0 0 0 0 0 0 0 0 0 0 0 0 0 0 0 127 0" result="hardAlpha"/>
<feMorphology radius="4" operator="dilate" in="SourceAlpha" result="effect1_dropShadow_1171_8736"/>
<feOffset/>
<feColorMatrix type="matrix" values="0 0 0 0 0.997059 0 0 0 0 0.892745 0 0 0 0 0.885294 0 0 0 1 0"/>
<feBlend mode="normal" in2="BackgroundImageFix" result="effect1_dropShadow_1171_8736"/>
<feColorMatrix in="SourceAlpha" type="matrix" values="0 0 0 0 0 0 0 0 0 0 0 0 0 0 0 0 0 0 127 0" result="hardAlpha"/>
<feOffset dy="1"/>
<feGaussianBlur stdDeviation="1"/>
<feColorMatrix type="matrix" values="0 0 0 0 0.0627451 0 0 0 0 0.0941176 0 0 0 0 0.156863 0 0 0 0.05 0"/>
<feBlend mode="normal" in2="effect1_dropShadow_1171_8736" result="effect2_dropShadow_1171_8736"/>
<feBlend mode="normal" in="SourceGraphic" in2="effect2_dropShadow_1171_8736" result="shape"/>
</filter>
<filter id="filter1_d_1171_8736" x="2" y="23" width="429" height="44" filterUnits="userSpaceOnUse" color-interpolation-filters="sRGB">
<feFlood flood-opacity="0" result="BackgroundImageFix"/>
<feColorMatrix in="SourceAlpha" type="matrix" values="0 0 0 0 0 0 0 0 0 0 0 0 0 0 0 0 0 0 127 0" result="hardAlpha"/>
<feOffset dy="1"/>
<feGaussianBlur stdDeviation="1"/>
<feColorMatrix type="matrix" values="0 0 0 0 0.0627451 0 0 0 0 0.0941176 0 0 0 0 0.156863 0 0 0 0.05 0"/>
<feBlend mode="normal" in2="BackgroundImageFix" result="effect1_dropShadow_1171_8736"/>
<feBlend mode="normal" in="SourceGraphic" in2="effect1_dropShadow_1171_8736" result="shape"/>
</filter>
<filter id="filter2_dd_1171_8736" x="0.476074" y="70.346" width="210.292" height="22.294" filterUnits="userSpaceOnUse" color-interpolation-filters="sRGB">
<feFlood flood-opacity="0" result="BackgroundImageFix"/>
<feColorMatrix in="SourceAlpha" type="matrix" values="0 0 0 0 0 0 0 0 0 0 0 0 0 0 0 0 0 0 127 0" result="hardAlpha"/>
<feMorphology radius="4" operator="dilate" in="SourceAlpha" result="effect1_dropShadow_1171_8736"/>
<feOffset/>
<feColorMatrix type="matrix" values="0 0 0 0 0.997059 0 0 0 0 0.892745 0 0 0 0 0.885294 0 0 0 1 0"/>
<feBlend mode="normal" in2="BackgroundImageFix" result="effect1_dropShadow_1171_8736"/>
<feColorMatrix in="SourceAlpha" type="matrix" values="0 0 0 0 0 0 0 0 0 0 0 0 0 0 0 0 0 0 127 0" result="hardAlpha"/>
<feOffset dy="1"/>
<feGaussianBlur stdDeviation="1"/>
<feColorMatrix type="matrix" values="0 0 0 0 0.0627451 0 0 0 0 0.0941176 0 0 0 0 0.156863 0 0 0 0.05 0"/>
<feBlend mode="normal" in2="effect1_dropShadow_1171_8736" result="effect2_dropShadow_1171_8736"/>
<feBlend mode="normal" in="SourceGraphic" in2="effect2_dropShadow_1171_8736" result="shape"/>
</filter>
<clipPath id="clip0_1171_8736">
<rect x="4" y="24" width="425" height="40" rx="8" fill="white"/>
</clipPath>
</defs>
</svg>
