<svg width="212" height="167" viewBox="0 0 212 167" fill="none" xmlns="http://www.w3.org/2000/svg">
<rect x="0.5" y="0.5" width="211" height="166" rx="7.5" fill="#FCFCFD"/>
<rect x="0.5" y="0.5" width="211" height="166" rx="7.5" stroke="#EAECF0"/>
<path d="M125.97 38.0361C130.958 44.8085 134.118 53.3855 131.483 61.4246C128.941 69.1804 121.137 73.4251 113.461 76.2029C106.411 78.7542 98.8747 78.873 92.1441 75.6606C84.9176 72.2115 78.4282 66.5927 76.8519 58.7301C75.233 50.6551 78.7847 42.5611 84.2642 36.356C89.7423 30.1525 97.3201 25.8927 105.556 26.2245C113.845 26.5584 121.066 31.3787 125.97 38.0361Z" fill="#F0F9FF"/>
<path d="M116.667 43H111.334V40.3333C111.334 38.8533 110.147 37.6667 108.667 37.6667H103.334C101.854 37.6667 100.667 38.8533 100.667 40.3333V43H95.3337C93.8537 43 92.6803 44.1867 92.6803 45.6667L92.667 60.3333C92.667 61.8133 93.8537 63 95.3337 63H116.667C118.147 63 119.334 61.8133 119.334 60.3333V45.6667C119.334 44.1867 118.147 43 116.667 43ZM103.334 40.3333H108.667V43H103.334V40.3333ZM116.667 60.3333H95.3337V45.6667H116.667V60.3333Z" fill="#2E90FA"/>
<path d="M78.58 109.126C77.704 109.126 76.912 108.976 76.204 108.676C75.508 108.376 74.956 107.944 74.548 107.38C74.14 106.816 73.93 106.15 73.918 105.382H76.618C76.654 105.898 76.834 106.306 77.158 106.606C77.494 106.906 77.95 107.056 78.526 107.056C79.114 107.056 79.576 106.918 79.912 106.642C80.248 106.354 80.416 105.982 80.416 105.526C80.416 105.154 80.302 104.848 80.074 104.608C79.846 104.368 79.558 104.182 79.21 104.05C78.874 103.906 78.406 103.75 77.806 103.582C76.99 103.342 76.324 103.108 75.808 102.88C75.304 102.64 74.866 102.286 74.494 101.818C74.134 101.338 73.954 100.702 73.954 99.91C73.954 99.166 74.14 98.518 74.512 97.966C74.884 97.414 75.406 96.994 76.078 96.706C76.75 96.406 77.518 96.256 78.382 96.256C79.678 96.256 80.728 96.574 81.532 97.21C82.348 97.834 82.798 98.71 82.882 99.838H80.11C80.086 99.406 79.9 99.052 79.552 98.776C79.216 98.488 78.766 98.344 78.202 98.344C77.71 98.344 77.314 98.47 77.014 98.722C76.726 98.974 76.582 99.34 76.582 99.82C76.582 100.156 76.69 100.438 76.906 100.666C77.134 100.882 77.41 101.062 77.734 101.206C78.07 101.338 78.538 101.494 79.138 101.674C79.954 101.914 80.62 102.154 81.136 102.394C81.652 102.634 82.096 102.994 82.468 103.474C82.84 103.954 83.026 104.584 83.026 105.364C83.026 106.036 82.852 106.66 82.504 107.236C82.156 107.812 81.646 108.274 80.974 108.622C80.302 108.958 79.504 109.126 78.58 109.126ZM94.6248 99.028V109H92.0868V107.74C91.7628 108.172 91.3368 108.514 90.8088 108.766C90.2928 109.006 89.7288 109.126 89.1168 109.126C88.3368 109.126 87.6468 108.964 87.0468 108.64C86.4468 108.304 85.9728 107.818 85.6248 107.182C85.2888 106.534 85.1208 105.766 85.1208 104.878V99.028H87.6408V104.518C87.6408 105.31 87.8388 105.922 88.2348 106.354C88.6308 106.774 89.1708 106.984 89.8548 106.984C90.5508 106.984 91.0968 106.774 91.4928 106.354C91.8888 105.922 92.0868 105.31 92.0868 104.518V99.028H94.6248ZM99.6311 100.486C99.9551 100.006 100.399 99.616 100.963 99.316C101.539 99.016 102.193 98.866 102.925 98.866C103.777 98.866 104.545 99.076 105.229 99.496C105.925 99.916 106.471 100.516 106.867 101.296C107.275 102.064 107.479 102.958 107.479 103.978C107.479 104.998 107.275 105.904 106.867 106.696C106.471 107.476 105.925 108.082 105.229 108.514C104.545 108.946 103.777 109.162 102.925 109.162C102.181 109.162 101.527 109.018 100.963 108.73C100.411 108.43 99.9671 108.046 99.6311 107.578V109H97.1111V95.68H99.6311V100.486ZM104.905 103.978C104.905 103.378 104.779 102.862 104.527 102.43C104.287 101.986 103.963 101.65 103.555 101.422C103.159 101.194 102.727 101.08 102.259 101.08C101.803 101.08 101.371 101.2 100.963 101.44C100.567 101.668 100.243 102.004 99.9911 102.448C99.7511 102.892 99.6311 103.414 99.6311 104.014C99.6311 104.614 99.7511 105.136 99.9911 105.58C100.243 106.024 100.567 106.366 100.963 106.606C101.371 106.834 101.803 106.948 102.259 106.948C102.727 106.948 103.159 106.828 103.555 106.588C103.963 106.348 104.287 106.006 104.527 105.562C104.779 105.118 104.905 104.59 104.905 103.978ZM121.694 98.884C122.918 98.884 123.902 99.262 124.646 100.018C125.402 100.762 125.78 101.806 125.78 103.15V109H123.26V103.492C123.26 102.712 123.062 102.118 122.666 101.71C122.27 101.29 121.73 101.08 121.046 101.08C120.362 101.08 119.816 101.29 119.408 101.71C119.012 102.118 118.814 102.712 118.814 103.492V109H116.294V103.492C116.294 102.712 116.096 102.118 115.7 101.71C115.304 101.29 114.764 101.08 114.08 101.08C113.384 101.08 112.832 101.29 112.424 101.71C112.028 102.118 111.83 102.712 111.83 103.492V109H109.31V99.028H111.83V100.234C112.154 99.814 112.568 99.484 113.072 99.244C113.588 99.004 114.152 98.884 114.764 98.884C115.544 98.884 116.24 99.052 116.852 99.388C117.464 99.712 117.938 100.18 118.274 100.792C118.598 100.216 119.066 99.754 119.678 99.406C120.302 99.058 120.974 98.884 121.694 98.884ZM129.45 97.84C129.006 97.84 128.634 97.702 128.334 97.426C128.046 97.138 127.902 96.784 127.902 96.364C127.902 95.944 128.046 95.596 128.334 95.32C128.634 95.032 129.006 94.888 129.45 94.888C129.894 94.888 130.26 95.032 130.548 95.32C130.848 95.596 130.998 95.944 130.998 96.364C130.998 96.784 130.848 97.138 130.548 97.426C130.26 97.702 129.894 97.84 129.45 97.84ZM130.692 99.028V109H128.172V99.028H130.692ZM136.115 101.098V105.922C136.115 106.258 136.193 106.504 136.349 106.66C136.517 106.804 136.793 106.876 137.177 106.876H138.347V109H136.763C134.639 109 133.577 107.968 133.577 105.904V101.098H132.389V99.028H133.577V96.562H136.115V99.028H138.347V101.098H136.115Z" fill="#1570EF"/>
<path d="M58.75 137H57.112L50.524 127.01V137H48.886V124.436H50.524L57.112 134.408V124.436H58.75V137ZM70.5423 131.69C70.5423 132.002 70.5243 132.332 70.4883 132.68H62.6043C62.6643 133.652 62.9943 134.414 63.5943 134.966C64.2063 135.506 64.9443 135.776 65.8083 135.776C66.5163 135.776 67.1043 135.614 67.5723 135.29C68.0523 134.954 68.3883 134.51 68.5803 133.958H70.3443C70.0803 134.906 69.5523 135.68 68.7603 136.28C67.9683 136.868 66.9843 137.162 65.8083 137.162C64.8723 137.162 64.0323 136.952 63.2883 136.532C62.5563 136.112 61.9803 135.518 61.5603 134.75C61.1403 133.97 60.9303 133.07 60.9303 132.05C60.9303 131.03 61.1343 130.136 61.5423 129.368C61.9503 128.6 62.5203 128.012 63.2523 127.604C63.9963 127.184 64.8483 126.974 65.8083 126.974C66.7443 126.974 67.5723 127.178 68.2923 127.586C69.0123 127.994 69.5643 128.558 69.9483 129.278C70.3443 129.986 70.5423 130.79 70.5423 131.69ZM68.8503 131.348C68.8503 130.724 68.7123 130.19 68.4363 129.746C68.1603 129.29 67.7823 128.948 67.3023 128.72C66.8343 128.48 66.3123 128.36 65.7363 128.36C64.9083 128.36 64.2003 128.624 63.6123 129.152C63.0363 129.68 62.7063 130.412 62.6223 131.348H68.8503ZM85.8444 127.136L82.7664 137H81.0744L78.6984 129.17L76.3224 137H74.6304L71.5344 127.136H73.2084L75.4764 135.416L77.9244 127.136H79.5984L81.9924 135.434L84.2244 127.136H85.8444ZM98.8748 137L95.8868 131.87H93.9068V137H92.2688V124.454H96.3188C97.2668 124.454 98.0648 124.616 98.7128 124.94C99.3728 125.264 99.8648 125.702 100.189 126.254C100.513 126.806 100.675 127.436 100.675 128.144C100.675 129.008 100.423 129.77 99.9188 130.43C99.4268 131.09 98.6828 131.528 97.6868 131.744L100.837 137H98.8748ZM93.9068 130.556H96.3188C97.2068 130.556 97.8728 130.34 98.3168 129.908C98.7608 129.464 98.9828 128.876 98.9828 128.144C98.9828 127.4 98.7608 126.824 98.3168 126.416C97.8848 126.008 97.2188 125.804 96.3188 125.804H93.9068V130.556ZM112.22 131.69C112.22 132.002 112.202 132.332 112.166 132.68H104.282C104.342 133.652 104.672 134.414 105.272 134.966C105.884 135.506 106.622 135.776 107.486 135.776C108.194 135.776 108.782 135.614 109.25 135.29C109.73 134.954 110.066 134.51 110.258 133.958H112.022C111.758 134.906 111.23 135.68 110.438 136.28C109.646 136.868 108.662 137.162 107.486 137.162C106.55 137.162 105.71 136.952 104.966 136.532C104.234 136.112 103.658 135.518 103.238 134.75C102.818 133.97 102.608 133.07 102.608 132.05C102.608 131.03 102.812 130.136 103.22 129.368C103.628 128.6 104.198 128.012 104.93 127.604C105.674 127.184 106.526 126.974 107.486 126.974C108.422 126.974 109.25 127.178 109.97 127.586C110.69 127.994 111.242 128.558 111.626 129.278C112.022 129.986 112.22 130.79 112.22 131.69ZM110.528 131.348C110.528 130.724 110.39 130.19 110.114 129.746C109.838 129.29 109.46 128.948 108.98 128.72C108.512 128.48 107.99 128.36 107.414 128.36C106.586 128.36 105.878 128.624 105.29 129.152C104.714 129.68 104.384 130.412 104.3 131.348H110.528ZM113.77 132.032C113.77 131.024 113.974 130.142 114.382 129.386C114.79 128.618 115.348 128.024 116.056 127.604C116.776 127.184 117.58 126.974 118.468 126.974C119.32 126.974 120.064 127.166 120.7 127.55C121.348 127.922 121.822 128.384 122.122 128.936V127.136H123.778V141.68H122.122V135.182C121.81 135.734 121.33 136.202 120.682 136.586C120.034 136.97 119.278 137.162 118.414 137.162C117.55 137.162 116.764 136.946 116.056 136.514C115.348 136.082 114.79 135.476 114.382 134.696C113.974 133.916 113.77 133.028 113.77 132.032ZM122.122 132.05C122.122 131.306 121.972 130.658 121.672 130.106C121.372 129.554 120.964 129.134 120.448 128.846C119.944 128.546 119.386 128.396 118.774 128.396C118.162 128.396 117.604 128.54 117.1 128.828C116.596 129.116 116.194 129.536 115.894 130.088C115.594 130.64 115.444 131.288 115.444 132.032C115.444 132.788 115.594 133.448 115.894 134.012C116.194 134.564 116.596 134.99 117.1 135.29C117.604 135.578 118.162 135.722 118.774 135.722C119.386 135.722 119.944 135.578 120.448 135.29C120.964 134.99 121.372 134.564 121.672 134.012C121.972 133.448 122.122 132.794 122.122 132.05ZM135.294 127.136V137H133.656V135.542C133.344 136.046 132.906 136.442 132.342 136.73C131.79 137.006 131.178 137.144 130.506 137.144C129.738 137.144 129.048 136.988 128.436 136.676C127.824 136.352 127.338 135.872 126.978 135.236C126.63 134.6 126.456 133.826 126.456 132.914V127.136H128.076V132.698C128.076 133.67 128.322 134.42 128.814 134.948C129.306 135.464 129.978 135.722 130.83 135.722C131.706 135.722 132.396 135.452 132.9 134.912C133.404 134.372 133.656 133.586 133.656 132.554V127.136H135.294ZM147.06 131.69C147.06 132.002 147.042 132.332 147.006 132.68H139.122C139.182 133.652 139.512 134.414 140.112 134.966C140.724 135.506 141.462 135.776 142.326 135.776C143.034 135.776 143.622 135.614 144.09 135.29C144.57 134.954 144.906 134.51 145.098 133.958H146.862C146.598 134.906 146.07 135.68 145.278 136.28C144.486 136.868 143.502 137.162 142.326 137.162C141.39 137.162 140.55 136.952 139.806 136.532C139.074 136.112 138.498 135.518 138.078 134.75C137.658 133.97 137.448 133.07 137.448 132.05C137.448 131.03 137.652 130.136 138.06 129.368C138.468 128.6 139.038 128.012 139.77 127.604C140.514 127.184 141.366 126.974 142.326 126.974C143.262 126.974 144.09 127.178 144.81 127.586C145.53 127.994 146.082 128.558 146.466 129.278C146.862 129.986 147.06 130.79 147.06 131.69ZM145.368 131.348C145.368 130.724 145.23 130.19 144.954 129.746C144.678 129.29 144.3 128.948 143.82 128.72C143.352 128.48 142.83 128.36 142.254 128.36C141.426 128.36 140.718 128.624 140.13 129.152C139.554 129.68 139.224 130.412 139.14 131.348H145.368ZM152.714 137.162C151.958 137.162 151.28 137.036 150.68 136.784C150.08 136.52 149.606 136.16 149.258 135.704C148.91 135.236 148.718 134.702 148.682 134.102H150.374C150.422 134.594 150.65 134.996 151.058 135.308C151.478 135.62 152.024 135.776 152.696 135.776C153.32 135.776 153.812 135.638 154.172 135.362C154.532 135.086 154.712 134.738 154.712 134.318C154.712 133.886 154.52 133.568 154.136 133.364C153.752 133.148 153.158 132.938 152.354 132.734C151.622 132.542 151.022 132.35 150.554 132.158C150.098 131.954 149.702 131.66 149.366 131.276C149.042 130.88 148.88 130.364 148.88 129.728C148.88 129.224 149.03 128.762 149.33 128.342C149.63 127.922 150.056 127.592 150.608 127.352C151.16 127.1 151.79 126.974 152.498 126.974C153.59 126.974 154.472 127.25 155.144 127.802C155.816 128.354 156.176 129.11 156.224 130.07H154.586C154.55 129.554 154.34 129.14 153.956 128.828C153.584 128.516 153.08 128.36 152.444 128.36C151.856 128.36 151.388 128.486 151.04 128.738C150.692 128.99 150.518 129.32 150.518 129.728C150.518 130.052 150.62 130.322 150.824 130.538C151.04 130.742 151.304 130.91 151.616 131.042C151.94 131.162 152.384 131.3 152.948 131.456C153.656 131.648 154.232 131.84 154.676 132.032C155.12 132.212 155.498 132.488 155.81 132.86C156.134 133.232 156.302 133.718 156.314 134.318C156.314 134.858 156.164 135.344 155.864 135.776C155.564 136.208 155.138 136.55 154.586 136.802C154.046 137.042 153.422 137.162 152.714 137.162ZM160.624 128.486V134.3C160.624 134.78 160.726 135.122 160.93 135.326C161.134 135.518 161.488 135.614 161.992 135.614H163.198V137H161.722C160.81 137 160.126 136.79 159.67 136.37C159.214 135.95 158.986 135.26 158.986 134.3V128.486H157.708V127.136H158.986V124.652H160.624V127.136H163.198V128.486H160.624Z" fill="#344054"/>
</svg>
