<svg width="212" height="167" viewBox="0 0 212 167" fill="none" xmlns="http://www.w3.org/2000/svg">
<rect x="0.5" y="0.5" width="211" height="166" rx="7.5" fill="#FCFCFD"/>
<rect x="0.5" y="0.5" width="211" height="166" rx="7.5" stroke="#EAECF0"/>
<path d="M115.06 26.5363C122.585 29.2961 129.495 34.0699 132.213 41.5689C134.959 49.142 133.083 57.4678 128.738 64.2609C124.425 71.0031 117.627 75.9628 109.638 76.8583C101.651 77.7537 94.0082 74.3263 88.1986 68.8056C82.2023 63.1074 77.9066 55.5507 78.567 47.3316C79.2518 38.8085 84.1209 30.9195 91.5843 26.6666C98.7267 22.5966 107.336 23.7032 115.06 26.5363Z" fill="#F4F3FF"/>
<path opacity="0.3" d="M115.334 57.8396V48.5729C112.534 49.0796 109.934 50.3729 107.814 52.3462L106 54.0396L104.187 52.3462C102.067 50.3729 99.467 49.0796 96.667 48.5729V57.8396C100.04 58.2929 103.254 59.5729 106 61.6129C108.76 59.5862 111.96 58.2929 115.334 57.8396Z" fill="#BDB4FE"/>
<path opacity="0.3" d="M106 44.3333C107.472 44.3333 108.666 43.1394 108.666 41.6667C108.666 40.1939 107.472 39 106 39C104.527 39 103.333 40.1939 103.333 41.6667C103.333 43.1394 104.527 44.3333 106 44.3333Z" fill="#7A5AF8"/>
<path d="M111.333 41.6667C111.333 38.72 108.947 36.3333 106 36.3333C103.053 36.3333 100.667 38.72 100.667 41.6667C100.667 44.6133 103.053 47 106 47C108.947 47 111.333 44.6133 111.333 41.6667ZM103.333 41.6667C103.333 40.2 104.533 39 106 39C107.467 39 108.667 40.2 108.667 41.6667C108.667 43.1333 107.467 44.3333 106 44.3333C104.533 44.3333 103.333 43.1333 103.333 41.6667ZM94 60.3333C98.64 60.3333 102.853 62.1333 106 65.0667C109.147 62.1467 113.36 60.3333 118 60.3333V45.6667C113.36 45.6667 109.147 47.4667 106 50.4C102.853 47.4667 98.64 45.6667 94 45.6667V60.3333ZM96.6667 48.5733C99.4667 49.08 102.067 50.3733 104.187 52.3467L106 54.04L107.813 52.3467C109.933 50.3733 112.533 49.08 115.333 48.5733V57.84C111.96 58.2933 108.76 59.5733 106 61.6C103.253 59.5733 100.04 58.28 96.6667 57.8267V48.5733Z" fill="#7A5AF8"/>
<path d="M84.262 121.002H88.402V123H81.742V110.436H84.262V121.002ZM99.2737 117.798C99.2737 118.158 99.2497 118.482 99.2017 118.77H91.9117C91.9717 119.49 92.2237 120.054 92.6677 120.462C93.1117 120.87 93.6577 121.074 94.3057 121.074C95.2417 121.074 95.9077 120.672 96.3037 119.868H99.0217C98.7337 120.828 98.1817 121.62 97.3657 122.244C96.5497 122.856 95.5477 123.162 94.3597 123.162C93.3997 123.162 92.5357 122.952 91.7677 122.532C91.0117 122.1 90.4177 121.494 89.9857 120.714C89.5657 119.934 89.3557 119.034 89.3557 118.014C89.3557 116.982 89.5657 116.076 89.9857 115.296C90.4057 114.516 90.9937 113.916 91.7497 113.496C92.5057 113.076 93.3757 112.866 94.3597 112.866C95.3077 112.866 96.1537 113.07 96.8977 113.478C97.6537 113.886 98.2357 114.468 98.6437 115.224C99.0637 115.968 99.2737 116.826 99.2737 117.798ZM96.6637 117.078C96.6517 116.43 96.4177 115.914 95.9617 115.53C95.5057 115.134 94.9477 114.936 94.2877 114.936C93.6637 114.936 93.1357 115.128 92.7037 115.512C92.2837 115.884 92.0257 116.406 91.9297 117.078H96.6637ZM100.465 117.978C100.465 116.97 100.663 116.076 101.059 115.296C101.467 114.516 102.013 113.916 102.697 113.496C103.393 113.076 104.167 112.866 105.019 112.866C105.763 112.866 106.411 113.016 106.963 113.316C107.527 113.616 107.977 113.994 108.313 114.45V113.028H110.851V123H108.313V121.542C107.989 122.01 107.539 122.4 106.963 122.712C106.399 123.012 105.745 123.162 105.001 123.162C104.161 123.162 103.393 122.946 102.697 122.514C102.013 122.082 101.467 121.476 101.059 120.696C100.663 119.904 100.465 118.998 100.465 117.978ZM108.313 118.014C108.313 117.402 108.193 116.88 107.953 116.448C107.713 116.004 107.389 115.668 106.981 115.44C106.573 115.2 106.135 115.08 105.667 115.08C105.199 115.08 104.767 115.194 104.371 115.422C103.975 115.65 103.651 115.986 103.399 116.43C103.159 116.862 103.039 117.378 103.039 117.978C103.039 118.578 103.159 119.106 103.399 119.562C103.651 120.006 103.975 120.348 104.371 120.588C104.779 120.828 105.211 120.948 105.667 120.948C106.135 120.948 106.573 120.834 106.981 120.606C107.389 120.366 107.713 120.03 107.953 119.598C108.193 119.154 108.313 118.626 108.313 118.014ZM115.832 114.576C116.156 114.048 116.576 113.634 117.092 113.334C117.62 113.034 118.22 112.884 118.892 112.884V115.53H118.226C117.434 115.53 116.834 115.716 116.426 116.088C116.03 116.46 115.832 117.108 115.832 118.032V123H113.312V113.028H115.832V114.576ZM126.116 112.884C127.304 112.884 128.264 113.262 128.996 114.018C129.728 114.762 130.094 115.806 130.094 117.15V123H127.574V117.492C127.574 116.7 127.376 116.094 126.98 115.674C126.584 115.242 126.044 115.026 125.36 115.026C124.664 115.026 124.112 115.242 123.704 115.674C123.308 116.094 123.11 116.7 123.11 117.492V123H120.59V113.028H123.11V114.27C123.446 113.838 123.872 113.502 124.388 113.262C124.916 113.01 125.492 112.884 126.116 112.884Z" fill="#1570EF"/>
</svg>
