<svg width="461" height="40" viewBox="0 0 461 40" fill="none" xmlns="http://www.w3.org/2000/svg">
<mask id="path-1-inside-1_1212_35226" fill="white">
<path d="M16.6667 13.3333V14.6667H14V13.3333H16.6667ZM10 13.3333V17.3333H7.33333V13.3333H10ZM16.6667 18.6667V22.6667H14V18.6667H16.6667ZM10 21.3333V22.6667H7.33333V21.3333H10ZM18 12H12.6667V16H18V12ZM11.3333 12H6V18.6667H11.3333V12ZM18 17.3333H12.6667V24H18V17.3333ZM11.3333 20H6V24H11.3333V20Z"/>
</mask>
<path d="M16.6667 13.3333H18.2667C18.2667 12.4497 17.5503 11.7333 16.6667 11.7333V13.3333ZM16.6667 14.6667V16.2667C17.5503 16.2667 18.2667 15.5503 18.2667 14.6667H16.6667ZM14 14.6667H12.4C12.4 15.5503 13.1163 16.2667 14 16.2667V14.6667ZM14 13.3333V11.7333C13.1163 11.7333 12.4 12.4497 12.4 13.3333H14ZM10 13.3333H11.6C11.6 12.4497 10.8837 11.7333 10 11.7333V13.3333ZM10 17.3333V18.9333C10.8837 18.9333 11.6 18.217 11.6 17.3333H10ZM7.33333 17.3333H5.73333C5.73333 18.217 6.44968 18.9333 7.33333 18.9333V17.3333ZM7.33333 13.3333V11.7333C6.44968 11.7333 5.73333 12.4497 5.73333 13.3333H7.33333ZM16.6667 18.6667H18.2667C18.2667 17.783 17.5503 17.0667 16.6667 17.0667V18.6667ZM16.6667 22.6667V24.2667C17.5503 24.2667 18.2667 23.5503 18.2667 22.6667H16.6667ZM14 22.6667H12.4C12.4 23.5503 13.1163 24.2667 14 24.2667V22.6667ZM14 18.6667V17.0667C13.1163 17.0667 12.4 17.783 12.4 18.6667H14ZM10 21.3333H11.6C11.6 20.4497 10.8837 19.7333 10 19.7333V21.3333ZM10 22.6667V24.2667C10.8837 24.2667 11.6 23.5503 11.6 22.6667H10ZM7.33333 22.6667H5.73333C5.73333 23.5503 6.44968 24.2667 7.33333 24.2667V22.6667ZM7.33333 21.3333V19.7333C6.44968 19.7333 5.73333 20.4497 5.73333 21.3333H7.33333ZM18 12H19.6C19.6 11.1163 18.8837 10.4 18 10.4V12ZM12.6667 12V10.4C11.783 10.4 11.0667 11.1163 11.0667 12H12.6667ZM12.6667 16H11.0667C11.0667 16.8837 11.783 17.6 12.6667 17.6V16ZM18 16V17.6C18.8837 17.6 19.6 16.8837 19.6 16H18ZM11.3333 12H12.9333C12.9333 11.1163 12.217 10.4 11.3333 10.4V12ZM6 12V10.4C5.11634 10.4 4.4 11.1163 4.4 12H6ZM6 18.6667H4.4C4.4 19.5503 5.11634 20.2667 6 20.2667V18.6667ZM11.3333 18.6667V20.2667C12.217 20.2667 12.9333 19.5503 12.9333 18.6667H11.3333ZM18 17.3333H19.6C19.6 16.4497 18.8837 15.7333 18 15.7333V17.3333ZM12.6667 17.3333V15.7333C11.783 15.7333 11.0667 16.4497 11.0667 17.3333H12.6667ZM12.6667 24H11.0667C11.0667 24.8837 11.783 25.6 12.6667 25.6V24ZM18 24V25.6C18.8837 25.6 19.6 24.8837 19.6 24H18ZM11.3333 20H12.9333C12.9333 19.1163 12.217 18.4 11.3333 18.4V20ZM6 20V18.4C5.11634 18.4 4.4 19.1163 4.4 20H6ZM6 24H4.4C4.4 24.8837 5.11634 25.6 6 25.6V24ZM11.3333 24V25.6C12.217 25.6 12.9333 24.8837 12.9333 24H11.3333ZM15.0667 13.3333V14.6667H18.2667V13.3333H15.0667ZM16.6667 13.0667H14V16.2667H16.6667V13.0667ZM15.6 14.6667V13.3333H12.4V14.6667H15.6ZM14 14.9333H16.6667V11.7333H14V14.9333ZM8.4 13.3333V17.3333H11.6V13.3333H8.4ZM10 15.7333H7.33333V18.9333H10V15.7333ZM8.93333 17.3333V13.3333H5.73333V17.3333H8.93333ZM7.33333 14.9333H10V11.7333H7.33333V14.9333ZM15.0667 18.6667V22.6667H18.2667V18.6667H15.0667ZM16.6667 21.0667H14V24.2667H16.6667V21.0667ZM15.6 22.6667V18.6667H12.4V22.6667H15.6ZM14 20.2667H16.6667V17.0667H14V20.2667ZM8.4 21.3333V22.6667H11.6V21.3333H8.4ZM10 21.0667H7.33333V24.2667H10V21.0667ZM8.93333 22.6667V21.3333H5.73333V22.6667H8.93333ZM7.33333 22.9333H10V19.7333H7.33333V22.9333ZM18 10.4H12.6667V13.6H18V10.4ZM11.0667 12V16H14.2667V12H11.0667ZM12.6667 17.6H18V14.4H12.6667V17.6ZM19.6 16V12H16.4V16H19.6ZM11.3333 10.4H6V13.6H11.3333V10.4ZM4.4 12V18.6667H7.6V12H4.4ZM6 20.2667H11.3333V17.0667H6V20.2667ZM12.9333 18.6667V12H9.73333V18.6667H12.9333ZM18 15.7333H12.6667V18.9333H18V15.7333ZM11.0667 17.3333V24H14.2667V17.3333H11.0667ZM12.6667 25.6H18V22.4H12.6667V25.6ZM19.6 24V17.3333H16.4V24H19.6ZM11.3333 18.4H6V21.6H11.3333V18.4ZM4.4 20V24H7.6V20H4.4ZM6 25.6H11.3333V22.4H6V25.6ZM12.9333 24V20H9.73333V24H12.9333Z" fill="#98A2B3" mask="url(#path-1-inside-1_1212_35226)"/>
<path d="M34.916 21.012H30.842L30.142 23H28.476L31.962 13.256H33.81L37.296 23H35.616L34.916 21.012ZM34.468 19.71L32.886 15.188L31.29 19.71H34.468ZM40.4077 12.64V23H38.8117V12.64H40.4077ZM44.0991 12.64V23H42.5031V12.64H44.0991Z" fill="#667085"/>
<path d="M97.3333 11.3333C97.3333 10.9652 97.0349 10.6667 96.6667 10.6667C96.2985 10.6667 96 10.9652 96 11.3333H97.3333ZM96 14C96 14.3682 96.2985 14.6667 96.6667 14.6667C97.0349 14.6667 97.3333 14.3682 97.3333 14H96ZM92 11.3333C92 10.9652 91.7015 10.6667 91.3333 10.6667C90.9651 10.6667 90.6667 10.9652 90.6667 11.3333H92ZM90.6667 14C90.6667 14.3682 90.9651 14.6667 91.3333 14.6667C91.7015 14.6667 92 14.3682 92 14H90.6667ZM88 16C87.6318 16 87.3333 16.2985 87.3333 16.6667C87.3333 17.0349 87.6318 17.3333 88 17.3333V16ZM100 17.3333C100.368 17.3333 100.667 17.0349 100.667 16.6667C100.667 16.2985 100.368 16 100 16V17.3333ZM89.3333 13.3333H98.6667V12H89.3333V13.3333ZM98.6667 13.3333C99.0349 13.3333 99.3333 13.6318 99.3333 14H100.667C100.667 12.8954 99.7712 12 98.6667 12V13.3333ZM99.3333 14V23.3333H100.667V14H99.3333ZM99.3333 23.3333C99.3333 23.7015 99.0349 24 98.6667 24V25.3333C99.7712 25.3333 100.667 24.4379 100.667 23.3333H99.3333ZM98.6667 24H89.3333V25.3333H98.6667V24ZM89.3333 24C88.9651 24 88.6667 23.7015 88.6667 23.3333H87.3333C87.3333 24.4379 88.2288 25.3333 89.3333 25.3333V24ZM88.6667 23.3333V14H87.3333V23.3333H88.6667ZM88.6667 14C88.6667 13.6318 88.9651 13.3333 89.3333 13.3333V12C88.2288 12 87.3333 12.8954 87.3333 14H88.6667ZM96 11.3333V14H97.3333V11.3333H96ZM90.6667 11.3333V14H92V11.3333H90.6667ZM88 17.3333H100V16H88V17.3333Z" fill="#667085"/>
<line x1="94.0007" y1="18.6667" x2="94.0006" y2="20.6667" stroke="#667085" stroke-width="1.33333" stroke-linecap="round"/>
<circle cx="94.0006" cy="22.6667" r="0.666667" fill="#667085"/>
<path d="M112.646 21.712H115.936V23H111.05V13.27H112.646V21.712ZM124.341 18.954C124.341 19.2433 124.322 19.5047 124.285 19.738H118.391C118.437 20.354 118.666 20.8487 119.077 21.222C119.487 21.5953 119.991 21.782 120.589 21.782C121.447 21.782 122.054 21.4227 122.409 20.704H124.131C123.897 21.4133 123.473 21.9967 122.857 22.454C122.25 22.902 121.494 23.126 120.589 23.126C119.851 23.126 119.189 22.9627 118.601 22.636C118.022 22.3 117.565 21.8333 117.229 21.236C116.902 20.6293 116.739 19.9293 116.739 19.136C116.739 18.3427 116.897 17.6473 117.215 17.05C117.541 16.4433 117.994 15.9767 118.573 15.65C119.161 15.3233 119.833 15.16 120.589 15.16C121.317 15.16 121.965 15.3187 122.535 15.636C123.104 15.9533 123.547 16.4013 123.865 16.98C124.182 17.5493 124.341 18.2073 124.341 18.954ZM122.675 18.45C122.665 17.862 122.455 17.3907 122.045 17.036C121.634 16.6813 121.125 16.504 120.519 16.504C119.968 16.504 119.497 16.6813 119.105 17.036C118.713 17.3813 118.479 17.8527 118.405 18.45H122.675ZM125.379 19.108C125.379 18.3333 125.538 17.6473 125.855 17.05C126.182 16.4527 126.621 15.9907 127.171 15.664C127.731 15.328 128.347 15.16 129.019 15.16C129.626 15.16 130.153 15.2813 130.601 15.524C131.059 15.7573 131.423 16.0513 131.693 16.406V15.286H133.303V23H131.693V21.852C131.423 22.216 131.054 22.5193 130.587 22.762C130.121 23.0047 129.589 23.126 128.991 23.126C128.329 23.126 127.722 22.958 127.171 22.622C126.621 22.2767 126.182 21.8007 125.855 21.194C125.538 20.578 125.379 19.8827 125.379 19.108ZM131.693 19.136C131.693 18.604 131.581 18.142 131.357 17.75C131.143 17.358 130.858 17.0593 130.503 16.854C130.149 16.6487 129.766 16.546 129.355 16.546C128.945 16.546 128.562 16.6487 128.207 16.854C127.853 17.05 127.563 17.344 127.339 17.736C127.125 18.1187 127.017 18.576 127.017 19.108C127.017 19.64 127.125 20.1067 127.339 20.508C127.563 20.9093 127.853 21.2173 128.207 21.432C128.571 21.6373 128.954 21.74 129.355 21.74C129.766 21.74 130.149 21.6373 130.503 21.432C130.858 21.2267 131.143 20.928 131.357 20.536C131.581 20.1347 131.693 19.668 131.693 19.136ZM138.382 21.572L140.566 15.286H142.26L139.32 23H137.416L134.49 15.286H136.198L138.382 21.572ZM150.536 18.954C150.536 19.2433 150.517 19.5047 150.48 19.738H144.586C144.633 20.354 144.861 20.8487 145.272 21.222C145.683 21.5953 146.187 21.782 146.784 21.782C147.643 21.782 148.249 21.4227 148.604 20.704H150.326C150.093 21.4133 149.668 21.9967 149.052 22.454C148.445 22.902 147.689 23.126 146.784 23.126C146.047 23.126 145.384 22.9627 144.796 22.636C144.217 22.3 143.76 21.8333 143.424 21.236C143.097 20.6293 142.934 19.9293 142.934 19.136C142.934 18.3427 143.093 17.6473 143.41 17.05C143.737 16.4433 144.189 15.9767 144.768 15.65C145.356 15.3233 146.028 15.16 146.784 15.16C147.512 15.16 148.161 15.3187 148.73 15.636C149.299 15.9533 149.743 16.4013 150.06 16.98C150.377 17.5493 150.536 18.2073 150.536 18.954ZM148.87 18.45C148.861 17.862 148.651 17.3907 148.24 17.036C147.829 16.6813 147.321 16.504 146.714 16.504C146.163 16.504 145.692 16.6813 145.3 17.036C144.908 17.3813 144.675 17.8527 144.6 18.45H148.87ZM154.907 23.126C154.3 23.126 153.754 23.0187 153.269 22.804C152.793 22.58 152.415 22.2813 152.135 21.908C151.855 21.5253 151.705 21.1007 151.687 20.634H153.339C153.367 20.9607 153.521 21.236 153.801 21.46C154.09 21.6747 154.449 21.782 154.879 21.782C155.327 21.782 155.672 21.698 155.915 21.53C156.167 21.3527 156.293 21.1287 156.293 20.858C156.293 20.5687 156.153 20.354 155.873 20.214C155.602 20.074 155.168 19.92 154.571 19.752C153.992 19.5933 153.521 19.4393 153.157 19.29C152.793 19.1407 152.475 18.912 152.205 18.604C151.943 18.296 151.813 17.89 151.813 17.386C151.813 16.9753 151.934 16.602 152.177 16.266C152.419 15.9207 152.765 15.65 153.213 15.454C153.67 15.258 154.193 15.16 154.781 15.16C155.658 15.16 156.363 15.384 156.895 15.832C157.436 16.2707 157.725 16.8727 157.763 17.638H156.167C156.139 17.2927 155.999 17.0173 155.747 16.812C155.495 16.6067 155.154 16.504 154.725 16.504C154.305 16.504 153.983 16.5833 153.759 16.742C153.535 16.9007 153.423 17.1107 153.423 17.372C153.423 17.5773 153.497 17.75 153.647 17.89C153.796 18.03 153.978 18.142 154.193 18.226C154.407 18.3007 154.725 18.3987 155.145 18.52C155.705 18.6693 156.162 18.8233 156.517 18.982C156.881 19.1313 157.193 19.3553 157.455 19.654C157.716 19.9527 157.851 20.3493 157.861 20.844C157.861 21.2827 157.739 21.6747 157.497 22.02C157.254 22.3653 156.909 22.636 156.461 22.832C156.022 23.028 155.504 23.126 154.907 23.126Z" fill="#667085"/>
<mask id="path-8-inside-2_1212_35226" fill="white">
<path d="M212.999 11.3333H200.999C200.266 11.3333 199.666 11.9333 199.666 12.6667V20.6667C199.666 21.4 200.266 22 200.999 22H205.666V23.3333H204.333V24.6667H209.666V23.3333H208.333V22H212.999C213.733 22 214.333 21.4 214.333 20.6667V12.6667C214.333 11.9333 213.733 11.3333 212.999 11.3333ZM212.999 20.6667H200.999V12.6667H212.999V20.6667Z"/>
</mask>
<path d="M205.666 22H207.266C207.266 21.1164 206.55 20.4 205.666 20.4V22ZM205.666 23.3333V24.9333C206.55 24.9333 207.266 24.217 207.266 23.3333H205.666ZM204.333 23.3333V21.7333C203.449 21.7333 202.733 22.4497 202.733 23.3333H204.333ZM204.333 24.6667H202.733C202.733 25.5503 203.449 26.2667 204.333 26.2667V24.6667ZM209.666 24.6667V26.2667C210.55 26.2667 211.266 25.5503 211.266 24.6667H209.666ZM209.666 23.3333H211.266C211.266 22.4497 210.55 21.7333 209.666 21.7333V23.3333ZM208.333 23.3333H206.733C206.733 24.217 207.449 24.9333 208.333 24.9333V23.3333ZM208.333 22V20.4C207.449 20.4 206.733 21.1164 206.733 22H208.333ZM212.999 20.6667V22.2667C213.883 22.2667 214.599 21.5503 214.599 20.6667H212.999ZM200.999 20.6667H199.399C199.399 21.5503 200.116 22.2667 200.999 22.2667V20.6667ZM200.999 12.6667V11.0667C200.116 11.0667 199.399 11.783 199.399 12.6667H200.999ZM212.999 12.6667H214.599C214.599 11.783 213.883 11.0667 212.999 11.0667V12.6667ZM212.999 9.73334H200.999V12.9333H212.999V9.73334ZM200.999 9.73334C199.382 9.73334 198.066 11.0497 198.066 12.6667H201.266C201.266 12.817 201.15 12.9333 200.999 12.9333V9.73334ZM198.066 12.6667V20.6667H201.266V12.6667H198.066ZM198.066 20.6667C198.066 22.2837 199.382 23.6 200.999 23.6V20.4C201.15 20.4 201.266 20.5164 201.266 20.6667H198.066ZM200.999 23.6H205.666V20.4H200.999V23.6ZM204.066 22V23.3333H207.266V22H204.066ZM205.666 21.7333H204.333V24.9333H205.666V21.7333ZM202.733 23.3333V24.6667H205.933V23.3333H202.733ZM204.333 26.2667H209.666V23.0667H204.333V26.2667ZM211.266 24.6667V23.3333H208.066V24.6667H211.266ZM209.666 21.7333H208.333V24.9333H209.666V21.7333ZM209.933 23.3333V22H206.733V23.3333H209.933ZM208.333 23.6H212.999V20.4H208.333V23.6ZM212.999 23.6C214.616 23.6 215.933 22.2837 215.933 20.6667H212.733C212.733 20.5164 212.849 20.4 212.999 20.4V23.6ZM215.933 20.6667V12.6667H212.733V20.6667H215.933ZM215.933 12.6667C215.933 11.0497 214.616 9.73334 212.999 9.73334V12.9333C212.849 12.9333 212.733 12.817 212.733 12.6667H215.933ZM212.999 19.0667H200.999V22.2667H212.999V19.0667ZM202.599 20.6667V12.6667H199.399V20.6667H202.599ZM200.999 14.2667H212.999V11.0667H200.999V14.2667ZM211.399 12.6667V20.6667H214.599V12.6667H211.399Z" fill="#667085" mask="url(#path-8-inside-2_1212_35226)"/>
<path d="M229.916 21.012H225.842L225.142 23H223.476L226.962 13.256H228.81L232.296 23H230.616L229.916 21.012ZM229.468 19.71L227.886 15.188L226.29 19.71H229.468ZM233.28 19.136C233.28 18.3427 233.438 17.6473 233.756 17.05C234.082 16.4433 234.53 15.9767 235.1 15.65C235.669 15.3233 236.322 15.16 237.06 15.16C237.993 15.16 238.763 15.384 239.37 15.832C239.986 16.2707 240.401 16.9007 240.616 17.722H238.894C238.754 17.3393 238.53 17.0407 238.222 16.826C237.914 16.6113 237.526 16.504 237.06 16.504C236.406 16.504 235.884 16.7373 235.492 17.204C235.109 17.6613 234.918 18.3053 234.918 19.136C234.918 19.9667 235.109 20.6153 235.492 21.082C235.884 21.5487 236.406 21.782 237.06 21.782C237.984 21.782 238.595 21.376 238.894 20.564H240.616C240.392 21.348 239.972 21.9733 239.356 22.44C238.74 22.8973 237.974 23.126 237.06 23.126C236.322 23.126 235.669 22.9627 235.1 22.636C234.53 22.3 234.082 21.8333 233.756 21.236C233.438 20.6293 233.28 19.9293 233.28 19.136ZM241.674 19.136C241.674 18.3427 241.833 17.6473 242.15 17.05C242.477 16.4433 242.925 15.9767 243.494 15.65C244.064 15.3233 244.717 15.16 245.454 15.16C246.388 15.16 247.158 15.384 247.764 15.832C248.38 16.2707 248.796 16.9007 249.01 17.722H247.288C247.148 17.3393 246.924 17.0407 246.616 16.826C246.308 16.6113 245.921 16.504 245.454 16.504C244.801 16.504 244.278 16.7373 243.886 17.204C243.504 17.6613 243.312 18.3053 243.312 19.136C243.312 19.9667 243.504 20.6153 243.886 21.082C244.278 21.5487 244.801 21.782 245.454 21.782C246.378 21.782 246.99 21.376 247.288 20.564H249.01C248.786 21.348 248.366 21.9733 247.75 22.44C247.134 22.8973 246.369 23.126 245.454 23.126C244.717 23.126 244.064 22.9627 243.494 22.636C242.925 22.3 242.477 21.8333 242.15 21.236C241.833 20.6293 241.674 19.9293 241.674 19.136ZM253.947 23.126C253.219 23.126 252.561 22.9627 251.973 22.636C251.385 22.3 250.923 21.8333 250.587 21.236C250.251 20.6293 250.083 19.9293 250.083 19.136C250.083 18.352 250.255 17.6567 250.601 17.05C250.946 16.4433 251.417 15.9767 252.015 15.65C252.612 15.3233 253.279 15.16 254.017 15.16C254.754 15.16 255.421 15.3233 256.019 15.65C256.616 15.9767 257.087 16.4433 257.433 17.05C257.778 17.6567 257.951 18.352 257.951 19.136C257.951 19.92 257.773 20.6153 257.419 21.222C257.064 21.8287 256.579 22.3 255.963 22.636C255.356 22.9627 254.684 23.126 253.947 23.126ZM253.947 21.74C254.357 21.74 254.74 21.642 255.095 21.446C255.459 21.25 255.753 20.956 255.977 20.564C256.201 20.172 256.313 19.696 256.313 19.136C256.313 18.576 256.205 18.1047 255.991 17.722C255.776 17.33 255.491 17.036 255.137 16.84C254.782 16.644 254.399 16.546 253.989 16.546C253.578 16.546 253.195 16.644 252.841 16.84C252.495 17.036 252.22 17.33 252.015 17.722C251.809 18.1047 251.707 18.576 251.707 19.136C251.707 19.9667 251.917 20.6107 252.337 21.068C252.766 21.516 253.303 21.74 253.947 21.74ZM268.867 15.16C269.473 15.16 270.015 15.286 270.491 15.538C270.976 15.79 271.354 16.1633 271.625 16.658C271.905 17.1527 272.045 17.75 272.045 18.45V23H270.463V18.688C270.463 17.9973 270.29 17.47 269.945 17.106C269.599 16.7327 269.128 16.546 268.531 16.546C267.933 16.546 267.457 16.7327 267.103 17.106C266.757 17.47 266.585 17.9973 266.585 18.688V23H265.003V18.688C265.003 17.9973 264.83 17.47 264.485 17.106C264.139 16.7327 263.668 16.546 263.071 16.546C262.473 16.546 261.997 16.7327 261.643 17.106C261.297 17.47 261.125 17.9973 261.125 18.688V23H259.529V15.286H261.125V16.168C261.386 15.8507 261.717 15.6033 262.119 15.426C262.52 15.2487 262.949 15.16 263.407 15.16C264.023 15.16 264.573 15.2907 265.059 15.552C265.544 15.8133 265.917 16.1913 266.179 16.686C266.412 16.2193 266.776 15.8507 267.271 15.58C267.765 15.3 268.297 15.16 268.867 15.16ZM283.413 15.16C284.02 15.16 284.561 15.286 285.037 15.538C285.523 15.79 285.901 16.1633 286.171 16.658C286.451 17.1527 286.591 17.75 286.591 18.45V23H285.009V18.688C285.009 17.9973 284.837 17.47 284.491 17.106C284.146 16.7327 283.675 16.546 283.077 16.546C282.48 16.546 282.004 16.7327 281.649 17.106C281.304 17.47 281.131 17.9973 281.131 18.688V23H279.549V18.688C279.549 17.9973 279.377 17.47 279.031 17.106C278.686 16.7327 278.215 16.546 277.617 16.546C277.02 16.546 276.544 16.7327 276.189 17.106C275.844 17.47 275.671 17.9973 275.671 18.688V23H274.075V15.286H275.671V16.168C275.933 15.8507 276.264 15.6033 276.665 15.426C277.067 15.2487 277.496 15.16 277.953 15.16C278.569 15.16 279.12 15.2907 279.605 15.552C280.091 15.8133 280.464 16.1913 280.725 16.686C280.959 16.2193 281.323 15.8507 281.817 15.58C282.312 15.3 282.844 15.16 283.413 15.16ZM291.968 23.126C291.24 23.126 290.582 22.9627 289.994 22.636C289.406 22.3 288.944 21.8333 288.608 21.236C288.272 20.6293 288.104 19.9293 288.104 19.136C288.104 18.352 288.277 17.6567 288.622 17.05C288.968 16.4433 289.439 15.9767 290.036 15.65C290.634 15.3233 291.301 15.16 292.038 15.16C292.776 15.16 293.443 15.3233 294.04 15.65C294.638 15.9767 295.109 16.4433 295.454 17.05C295.8 17.6567 295.972 18.352 295.972 19.136C295.972 19.92 295.795 20.6153 295.44 21.222C295.086 21.8287 294.6 22.3 293.984 22.636C293.378 22.9627 292.706 23.126 291.968 23.126ZM291.968 21.74C292.379 21.74 292.762 21.642 293.116 21.446C293.48 21.25 293.774 20.956 293.998 20.564C294.222 20.172 294.334 19.696 294.334 19.136C294.334 18.576 294.227 18.1047 294.012 17.722C293.798 17.33 293.513 17.036 293.158 16.84C292.804 16.644 292.421 16.546 292.01 16.546C291.6 16.546 291.217 16.644 290.862 16.84C290.517 17.036 290.242 17.33 290.036 17.722C289.831 18.1047 289.728 18.576 289.728 19.136C289.728 19.9667 289.938 20.6107 290.358 21.068C290.788 21.516 291.324 21.74 291.968 21.74ZM297.018 19.108C297.018 18.3333 297.177 17.6473 297.494 17.05C297.821 16.4527 298.259 15.9907 298.81 15.664C299.37 15.328 299.991 15.16 300.672 15.16C301.176 15.16 301.671 15.272 302.156 15.496C302.651 15.7107 303.043 16 303.332 16.364V12.64H304.942V23H303.332V21.838C303.071 22.2113 302.707 22.5193 302.24 22.762C301.783 23.0047 301.255 23.126 300.658 23.126C299.986 23.126 299.37 22.958 298.81 22.622C298.259 22.2767 297.821 21.8007 297.494 21.194C297.177 20.578 297.018 19.8827 297.018 19.108ZM303.332 19.136C303.332 18.604 303.22 18.142 302.996 17.75C302.781 17.358 302.497 17.0593 302.142 16.854C301.787 16.6487 301.405 16.546 300.994 16.546C300.583 16.546 300.201 16.6487 299.846 16.854C299.491 17.05 299.202 17.344 298.978 17.736C298.763 18.1187 298.656 18.576 298.656 19.108C298.656 19.64 298.763 20.1067 298.978 20.508C299.202 20.9093 299.491 21.2173 299.846 21.432C300.21 21.6373 300.593 21.74 300.994 21.74C301.405 21.74 301.787 21.6373 302.142 21.432C302.497 21.2267 302.781 20.928 302.996 20.536C303.22 20.1347 303.332 19.668 303.332 19.136ZM306.506 19.108C306.506 18.3333 306.665 17.6473 306.982 17.05C307.309 16.4527 307.748 15.9907 308.298 15.664C308.858 15.328 309.474 15.16 310.146 15.16C310.753 15.16 311.28 15.2813 311.728 15.524C312.186 15.7573 312.55 16.0513 312.82 16.406V15.286H314.43V23H312.82V21.852C312.55 22.216 312.181 22.5193 311.714 22.762C311.248 23.0047 310.716 23.126 310.118 23.126C309.456 23.126 308.849 22.958 308.298 22.622C307.748 22.2767 307.309 21.8007 306.982 21.194C306.665 20.578 306.506 19.8827 306.506 19.108ZM312.82 19.136C312.82 18.604 312.708 18.142 312.484 17.75C312.27 17.358 311.985 17.0593 311.63 16.854C311.276 16.6487 310.893 16.546 310.482 16.546C310.072 16.546 309.689 16.6487 309.334 16.854C308.98 17.05 308.69 17.344 308.466 17.736C308.252 18.1187 308.144 18.576 308.144 19.108C308.144 19.64 308.252 20.1067 308.466 20.508C308.69 20.9093 308.98 21.2173 309.334 21.432C309.698 21.6373 310.081 21.74 310.482 21.74C310.893 21.74 311.276 21.6373 311.63 21.432C311.985 21.2267 312.27 20.928 312.484 20.536C312.708 20.1347 312.82 19.668 312.82 19.136ZM318.389 16.588V20.858C318.389 21.1473 318.454 21.3573 318.585 21.488C318.725 21.6093 318.958 21.67 319.285 21.67H320.265V23H319.005C318.286 23 317.735 22.832 317.353 22.496C316.97 22.16 316.779 21.614 316.779 20.858V16.588H315.869V15.286H316.779V13.368H318.389V15.286H320.265V16.588H318.389ZM322.548 14.264C322.258 14.264 322.016 14.166 321.82 13.97C321.624 13.774 321.526 13.5313 321.526 13.242C321.526 12.9527 321.624 12.71 321.82 12.514C322.016 12.318 322.258 12.22 322.548 12.22C322.828 12.22 323.066 12.318 323.262 12.514C323.458 12.71 323.556 12.9527 323.556 13.242C323.556 13.5313 323.458 13.774 323.262 13.97C323.066 14.166 322.828 14.264 322.548 14.264ZM323.332 15.286V23H321.736V15.286H323.332ZM328.773 23.126C328.045 23.126 327.387 22.9627 326.799 22.636C326.211 22.3 325.749 21.8333 325.413 21.236C325.077 20.6293 324.909 19.9293 324.909 19.136C324.909 18.352 325.082 17.6567 325.427 17.05C325.772 16.4433 326.244 15.9767 326.841 15.65C327.438 15.3233 328.106 15.16 328.843 15.16C329.58 15.16 330.248 15.3233 330.845 15.65C331.442 15.9767 331.914 16.4433 332.259 17.05C332.604 17.6567 332.777 18.352 332.777 19.136C332.777 19.92 332.6 20.6153 332.245 21.222C331.89 21.8287 331.405 22.3 330.789 22.636C330.182 22.9627 329.51 23.126 328.773 23.126ZM328.773 21.74C329.184 21.74 329.566 21.642 329.921 21.446C330.285 21.25 330.579 20.956 330.803 20.564C331.027 20.172 331.139 19.696 331.139 19.136C331.139 18.576 331.032 18.1047 330.817 17.722C330.602 17.33 330.318 17.036 329.963 16.84C329.608 16.644 329.226 16.546 328.815 16.546C328.404 16.546 328.022 16.644 327.667 16.84C327.322 17.036 327.046 17.33 326.841 17.722C326.636 18.1047 326.533 18.576 326.533 19.136C326.533 19.9667 326.743 20.6107 327.163 21.068C327.592 21.516 328.129 21.74 328.773 21.74ZM338.247 15.16C338.853 15.16 339.395 15.286 339.871 15.538C340.356 15.79 340.734 16.1633 341.005 16.658C341.275 17.1527 341.411 17.75 341.411 18.45V23H339.829V18.688C339.829 17.9973 339.656 17.47 339.311 17.106C338.965 16.7327 338.494 16.546 337.897 16.546C337.299 16.546 336.823 16.7327 336.469 17.106C336.123 17.47 335.951 17.9973 335.951 18.688V23H334.355V15.286H335.951V16.168C336.212 15.8507 336.543 15.6033 336.945 15.426C337.355 15.2487 337.789 15.16 338.247 15.16ZM346.246 23.126C345.64 23.126 345.094 23.0187 344.608 22.804C344.132 22.58 343.754 22.2813 343.474 21.908C343.194 21.5253 343.045 21.1007 343.026 20.634H344.678C344.706 20.9607 344.86 21.236 345.14 21.46C345.43 21.6747 345.789 21.782 346.218 21.782C346.666 21.782 347.012 21.698 347.254 21.53C347.506 21.3527 347.632 21.1287 347.632 20.858C347.632 20.5687 347.492 20.354 347.212 20.214C346.942 20.074 346.508 19.92 345.91 19.752C345.332 19.5933 344.86 19.4393 344.496 19.29C344.132 19.1407 343.815 18.912 343.544 18.604C343.283 18.296 343.152 17.89 343.152 17.386C343.152 16.9753 343.274 16.602 343.516 16.266C343.759 15.9207 344.104 15.65 344.552 15.454C345.01 15.258 345.532 15.16 346.12 15.16C346.998 15.16 347.702 15.384 348.234 15.832C348.776 16.2707 349.065 16.8727 349.102 17.638H347.506C347.478 17.2927 347.338 17.0173 347.086 16.812C346.834 16.6067 346.494 16.504 346.064 16.504C345.644 16.504 345.322 16.5833 345.098 16.742C344.874 16.9007 344.762 17.1107 344.762 17.372C344.762 17.5773 344.837 17.75 344.986 17.89C345.136 18.03 345.318 18.142 345.532 18.226C345.747 18.3007 346.064 18.3987 346.484 18.52C347.044 18.6693 347.502 18.8233 347.856 18.982C348.22 19.1313 348.533 19.3553 348.794 19.654C349.056 19.9527 349.191 20.3493 349.2 20.844C349.2 21.2827 349.079 21.6747 348.836 22.02C348.594 22.3653 348.248 22.636 347.8 22.832C347.362 23.028 346.844 23.126 346.246 23.126Z" fill="#667085"/>
<mask id="path-11-inside-3_1212_35226" fill="white">
<path d="M395.333 20.6667H400.666V22H395.333V20.6667ZM395.333 18H400.666V19.3333H395.333V18ZM399.333 11.3333H393.999C393.266 11.3333 392.666 11.9333 392.666 12.6667V23.3333C392.666 24.0667 393.259 24.6667 393.993 24.6667H401.999C402.733 24.6667 403.333 24.0667 403.333 23.3333V15.3333L399.333 11.3333ZM401.999 23.3333H393.999V12.6667H398.666V16H401.999V23.3333Z"/>
</mask>
<path d="M395.333 20.6667V19.0667C394.449 19.0667 393.733 19.783 393.733 20.6667H395.333ZM400.666 20.6667H402.266C402.266 19.783 401.55 19.0667 400.666 19.0667V20.6667ZM400.666 22V23.6C401.55 23.6 402.266 22.8837 402.266 22H400.666ZM395.333 22H393.733C393.733 22.8837 394.449 23.6 395.333 23.6V22ZM395.333 18V16.4C394.449 16.4 393.733 17.1164 393.733 18H395.333ZM400.666 18H402.266C402.266 17.1164 401.55 16.4 400.666 16.4V18ZM400.666 19.3333V20.9333C401.55 20.9333 402.266 20.217 402.266 19.3333H400.666ZM395.333 19.3333H393.733C393.733 20.217 394.449 20.9333 395.333 20.9333V19.3333ZM399.333 11.3333L400.464 10.202C400.164 9.90191 399.757 9.73334 399.333 9.73334V11.3333ZM403.333 15.3333H404.933C404.933 14.909 404.764 14.502 404.464 14.202L403.333 15.3333ZM401.999 23.3333V24.9333C402.883 24.9333 403.599 24.217 403.599 23.3333H401.999ZM393.999 23.3333H392.399C392.399 24.217 393.116 24.9333 393.999 24.9333V23.3333ZM393.999 12.6667V11.0667C393.116 11.0667 392.399 11.783 392.399 12.6667H393.999ZM398.666 12.6667H400.266C400.266 11.783 399.55 11.0667 398.666 11.0667V12.6667ZM398.666 16H397.066C397.066 16.8837 397.782 17.6 398.666 17.6V16ZM401.999 16H403.599C403.599 15.1164 402.883 14.4 401.999 14.4V16ZM395.333 22.2667H400.666V19.0667H395.333V22.2667ZM399.066 20.6667V22H402.266V20.6667H399.066ZM400.666 20.4H395.333V23.6H400.666V20.4ZM396.933 22V20.6667H393.733V22H396.933ZM395.333 19.6H400.666V16.4H395.333V19.6ZM399.066 18V19.3333H402.266V18H399.066ZM400.666 17.7333H395.333V20.9333H400.666V17.7333ZM396.933 19.3333V18H393.733V19.3333H396.933ZM399.333 9.73334H393.999V12.9333H399.333V9.73334ZM393.999 9.73334C392.382 9.73334 391.066 11.0497 391.066 12.6667H394.266C394.266 12.817 394.15 12.9333 393.999 12.9333V9.73334ZM391.066 12.6667V23.3333H394.266V12.6667H391.066ZM391.066 23.3333C391.066 24.9399 392.365 26.2667 393.993 26.2667V23.0667C394.153 23.0667 394.266 23.1935 394.266 23.3333H391.066ZM393.993 26.2667H401.999V23.0667H393.993V26.2667ZM401.999 26.2667C403.616 26.2667 404.933 24.9503 404.933 23.3333H401.733C401.733 23.183 401.849 23.0667 401.999 23.0667V26.2667ZM404.933 23.3333V15.3333H401.733V23.3333H404.933ZM404.464 14.202L400.464 10.202L398.201 12.4647L402.201 16.4647L404.464 14.202ZM401.999 21.7333H393.999V24.9333H401.999V21.7333ZM395.599 23.3333V12.6667H392.399V23.3333H395.599ZM393.999 14.2667H398.666V11.0667H393.999V14.2667ZM397.066 12.6667V16H400.266V12.6667H397.066ZM398.666 17.6H401.999V14.4H398.666V17.6ZM400.399 16V23.3333H403.599V16H400.399Z" fill="#667085" mask="url(#path-11-inside-3_1212_35226)"/>
<path d="M418.228 13.27C419.264 13.27 420.169 13.4707 420.944 13.872C421.728 14.264 422.33 14.8333 422.75 15.58C423.179 16.3173 423.394 17.1807 423.394 18.17C423.394 19.1593 423.179 20.018 422.75 20.746C422.33 21.474 421.728 22.034 420.944 22.426C420.169 22.8087 419.264 23 418.228 23H415.05V13.27H418.228ZM418.228 21.698C419.367 21.698 420.239 21.39 420.846 20.774C421.453 20.158 421.756 19.29 421.756 18.17C421.756 17.0407 421.453 16.1587 420.846 15.524C420.239 14.8893 419.367 14.572 418.228 14.572H416.646V21.698H418.228ZM426.572 16.406C426.805 16.014 427.113 15.7107 427.496 15.496C427.888 15.272 428.35 15.16 428.882 15.16V16.812H428.476C427.85 16.812 427.374 16.9707 427.048 17.288C426.73 17.6053 426.572 18.156 426.572 18.94V23H424.976V15.286H426.572V16.406ZM429.817 19.108C429.817 18.3333 429.975 17.6473 430.293 17.05C430.619 16.4527 431.058 15.9907 431.609 15.664C432.169 15.328 432.785 15.16 433.457 15.16C434.063 15.16 434.591 15.2813 435.039 15.524C435.496 15.7573 435.86 16.0513 436.131 16.406V15.286H437.741V23H436.131V21.852C435.86 22.216 435.491 22.5193 435.025 22.762C434.558 23.0047 434.026 23.126 433.429 23.126C432.766 23.126 432.159 22.958 431.609 22.622C431.058 22.2767 430.619 21.8007 430.293 21.194C429.975 20.578 429.817 19.8827 429.817 19.108ZM436.131 19.136C436.131 18.604 436.019 18.142 435.795 17.75C435.58 17.358 435.295 17.0593 434.941 16.854C434.586 16.6487 434.203 16.546 433.793 16.546C433.382 16.546 432.999 16.6487 432.645 16.854C432.29 17.05 432.001 17.344 431.777 17.736C431.562 18.1187 431.455 18.576 431.455 19.108C431.455 19.64 431.562 20.1067 431.777 20.508C432.001 20.9093 432.29 21.2173 432.645 21.432C433.009 21.6373 433.391 21.74 433.793 21.74C434.203 21.74 434.586 21.6373 434.941 21.432C435.295 21.2267 435.58 20.928 435.795 20.536C436.019 20.1347 436.131 19.668 436.131 19.136ZM443.071 16.588H441.643V23H440.033V16.588H439.123V15.286H440.033V14.74C440.033 13.8533 440.266 13.2093 440.733 12.808C441.209 12.3973 441.951 12.192 442.959 12.192V13.522C442.474 13.522 442.133 13.6153 441.937 13.802C441.741 13.9793 441.643 14.292 441.643 14.74V15.286H443.071V16.588ZM446.348 16.588V20.858C446.348 21.1473 446.413 21.3573 446.544 21.488C446.684 21.6093 446.917 21.67 447.244 21.67H448.224V23H446.964C446.245 23 445.694 22.832 445.312 22.496C444.929 22.16 444.738 21.614 444.738 20.858V16.588H443.828V15.286H444.738V13.368H446.348V15.286H448.224V16.588H446.348ZM452.495 23.126C451.888 23.126 451.342 23.0187 450.857 22.804C450.381 22.58 450.003 22.2813 449.723 21.908C449.443 21.5253 449.293 21.1007 449.275 20.634H450.927C450.955 20.9607 451.109 21.236 451.389 21.46C451.678 21.6747 452.037 21.782 452.467 21.782C452.915 21.782 453.26 21.698 453.503 21.53C453.755 21.3527 453.881 21.1287 453.881 20.858C453.881 20.5687 453.741 20.354 453.461 20.214C453.19 20.074 452.756 19.92 452.159 19.752C451.58 19.5933 451.109 19.4393 450.745 19.29C450.381 19.1407 450.063 18.912 449.793 18.604C449.531 18.296 449.401 17.89 449.401 17.386C449.401 16.9753 449.522 16.602 449.765 16.266C450.007 15.9207 450.353 15.65 450.801 15.454C451.258 15.258 451.781 15.16 452.369 15.16C453.246 15.16 453.951 15.384 454.483 15.832C455.024 16.2707 455.313 16.8727 455.351 17.638H453.755C453.727 17.2927 453.587 17.0173 453.335 16.812C453.083 16.6067 452.742 16.504 452.313 16.504C451.893 16.504 451.571 16.5833 451.347 16.742C451.123 16.9007 451.011 17.1107 451.011 17.372C451.011 17.5773 451.085 17.75 451.235 17.89C451.384 18.03 451.566 18.142 451.781 18.226C451.995 18.3007 452.313 18.3987 452.733 18.52C453.293 18.6693 453.75 18.8233 454.105 18.982C454.469 19.1313 454.781 19.3553 455.043 19.654C455.304 19.9527 455.439 20.3493 455.449 20.844C455.449 21.2827 455.327 21.6747 455.085 22.02C454.842 22.3653 454.497 22.636 454.049 22.832C453.61 23.028 453.092 23.126 452.495 23.126Z" fill="#667085"/>
</svg>
