<svg width="92" height="76" viewBox="0 0 92 76" fill="none" xmlns="http://www.w3.org/2000/svg">
<line x1="0.5" x2="0.5" y2="76" stroke="#EEEEEE"/>
<line x1="91.5" x2="91.5" y2="76" stroke="#EEEEEE"/>
<path d="M50.8247 26.1333C49.4247 25.4167 47.608 24.8333 45.4997 24.8333C43.3913 24.8333 41.5747 25.4167 40.1747 26.1333C39.3413 26.5583 38.833 27.4167 38.833 28.35V30.6667H52.1663V28.35C52.1663 27.4167 51.658 26.5583 50.8247 26.1333Z" fill="#666666"/>
<path d="M43.6497 24H47.3497C48.358 24 49.133 23.1167 48.9997 22.1167L48.733 20.075C48.4747 18.4917 47.0997 17.3333 45.4997 17.3333C43.8997 17.3333 42.5247 18.4917 42.2663 20.075L41.9997 22.1167C41.8663 23.1167 42.6413 24 43.6497 24Z" fill="#666666"/>
<path d="M20.928 53.296H17.436L16.836 55H15.408L18.396 46.648H19.98L22.968 55H21.528L20.928 53.296ZM20.544 52.18L19.188 48.304L17.82 52.18H20.544ZM23.8112 50.812C23.8112 49.996 23.9992 49.264 24.3752 48.616C24.7592 47.968 25.2752 47.464 25.9232 47.104C26.5792 46.736 27.2952 46.552 28.0712 46.552C28.9592 46.552 29.7472 46.772 30.4352 47.212C31.1312 47.644 31.6352 48.26 31.9472 49.06H30.3032C30.0872 48.62 29.7872 48.292 29.4032 48.076C29.0192 47.86 28.5752 47.752 28.0712 47.752C27.5192 47.752 27.0272 47.876 26.5952 48.124C26.1632 48.372 25.8232 48.728 25.5752 49.192C25.3352 49.656 25.2152 50.196 25.2152 50.812C25.2152 51.428 25.3352 51.968 25.5752 52.432C25.8232 52.896 26.1632 53.256 26.5952 53.512C27.0272 53.76 27.5192 53.884 28.0712 53.884C28.5752 53.884 29.0192 53.776 29.4032 53.56C29.7872 53.344 30.0872 53.016 30.3032 52.576H31.9472C31.6352 53.376 31.1312 53.992 30.4352 54.424C29.7472 54.856 28.9592 55.072 28.0712 55.072C27.2872 55.072 26.5712 54.892 25.9232 54.532C25.2752 54.164 24.7592 53.656 24.3752 53.008C23.9992 52.36 23.8112 51.628 23.8112 50.812ZM33.0924 50.812C33.0924 49.996 33.2804 49.264 33.6564 48.616C34.0404 47.968 34.5564 47.464 35.2044 47.104C35.8604 46.736 36.5764 46.552 37.3524 46.552C38.2404 46.552 39.0284 46.772 39.7164 47.212C40.4124 47.644 40.9164 48.26 41.2284 49.06H39.5844C39.3684 48.62 39.0684 48.292 38.6844 48.076C38.3004 47.86 37.8564 47.752 37.3524 47.752C36.8004 47.752 36.3084 47.876 35.8764 48.124C35.4444 48.372 35.1044 48.728 34.8564 49.192C34.6164 49.656 34.4964 50.196 34.4964 50.812C34.4964 51.428 34.6164 51.968 34.8564 52.432C35.1044 52.896 35.4444 53.256 35.8764 53.512C36.3084 53.76 36.8004 53.884 37.3524 53.884C37.8564 53.884 38.3004 53.776 38.6844 53.56C39.0684 53.344 39.3684 53.016 39.5844 52.576H41.2284C40.9164 53.376 40.4124 53.992 39.7164 54.424C39.0284 54.856 38.2404 55.072 37.3524 55.072C36.5684 55.072 35.8524 54.892 35.2044 54.532C34.5564 54.164 34.0404 53.656 33.6564 53.008C33.2804 52.36 33.0924 51.628 33.0924 50.812ZM46.6337 55.084C45.8577 55.084 45.1417 54.904 44.4857 54.544C43.8377 54.176 43.3217 53.668 42.9377 53.02C42.5617 52.364 42.3737 51.628 42.3737 50.812C42.3737 49.996 42.5617 49.264 42.9377 48.616C43.3217 47.968 43.8377 47.464 44.4857 47.104C45.1417 46.736 45.8577 46.552 46.6337 46.552C47.4177 46.552 48.1337 46.736 48.7817 47.104C49.4377 47.464 49.9537 47.968 50.3297 48.616C50.7057 49.264 50.8937 49.996 50.8937 50.812C50.8937 51.628 50.7057 52.364 50.3297 53.02C49.9537 53.668 49.4377 54.176 48.7817 54.544C48.1337 54.904 47.4177 55.084 46.6337 55.084ZM46.6337 53.896C47.1857 53.896 47.6777 53.772 48.1097 53.524C48.5417 53.268 48.8777 52.908 49.1177 52.444C49.3657 51.972 49.4897 51.428 49.4897 50.812C49.4897 50.196 49.3657 49.656 49.1177 49.192C48.8777 48.728 48.5417 48.372 48.1097 48.124C47.6777 47.876 47.1857 47.752 46.6337 47.752C46.0817 47.752 45.5897 47.876 45.1577 48.124C44.7257 48.372 44.3857 48.728 44.1377 49.192C43.8977 49.656 43.7777 50.196 43.7777 50.812C43.7777 51.428 43.8977 51.972 44.1377 52.444C44.3857 52.908 44.7257 53.268 45.1577 53.524C45.5897 53.772 46.0817 53.896 46.6337 53.896ZM53.5958 46.66V51.976C53.5958 52.608 53.7598 53.084 54.0878 53.404C54.4238 53.724 54.8878 53.884 55.4798 53.884C56.0798 53.884 56.5438 53.724 56.8718 53.404C57.2078 53.084 57.3758 52.608 57.3758 51.976V46.66H58.7438V51.952C58.7438 52.632 58.5958 53.208 58.2998 53.68C58.0038 54.152 57.6078 54.504 57.1118 54.736C56.6158 54.968 56.0678 55.084 55.4678 55.084C54.8678 55.084 54.3198 54.968 53.8238 54.736C53.3358 54.504 52.9478 54.152 52.6598 53.68C52.3718 53.208 52.2278 52.632 52.2278 51.952V46.66H53.5958ZM67.377 55H66.009L61.893 48.772V55H60.525V46.648H61.893L66.009 52.864V46.648H67.377V55ZM74.5614 46.66V47.776H72.3414V55H70.9734V47.776H68.7414V46.66H74.5614Z" fill="#666666"/>
</svg>
