<svg width="92" height="76" viewBox="0 0 92 76" fill="none" xmlns="http://www.w3.org/2000/svg">
<line x1="0.5" x2="0.5" y2="76" stroke="#EEEEEE"/>
<line x1="91.5" x2="91.5" y2="76" stroke="#EEEEEE"/>
<line x1="1" y1="75" x2="91" y2="75" stroke="#666666" stroke-width="2"/>
<path d="M51.4504 24.7833C51.4838 24.5333 51.5004 24.275 51.5004 24C51.5004 23.7333 51.4838 23.4667 51.4421 23.2167L53.1338 21.9C53.2838 21.7833 53.3254 21.5583 53.2338 21.3917L51.6338 18.625C51.5338 18.4417 51.3254 18.3833 51.1421 18.4417L49.1504 19.2417C48.7337 18.925 48.2921 18.6583 47.8004 18.4583L47.5004 16.3417C47.4671 16.1417 47.3004 16 47.1004 16H43.9004C43.7004 16 43.5421 16.1417 43.5087 16.3417L43.2088 18.4583C42.7171 18.6583 42.2671 18.9333 41.8588 19.2417L39.8671 18.4417C39.6838 18.375 39.4754 18.4417 39.3754 18.625L37.7838 21.3917C37.6838 21.5667 37.7171 21.7833 37.8838 21.9L39.5754 23.2167C39.5338 23.4667 39.5004 23.7417 39.5004 24C39.5004 24.2583 39.5171 24.5333 39.5588 24.7833L37.8671 26.1C37.7171 26.2167 37.6754 26.4417 37.7671 26.6083L39.3671 29.375C39.4671 29.5583 39.6754 29.6167 39.8588 29.5583L41.8504 28.7583C42.2671 29.075 42.7087 29.3417 43.2004 29.5417L43.5004 31.6583C43.5421 31.8583 43.7004 32 43.9004 32H47.1004C47.3004 32 47.4671 31.8583 47.4921 31.6583L47.7921 29.5417C48.2837 29.3417 48.7338 29.075 49.1421 28.7583L51.1338 29.5583C51.3171 29.625 51.5254 29.5583 51.6254 29.375L53.2254 26.6083C53.3254 26.425 53.2838 26.2167 53.1254 26.1L51.4504 24.7833ZM45.5004 27C43.8504 27 42.5004 25.65 42.5004 24C42.5004 22.35 43.8504 21 45.5004 21C47.1504 21 48.5004 22.35 48.5004 24C48.5004 25.65 47.1504 27 45.5004 27Z" fill="#666666"/>
<path d="M31.428 53.296H27.936L27.336 55H25.908L28.896 46.648H30.48L33.468 55H32.028L31.428 53.296ZM31.044 52.18L29.688 48.304L28.32 52.18H31.044ZM37.4912 46.66C38.3792 46.66 39.1552 46.832 39.8192 47.176C40.4912 47.512 41.0072 48 41.3672 48.64C41.7352 49.272 41.9192 50.012 41.9192 50.86C41.9192 51.708 41.7352 52.444 41.3672 53.068C41.0072 53.692 40.4912 54.172 39.8192 54.508C39.1552 54.836 38.3792 55 37.4912 55H34.7672V46.66H37.4912ZM37.4912 53.884C38.4672 53.884 39.2152 53.62 39.7352 53.092C40.2552 52.564 40.5152 51.82 40.5152 50.86C40.5152 49.892 40.2552 49.136 39.7352 48.592C39.2152 48.048 38.4672 47.776 37.4912 47.776H36.1352V53.884H37.4912ZM52.059 46.66V55H50.691V49.288L48.147 55H47.199L44.643 49.288V55H43.275V46.66H44.751L47.679 53.2L50.595 46.66H52.059ZM55.225 46.66V55H53.857V46.66H55.225ZM63.8731 55H62.5051L58.3891 48.772V55H57.0211V46.648H58.3891L62.5051 52.864V46.648H63.8731V55Z" fill="#666666"/>
</svg>
