<svg width="92" height="76" viewBox="0 0 92 76" fill="none" xmlns="http://www.w3.org/2000/svg">
<line x1="0.5" x2="0.5" y2="76" stroke="#EEEEEE"/>
<line x1="91.5" x2="91.5" y2="76" stroke="#EEEEEE"/>
<path d="M48.8337 19L50.742 20.9083L46.6753 24.975L43.342 21.6417L37.167 27.825L38.342 29L43.342 24L46.6753 27.3333L51.9253 22.0917L53.8337 24V19H48.8337Z" fill="#666666"/>
<path d="M24.232 55L22.312 51.664H21.268V55H19.9V46.66H22.78C23.42 46.66 23.96 46.772 24.4 46.996C24.848 47.22 25.18 47.52 25.396 47.896C25.62 48.272 25.732 48.692 25.732 49.156C25.732 49.7 25.572 50.196 25.252 50.644C24.94 51.084 24.456 51.384 23.8 51.544L25.864 55H24.232ZM21.268 50.572H22.78C23.292 50.572 23.676 50.444 23.932 50.188C24.196 49.932 24.328 49.588 24.328 49.156C24.328 48.724 24.2 48.388 23.944 48.148C23.688 47.9 23.3 47.776 22.78 47.776H21.268V50.572ZM28.85 47.764V50.212H31.73V51.328H28.85V53.884H32.09V55H27.482V46.648H32.09V47.764H28.85ZM39.607 49.144C39.607 49.568 39.507 49.968 39.307 50.344C39.107 50.72 38.787 51.028 38.347 51.268C37.907 51.5 37.343 51.616 36.655 51.616H35.143V55H33.775V46.66H36.655C37.295 46.66 37.835 46.772 38.275 46.996C38.723 47.212 39.055 47.508 39.271 47.884C39.495 48.26 39.607 48.68 39.607 49.144ZM36.655 50.5C37.175 50.5 37.563 50.384 37.819 50.152C38.075 49.912 38.203 49.576 38.203 49.144C38.203 48.232 37.687 47.776 36.655 47.776H35.143V50.5H36.655ZM44.7157 55.084C43.9397 55.084 43.2237 54.904 42.5677 54.544C41.9197 54.176 41.4037 53.668 41.0197 53.02C40.6437 52.364 40.4557 51.628 40.4557 50.812C40.4557 49.996 40.6437 49.264 41.0197 48.616C41.4037 47.968 41.9197 47.464 42.5677 47.104C43.2237 46.736 43.9397 46.552 44.7157 46.552C45.4997 46.552 46.2157 46.736 46.8637 47.104C47.5197 47.464 48.0357 47.968 48.4117 48.616C48.7877 49.264 48.9757 49.996 48.9757 50.812C48.9757 51.628 48.7877 52.364 48.4117 53.02C48.0357 53.668 47.5197 54.176 46.8637 54.544C46.2157 54.904 45.4997 55.084 44.7157 55.084ZM44.7157 53.896C45.2677 53.896 45.7597 53.772 46.1917 53.524C46.6237 53.268 46.9597 52.908 47.1997 52.444C47.4477 51.972 47.5717 51.428 47.5717 50.812C47.5717 50.196 47.4477 49.656 47.1997 49.192C46.9597 48.728 46.6237 48.372 46.1917 48.124C45.7597 47.876 45.2677 47.752 44.7157 47.752C44.1637 47.752 43.6717 47.876 43.2397 48.124C42.8077 48.372 42.4677 48.728 42.2197 49.192C41.9797 49.656 41.8597 50.196 41.8597 50.812C41.8597 51.428 41.9797 51.972 42.2197 52.444C42.4677 52.908 42.8077 53.268 43.2397 53.524C43.6717 53.772 44.1637 53.896 44.7157 53.896ZM54.6539 55L52.7339 51.664H51.6899V55H50.3219V46.66H53.2019C53.8419 46.66 54.3819 46.772 54.8219 46.996C55.2699 47.22 55.6019 47.52 55.8179 47.896C56.0419 48.272 56.1539 48.692 56.1539 49.156C56.1539 49.7 55.9939 50.196 55.6739 50.644C55.3619 51.084 54.8779 51.384 54.2219 51.544L56.2859 55H54.6539ZM51.6899 50.572H53.2019C53.7139 50.572 54.0979 50.444 54.3539 50.188C54.6179 49.932 54.7499 49.588 54.7499 49.156C54.7499 48.724 54.6219 48.388 54.3659 48.148C54.1099 47.9 53.7219 47.776 53.2019 47.776H51.6899V50.572ZM63.2919 46.66V47.776H61.0719V55H59.7039V47.776H57.4719V46.66H63.2919ZM67.4253 55.084C66.8653 55.084 66.3613 54.988 65.9133 54.796C65.4653 54.596 65.1133 54.316 64.8573 53.956C64.6013 53.596 64.4733 53.176 64.4733 52.696H65.9373C65.9693 53.056 66.1093 53.352 66.3573 53.584C66.6133 53.816 66.9693 53.932 67.4253 53.932C67.8973 53.932 68.2653 53.82 68.5293 53.596C68.7933 53.364 68.9253 53.068 68.9253 52.708C68.9253 52.428 68.8413 52.2 68.6733 52.024C68.5133 51.848 68.3093 51.712 68.0613 51.616C67.8213 51.52 67.4853 51.416 67.0533 51.304C66.5093 51.16 66.0653 51.016 65.7213 50.872C65.3853 50.72 65.0973 50.488 64.8573 50.176C64.6173 49.864 64.4973 49.448 64.4973 48.928C64.4973 48.448 64.6173 48.028 64.8573 47.668C65.0973 47.308 65.4333 47.032 65.8653 46.84C66.2973 46.648 66.7973 46.552 67.3653 46.552C68.1733 46.552 68.8333 46.756 69.3453 47.164C69.8653 47.564 70.1533 48.116 70.2093 48.82H68.6973C68.6733 48.516 68.5293 48.256 68.2653 48.04C68.0013 47.824 67.6533 47.716 67.2213 47.716C66.8293 47.716 66.5093 47.816 66.2613 48.016C66.0133 48.216 65.8893 48.504 65.8893 48.88C65.8893 49.136 65.9653 49.348 66.1173 49.516C66.2773 49.676 66.4773 49.804 66.7173 49.9C66.9573 49.996 67.2853 50.1 67.7013 50.212C68.2533 50.364 68.7013 50.516 69.0453 50.668C69.3973 50.82 69.6933 51.056 69.9333 51.376C70.1813 51.688 70.3053 52.108 70.3053 52.636C70.3053 53.06 70.1893 53.46 69.9573 53.836C69.7333 54.212 69.4013 54.516 68.9613 54.748C68.5293 54.972 68.0173 55.084 67.4253 55.084Z" fill="#666666"/>
</svg>
