<svg width="101" height="30" viewBox="0 0 101 30" fill="none" xmlns="http://www.w3.org/2000/svg">
<path fill-rule="evenodd" clip-rule="evenodd" d="M28.3795 21.4718C25.9558 26.4493 20.8483 29.8794 14.9397 29.8794C6.68873 29.8794 0 23.1907 0 14.9397C0 6.68873 6.68873 0 14.9397 0C20.6413 0 25.5969 3.19394 28.1149 7.89023H24.4475C22.2907 4.98614 18.835 3.10435 14.9397 3.10435C8.40322 3.10435 3.10435 8.40322 3.10435 14.9397C3.10435 21.4762 8.40322 26.7751 14.9397 26.7751C19.0617 26.7751 22.6916 24.6678 24.8108 21.4718H28.3795Z" fill="#2E84C0"/>
<path fill-rule="evenodd" clip-rule="evenodd" d="M12.8459 29.7338C5.58622 28.7157 0 22.4801 0 14.9397C0 6.68873 6.68873 0 14.9397 0C20.6413 0 25.5969 3.19394 28.115 7.89023H24.4475C22.2907 4.98614 18.835 3.10435 14.9397 3.10435C8.40322 3.10435 3.10435 8.40322 3.10435 14.9397C3.10435 21.2727 8.07843 26.4439 14.3329 26.7598L12.8459 29.7338Z" fill="#072136"/>
<path d="M28.3272 10.2185L32.4017 15.0044L28.3272 19.4669H25.4815L27.4864 15.6511H21.3424V13.5169H27.4864L25.4815 10.2185H28.3272Z" fill="#072136"/>
<path d="M19.0141 11.2533C19.0141 13.5393 17.161 15.3924 14.875 15.3924C12.589 15.3924 10.7358 13.5393 10.7358 11.2533C10.7358 8.96731 12.589 7.11415 14.875 7.11415C17.161 7.11415 19.0141 8.96731 19.0141 11.2533Z" fill="#072136"/>
<path d="M6.40271 19.1435C6.40271 19.1435 8.40761 24.1234 14.3576 24.5115L11.7707 17.7854C9.44239 18.1087 6.40271 19.1435 6.40271 19.1435Z" fill="#072136"/>
<path d="M23.218 19.2082C23.218 19.2082 21.2131 24.1881 15.2631 24.5761L17.8501 17.85C20.1783 18.1734 23.218 19.2082 23.218 19.2082Z" fill="#072136"/>
<path d="M15.6512 17.7207H14.099L14.8751 21.2778L15.6512 17.7207Z" fill="#072136"/>
<path d="M91.1376 19.662V8.52707H95.9574C96.9542 8.52707 97.8132 8.69144 98.5343 9.02019C99.2555 9.33833 99.8122 9.79963 100.205 10.4041C100.597 11.0086 100.793 11.7297 100.793 12.5675C100.793 13.3946 100.597 14.1104 100.205 14.7149C99.8122 15.3088 99.2555 15.7648 98.5343 16.0829C97.8132 16.401 96.9542 16.5601 95.9574 16.5601H92.5692L93.7145 15.4307V19.662H91.1376ZM98.2162 19.662L95.4325 15.6216H98.1844L101 19.662H98.2162ZM93.7145 15.717L92.5692 14.5081H95.8142C96.6096 14.5081 97.2035 14.3384 97.5958 13.9991C97.9882 13.6491 98.1844 13.1719 98.1844 12.5675C98.1844 11.9524 97.9882 11.4752 97.5958 11.1358C97.2035 10.7965 96.6096 10.6268 95.8142 10.6268H92.5692L93.7145 9.40196V15.717Z" fill="black"/>
<path d="M85.9261 8.52707H88.5031V19.662H85.9261V8.52707ZM80.8677 19.662H78.2908V8.52707H80.8677V19.662ZM86.117 15.0967H80.6768V12.9174H86.117V15.0967Z" fill="black"/>
<path d="M74.7019 19.7892C73.6945 19.7892 72.9097 19.5347 72.3477 19.0257C71.7856 18.5061 71.5046 17.7372 71.5046 16.7192V9.21107H73.9861V16.6874C73.9861 17.0479 74.0815 17.329 74.2724 17.5304C74.4633 17.7213 74.7231 17.8168 75.0519 17.8168C75.4442 17.8168 75.7783 17.7107 76.054 17.4986L76.7221 19.2484C76.4676 19.4287 76.1601 19.5665 75.7995 19.662C75.4496 19.7468 75.0837 19.7892 74.7019 19.7892ZM70.1843 13.2037V11.2949H76.1176V13.2037H70.1843Z" fill="black"/>
<path d="M60.6609 19.662L64.4945 14.6354L64.4468 16.0034L60.7722 11.104H63.556L65.8784 14.3013L64.8285 14.3332L67.2305 11.104H69.8711L66.1806 15.9557V14.6195L69.9983 19.662H67.1828L64.749 16.2579L65.783 16.4011L63.3651 19.662H60.6609Z" fill="black"/>
<path d="M56.1879 19.7893C55.2123 19.7893 54.3533 19.5984 53.611 19.2166C52.8792 18.8348 52.3119 18.3152 51.9089 17.6577C51.5059 16.9896 51.3044 16.2314 51.3044 15.383C51.3044 14.524 51.5006 13.7658 51.893 13.1083C52.296 12.4402 52.8421 11.9206 53.5314 11.5494C54.2207 11.1677 55.0002 10.9768 55.8698 10.9768C56.7075 10.9768 57.4605 11.1571 58.1286 11.5176C58.8073 11.8676 59.3428 12.3766 59.7352 13.0447C60.1275 13.7022 60.3237 14.4922 60.3237 15.4148C60.3237 15.5103 60.3184 15.6216 60.3078 15.7489C60.2972 15.8655 60.2866 15.9769 60.276 16.0829H53.3246V14.6354H58.9716L58.0172 15.0649C58.0172 14.6195 57.9271 14.2324 57.7468 13.9037C57.5665 13.5749 57.3173 13.3204 56.9992 13.1401C56.681 12.9492 56.3099 12.8538 55.8857 12.8538C55.4615 12.8538 55.085 12.9492 54.7563 13.1401C54.4381 13.3204 54.1889 13.5802 54.0086 13.9196C53.8284 14.2483 53.7382 14.6407 53.7382 15.0967V15.4785C53.7382 15.9451 53.839 16.3587 54.0405 16.7192C54.2525 17.0692 54.5442 17.3396 54.9153 17.5305C55.2971 17.7107 55.7425 17.8009 56.2515 17.8009C56.7075 17.8009 57.1052 17.732 57.4446 17.5941C57.7945 17.4562 58.1127 17.2494 58.399 16.9737L59.7193 18.4054C59.3269 18.8508 58.8338 19.1954 58.2399 19.4393C57.646 19.6726 56.962 19.7893 56.1879 19.7893Z" fill="black"/>
<path d="M39.2688 19.662V8.52707H41.4003L47.9699 16.5442H46.936V8.52707H49.4811V19.662H47.3655L40.78 11.6448H41.8139V19.662H39.2688Z" fill="black"/>
</svg>
