<svg width="356" height="96" viewBox="0 0 356 96" fill="none" xmlns="http://www.w3.org/2000/svg">
<path d="M11.044 15H9.448L4.646 7.734V15H3.05V5.256H4.646L9.448 12.508V5.256H11.044V15ZM12.6078 11.108C12.6078 10.3333 12.7665 9.64733 13.0838 9.05C13.4105 8.45267 13.8492 7.99067 14.3998 7.664C14.9598 7.328 15.5758 7.16 16.2478 7.16C16.8545 7.16 17.3818 7.28133 17.8298 7.524C18.2872 7.75733 18.6512 8.05133 18.9218 8.406V7.286H20.5318V15H18.9218V13.852C18.6512 14.216 18.2825 14.5193 17.8158 14.762C17.3492 15.0047 16.8172 15.126 16.2198 15.126C15.5572 15.126 14.9505 14.958 14.3998 14.622C13.8492 14.2767 13.4105 13.8007 13.0838 13.194C12.7665 12.578 12.6078 11.8827 12.6078 11.108ZM18.9218 11.136C18.9218 10.604 18.8098 10.142 18.5858 9.75C18.3712 9.358 18.0865 9.05933 17.7318 8.854C17.3772 8.64867 16.9945 8.546 16.5838 8.546C16.1732 8.546 15.7905 8.64867 15.4358 8.854C15.0812 9.05 14.7918 9.344 14.5678 9.736C14.3532 10.1187 14.2458 10.576 14.2458 11.108C14.2458 11.64 14.3532 12.1067 14.5678 12.508C14.7918 12.9093 15.0812 13.2173 15.4358 13.432C15.7998 13.6373 16.1825 13.74 16.5838 13.74C16.9945 13.74 17.3772 13.6373 17.7318 13.432C18.0865 13.2267 18.3712 12.928 18.5858 12.536C18.8098 12.1347 18.9218 11.668 18.9218 11.136ZM31.9661 7.16C32.5728 7.16 33.1141 7.286 33.5901 7.538C34.0755 7.79 34.4535 8.16333 34.7241 8.658C35.0041 9.15267 35.1441 9.75 35.1441 10.45V15H33.5621V10.688C33.5621 9.99733 33.3895 9.47 33.0441 9.106C32.6988 8.73267 32.2275 8.546 31.6301 8.546C31.0328 8.546 30.5568 8.73267 30.2021 9.106C29.8568 9.47 29.6841 9.99733 29.6841 10.688V15H28.1021V10.688C28.1021 9.99733 27.9295 9.47 27.5841 9.106C27.2388 8.73267 26.7675 8.546 26.1701 8.546C25.5728 8.546 25.0968 8.73267 24.7421 9.106C24.3968 9.47 24.2241 9.99733 24.2241 10.688V15H22.6281V7.286H24.2241V8.168C24.4855 7.85067 24.8168 7.60333 25.2181 7.426C25.6195 7.24867 26.0488 7.16 26.5061 7.16C27.1221 7.16 27.6728 7.29067 28.1581 7.552C28.6435 7.81333 29.0168 8.19133 29.2781 8.686C29.5115 8.21933 29.8755 7.85067 30.3701 7.58C30.8648 7.3 31.3968 7.16 31.9661 7.16ZM44.245 10.954C44.245 11.2433 44.2263 11.5047 44.189 11.738H38.295C38.3417 12.354 38.5703 12.8487 38.981 13.222C39.3917 13.5953 39.8957 13.782 40.493 13.782C41.3517 13.782 41.9583 13.4227 42.313 12.704H44.035C43.8017 13.4133 43.377 13.9967 42.761 14.454C42.1543 14.902 41.3983 15.126 40.493 15.126C39.7557 15.126 39.093 14.9627 38.505 14.636C37.9263 14.3 37.469 13.8333 37.133 13.236C36.8063 12.6293 36.643 11.9293 36.643 11.136C36.643 10.3427 36.8017 9.64733 37.119 9.05C37.4457 8.44333 37.8983 7.97667 38.477 7.65C39.065 7.32333 39.737 7.16 40.493 7.16C41.221 7.16 41.8697 7.31867 42.439 7.636C43.0083 7.95333 43.4517 8.40133 43.769 8.98C44.0863 9.54933 44.245 10.2073 44.245 10.954ZM42.579 10.45C42.5697 9.862 42.3597 9.39067 41.949 9.036C41.5383 8.68133 41.0297 8.504 40.423 8.504C39.8723 8.504 39.401 8.68133 39.009 9.036C38.617 9.38133 38.3837 9.85267 38.309 10.45H42.579Z" fill="#344054"/>
<path d="M53.8903 5.494L54.5203 6.614L52.6023 7.328L54.5203 8.042L53.8763 9.19L52.2803 7.93L52.5743 9.96H51.2863L51.5523 7.93L49.9563 9.218L49.2843 8.028L51.1883 7.314L49.2843 6.628L49.9283 5.48L51.5663 6.74L51.2863 4.696H52.5883L52.2803 6.74L53.8903 5.494Z" fill="#FF0000"/>
<g filter="url(#filter0_d_1170_7367)">
<rect x="2" y="26" width="352" height="44" rx="8" fill="white"/>
<rect x="2.5" y="26.5" width="351" height="43" rx="7.5" stroke="#D0D5DD"/>
</g>
<path d="M9.084 81.242V82.278H6.424V91H5.15V82.278H2.476V81.242H9.084ZM14.4602 83.188C15.0389 83.188 15.5616 83.314 16.0282 83.566C16.4949 83.8087 16.8589 84.1773 17.1202 84.672C17.3909 85.1667 17.5262 85.7687 17.5262 86.478V91H16.2662V86.66C16.2662 85.8947 16.0749 85.3113 15.6922 84.91C15.3096 84.4993 14.7869 84.294 14.1242 84.294C13.4522 84.294 12.9156 84.504 12.5142 84.924C12.1222 85.344 11.9262 85.9553 11.9262 86.758V91H10.6522V80.64H11.9262V84.42C12.1782 84.028 12.5236 83.7247 12.9622 83.51C13.4102 83.2953 13.9096 83.188 14.4602 83.188ZM20.2653 82.082C20.0226 82.082 19.8173 81.998 19.6493 81.83C19.4813 81.662 19.3973 81.4567 19.3973 81.214C19.3973 80.9713 19.4813 80.766 19.6493 80.598C19.8173 80.43 20.0226 80.346 20.2653 80.346C20.4986 80.346 20.6946 80.43 20.8533 80.598C21.0213 80.766 21.1053 80.9713 21.1053 81.214C21.1053 81.4567 21.0213 81.662 20.8533 81.83C20.6946 81.998 20.4986 82.082 20.2653 82.082ZM20.8813 83.328V91H19.6073V83.328H20.8813ZM25.7686 91.126C25.1806 91.126 24.6533 91.028 24.1866 90.832C23.7199 90.6267 23.3513 90.3467 23.0806 89.992C22.8099 89.628 22.6606 89.2127 22.6326 88.746H23.9486C23.9859 89.1287 24.1633 89.4413 24.4806 89.684C24.8073 89.9267 25.2319 90.048 25.7546 90.048C26.2399 90.048 26.6226 89.9407 26.9026 89.726C27.1826 89.5113 27.3226 89.2407 27.3226 88.914C27.3226 88.578 27.1733 88.3307 26.8746 88.172C26.5759 88.004 26.1139 87.8407 25.4886 87.682C24.9193 87.5327 24.4526 87.3833 24.0886 87.234C23.7339 87.0753 23.4259 86.8467 23.1646 86.548C22.9126 86.24 22.7866 85.8387 22.7866 85.344C22.7866 84.952 22.9033 84.5927 23.1366 84.266C23.3699 83.9393 23.7013 83.6827 24.1306 83.496C24.5599 83.3 25.0499 83.202 25.6006 83.202C26.4499 83.202 27.1359 83.4167 27.6586 83.846C28.1813 84.2753 28.4613 84.8633 28.4986 85.61H27.2246C27.1966 85.2087 27.0333 84.8867 26.7346 84.644C26.4453 84.4013 26.0533 84.28 25.5586 84.28C25.1013 84.28 24.7373 84.378 24.4666 84.574C24.1959 84.77 24.0606 85.0267 24.0606 85.344C24.0606 85.596 24.1399 85.806 24.2986 85.974C24.4666 86.1327 24.6719 86.2633 24.9146 86.366C25.1666 86.4593 25.5119 86.5667 25.9506 86.688C26.5013 86.8373 26.9493 86.9867 27.2946 87.136C27.6399 87.276 27.9339 87.4907 28.1766 87.78C28.4286 88.0693 28.5593 88.4473 28.5686 88.914C28.5686 89.334 28.4519 89.712 28.2186 90.048C27.9853 90.384 27.6539 90.65 27.2246 90.846C26.8046 91.0327 26.3193 91.126 25.7686 91.126ZM37.2215 84.378H35.6115V91H34.3375V84.378H33.3435V83.328H34.3375V82.782C34.3375 81.9233 34.5568 81.298 34.9955 80.906C35.4435 80.5047 36.1575 80.304 37.1375 80.304V81.368C36.5775 81.368 36.1808 81.48 35.9475 81.704C35.7235 81.9187 35.6115 82.278 35.6115 82.782V83.328H37.2215V84.378ZM39.3649 82.082C39.1222 82.082 38.9169 81.998 38.7489 81.83C38.5809 81.662 38.4969 81.4567 38.4969 81.214C38.4969 80.9713 38.5809 80.766 38.7489 80.598C38.9169 80.43 39.1222 80.346 39.3649 80.346C39.5982 80.346 39.7942 80.43 39.9529 80.598C40.1209 80.766 40.2049 80.9713 40.2049 81.214C40.2049 81.4567 40.1209 81.662 39.9529 81.83C39.7942 81.998 39.5982 82.082 39.3649 82.082ZM39.9809 83.328V91H38.7069V83.328H39.9809ZM49.1522 86.87C49.1522 87.1127 49.1382 87.3693 49.1102 87.64H42.9782C43.0249 88.396 43.2816 88.9887 43.7482 89.418C44.2242 89.838 44.7982 90.048 45.4702 90.048C46.0209 90.048 46.4782 89.922 46.8422 89.67C47.2156 89.4087 47.4769 89.0633 47.6262 88.634H48.9982C48.7929 89.3713 48.3822 89.9733 47.7662 90.44C47.1502 90.8973 46.3849 91.126 45.4702 91.126C44.7422 91.126 44.0889 90.9627 43.5102 90.636C42.9409 90.3093 42.4929 89.8473 42.1662 89.25C41.8396 88.6433 41.6762 87.9433 41.6762 87.15C41.6762 86.3567 41.8349 85.6613 42.1522 85.064C42.4696 84.4667 42.9129 84.0093 43.4822 83.692C44.0609 83.3653 44.7236 83.202 45.4702 83.202C46.1982 83.202 46.8422 83.3607 47.4022 83.678C47.9622 83.9953 48.3916 84.434 48.6902 84.994C48.9982 85.5447 49.1522 86.17 49.1522 86.87ZM47.8362 86.604C47.8362 86.1187 47.7289 85.7033 47.5142 85.358C47.2996 85.0033 47.0056 84.7373 46.6322 84.56C46.2682 84.3733 45.8622 84.28 45.4142 84.28C44.7702 84.28 44.2196 84.4853 43.7622 84.896C43.3142 85.3067 43.0576 85.876 42.9922 86.604H47.8362ZM52.1079 80.64V91H50.8339V80.64H52.1079ZM53.8032 87.136C53.8032 86.352 53.9618 85.666 54.2792 85.078C54.5965 84.4807 55.0305 84.0187 55.5812 83.692C56.1412 83.3653 56.7665 83.202 57.4572 83.202C58.0545 83.202 58.6098 83.342 59.1232 83.622C59.6365 83.8927 60.0285 84.252 60.2992 84.7V80.64H61.5872V91H60.2992V89.558C60.0472 90.0153 59.6738 90.3933 59.1792 90.692C58.6845 90.9813 58.1058 91.126 57.4432 91.126C56.7618 91.126 56.1412 90.958 55.5812 90.622C55.0305 90.286 54.5965 89.8147 54.2792 89.208C53.9618 88.6013 53.8032 87.9107 53.8032 87.136ZM60.2992 87.15C60.2992 86.5713 60.1825 86.0673 59.9492 85.638C59.7158 85.2087 59.3985 84.882 58.9972 84.658C58.6052 84.4247 58.1712 84.308 57.6952 84.308C57.2192 84.308 56.7852 84.42 56.3932 84.644C56.0012 84.868 55.6885 85.1947 55.4552 85.624C55.2218 86.0533 55.1052 86.5573 55.1052 87.136C55.1052 87.724 55.2218 88.2373 55.4552 88.676C55.6885 89.1053 56.0012 89.4367 56.3932 89.67C56.7852 89.894 57.2192 90.006 57.6952 90.006C58.1712 90.006 58.6052 89.894 58.9972 89.67C59.3985 89.4367 59.7158 89.1053 59.9492 88.676C60.1825 88.2373 60.2992 87.7287 60.2992 87.15ZM68.1305 82.082C67.8879 82.082 67.6825 81.998 67.5145 81.83C67.3465 81.662 67.2625 81.4567 67.2625 81.214C67.2625 80.9713 67.3465 80.766 67.5145 80.598C67.6825 80.43 67.8879 80.346 68.1305 80.346C68.3639 80.346 68.5599 80.43 68.7185 80.598C68.8865 80.766 68.9705 80.9713 68.9705 81.214C68.9705 81.4567 68.8865 81.662 68.7185 81.83C68.5599 81.998 68.3639 82.082 68.1305 82.082ZM68.7465 83.328V91H67.4725V83.328H68.7465ZM73.6338 91.126C73.0458 91.126 72.5185 91.028 72.0518 90.832C71.5852 90.6267 71.2165 90.3467 70.9458 89.992C70.6752 89.628 70.5258 89.2127 70.4978 88.746H71.8138C71.8512 89.1287 72.0285 89.4413 72.3458 89.684C72.6725 89.9267 73.0972 90.048 73.6198 90.048C74.1052 90.048 74.4878 89.9407 74.7678 89.726C75.0478 89.5113 75.1878 89.2407 75.1878 88.914C75.1878 88.578 75.0385 88.3307 74.7398 88.172C74.4412 88.004 73.9792 87.8407 73.3538 87.682C72.7845 87.5327 72.3178 87.3833 71.9538 87.234C71.5992 87.0753 71.2912 86.8467 71.0298 86.548C70.7778 86.24 70.6518 85.8387 70.6518 85.344C70.6518 84.952 70.7685 84.5927 71.0018 84.266C71.2352 83.9393 71.5665 83.6827 71.9958 83.496C72.4252 83.3 72.9152 83.202 73.4658 83.202C74.3152 83.202 75.0012 83.4167 75.5238 83.846C76.0465 84.2753 76.3265 84.8633 76.3638 85.61H75.0898C75.0618 85.2087 74.8985 84.8867 74.5998 84.644C74.3105 84.4013 73.9185 84.28 73.4238 84.28C72.9665 84.28 72.6025 84.378 72.3318 84.574C72.0612 84.77 71.9258 85.0267 71.9258 85.344C71.9258 85.596 72.0052 85.806 72.1638 85.974C72.3318 86.1327 72.5372 86.2633 72.7798 86.366C73.0318 86.4593 73.3772 86.5667 73.8158 86.688C74.3665 86.8373 74.8145 86.9867 75.1598 87.136C75.5052 87.276 75.7992 87.4907 76.0418 87.78C76.2938 88.0693 76.4245 88.4473 76.4338 88.914C76.4338 89.334 76.3172 89.712 76.0838 90.048C75.8505 90.384 75.5192 90.65 75.0898 90.846C74.6698 91.0327 74.1845 91.126 73.6338 91.126ZM83.2387 84.574C83.4627 84.1353 83.7801 83.7947 84.1907 83.552C84.6107 83.3093 85.1194 83.188 85.7167 83.188V84.504H85.3807C83.9527 84.504 83.2387 85.2787 83.2387 86.828V91H81.9647V83.328H83.2387V84.574ZM94.1874 86.87C94.1874 87.1127 94.1734 87.3693 94.1454 87.64H88.0134C88.06 88.396 88.3167 88.9887 88.7834 89.418C89.2594 89.838 89.8334 90.048 90.5054 90.048C91.056 90.048 91.5134 89.922 91.8774 89.67C92.2507 89.4087 92.512 89.0633 92.6614 88.634H94.0334C93.828 89.3713 93.4174 89.9733 92.8014 90.44C92.1854 90.8973 91.42 91.126 90.5054 91.126C89.7774 91.126 89.124 90.9627 88.5454 90.636C87.976 90.3093 87.528 89.8473 87.2014 89.25C86.8747 88.6433 86.7114 87.9433 86.7114 87.15C86.7114 86.3567 86.87 85.6613 87.1874 85.064C87.5047 84.4667 87.948 84.0093 88.5174 83.692C89.096 83.3653 89.7587 83.202 90.5054 83.202C91.2334 83.202 91.8774 83.3607 92.4374 83.678C92.9974 83.9953 93.4267 84.434 93.7254 84.994C94.0334 85.5447 94.1874 86.17 94.1874 86.87ZM92.8714 86.604C92.8714 86.1187 92.764 85.7033 92.5494 85.358C92.3347 85.0033 92.0407 84.7373 91.6674 84.56C91.3034 84.3733 90.8974 84.28 90.4494 84.28C89.8054 84.28 89.2547 84.4853 88.7974 84.896C88.3494 85.3067 88.0927 85.876 88.0274 86.604H92.8714ZM95.393 87.136C95.393 86.352 95.5517 85.666 95.869 85.078C96.1863 84.4807 96.6203 84.0187 97.171 83.692C97.731 83.3653 98.3563 83.202 99.047 83.202C99.7097 83.202 100.288 83.3513 100.783 83.65C101.287 83.9393 101.656 84.2987 101.889 84.728V83.328H103.177V94.64H101.889V89.586C101.646 90.0153 101.273 90.3793 100.769 90.678C100.265 90.9767 99.677 91.126 99.005 91.126C98.333 91.126 97.7217 90.958 97.171 90.622C96.6203 90.286 96.1863 89.8147 95.869 89.208C95.5517 88.6013 95.393 87.9107 95.393 87.136ZM101.889 87.15C101.889 86.5713 101.772 86.0673 101.539 85.638C101.306 85.2087 100.988 84.882 100.587 84.658C100.195 84.4247 99.761 84.308 99.285 84.308C98.809 84.308 98.375 84.42 97.983 84.644C97.591 84.868 97.2783 85.1947 97.045 85.624C96.8117 86.0533 96.695 86.5573 96.695 87.136C96.695 87.724 96.8117 88.2373 97.045 88.676C97.2783 89.1053 97.591 89.4367 97.983 89.67C98.375 89.894 98.809 90.006 99.285 90.006C99.761 90.006 100.195 89.894 100.587 89.67C100.988 89.4367 101.306 89.1053 101.539 88.676C101.772 88.2373 101.889 87.7287 101.889 87.15ZM112.134 83.328V91H110.86V89.866C110.617 90.258 110.277 90.566 109.838 90.79C109.409 91.0047 108.933 91.112 108.41 91.112C107.813 91.112 107.276 90.9907 106.8 90.748C106.324 90.496 105.946 90.1227 105.666 89.628C105.395 89.1333 105.26 88.5313 105.26 87.822V83.328H106.52V87.654C106.52 88.41 106.711 88.9933 107.094 89.404C107.477 89.8053 107.999 90.006 108.662 90.006C109.343 90.006 109.88 89.796 110.272 89.376C110.664 88.956 110.86 88.3447 110.86 87.542V83.328H112.134ZM114.943 82.082C114.7 82.082 114.495 81.998 114.327 81.83C114.159 81.662 114.075 81.4567 114.075 81.214C114.075 80.9713 114.159 80.766 114.327 80.598C114.495 80.43 114.7 80.346 114.943 80.346C115.176 80.346 115.372 80.43 115.531 80.598C115.699 80.766 115.783 80.9713 115.783 81.214C115.783 81.4567 115.699 81.662 115.531 81.83C115.372 81.998 115.176 82.082 114.943 82.082ZM115.559 83.328V91H114.285V83.328H115.559ZM119.004 84.574C119.228 84.1353 119.546 83.7947 119.956 83.552C120.376 83.3093 120.885 83.188 121.482 83.188V84.504H121.146C119.718 84.504 119.004 85.2787 119.004 86.828V91H117.73V83.328H119.004V84.574ZM129.953 86.87C129.953 87.1127 129.939 87.3693 129.911 87.64H123.779C123.826 88.396 124.082 88.9887 124.549 89.418C125.025 89.838 125.599 90.048 126.271 90.048C126.822 90.048 127.279 89.922 127.643 89.67C128.016 89.4087 128.278 89.0633 128.427 88.634H129.799C129.594 89.3713 129.183 89.9733 128.567 90.44C127.951 90.8973 127.186 91.126 126.271 91.126C125.543 91.126 124.89 90.9627 124.311 90.636C123.742 90.3093 123.294 89.8473 122.967 89.25C122.64 88.6433 122.477 87.9433 122.477 87.15C122.477 86.3567 122.636 85.6613 122.953 85.064C123.27 84.4667 123.714 84.0093 124.283 83.692C124.862 83.3653 125.524 83.202 126.271 83.202C126.999 83.202 127.643 83.3607 128.203 83.678C128.763 83.9953 129.192 84.434 129.491 84.994C129.799 85.5447 129.953 86.17 129.953 86.87ZM128.637 86.604C128.637 86.1187 128.53 85.7033 128.315 85.358C128.1 85.0033 127.806 84.7373 127.433 84.56C127.069 84.3733 126.663 84.28 126.215 84.28C125.571 84.28 125.02 84.4853 124.563 84.896C124.115 85.3067 123.858 85.876 123.793 86.604H128.637ZM131.159 87.136C131.159 86.352 131.317 85.666 131.635 85.078C131.952 84.4807 132.386 84.0187 132.937 83.692C133.497 83.3653 134.122 83.202 134.813 83.202C135.41 83.202 135.965 83.342 136.479 83.622C136.992 83.8927 137.384 84.252 137.655 84.7V80.64H138.943V91H137.655V89.558C137.403 90.0153 137.029 90.3933 136.535 90.692C136.04 90.9813 135.461 91.126 134.799 91.126C134.117 91.126 133.497 90.958 132.937 90.622C132.386 90.286 131.952 89.8147 131.635 89.208C131.317 88.6013 131.159 87.9107 131.159 87.136ZM137.655 87.15C137.655 86.5713 137.538 86.0673 137.305 85.638C137.071 85.2087 136.754 84.882 136.353 84.658C135.961 84.4247 135.527 84.308 135.051 84.308C134.575 84.308 134.141 84.42 133.749 84.644C133.357 84.868 133.044 85.1947 132.811 85.624C132.577 86.0533 132.461 86.5573 132.461 87.136C132.461 87.724 132.577 88.2373 132.811 88.676C133.044 89.1053 133.357 89.4367 133.749 89.67C134.141 89.894 134.575 90.006 135.051 90.006C135.527 90.006 135.961 89.894 136.353 89.67C136.754 89.4367 137.071 89.1053 137.305 88.676C137.538 88.2373 137.655 87.7287 137.655 87.15Z" fill="#FF0000"/>
<defs>
<filter id="filter0_d_1170_7367" x="0" y="25" width="356" height="48" filterUnits="userSpaceOnUse" color-interpolation-filters="sRGB">
<feFlood flood-opacity="0" result="BackgroundImageFix"/>
<feColorMatrix in="SourceAlpha" type="matrix" values="0 0 0 0 0 0 0 0 0 0 0 0 0 0 0 0 0 0 127 0" result="hardAlpha"/>
<feOffset dy="1"/>
<feGaussianBlur stdDeviation="1"/>
<feColorMatrix type="matrix" values="0 0 0 0 0.0627451 0 0 0 0 0.0941176 0 0 0 0 0.156863 0 0 0 0.05 0"/>
<feBlend mode="normal" in2="BackgroundImageFix" result="effect1_dropShadow_1170_7367"/>
<feBlend mode="normal" in="SourceGraphic" in2="effect1_dropShadow_1170_7367" result="shape"/>
</filter>
</defs>
</svg>
