<svg width="558" height="68" viewBox="0 0 558 68" fill="none" xmlns="http://www.w3.org/2000/svg">
<g filter="url(#filter0_dd_1168_7229)">
<path d="M11.752 13H10.384L6.268 6.772V13H4.9V4.648H6.268L10.384 10.864V4.648H11.752V13ZM13.0924 9.664C13.0924 9 13.2284 8.412 13.5004 7.9C13.7804 7.388 14.1564 6.992 14.6284 6.712C15.1084 6.424 15.6364 6.28 16.2124 6.28C16.7324 6.28 17.1844 6.384 17.5684 6.592C17.9604 6.792 18.2724 7.044 18.5044 7.348V6.388H19.8844V13H18.5044V12.016C18.2724 12.328 17.9564 12.588 17.5564 12.796C17.1564 13.004 16.7004 13.108 16.1884 13.108C15.6204 13.108 15.1004 12.964 14.6284 12.676C14.1564 12.38 13.7804 11.972 13.5004 11.452C13.2284 10.924 13.0924 10.328 13.0924 9.664ZM18.5044 9.688C18.5044 9.232 18.4084 8.836 18.2164 8.5C18.0324 8.164 17.7884 7.908 17.4844 7.732C17.1804 7.556 16.8524 7.468 16.5004 7.468C16.1484 7.468 15.8204 7.556 15.5164 7.732C15.2124 7.9 14.9644 8.152 14.7724 8.488C14.5884 8.816 14.4964 9.208 14.4964 9.664C14.4964 10.12 14.5884 10.52 14.7724 10.864C14.9644 11.208 15.2124 11.472 15.5164 11.656C15.8284 11.832 16.1564 11.92 16.5004 11.92C16.8524 11.92 17.1804 11.832 17.4844 11.656C17.7884 11.48 18.0324 11.224 18.2164 10.888C18.4084 10.544 18.5044 10.144 18.5044 9.688ZM29.6853 6.28C30.2053 6.28 30.6693 6.388 31.0773 6.604C31.4933 6.82 31.8173 7.14 32.0493 7.564C32.2893 7.988 32.4093 8.5 32.4093 9.1V13H31.0533V9.304C31.0533 8.712 30.9053 8.26 30.6093 7.948C30.3133 7.628 29.9093 7.468 29.3973 7.468C28.8853 7.468 28.4773 7.628 28.1733 7.948C27.8773 8.26 27.7293 8.712 27.7293 9.304V13H26.3733V9.304C26.3733 8.712 26.2253 8.26 25.9293 7.948C25.6333 7.628 25.2293 7.468 24.7173 7.468C24.2053 7.468 23.7973 7.628 23.4933 7.948C23.1973 8.26 23.0493 8.712 23.0493 9.304V13H21.6813V6.388H23.0493V7.144C23.2733 6.872 23.5573 6.66 23.9013 6.508C24.2453 6.356 24.6133 6.28 25.0053 6.28C25.5333 6.28 26.0053 6.392 26.4213 6.616C26.8373 6.84 27.1573 7.164 27.3813 7.588C27.5813 7.188 27.8933 6.872 28.3173 6.64C28.7413 6.4 29.1973 6.28 29.6853 6.28ZM40.21 9.532C40.21 9.78 40.194 10.004 40.162 10.204H35.11C35.15 10.732 35.346 11.156 35.698 11.476C36.05 11.796 36.482 11.956 36.994 11.956C37.73 11.956 38.25 11.648 38.554 11.032H40.03C39.83 11.64 39.466 12.14 38.938 12.532C38.418 12.916 37.77 13.108 36.994 13.108C36.362 13.108 35.794 12.968 35.29 12.688C34.794 12.4 34.402 12 34.114 11.488C33.834 10.968 33.694 10.368 33.694 9.688C33.694 9.008 33.83 8.412 34.102 7.9C34.382 7.38 34.77 6.98 35.266 6.7C35.77 6.42 36.346 6.28 36.994 6.28C37.618 6.28 38.174 6.416 38.662 6.688C39.15 6.96 39.53 7.344 39.802 7.84C40.074 8.328 40.21 8.892 40.21 9.532ZM38.782 9.1C38.774 8.596 38.594 8.192 38.242 7.888C37.89 7.584 37.454 7.432 36.934 7.432C36.462 7.432 36.058 7.584 35.722 7.888C35.386 8.184 35.186 8.588 35.122 9.1H38.782Z" fill="#666666"/>
<g filter="url(#filter1_d_1168_7229)">
<rect x="4" y="24" width="550" height="40" rx="8" fill="white"/>
<rect x="4.5" y="24.5" width="549" height="39" rx="7.5" stroke="#D0D5DD"/>
<path d="M28.976 39.312V49H27.702V41.776L24.482 49H23.586L20.352 41.762V49H19.078V39.312H20.45L24.034 47.32L27.618 39.312H28.976ZM30.6606 45.136C30.6606 44.352 30.8193 43.666 31.1366 43.078C31.4539 42.4807 31.8879 42.0187 32.4386 41.692C32.9986 41.3653 33.6193 41.202 34.3006 41.202C34.9726 41.202 35.5559 41.3467 36.0506 41.636C36.5453 41.9253 36.9139 42.2893 37.1566 42.728V41.328H38.4446V49H37.1566V47.572C36.9046 48.02 36.5266 48.3933 36.0226 48.692C35.5279 48.9813 34.9493 49.126 34.2866 49.126C33.6053 49.126 32.9893 48.958 32.4386 48.622C31.8879 48.286 31.4539 47.8147 31.1366 47.208C30.8193 46.6013 30.6606 45.9107 30.6606 45.136ZM37.1566 45.15C37.1566 44.5713 37.0399 44.0673 36.8066 43.638C36.5733 43.2087 36.2559 42.882 35.8546 42.658C35.4626 42.4247 35.0286 42.308 34.5526 42.308C34.0766 42.308 33.6426 42.42 33.2506 42.644C32.8586 42.868 32.5459 43.1947 32.3126 43.624C32.0793 44.0533 31.9626 44.5573 31.9626 45.136C31.9626 45.724 32.0793 46.2373 32.3126 46.676C32.5459 47.1053 32.8586 47.4367 33.2506 47.67C33.6426 47.894 34.0766 48.006 34.5526 48.006C35.0286 48.006 35.4626 47.894 35.8546 47.67C36.2559 47.4367 36.5733 47.1053 36.8066 46.676C37.0399 46.2373 37.1566 45.7287 37.1566 45.15ZM43.3135 49.126C42.7255 49.126 42.1982 49.028 41.7315 48.832C41.2649 48.6267 40.8962 48.3467 40.6255 47.992C40.3549 47.628 40.2055 47.2127 40.1775 46.746H41.4935C41.5309 47.1287 41.7082 47.4413 42.0255 47.684C42.3522 47.9267 42.7769 48.048 43.2995 48.048C43.7849 48.048 44.1675 47.9407 44.4475 47.726C44.7275 47.5113 44.8675 47.2407 44.8675 46.914C44.8675 46.578 44.7182 46.3307 44.4195 46.172C44.1209 46.004 43.6589 45.8407 43.0335 45.682C42.4642 45.5327 41.9975 45.3833 41.6335 45.234C41.2789 45.0753 40.9709 44.8467 40.7095 44.548C40.4575 44.24 40.3315 43.8387 40.3315 43.344C40.3315 42.952 40.4482 42.5927 40.6815 42.266C40.9149 41.9393 41.2462 41.6827 41.6755 41.496C42.1049 41.3 42.5949 41.202 43.1455 41.202C43.9949 41.202 44.6809 41.4167 45.2035 41.846C45.7262 42.2753 46.0062 42.8633 46.0435 43.61H44.7695C44.7415 43.2087 44.5782 42.8867 44.2795 42.644C43.9902 42.4013 43.5982 42.28 43.1035 42.28C42.6462 42.28 42.2822 42.378 42.0115 42.574C41.7409 42.77 41.6055 43.0267 41.6055 43.344C41.6055 43.596 41.6849 43.806 41.8435 43.974C42.0115 44.1327 42.2169 44.2633 42.4595 44.366C42.7115 44.4593 43.0569 44.5667 43.4955 44.688C44.0462 44.8373 44.4942 44.9867 44.8395 45.136C45.1849 45.276 45.4789 45.4907 45.7215 45.78C45.9735 46.0693 46.1042 46.4473 46.1135 46.914C46.1135 47.334 45.9969 47.712 45.7635 48.048C45.5302 48.384 45.1989 48.65 44.7695 48.846C44.3495 49.0327 43.8642 49.126 43.3135 49.126ZM50.628 49.126C50.04 49.126 49.5127 49.028 49.046 48.832C48.5793 48.6267 48.2107 48.3467 47.94 47.992C47.6693 47.628 47.52 47.2127 47.492 46.746H48.808C48.8453 47.1287 49.0227 47.4413 49.34 47.684C49.6667 47.9267 50.0913 48.048 50.614 48.048C51.0993 48.048 51.482 47.9407 51.762 47.726C52.042 47.5113 52.182 47.2407 52.182 46.914C52.182 46.578 52.0327 46.3307 51.734 46.172C51.4353 46.004 50.9733 45.8407 50.348 45.682C49.7787 45.5327 49.312 45.3833 48.948 45.234C48.5933 45.0753 48.2853 44.8467 48.024 44.548C47.772 44.24 47.646 43.8387 47.646 43.344C47.646 42.952 47.7627 42.5927 47.996 42.266C48.2293 41.9393 48.5607 41.6827 48.99 41.496C49.4193 41.3 49.9093 41.202 50.46 41.202C51.3093 41.202 51.9953 41.4167 52.518 41.846C53.0407 42.2753 53.3207 42.8633 53.358 43.61H52.084C52.056 43.2087 51.8927 42.8867 51.594 42.644C51.3047 42.4013 50.9127 42.28 50.418 42.28C49.9607 42.28 49.5967 42.378 49.326 42.574C49.0553 42.77 48.92 43.0267 48.92 43.344C48.92 43.596 48.9993 43.806 49.158 43.974C49.326 44.1327 49.5313 44.2633 49.774 44.366C50.026 44.4593 50.3713 44.5667 50.81 44.688C51.3607 44.8373 51.8087 44.9867 52.154 45.136C52.4993 45.276 52.7933 45.4907 53.036 45.78C53.288 46.0693 53.4187 46.4473 53.428 46.914C53.428 47.334 53.3113 47.712 53.078 48.048C52.8447 48.384 52.5133 48.65 52.084 48.846C51.664 49.0327 51.1787 49.126 50.628 49.126ZM54.7504 45.136C54.7504 44.352 54.9091 43.666 55.2264 43.078C55.5438 42.4807 55.9778 42.0187 56.5284 41.692C57.0884 41.3653 57.7091 41.202 58.3904 41.202C59.0624 41.202 59.6458 41.3467 60.1404 41.636C60.6351 41.9253 61.0038 42.2893 61.2464 42.728V41.328H62.5344V49H61.2464V47.572C60.9944 48.02 60.6164 48.3933 60.1124 48.692C59.6178 48.9813 59.0391 49.126 58.3764 49.126C57.6951 49.126 57.0791 48.958 56.5284 48.622C55.9778 48.286 55.5438 47.8147 55.2264 47.208C54.9091 46.6013 54.7504 45.9107 54.7504 45.136ZM61.2464 45.15C61.2464 44.5713 61.1298 44.0673 60.8964 43.638C60.6631 43.2087 60.3458 42.882 59.9444 42.658C59.5524 42.4247 59.1184 42.308 58.6424 42.308C58.1664 42.308 57.7324 42.42 57.3404 42.644C56.9484 42.868 56.6358 43.1947 56.4024 43.624C56.1691 44.0533 56.0524 44.5573 56.0524 45.136C56.0524 45.724 56.1691 46.2373 56.4024 46.676C56.6358 47.1053 56.9484 47.4367 57.3404 47.67C57.7324 47.894 58.1664 48.006 58.6424 48.006C59.1184 48.006 59.5524 47.894 59.9444 47.67C60.3458 47.4367 60.6631 47.1053 60.8964 46.676C61.1298 46.2373 61.2464 45.7287 61.2464 45.15ZM64.2114 45.15C64.2114 44.3567 64.37 43.666 64.6874 43.078C65.0047 42.4807 65.4434 42.0187 66.0034 41.692C66.5727 41.3653 67.2214 41.202 67.9494 41.202C68.892 41.202 69.6667 41.4307 70.2734 41.888C70.8894 42.3453 71.2954 42.98 71.4914 43.792H70.1194C69.9887 43.3253 69.732 42.9567 69.3494 42.686C68.976 42.4153 68.5094 42.28 67.9494 42.28C67.2214 42.28 66.6334 42.532 66.1854 43.036C65.7374 43.5307 65.5134 44.2353 65.5134 45.15C65.5134 46.074 65.7374 46.788 66.1854 47.292C66.6334 47.796 67.2214 48.048 67.9494 48.048C68.5094 48.048 68.976 47.9173 69.3494 47.656C69.7227 47.3947 69.9794 47.0213 70.1194 46.536H71.4914C71.286 47.32 70.8754 47.95 70.2594 48.426C69.6434 48.8927 68.8734 49.126 67.9494 49.126C67.2214 49.126 66.5727 48.9627 66.0034 48.636C65.4434 48.3093 65.0047 47.8473 64.6874 47.25C64.37 46.6527 64.2114 45.9527 64.2114 45.15ZM76.9993 41.188C77.5779 41.188 78.1006 41.314 78.5673 41.566C79.0339 41.8087 79.3979 42.1773 79.6593 42.672C79.9299 43.1667 80.0653 43.7687 80.0653 44.478V49H78.8053V44.66C78.8053 43.8947 78.6139 43.3113 78.2313 42.91C77.8486 42.4993 77.3259 42.294 76.6633 42.294C75.9913 42.294 75.4546 42.504 75.0533 42.924C74.6613 43.344 74.4653 43.9553 74.4653 44.758V49H73.1913V38.64H74.4653V42.42C74.7173 42.028 75.0626 41.7247 75.5013 41.51C75.9493 41.2953 76.4486 41.188 76.9993 41.188ZM88.9504 41.328V49H87.6764V47.866C87.4337 48.258 87.093 48.566 86.6544 48.79C86.225 49.0047 85.749 49.112 85.2264 49.112C84.629 49.112 84.0924 48.9907 83.6164 48.748C83.1404 48.496 82.7624 48.1227 82.4824 47.628C82.2117 47.1333 82.0764 46.5313 82.0764 45.822V41.328H83.3364V45.654C83.3364 46.41 83.5277 46.9933 83.9104 47.404C84.293 47.8053 84.8157 48.006 85.4784 48.006C86.1597 48.006 86.6964 47.796 87.0884 47.376C87.4804 46.956 87.6764 46.3447 87.6764 45.542V41.328H88.9504ZM93.8174 49.126C93.2294 49.126 92.7021 49.028 92.2354 48.832C91.7688 48.6267 91.4001 48.3467 91.1294 47.992C90.8588 47.628 90.7094 47.2127 90.6814 46.746H91.9974C92.0348 47.1287 92.2121 47.4413 92.5294 47.684C92.8561 47.9267 93.2808 48.048 93.8034 48.048C94.2888 48.048 94.6714 47.9407 94.9514 47.726C95.2314 47.5113 95.3714 47.2407 95.3714 46.914C95.3714 46.578 95.2221 46.3307 94.9234 46.172C94.6248 46.004 94.1628 45.8407 93.5374 45.682C92.9681 45.5327 92.5014 45.3833 92.1374 45.234C91.7828 45.0753 91.4748 44.8467 91.2134 44.548C90.9614 44.24 90.8354 43.8387 90.8354 43.344C90.8354 42.952 90.9521 42.5927 91.1854 42.266C91.4188 41.9393 91.7501 41.6827 92.1794 41.496C92.6088 41.3 93.0988 41.202 93.6494 41.202C94.4988 41.202 95.1848 41.4167 95.7074 41.846C96.2301 42.2753 96.5101 42.8633 96.5474 43.61H95.2734C95.2454 43.2087 95.0821 42.8867 94.7834 42.644C94.4941 42.4013 94.1021 42.28 93.6074 42.28C93.1501 42.28 92.7861 42.378 92.5154 42.574C92.2448 42.77 92.1094 43.0267 92.1094 43.344C92.1094 43.596 92.1888 43.806 92.3474 43.974C92.5154 44.1327 92.7208 44.2633 92.9634 44.366C93.2154 44.4593 93.5608 44.5667 93.9994 44.688C94.5501 44.8373 94.9981 44.9867 95.3434 45.136C95.6888 45.276 95.9828 45.4907 96.2254 45.78C96.4774 46.0693 96.6081 46.4473 96.6174 46.914C96.6174 47.334 96.5008 47.712 96.2674 48.048C96.0341 48.384 95.7028 48.65 95.2734 48.846C94.8534 49.0327 94.3681 49.126 93.8174 49.126ZM105.416 44.87C105.416 45.1127 105.402 45.3693 105.374 45.64H99.2419C99.2886 46.396 99.5452 46.9887 100.012 47.418C100.488 47.838 101.062 48.048 101.734 48.048C102.285 48.048 102.742 47.922 103.106 47.67C103.479 47.4087 103.741 47.0633 103.89 46.634H105.262C105.057 47.3713 104.646 47.9733 104.03 48.44C103.414 48.8973 102.649 49.126 101.734 49.126C101.006 49.126 100.353 48.9627 99.7739 48.636C99.2046 48.3093 98.7566 47.8473 98.4299 47.25C98.1032 46.6433 97.9399 45.9433 97.9399 45.15C97.9399 44.3567 98.0986 43.6613 98.4159 43.064C98.7332 42.4667 99.1766 42.0093 99.7459 41.692C100.325 41.3653 100.987 41.202 101.734 41.202C102.462 41.202 103.106 41.3607 103.666 41.678C104.226 41.9953 104.655 42.434 104.954 42.994C105.262 43.5447 105.416 44.17 105.416 44.87ZM104.1 44.604C104.1 44.1187 103.993 43.7033 103.778 43.358C103.563 43.0033 103.269 42.7373 102.896 42.56C102.532 42.3733 102.126 42.28 101.678 42.28C101.034 42.28 100.483 42.4853 100.026 42.896C99.5779 43.3067 99.3212 43.876 99.2559 44.604H104.1ZM108.652 42.378V46.9C108.652 47.2733 108.731 47.5393 108.89 47.698C109.048 47.8473 109.324 47.922 109.716 47.922H110.654V49H109.506C108.796 49 108.264 48.8367 107.91 48.51C107.555 48.1833 107.378 47.6467 107.378 46.9V42.378H106.384V41.328H107.378V39.396H108.652V41.328H110.654V42.378H108.652ZM113.751 42.378V46.9C113.751 47.2733 113.83 47.5393 113.989 47.698C114.148 47.8473 114.423 47.922 114.815 47.922H115.753V49H114.605C113.896 49 113.364 48.8367 113.009 48.51C112.654 48.1833 112.477 47.6467 112.477 46.9V42.378H111.483V41.328H112.477V39.396H113.751V41.328H115.753V42.378H113.751ZM120.013 49.126C119.425 49.126 118.897 49.028 118.431 48.832C117.964 48.6267 117.595 48.3467 117.325 47.992C117.054 47.628 116.905 47.2127 116.877 46.746H118.193C118.23 47.1287 118.407 47.4413 118.725 47.684C119.051 47.9267 119.476 48.048 119.999 48.048C120.484 48.048 120.867 47.9407 121.147 47.726C121.427 47.5113 121.567 47.2407 121.567 46.914C121.567 46.578 121.417 46.3307 121.119 46.172C120.82 46.004 120.358 45.8407 119.733 45.682C119.163 45.5327 118.697 45.3833 118.333 45.234C117.978 45.0753 117.67 44.8467 117.409 44.548C117.157 44.24 117.031 43.8387 117.031 43.344C117.031 42.952 117.147 42.5927 117.381 42.266C117.614 41.9393 117.945 41.6827 118.375 41.496C118.804 41.3 119.294 41.202 119.845 41.202C120.694 41.202 121.38 41.4167 121.903 41.846C122.425 42.2753 122.705 42.8633 122.743 43.61H121.469C121.441 43.2087 121.277 42.8867 120.979 42.644C120.689 42.4013 120.297 42.28 119.803 42.28C119.345 42.28 118.981 42.378 118.711 42.574C118.44 42.77 118.305 43.0267 118.305 43.344C118.305 43.596 118.384 43.806 118.543 43.974C118.711 44.1327 118.916 44.2633 119.159 44.366C119.411 44.4593 119.756 44.5667 120.195 44.688C120.745 44.8373 121.193 44.9867 121.539 45.136C121.884 45.276 122.178 45.4907 122.421 45.78C122.673 46.0693 122.803 46.4473 122.813 46.914C122.813 47.334 122.696 47.712 122.463 48.048C122.229 48.384 121.898 48.65 121.469 48.846C121.049 49.0327 120.563 49.126 120.013 49.126ZM134.868 42.098C134.868 42.91 134.588 43.5867 134.028 44.128C133.477 44.66 132.632 44.926 131.494 44.926H129.618V49H128.344V39.242H131.494C132.595 39.242 133.43 39.508 134 40.04C134.578 40.572 134.868 41.258 134.868 42.098ZM131.494 43.876C132.203 43.876 132.726 43.722 133.062 43.414C133.398 43.106 133.566 42.6673 133.566 42.098C133.566 40.894 132.875 40.292 131.494 40.292H129.618V43.876H131.494ZM135.975 45.136C135.975 44.352 136.134 43.666 136.451 43.078C136.768 42.4807 137.202 42.0187 137.753 41.692C138.313 41.3653 138.934 41.202 139.615 41.202C140.287 41.202 140.87 41.3467 141.365 41.636C141.86 41.9253 142.228 42.2893 142.471 42.728V41.328H143.759V49H142.471V47.572C142.219 48.02 141.841 48.3933 141.337 48.692C140.842 48.9813 140.264 49.126 139.601 49.126C138.92 49.126 138.304 48.958 137.753 48.622C137.202 48.286 136.768 47.8147 136.451 47.208C136.134 46.6013 135.975 45.9107 135.975 45.136ZM142.471 45.15C142.471 44.5713 142.354 44.0673 142.121 43.638C141.888 43.2087 141.57 42.882 141.169 42.658C140.777 42.4247 140.343 42.308 139.867 42.308C139.391 42.308 138.957 42.42 138.565 42.644C138.173 42.868 137.86 43.1947 137.627 43.624C137.394 44.0533 137.277 44.5573 137.277 45.136C137.277 45.724 137.394 46.2373 137.627 46.676C137.86 47.1053 138.173 47.4367 138.565 47.67C138.957 47.894 139.391 48.006 139.867 48.006C140.343 48.006 140.777 47.894 141.169 47.67C141.57 47.4367 141.888 47.1053 142.121 46.676C142.354 46.2373 142.471 45.7287 142.471 45.15ZM146.57 40.082C146.327 40.082 146.122 39.998 145.954 39.83C145.786 39.662 145.702 39.4567 145.702 39.214C145.702 38.9713 145.786 38.766 145.954 38.598C146.122 38.43 146.327 38.346 146.57 38.346C146.803 38.346 146.999 38.43 147.158 38.598C147.326 38.766 147.41 38.9713 147.41 39.214C147.41 39.4567 147.326 39.662 147.158 39.83C146.999 39.998 146.803 40.082 146.57 40.082ZM147.186 41.328V49H145.912V41.328H147.186ZM148.881 45.136C148.881 44.352 149.04 43.666 149.357 43.078C149.675 42.4807 150.109 42.0187 150.659 41.692C151.219 41.3653 151.845 41.202 152.535 41.202C153.133 41.202 153.688 41.342 154.201 41.622C154.715 41.8927 155.107 42.252 155.377 42.7V38.64H156.665V49H155.377V47.558C155.125 48.0153 154.752 48.3933 154.257 48.692C153.763 48.9813 153.184 49.126 152.521 49.126C151.84 49.126 151.219 48.958 150.659 48.622C150.109 48.286 149.675 47.8147 149.357 47.208C149.04 46.6013 148.881 45.9107 148.881 45.136ZM155.377 45.15C155.377 44.5713 155.261 44.0673 155.027 43.638C154.794 43.2087 154.477 42.882 154.075 42.658C153.683 42.4247 153.249 42.308 152.773 42.308C152.297 42.308 151.863 42.42 151.471 42.644C151.079 42.868 150.767 43.1947 150.533 43.624C150.3 44.0533 150.183 44.5573 150.183 45.136C150.183 45.724 150.3 46.2373 150.533 46.676C150.767 47.1053 151.079 47.4367 151.471 47.67C151.863 47.894 152.297 48.006 152.773 48.006C153.249 48.006 153.683 47.894 154.075 47.67C154.477 47.4367 154.794 47.1053 155.027 46.676C155.261 46.2373 155.377 45.7287 155.377 45.15ZM168.067 39.242V40.278H163.825V43.568H167.269V44.604H163.825V49H162.551V39.242H168.067ZM169.129 45.136C169.129 44.352 169.288 43.666 169.605 43.078C169.923 42.4807 170.357 42.0187 170.907 41.692C171.467 41.3653 172.088 41.202 172.769 41.202C173.441 41.202 174.025 41.3467 174.519 41.636C175.014 41.9253 175.383 42.2893 175.625 42.728V41.328H176.913V49H175.625V47.572C175.373 48.02 174.995 48.3933 174.491 48.692C173.997 48.9813 173.418 49.126 172.755 49.126C172.074 49.126 171.458 48.958 170.907 48.622C170.357 48.286 169.923 47.8147 169.605 47.208C169.288 46.6013 169.129 45.9107 169.129 45.136ZM175.625 45.15C175.625 44.5713 175.509 44.0673 175.275 43.638C175.042 43.2087 174.725 42.882 174.323 42.658C173.931 42.4247 173.497 42.308 173.021 42.308C172.545 42.308 172.111 42.42 171.719 42.644C171.327 42.868 171.015 43.1947 170.781 43.624C170.548 44.0533 170.431 44.5573 170.431 45.136C170.431 45.724 170.548 46.2373 170.781 46.676C171.015 47.1053 171.327 47.4367 171.719 47.67C172.111 47.894 172.545 48.006 173.021 48.006C173.497 48.006 173.931 47.894 174.323 47.67C174.725 47.4367 175.042 47.1053 175.275 46.676C175.509 46.2373 175.625 45.7287 175.625 45.15ZM188.292 41.188C188.89 41.188 189.422 41.314 189.888 41.566C190.355 41.8087 190.724 42.1773 190.994 42.672C191.265 43.1667 191.4 43.7687 191.4 44.478V49H190.14V44.66C190.14 43.8947 189.949 43.3113 189.566 42.91C189.193 42.4993 188.684 42.294 188.04 42.294C187.378 42.294 186.85 42.5087 186.458 42.938C186.066 43.358 185.87 43.9693 185.87 44.772V49H184.61V44.66C184.61 43.8947 184.419 43.3113 184.036 42.91C183.663 42.4993 183.154 42.294 182.51 42.294C181.848 42.294 181.32 42.5087 180.928 42.938C180.536 43.358 180.34 43.9693 180.34 44.772V49H179.066V41.328H180.34V42.434C180.592 42.0327 180.928 41.7247 181.348 41.51C181.778 41.2953 182.249 41.188 182.762 41.188C183.406 41.188 183.976 41.3327 184.47 41.622C184.965 41.9113 185.334 42.336 185.576 42.896C185.791 42.3547 186.146 41.9347 186.64 41.636C187.135 41.3373 187.686 41.188 188.292 41.188ZM194.148 40.082C193.905 40.082 193.7 39.998 193.532 39.83C193.364 39.662 193.28 39.4567 193.28 39.214C193.28 38.9713 193.364 38.766 193.532 38.598C193.7 38.43 193.905 38.346 194.148 38.346C194.381 38.346 194.577 38.43 194.736 38.598C194.904 38.766 194.988 38.9713 194.988 39.214C194.988 39.4567 194.904 39.662 194.736 39.83C194.577 39.998 194.381 40.082 194.148 40.082ZM194.764 41.328V49H193.49V41.328H194.764ZM198.209 38.64V49H196.935V38.64H198.209ZM206.989 41.328L202.369 52.612H201.053L202.565 48.916L199.471 41.328H200.885L203.293 47.544L205.673 41.328H206.989ZM219.492 49L218.218 47.712C217.742 48.2067 217.233 48.5753 216.692 48.818C216.15 49.0513 215.539 49.168 214.858 49.168C214.186 49.168 213.588 49.0467 213.066 48.804C212.552 48.5613 212.151 48.216 211.862 47.768C211.582 47.32 211.442 46.7973 211.442 46.2C211.442 45.5187 211.633 44.9213 212.016 44.408C212.408 43.8853 212.982 43.4747 213.738 43.176C213.439 42.8213 213.224 42.4947 213.094 42.196C212.963 41.8973 212.898 41.5707 212.898 41.216C212.898 40.8053 213 40.4367 213.206 40.11C213.42 39.774 213.724 39.5127 214.116 39.326C214.508 39.1393 214.96 39.046 215.474 39.046C215.978 39.046 216.416 39.144 216.79 39.34C217.163 39.536 217.443 39.8113 217.63 40.166C217.816 40.5113 217.9 40.8987 217.882 41.328H216.608C216.617 40.9453 216.51 40.6467 216.286 40.432C216.062 40.208 215.772 40.096 215.418 40.096C215.044 40.096 214.741 40.2033 214.508 40.418C214.284 40.6233 214.172 40.8893 214.172 41.216C214.172 41.496 214.246 41.7667 214.396 42.028C214.554 42.2893 214.816 42.6113 215.18 42.994L218.092 45.92L218.344 45.528L219.296 43.932H220.668L219.52 45.92C219.361 46.2 219.174 46.494 218.96 46.802L221.158 49H219.492ZM214.858 48.076C215.362 48.076 215.814 47.978 216.216 47.782C216.626 47.586 217.014 47.2827 217.378 46.872L214.508 43.988C213.313 44.4453 212.716 45.1687 212.716 46.158C212.716 46.7087 212.912 47.166 213.304 47.53C213.705 47.894 214.223 48.076 214.858 48.076ZM235.982 39.312V49H234.708V41.776L231.488 49H230.592L227.358 41.762V49H226.084V39.312H227.456L231.04 47.32L234.624 39.312H235.982ZM245.142 44.87C245.142 45.1127 245.128 45.3693 245.1 45.64H238.968C239.015 46.396 239.272 46.9887 239.738 47.418C240.214 47.838 240.788 48.048 241.46 48.048C242.011 48.048 242.468 47.922 242.832 47.67C243.206 47.4087 243.467 47.0633 243.616 46.634H244.988C244.783 47.3713 244.372 47.9733 243.756 48.44C243.14 48.8973 242.375 49.126 241.46 49.126C240.732 49.126 240.079 48.9627 239.5 48.636C238.931 48.3093 238.483 47.8473 238.156 47.25C237.83 46.6433 237.666 45.9433 237.666 45.15C237.666 44.3567 237.825 43.6613 238.142 43.064C238.46 42.4667 238.903 42.0093 239.472 41.692C240.051 41.3653 240.714 41.202 241.46 41.202C242.188 41.202 242.832 41.3607 243.392 41.678C243.952 41.9953 244.382 42.434 244.68 42.994C244.988 43.5447 245.142 44.17 245.142 44.87ZM243.826 44.604C243.826 44.1187 243.719 43.7033 243.504 43.358C243.29 43.0033 242.996 42.7373 242.622 42.56C242.258 42.3733 241.852 42.28 241.404 42.28C240.76 42.28 240.21 42.4853 239.752 42.896C239.304 43.3067 239.048 43.876 238.982 44.604H243.826ZM246.348 45.136C246.348 44.352 246.507 43.666 246.824 43.078C247.141 42.4807 247.575 42.0187 248.126 41.692C248.686 41.3653 249.311 41.202 250.002 41.202C250.599 41.202 251.155 41.342 251.668 41.622C252.181 41.8927 252.573 42.252 252.844 42.7V38.64H254.132V49H252.844V47.558C252.592 48.0153 252.219 48.3933 251.724 48.692C251.229 48.9813 250.651 49.126 249.988 49.126C249.307 49.126 248.686 48.958 248.126 48.622C247.575 48.286 247.141 47.8147 246.824 47.208C246.507 46.6013 246.348 45.9107 246.348 45.136ZM252.844 45.15C252.844 44.5713 252.727 44.0673 252.494 43.638C252.261 43.2087 251.943 42.882 251.542 42.658C251.15 42.4247 250.716 42.308 250.24 42.308C249.764 42.308 249.33 42.42 248.938 42.644C248.546 42.868 248.233 43.1947 248 43.624C247.767 44.0533 247.65 44.5573 247.65 45.136C247.65 45.724 247.767 46.2373 248 46.676C248.233 47.1053 248.546 47.4367 248.938 47.67C249.33 47.894 249.764 48.006 250.24 48.006C250.716 48.006 251.15 47.894 251.542 47.67C251.943 47.4367 252.261 47.1053 252.494 46.676C252.727 46.2373 252.844 45.7287 252.844 45.15ZM256.943 40.082C256.7 40.082 256.495 39.998 256.327 39.83C256.159 39.662 256.075 39.4567 256.075 39.214C256.075 38.9713 256.159 38.766 256.327 38.598C256.495 38.43 256.7 38.346 256.943 38.346C257.176 38.346 257.372 38.43 257.531 38.598C257.699 38.766 257.783 38.9713 257.783 39.214C257.783 39.4567 257.699 39.662 257.531 39.83C257.372 39.998 257.176 40.082 256.943 40.082ZM257.559 41.328V49H256.285V41.328H257.559ZM259.254 45.15C259.254 44.3567 259.413 43.666 259.73 43.078C260.048 42.4807 260.486 42.0187 261.046 41.692C261.616 41.3653 262.264 41.202 262.992 41.202C263.935 41.202 264.71 41.4307 265.316 41.888C265.932 42.3453 266.338 42.98 266.534 43.792H265.162C265.032 43.3253 264.775 42.9567 264.392 42.686C264.019 42.4153 263.552 42.28 262.992 42.28C262.264 42.28 261.676 42.532 261.228 43.036C260.78 43.5307 260.556 44.2353 260.556 45.15C260.556 46.074 260.78 46.788 261.228 47.292C261.676 47.796 262.264 48.048 262.992 48.048C263.552 48.048 264.019 47.9173 264.392 47.656C264.766 47.3947 265.022 47.0213 265.162 46.536H266.534C266.329 47.32 265.918 47.95 265.302 48.426C264.686 48.8927 263.916 49.126 262.992 49.126C262.264 49.126 261.616 48.9627 261.046 48.636C260.486 48.3093 260.048 47.8473 259.73 47.25C259.413 46.6527 259.254 45.9527 259.254 45.15ZM267.758 45.136C267.758 44.352 267.917 43.666 268.234 43.078C268.552 42.4807 268.986 42.0187 269.536 41.692C270.096 41.3653 270.717 41.202 271.398 41.202C272.07 41.202 272.654 41.3467 273.148 41.636C273.643 41.9253 274.012 42.2893 274.254 42.728V41.328H275.542V49H274.254V47.572C274.002 48.02 273.624 48.3933 273.12 48.692C272.626 48.9813 272.047 49.126 271.384 49.126C270.703 49.126 270.087 48.958 269.536 48.622C268.986 48.286 268.552 47.8147 268.234 47.208C267.917 46.6013 267.758 45.9107 267.758 45.136ZM274.254 45.15C274.254 44.5713 274.138 44.0673 273.904 43.638C273.671 43.2087 273.354 42.882 272.952 42.658C272.56 42.4247 272.126 42.308 271.65 42.308C271.174 42.308 270.74 42.42 270.348 42.644C269.956 42.868 269.644 43.1947 269.41 43.624C269.177 44.0533 269.06 44.5573 269.06 45.136C269.06 45.724 269.177 46.2373 269.41 46.676C269.644 47.1053 269.956 47.4367 270.348 47.67C270.74 47.894 271.174 48.006 271.65 48.006C272.126 48.006 272.56 47.894 272.952 47.67C273.354 47.4367 273.671 47.1053 273.904 46.676C274.138 46.2373 274.254 45.7287 274.254 45.15ZM278.969 38.64V49H277.695V38.64H278.969ZM286.147 47.964H289.563V49H284.873V39.242H286.147V47.964ZM297.916 44.87C297.916 45.1127 297.902 45.3693 297.874 45.64H291.742C291.789 46.396 292.045 46.9887 292.512 47.418C292.988 47.838 293.562 48.048 294.234 48.048C294.785 48.048 295.242 47.922 295.606 47.67C295.979 47.4087 296.241 47.0633 296.39 46.634H297.762C297.557 47.3713 297.146 47.9733 296.53 48.44C295.914 48.8973 295.149 49.126 294.234 49.126C293.506 49.126 292.853 48.9627 292.274 48.636C291.705 48.3093 291.257 47.8473 290.93 47.25C290.603 46.6433 290.44 45.9433 290.44 45.15C290.44 44.3567 290.599 43.6613 290.916 43.064C291.233 42.4667 291.677 42.0093 292.246 41.692C292.825 41.3653 293.487 41.202 294.234 41.202C294.962 41.202 295.606 41.3607 296.166 41.678C296.726 41.9953 297.155 42.434 297.454 42.994C297.762 43.5447 297.916 44.17 297.916 44.87ZM296.6 44.604C296.6 44.1187 296.493 43.7033 296.278 43.358C296.063 43.0033 295.769 42.7373 295.396 42.56C295.032 42.3733 294.626 42.28 294.178 42.28C293.534 42.28 292.983 42.4853 292.526 42.896C292.078 43.3067 291.821 43.876 291.756 44.604H296.6ZM299.122 45.136C299.122 44.352 299.28 43.666 299.598 43.078C299.915 42.4807 300.349 42.0187 300.9 41.692C301.46 41.3653 302.08 41.202 302.762 41.202C303.434 41.202 304.017 41.3467 304.512 41.636C305.006 41.9253 305.375 42.2893 305.618 42.728V41.328H306.906V49H305.618V47.572C305.366 48.02 304.988 48.3933 304.484 48.692C303.989 48.9813 303.41 49.126 302.748 49.126C302.066 49.126 301.45 48.958 300.9 48.622C300.349 48.286 299.915 47.8147 299.598 47.208C299.28 46.6013 299.122 45.9107 299.122 45.136ZM305.618 45.15C305.618 44.5713 305.501 44.0673 305.268 43.638C305.034 43.2087 304.717 42.882 304.316 42.658C303.924 42.4247 303.49 42.308 303.014 42.308C302.538 42.308 302.104 42.42 301.712 42.644C301.32 42.868 301.007 43.1947 300.774 43.624C300.54 44.0533 300.424 44.5573 300.424 45.136C300.424 45.724 300.54 46.2373 300.774 46.676C301.007 47.1053 301.32 47.4367 301.712 47.67C302.104 47.894 302.538 48.006 303.014 48.006C303.49 48.006 303.924 47.894 304.316 47.67C304.717 47.4367 305.034 47.1053 305.268 46.676C305.501 46.2373 305.618 45.7287 305.618 45.15ZM311.914 47.824L314.294 41.328H315.652L312.642 49H311.158L308.148 41.328H309.52L311.914 47.824ZM323.906 44.87C323.906 45.1127 323.892 45.3693 323.864 45.64H317.732C317.779 46.396 318.035 46.9887 318.502 47.418C318.978 47.838 319.552 48.048 320.224 48.048C320.775 48.048 321.232 47.922 321.596 47.67C321.969 47.4087 322.231 47.0633 322.38 46.634H323.752C323.547 47.3713 323.136 47.9733 322.52 48.44C321.904 48.8973 321.139 49.126 320.224 49.126C319.496 49.126 318.843 48.9627 318.264 48.636C317.695 48.3093 317.247 47.8473 316.92 47.25C316.593 46.6433 316.43 45.9433 316.43 45.15C316.43 44.3567 316.589 43.6613 316.906 43.064C317.223 42.4667 317.667 42.0093 318.236 41.692C318.815 41.3653 319.477 41.202 320.224 41.202C320.952 41.202 321.596 41.3607 322.156 41.678C322.716 41.9953 323.145 42.434 323.444 42.994C323.752 43.5447 323.906 44.17 323.906 44.87ZM322.59 44.604C322.59 44.1187 322.483 43.7033 322.268 43.358C322.053 43.0033 321.759 42.7373 321.386 42.56C321.022 42.3733 320.616 42.28 320.168 42.28C319.524 42.28 318.973 42.4853 318.516 42.896C318.068 43.3067 317.811 43.876 317.746 44.604H322.59Z" fill="black"/>
</g>
</g>
<defs>
<filter id="filter0_dd_1168_7229" x="0" y="-4" width="558" height="72" filterUnits="userSpaceOnUse" color-interpolation-filters="sRGB">
<feFlood flood-opacity="0" result="BackgroundImageFix"/>
<feColorMatrix in="SourceAlpha" type="matrix" values="0 0 0 0 0 0 0 0 0 0 0 0 0 0 0 0 0 0 127 0" result="hardAlpha"/>
<feMorphology radius="4" operator="dilate" in="SourceAlpha" result="effect1_dropShadow_1168_7229"/>
<feOffset/>
<feColorMatrix type="matrix" values="0 0 0 0 0.997059 0 0 0 0 0.892745 0 0 0 0 0.885294 0 0 0 1 0"/>
<feBlend mode="normal" in2="BackgroundImageFix" result="effect1_dropShadow_1168_7229"/>
<feColorMatrix in="SourceAlpha" type="matrix" values="0 0 0 0 0 0 0 0 0 0 0 0 0 0 0 0 0 0 127 0" result="hardAlpha"/>
<feOffset dy="1"/>
<feGaussianBlur stdDeviation="1"/>
<feColorMatrix type="matrix" values="0 0 0 0 0.0627451 0 0 0 0 0.0941176 0 0 0 0 0.156863 0 0 0 0.05 0"/>
<feBlend mode="normal" in2="effect1_dropShadow_1168_7229" result="effect2_dropShadow_1168_7229"/>
<feBlend mode="normal" in="SourceGraphic" in2="effect2_dropShadow_1168_7229" result="shape"/>
</filter>
<filter id="filter1_d_1168_7229" x="2" y="23" width="554" height="44" filterUnits="userSpaceOnUse" color-interpolation-filters="sRGB">
<feFlood flood-opacity="0" result="BackgroundImageFix"/>
<feColorMatrix in="SourceAlpha" type="matrix" values="0 0 0 0 0 0 0 0 0 0 0 0 0 0 0 0 0 0 127 0" result="hardAlpha"/>
<feOffset dy="1"/>
<feGaussianBlur stdDeviation="1"/>
<feColorMatrix type="matrix" values="0 0 0 0 0.0627451 0 0 0 0 0.0941176 0 0 0 0 0.156863 0 0 0 0.05 0"/>
<feBlend mode="normal" in2="BackgroundImageFix" result="effect1_dropShadow_1168_7229"/>
<feBlend mode="normal" in="SourceGraphic" in2="effect1_dropShadow_1168_7229" result="shape"/>
</filter>
</defs>
</svg>
