<svg width="355" height="74" viewBox="0 0 355 74" fill="none" xmlns="http://www.w3.org/2000/svg">
<g filter="url(#filter0_dd_1168_2606)">
<path d="M6.646 6.558V9.414H10.006V10.716H6.646V13.698H10.426V15H5.05V5.256H10.426V6.558H6.646ZM21.7298 7.16C22.3365 7.16 22.8778 7.286 23.3538 7.538C23.8391 7.79 24.2171 8.16333 24.4878 8.658C24.7678 9.15267 24.9078 9.75 24.9078 10.45V15H23.3258V10.688C23.3258 9.99733 23.1531 9.47 22.8078 9.106C22.4625 8.73267 21.9911 8.546 21.3938 8.546C20.7965 8.546 20.3205 8.73267 19.9658 9.106C19.6205 9.47 19.4478 9.99733 19.4478 10.688V15H17.8658V10.688C17.8658 9.99733 17.6931 9.47 17.3478 9.106C17.0025 8.73267 16.5311 8.546 15.9338 8.546C15.3365 8.546 14.8605 8.73267 14.5058 9.106C14.1605 9.47 13.9878 9.99733 13.9878 10.688V15H12.3918V7.286H13.9878V8.168C14.2491 7.85067 14.5805 7.60333 14.9818 7.426C15.3831 7.24867 15.8125 7.16 16.2698 7.16C16.8858 7.16 17.4365 7.29067 17.9218 7.552C18.4071 7.81333 18.7805 8.19133 19.0418 8.686C19.2751 8.21933 19.6391 7.85067 20.1338 7.58C20.6285 7.3 21.1605 7.16 21.7298 7.16ZM26.4067 11.108C26.4067 10.3333 26.5653 9.64733 26.8827 9.05C27.2093 8.45267 27.648 7.99067 28.1987 7.664C28.7587 7.328 29.3747 7.16 30.0467 7.16C30.6533 7.16 31.1807 7.28133 31.6287 7.524C32.086 7.75733 32.45 8.05133 32.7207 8.406V7.286H34.3307V15H32.7207V13.852C32.45 14.216 32.0813 14.5193 31.6147 14.762C31.148 15.0047 30.616 15.126 30.0187 15.126C29.356 15.126 28.7493 14.958 28.1987 14.622C27.648 14.2767 27.2093 13.8007 26.8827 13.194C26.5653 12.578 26.4067 11.8827 26.4067 11.108ZM32.7207 11.136C32.7207 10.604 32.6087 10.142 32.3847 9.75C32.17 9.358 31.8853 9.05933 31.5307 8.854C31.176 8.64867 30.7933 8.546 30.3827 8.546C29.972 8.546 29.5893 8.64867 29.2347 8.854C28.88 9.05 28.5907 9.344 28.3667 9.736C28.152 10.1187 28.0447 10.576 28.0447 11.108C28.0447 11.64 28.152 12.1067 28.3667 12.508C28.5907 12.9093 28.88 13.2173 29.2347 13.432C29.5987 13.6373 29.9813 13.74 30.3827 13.74C30.7933 13.74 31.176 13.6373 31.5307 13.432C31.8853 13.2267 32.17 12.928 32.3847 12.536C32.6087 12.1347 32.7207 11.668 32.7207 11.136ZM37.239 6.264C36.9496 6.264 36.707 6.166 36.511 5.97C36.315 5.774 36.217 5.53133 36.217 5.242C36.217 4.95267 36.315 4.71 36.511 4.514C36.707 4.318 36.9496 4.22 37.239 4.22C37.519 4.22 37.757 4.318 37.953 4.514C38.149 4.71 38.247 4.95267 38.247 5.242C38.247 5.53133 38.149 5.774 37.953 5.97C37.757 6.166 37.519 6.264 37.239 6.264ZM38.023 7.286V15H36.427V7.286H38.023ZM41.7144 4.64V15H40.1184V4.64H41.7144Z" fill="#344054"/>
<g filter="url(#filter1_d_1168_2606)">
<rect x="4" y="26" width="347" height="44" rx="8" fill="white"/>
<rect x="4.5" y="26.5" width="346" height="43" rx="7.5" stroke="#D0D5DD"/>
<path d="M28 48.8333L27.5221 49.516C27.8091 49.7169 28.191 49.7169 28.4779 49.516L28 48.8333ZM21.3334 42.1667H34.6667V40.5H21.3334V42.1667ZM34.6667 42.1667C35.1231 42.1667 35.5 42.5436 35.5 43H37.1667C37.1667 41.6231 36.0436 40.5 34.6667 40.5V42.1667ZM35.5 43V53H37.1667V43H35.5ZM35.5 53C35.5 53.4564 35.1231 53.8333 34.6667 53.8333V55.5C36.0436 55.5 37.1667 54.3769 37.1667 53H35.5ZM34.6667 53.8333H21.3334V55.5H34.6667V53.8333ZM21.3334 53.8333C20.8769 53.8333 20.5 53.4564 20.5 53H18.8334C18.8334 54.3769 19.9564 55.5 21.3334 55.5V53.8333ZM20.5 53V43H18.8334V53H20.5ZM20.5 43C20.5 42.5436 20.8769 42.1667 21.3334 42.1667V40.5C19.9564 40.5 18.8334 41.6231 18.8334 43H20.5ZM35.8555 42.3173L27.5221 48.1507L28.4779 49.516L36.8112 43.6827L35.8555 42.3173ZM28.4779 48.1507L20.1446 42.3173L19.1888 43.6827L27.5221 49.516L28.4779 48.1507Z" fill="#475467"/>
<path d="M48.688 44.032V47.76H52.752V48.96H48.688V52.8H53.232V54H47.232V42.832H53.232V44.032H48.688ZM59.7071 45.072C60.7738 45.072 61.6378 45.3973 62.2991 46.048C62.9605 46.688 63.2911 47.616 63.2911 48.832V54H61.8511V49.04C61.8511 48.1653 61.6325 47.4987 61.1951 47.04C60.7578 46.5707 60.1605 46.336 59.4031 46.336C58.6351 46.336 58.0218 46.576 57.5631 47.056C57.1151 47.536 56.8911 48.2347 56.8911 49.152V54H55.4351V45.232H56.8911V46.48C57.1791 46.032 57.5685 45.6853 58.0591 45.44C58.5605 45.1947 59.1098 45.072 59.7071 45.072ZM67.4455 46.432V51.6C67.4455 52.0267 67.5362 52.3307 67.7175 52.512C67.8988 52.6827 68.2135 52.768 68.6615 52.768H69.7335V54H68.4215C67.6108 54 67.0028 53.8133 66.5975 53.44C66.1922 53.0667 65.9895 52.4533 65.9895 51.6V46.432H64.8535V45.232H65.9895V43.024H67.4455V45.232H69.7335V46.432H67.4455ZM79.4976 49.28C79.4976 49.5573 79.4816 49.8507 79.4496 50.16H72.4416C72.495 51.024 72.7883 51.7013 73.3216 52.192C73.8656 52.672 74.5216 52.912 75.2896 52.912C75.919 52.912 76.4416 52.768 76.8576 52.48C77.2843 52.1813 77.583 51.7867 77.7536 51.296H79.3216C79.087 52.1387 78.6176 52.8267 77.9136 53.36C77.2096 53.8827 76.335 54.144 75.2896 54.144C74.4576 54.144 73.711 53.9573 73.0496 53.584C72.399 53.2107 71.887 52.6827 71.5136 52C71.1403 51.3067 70.9536 50.5067 70.9536 49.6C70.9536 48.6933 71.135 47.8987 71.4976 47.216C71.8603 46.5333 72.367 46.0107 73.0176 45.648C73.679 45.2747 74.4363 45.088 75.2896 45.088C76.1216 45.088 76.8576 45.2693 77.4976 45.632C78.1376 45.9947 78.6283 46.496 78.9696 47.136C79.3216 47.7653 79.4976 48.48 79.4976 49.28ZM77.9936 48.976C77.9936 48.4213 77.871 47.9467 77.6256 47.552C77.3803 47.1467 77.0443 46.8427 76.6176 46.64C76.2016 46.4267 75.7376 46.32 75.2256 46.32C74.4896 46.32 73.8603 46.5547 73.3376 47.024C72.8256 47.4933 72.5323 48.144 72.4576 48.976H77.9936ZM82.8755 46.656C83.1315 46.1547 83.4942 45.7653 83.9635 45.488C84.4435 45.2107 85.0248 45.072 85.7075 45.072V46.576H85.3235C83.6915 46.576 82.8755 47.4613 82.8755 49.232V54H81.4195V45.232H82.8755V46.656ZM99.2059 45.232L93.9259 58.128H92.4219L94.1499 53.904L90.6139 45.232H92.2299L94.9819 52.336L97.7019 45.232H99.2059ZM104.494 54.144C103.672 54.144 102.926 53.9573 102.254 53.584C101.592 53.2107 101.07 52.6827 100.686 52C100.312 51.3067 100.126 50.5067 100.126 49.6C100.126 48.704 100.318 47.9147 100.702 47.232C101.096 46.5387 101.63 46.0107 102.302 45.648C102.974 45.2747 103.726 45.088 104.558 45.088C105.39 45.088 106.142 45.2747 106.814 45.648C107.486 46.0107 108.014 46.5333 108.398 47.216C108.792 47.8987 108.99 48.6933 108.99 49.6C108.99 50.5067 108.787 51.3067 108.382 52C107.987 52.6827 107.448 53.2107 106.766 53.584C106.083 53.9573 105.326 54.144 104.494 54.144ZM104.494 52.864C105.016 52.864 105.507 52.7413 105.966 52.496C106.424 52.2507 106.792 51.8827 107.07 51.392C107.358 50.9013 107.502 50.304 107.502 49.6C107.502 48.896 107.363 48.2987 107.086 47.808C106.808 47.3173 106.446 46.9547 105.998 46.72C105.55 46.4747 105.064 46.352 104.542 46.352C104.008 46.352 103.518 46.4747 103.07 46.72C102.632 46.9547 102.28 47.3173 102.014 47.808C101.747 48.2987 101.614 48.896 101.614 49.6C101.614 50.3147 101.742 50.9173 101.998 51.408C102.264 51.8987 102.616 52.2667 103.054 52.512C103.491 52.7467 103.971 52.864 104.494 52.864ZM118.68 45.232V54H117.224V52.704C116.947 53.152 116.557 53.504 116.056 53.76C115.565 54.0053 115.021 54.128 114.424 54.128C113.741 54.128 113.128 53.9893 112.584 53.712C112.04 53.424 111.608 52.9973 111.288 52.432C110.979 51.8667 110.824 51.1787 110.824 50.368V45.232H112.264V50.176C112.264 51.04 112.483 51.7067 112.92 52.176C113.357 52.6347 113.955 52.864 114.712 52.864C115.491 52.864 116.104 52.624 116.552 52.144C117 51.664 117.224 50.9653 117.224 50.048V45.232H118.68ZM122.594 46.656C122.85 46.1547 123.213 45.7653 123.682 45.488C124.162 45.2107 124.744 45.072 125.426 45.072V46.576H125.042C123.41 46.576 122.594 47.4613 122.594 49.232V54H121.138V45.232H122.594V46.656ZM139.373 49.28C139.373 49.5573 139.357 49.8507 139.325 50.16H132.317C132.37 51.024 132.663 51.7013 133.197 52.192C133.741 52.672 134.397 52.912 135.165 52.912C135.794 52.912 136.317 52.768 136.733 52.48C137.159 52.1813 137.458 51.7867 137.629 51.296H139.197C138.962 52.1387 138.493 52.8267 137.789 53.36C137.085 53.8827 136.21 54.144 135.165 54.144C134.333 54.144 133.586 53.9573 132.925 53.584C132.274 53.2107 131.762 52.6827 131.389 52C131.015 51.3067 130.829 50.5067 130.829 49.6C130.829 48.6933 131.01 47.8987 131.373 47.216C131.735 46.5333 132.242 46.0107 132.893 45.648C133.554 45.2747 134.311 45.088 135.165 45.088C135.997 45.088 136.733 45.2693 137.373 45.632C138.013 45.9947 138.503 46.496 138.845 47.136C139.197 47.7653 139.373 48.48 139.373 49.28ZM137.869 48.976C137.869 48.4213 137.746 47.9467 137.501 47.552C137.255 47.1467 136.919 46.8427 136.493 46.64C136.077 46.4267 135.613 46.32 135.101 46.32C134.365 46.32 133.735 46.5547 133.213 47.024C132.701 47.4933 132.407 48.144 132.333 48.976H137.869ZM151.839 45.072C152.521 45.072 153.129 45.216 153.663 45.504C154.196 45.7813 154.617 46.2027 154.927 46.768C155.236 47.3333 155.391 48.0213 155.391 48.832V54H153.951V49.04C153.951 48.1653 153.732 47.4987 153.295 47.04C152.868 46.5707 152.287 46.336 151.551 46.336C150.793 46.336 150.191 46.5813 149.743 47.072C149.295 47.552 149.071 48.2507 149.071 49.168V54H147.631V49.04C147.631 48.1653 147.412 47.4987 146.975 47.04C146.548 46.5707 145.967 46.336 145.231 46.336C144.473 46.336 143.871 46.5813 143.423 47.072C142.975 47.552 142.751 48.2507 142.751 49.168V54H141.295V45.232H142.751V46.496C143.039 46.0373 143.423 45.6853 143.903 45.44C144.393 45.1947 144.932 45.072 145.519 45.072C146.255 45.072 146.905 45.2373 147.471 45.568C148.036 45.8987 148.457 46.384 148.735 47.024C148.98 46.4053 149.385 45.9253 149.951 45.584C150.516 45.2427 151.145 45.072 151.839 45.072ZM157.235 49.584C157.235 48.688 157.416 47.904 157.779 47.232C158.142 46.5493 158.638 46.0213 159.267 45.648C159.907 45.2747 160.616 45.088 161.395 45.088C162.163 45.088 162.83 45.2533 163.395 45.584C163.96 45.9147 164.382 46.3307 164.659 46.832V45.232H166.131V54H164.659V52.368C164.371 52.88 163.939 53.3067 163.363 53.648C162.798 53.9787 162.136 54.144 161.379 54.144C160.6 54.144 159.896 53.952 159.267 53.568C158.638 53.184 158.142 52.6453 157.779 51.952C157.416 51.2587 157.235 50.4693 157.235 49.584ZM164.659 49.6C164.659 48.9387 164.526 48.3627 164.259 47.872C163.992 47.3813 163.63 47.008 163.171 46.752C162.723 46.4853 162.227 46.352 161.683 46.352C161.139 46.352 160.643 46.48 160.195 46.736C159.747 46.992 159.39 47.3653 159.123 47.856C158.856 48.3467 158.723 48.9227 158.723 49.584C158.723 50.256 158.856 50.8427 159.123 51.344C159.39 51.8347 159.747 52.2133 160.195 52.48C160.643 52.736 161.139 52.864 161.683 52.864C162.227 52.864 162.723 52.736 163.171 52.48C163.63 52.2133 163.992 51.8347 164.259 51.344C164.526 50.8427 164.659 50.2613 164.659 49.6ZM169.343 43.808C169.066 43.808 168.831 43.712 168.639 43.52C168.447 43.328 168.351 43.0933 168.351 42.816C168.351 42.5387 168.447 42.304 168.639 42.112C168.831 41.92 169.066 41.824 169.343 41.824C169.61 41.824 169.834 41.92 170.015 42.112C170.207 42.304 170.303 42.5387 170.303 42.816C170.303 43.0933 170.207 43.328 170.015 43.52C169.834 43.712 169.61 43.808 169.343 43.808ZM170.047 45.232V54H168.591V45.232H170.047ZM173.985 42.16V54H172.529V42.16H173.985ZM185.084 45.072C185.745 45.072 186.343 45.216 186.876 45.504C187.409 45.7813 187.825 46.2027 188.124 46.768C188.433 47.3333 188.588 48.0213 188.588 48.832V54H187.148V49.04C187.148 48.1653 186.929 47.4987 186.492 47.04C186.055 46.5707 185.457 46.336 184.7 46.336C183.932 46.336 183.319 46.576 182.86 47.056C182.412 47.536 182.188 48.2347 182.188 49.152V54H180.732V42.16H182.188V46.48C182.476 46.032 182.871 45.6853 183.372 45.44C183.884 45.1947 184.455 45.072 185.084 45.072ZM198.966 49.28C198.966 49.5573 198.95 49.8507 198.918 50.16H191.91C191.964 51.024 192.257 51.7013 192.79 52.192C193.334 52.672 193.99 52.912 194.758 52.912C195.388 52.912 195.91 52.768 196.326 52.48C196.753 52.1813 197.052 51.7867 197.222 51.296H198.79C198.556 52.1387 198.086 52.8267 197.382 53.36C196.678 53.8827 195.804 54.144 194.758 54.144C193.926 54.144 193.18 53.9573 192.518 53.584C191.868 53.2107 191.356 52.6827 190.982 52C190.609 51.3067 190.422 50.5067 190.422 49.6C190.422 48.6933 190.604 47.8987 190.966 47.216C191.329 46.5333 191.836 46.0107 192.486 45.648C193.148 45.2747 193.905 45.088 194.758 45.088C195.59 45.088 196.326 45.2693 196.966 45.632C197.606 45.9947 198.097 46.496 198.438 47.136C198.79 47.7653 198.966 48.48 198.966 49.28ZM197.462 48.976C197.462 48.4213 197.34 47.9467 197.094 47.552C196.849 47.1467 196.513 46.8427 196.086 46.64C195.67 46.4267 195.206 46.32 194.694 46.32C193.958 46.32 193.329 46.5547 192.806 47.024C192.294 47.4933 192.001 48.144 191.926 48.976H197.462ZM202.344 46.656C202.6 46.1547 202.963 45.7653 203.432 45.488C203.912 45.2107 204.494 45.072 205.176 45.072V46.576H204.792C203.16 46.576 202.344 47.4613 202.344 49.232V54H200.888V45.232H202.344V46.656ZM214.857 49.28C214.857 49.5573 214.841 49.8507 214.809 50.16H207.801C207.854 51.024 208.148 51.7013 208.681 52.192C209.225 52.672 209.881 52.912 210.649 52.912C211.278 52.912 211.801 52.768 212.217 52.48C212.644 52.1813 212.942 51.7867 213.113 51.296H214.681C214.446 52.1387 213.977 52.8267 213.273 53.36C212.569 53.8827 211.694 54.144 210.649 54.144C209.817 54.144 209.07 53.9573 208.409 53.584C207.758 53.2107 207.246 52.6827 206.873 52C206.5 51.3067 206.313 50.5067 206.313 49.6C206.313 48.6933 206.494 47.8987 206.857 47.216C207.22 46.5333 207.726 46.0107 208.377 45.648C209.038 45.2747 209.796 45.088 210.649 45.088C211.481 45.088 212.217 45.2693 212.857 45.632C213.497 45.9947 213.988 46.496 214.329 47.136C214.681 47.7653 214.857 48.48 214.857 49.28ZM213.353 48.976C213.353 48.4213 213.23 47.9467 212.985 47.552C212.74 47.1467 212.404 46.8427 211.977 46.64C211.561 46.4267 211.097 46.32 210.585 46.32C209.849 46.32 209.22 46.5547 208.697 47.024C208.185 47.4933 207.892 48.144 207.817 48.976H213.353Z" fill="#475467"/>
</g>
</g>
<defs>
<filter id="filter0_dd_1168_2606" x="0" y="-4" width="355" height="78" filterUnits="userSpaceOnUse" color-interpolation-filters="sRGB">
<feFlood flood-opacity="0" result="BackgroundImageFix"/>
<feColorMatrix in="SourceAlpha" type="matrix" values="0 0 0 0 0 0 0 0 0 0 0 0 0 0 0 0 0 0 127 0" result="hardAlpha"/>
<feMorphology radius="4" operator="dilate" in="SourceAlpha" result="effect1_dropShadow_1168_2606"/>
<feOffset/>
<feColorMatrix type="matrix" values="0 0 0 0 0.997059 0 0 0 0 0.892745 0 0 0 0 0.885294 0 0 0 1 0"/>
<feBlend mode="normal" in2="BackgroundImageFix" result="effect1_dropShadow_1168_2606"/>
<feColorMatrix in="SourceAlpha" type="matrix" values="0 0 0 0 0 0 0 0 0 0 0 0 0 0 0 0 0 0 127 0" result="hardAlpha"/>
<feOffset dy="1"/>
<feGaussianBlur stdDeviation="1"/>
<feColorMatrix type="matrix" values="0 0 0 0 0.0627451 0 0 0 0 0.0941176 0 0 0 0 0.156863 0 0 0 0.05 0"/>
<feBlend mode="normal" in2="effect1_dropShadow_1168_2606" result="effect2_dropShadow_1168_2606"/>
<feBlend mode="normal" in="SourceGraphic" in2="effect2_dropShadow_1168_2606" result="shape"/>
</filter>
<filter id="filter1_d_1168_2606" x="2" y="25" width="351" height="48" filterUnits="userSpaceOnUse" color-interpolation-filters="sRGB">
<feFlood flood-opacity="0" result="BackgroundImageFix"/>
<feColorMatrix in="SourceAlpha" type="matrix" values="0 0 0 0 0 0 0 0 0 0 0 0 0 0 0 0 0 0 127 0" result="hardAlpha"/>
<feOffset dy="1"/>
<feGaussianBlur stdDeviation="1"/>
<feColorMatrix type="matrix" values="0 0 0 0 0.0627451 0 0 0 0 0.0941176 0 0 0 0 0.156863 0 0 0 0.05 0"/>
<feBlend mode="normal" in2="BackgroundImageFix" result="effect1_dropShadow_1168_2606"/>
<feBlend mode="normal" in="SourceGraphic" in2="effect1_dropShadow_1168_2606" result="shape"/>
</filter>
</defs>
</svg>
