<svg width="558" height="68" viewBox="0 0 558 68" fill="none" xmlns="http://www.w3.org/2000/svg">
<g filter="url(#filter0_dd_1168_7236)">
<path d="M4.444 8.812C4.444 7.996 4.632 7.264 5.008 6.616C5.392 5.968 5.908 5.464 6.556 5.104C7.212 4.736 7.928 4.552 8.704 4.552C9.592 4.552 10.38 4.772 11.068 5.212C11.764 5.644 12.268 6.26 12.58 7.06H10.936C10.72 6.62 10.42 6.292 10.036 6.076C9.652 5.86 9.208 5.752 8.704 5.752C8.152 5.752 7.66 5.876 7.228 6.124C6.796 6.372 6.456 6.728 6.208 7.192C5.968 7.656 5.848 8.196 5.848 8.812C5.848 9.428 5.968 9.968 6.208 10.432C6.456 10.896 6.796 11.256 7.228 11.512C7.66 11.76 8.152 11.884 8.704 11.884C9.208 11.884 9.652 11.776 10.036 11.56C10.42 11.344 10.72 11.016 10.936 10.576H12.58C12.268 11.376 11.764 11.992 11.068 12.424C10.38 12.856 9.592 13.072 8.704 13.072C7.92 13.072 7.204 12.892 6.556 12.532C5.908 12.164 5.392 11.656 5.008 11.008C4.632 10.36 4.444 9.628 4.444 8.812ZM17.0493 13.108C16.4253 13.108 15.8613 12.968 15.3573 12.688C14.8533 12.4 14.4573 12 14.1693 11.488C13.8813 10.968 13.7373 10.368 13.7373 9.688C13.7373 9.016 13.8853 8.42 14.1813 7.9C14.4773 7.38 14.8813 6.98 15.3933 6.7C15.9053 6.42 16.4773 6.28 17.1093 6.28C17.7413 6.28 18.3133 6.42 18.8253 6.7C19.3373 6.98 19.7413 7.38 20.0373 7.9C20.3333 8.42 20.4813 9.016 20.4813 9.688C20.4813 10.36 20.3293 10.956 20.0253 11.476C19.7213 11.996 19.3053 12.4 18.7773 12.688C18.2573 12.968 17.6813 13.108 17.0493 13.108ZM17.0493 11.92C17.4013 11.92 17.7293 11.836 18.0333 11.668C18.3453 11.5 18.5973 11.248 18.7893 10.912C18.9813 10.576 19.0773 10.168 19.0773 9.688C19.0773 9.208 18.9853 8.804 18.8013 8.476C18.6173 8.14 18.3733 7.888 18.0693 7.72C17.7653 7.552 17.4373 7.468 17.0853 7.468C16.7333 7.468 16.4053 7.552 16.1013 7.72C15.8053 7.888 15.5693 8.14 15.3933 8.476C15.2173 8.804 15.1293 9.208 15.1293 9.688C15.1293 10.4 15.3093 10.952 15.6693 11.344C16.0373 11.728 16.4973 11.92 17.0493 11.92ZM21.3776 9.664C21.3776 9 21.5136 8.412 21.7856 7.9C22.0656 7.388 22.4416 6.992 22.9136 6.712C23.3936 6.424 23.9256 6.28 24.5096 6.28C24.9416 6.28 25.3656 6.376 25.7816 6.568C26.2056 6.752 26.5416 7 26.7896 7.312V4.12H28.1696V13H26.7896V12.004C26.5656 12.324 26.2536 12.588 25.8536 12.796C25.4616 13.004 25.0096 13.108 24.4976 13.108C23.9216 13.108 23.3936 12.964 22.9136 12.676C22.4416 12.38 22.0656 11.972 21.7856 11.452C21.5136 10.924 21.3776 10.328 21.3776 9.664ZM26.7896 9.688C26.7896 9.232 26.6936 8.836 26.5016 8.5C26.3176 8.164 26.0736 7.908 25.7696 7.732C25.4656 7.556 25.1376 7.468 24.7856 7.468C24.4336 7.468 24.1056 7.556 23.8016 7.732C23.4976 7.9 23.2496 8.152 23.0576 8.488C22.8736 8.816 22.7816 9.208 22.7816 9.664C22.7816 10.12 22.8736 10.52 23.0576 10.864C23.2496 11.208 23.4976 11.472 23.8016 11.656C24.1136 11.832 24.4416 11.92 24.7856 11.92C25.1376 11.92 25.4656 11.832 25.7696 11.656C26.0736 11.48 26.3176 11.224 26.5016 10.888C26.6936 10.544 26.7896 10.144 26.7896 9.688ZM36.0264 9.532C36.0264 9.78 36.0104 10.004 35.9784 10.204H30.9264C30.9664 10.732 31.1624 11.156 31.5144 11.476C31.8664 11.796 32.2984 11.956 32.8104 11.956C33.5464 11.956 34.0664 11.648 34.3704 11.032H35.8464C35.6464 11.64 35.2824 12.14 34.7544 12.532C34.2344 12.916 33.5864 13.108 32.8104 13.108C32.1784 13.108 31.6104 12.968 31.1064 12.688C30.6104 12.4 30.2184 12 29.9304 11.488C29.6504 10.968 29.5104 10.368 29.5104 9.688C29.5104 9.008 29.6464 8.412 29.9184 7.9C30.1984 7.38 30.5864 6.98 31.0824 6.7C31.5864 6.42 32.1624 6.28 32.8104 6.28C33.4344 6.28 33.9904 6.416 34.4784 6.688C34.9664 6.96 35.3464 7.344 35.6184 7.84C35.8904 8.328 36.0264 8.892 36.0264 9.532ZM34.5984 9.1C34.5904 8.596 34.4104 8.192 34.0584 7.888C33.7064 7.584 33.2704 7.432 32.7504 7.432C32.2784 7.432 31.8744 7.584 31.5384 7.888C31.2024 8.184 31.0024 8.588 30.9384 9.1H34.5984Z" fill="#666666"/>
<g filter="url(#filter1_d_1168_7236)">
<rect x="4" y="24" width="550" height="40" rx="8" fill="#F2F4F7"/>
<rect x="4.5" y="24.5" width="549" height="39" rx="7.5" stroke="#D0D5DD"/>
<path d="M25.602 42.098C25.602 42.91 25.322 43.5867 24.762 44.128C24.2113 44.66 23.3667 44.926 22.228 44.926H20.352V49H19.078V39.242H22.228C23.3293 39.242 24.1647 39.508 24.734 40.04C25.3127 40.572 25.602 41.258 25.602 42.098ZM22.228 43.876C22.9373 43.876 23.46 43.722 23.796 43.414C24.132 43.106 24.3 42.6673 24.3 42.098C24.3 40.894 23.6093 40.292 22.228 40.292H20.352V43.876H22.228ZM32.7014 39.242V40.278H28.4594V43.568H31.9034V44.604H28.4594V49H27.1854V39.242H32.7014ZM39.5601 43.33V44.408H33.9741V43.33H39.5601ZM51.849 39.312V49H50.575V41.776L47.355 49H46.459L43.225 41.762V49H41.951V39.312H43.323L46.907 47.32L50.491 39.312H51.849ZM55.2836 47.964H58.6996V49H54.0096V39.242H55.2836V47.964Z" fill="#666666"/>
</g>
</g>
<defs>
<filter id="filter0_dd_1168_7236" x="0" y="-4" width="558" height="72" filterUnits="userSpaceOnUse" color-interpolation-filters="sRGB">
<feFlood flood-opacity="0" result="BackgroundImageFix"/>
<feColorMatrix in="SourceAlpha" type="matrix" values="0 0 0 0 0 0 0 0 0 0 0 0 0 0 0 0 0 0 127 0" result="hardAlpha"/>
<feMorphology radius="4" operator="dilate" in="SourceAlpha" result="effect1_dropShadow_1168_7236"/>
<feOffset/>
<feColorMatrix type="matrix" values="0 0 0 0 0.997059 0 0 0 0 0.892745 0 0 0 0 0.885294 0 0 0 1 0"/>
<feBlend mode="normal" in2="BackgroundImageFix" result="effect1_dropShadow_1168_7236"/>
<feColorMatrix in="SourceAlpha" type="matrix" values="0 0 0 0 0 0 0 0 0 0 0 0 0 0 0 0 0 0 127 0" result="hardAlpha"/>
<feOffset dy="1"/>
<feGaussianBlur stdDeviation="1"/>
<feColorMatrix type="matrix" values="0 0 0 0 0.0627451 0 0 0 0 0.0941176 0 0 0 0 0.156863 0 0 0 0.05 0"/>
<feBlend mode="normal" in2="effect1_dropShadow_1168_7236" result="effect2_dropShadow_1168_7236"/>
<feBlend mode="normal" in="SourceGraphic" in2="effect2_dropShadow_1168_7236" result="shape"/>
</filter>
<filter id="filter1_d_1168_7236" x="2" y="23" width="554" height="44" filterUnits="userSpaceOnUse" color-interpolation-filters="sRGB">
<feFlood flood-opacity="0" result="BackgroundImageFix"/>
<feColorMatrix in="SourceAlpha" type="matrix" values="0 0 0 0 0 0 0 0 0 0 0 0 0 0 0 0 0 0 127 0" result="hardAlpha"/>
<feOffset dy="1"/>
<feGaussianBlur stdDeviation="1"/>
<feColorMatrix type="matrix" values="0 0 0 0 0.0627451 0 0 0 0 0.0941176 0 0 0 0 0.156863 0 0 0 0.05 0"/>
<feBlend mode="normal" in2="BackgroundImageFix" result="effect1_dropShadow_1168_7236"/>
<feBlend mode="normal" in="SourceGraphic" in2="effect1_dropShadow_1168_7236" result="shape"/>
</filter>
</defs>
</svg>
