<svg width="356" height="96" viewBox="0 0 356 96" fill="none" xmlns="http://www.w3.org/2000/svg">
<path d="M9.854 8.168C9.854 8.66267 9.73733 9.12933 9.504 9.568C9.27067 10.0067 8.89733 10.366 8.384 10.646C7.87067 10.9167 7.21267 11.052 6.41 11.052H4.646V15H3.05V5.27H6.41C7.15667 5.27 7.78667 5.40067 8.3 5.662C8.82267 5.914 9.21 6.25933 9.462 6.698C9.72333 7.13667 9.854 7.62667 9.854 8.168ZM6.41 9.75C7.01667 9.75 7.46933 9.61467 7.768 9.344C8.06667 9.064 8.216 8.672 8.216 8.168C8.216 7.104 7.614 6.572 6.41 6.572H4.646V9.75H6.41ZM10.8442 11.108C10.8442 10.3333 11.0028 9.64733 11.3202 9.05C11.6468 8.45267 12.0855 7.99067 12.6362 7.664C13.1962 7.328 13.8122 7.16 14.4842 7.16C15.0908 7.16 15.6182 7.28133 16.0662 7.524C16.5235 7.75733 16.8875 8.05133 17.1582 8.406V7.286H18.7682V15H17.1582V13.852C16.8875 14.216 16.5188 14.5193 16.0522 14.762C15.5855 15.0047 15.0535 15.126 14.4562 15.126C13.7935 15.126 13.1868 14.958 12.6362 14.622C12.0855 14.2767 11.6468 13.8007 11.3202 13.194C11.0028 12.578 10.8442 11.8827 10.8442 11.108ZM17.1582 11.136C17.1582 10.604 17.0462 10.142 16.8222 9.75C16.6075 9.358 16.3228 9.05933 15.9682 8.854C15.6135 8.64867 15.2308 8.546 14.8202 8.546C14.4095 8.546 14.0268 8.64867 13.6722 8.854C13.3175 9.05 13.0282 9.344 12.8042 9.736C12.5895 10.1187 12.4822 10.576 12.4822 11.108C12.4822 11.64 12.5895 12.1067 12.8042 12.508C13.0282 12.9093 13.3175 13.2173 13.6722 13.432C14.0362 13.6373 14.4188 13.74 14.8202 13.74C15.2308 13.74 15.6135 13.6373 15.9682 13.432C16.3228 13.2267 16.6075 12.928 16.8222 12.536C17.0462 12.1347 17.1582 11.668 17.1582 11.136ZM23.6645 15.126C23.0578 15.126 22.5118 15.0187 22.0265 14.804C21.5505 14.58 21.1725 14.2813 20.8925 13.908C20.6125 13.5253 20.4631 13.1007 20.4445 12.634H22.0965C22.1245 12.9607 22.2785 13.236 22.5585 13.46C22.8478 13.6747 23.2071 13.782 23.6365 13.782C24.0845 13.782 24.4298 13.698 24.6725 13.53C24.9245 13.3527 25.0505 13.1287 25.0505 12.858C25.0505 12.5687 24.9105 12.354 24.6305 12.214C24.3598 12.074 23.9258 11.92 23.3285 11.752C22.7498 11.5933 22.2785 11.4393 21.9145 11.29C21.5505 11.1407 21.2331 10.912 20.9625 10.604C20.7011 10.296 20.5705 9.89 20.5705 9.386C20.5705 8.97533 20.6918 8.602 20.9345 8.266C21.1771 7.92067 21.5225 7.65 21.9705 7.454C22.4278 7.258 22.9505 7.16 23.5385 7.16C24.4158 7.16 25.1205 7.384 25.6525 7.832C26.1938 8.27067 26.4831 8.87267 26.5205 9.638H24.9245C24.8965 9.29267 24.7565 9.01733 24.5045 8.812C24.2525 8.60667 23.9118 8.504 23.4825 8.504C23.0625 8.504 22.7405 8.58333 22.5165 8.742C22.2925 8.90067 22.1805 9.11067 22.1805 9.372C22.1805 9.57733 22.2551 9.75 22.4045 9.89C22.5538 10.03 22.7358 10.142 22.9505 10.226C23.1651 10.3007 23.4825 10.3987 23.9025 10.52C24.4625 10.6693 24.9198 10.8233 25.2745 10.982C25.6385 11.1313 25.9511 11.3553 26.2125 11.654C26.4738 11.9527 26.6091 12.3493 26.6185 12.844C26.6185 13.2827 26.4971 13.6747 26.2545 14.02C26.0118 14.3653 25.6665 14.636 25.2185 14.832C24.7798 15.028 24.2618 15.126 23.6645 15.126ZM31.143 15.126C30.5363 15.126 29.9903 15.0187 29.505 14.804C29.029 14.58 28.651 14.2813 28.371 13.908C28.091 13.5253 27.9416 13.1007 27.923 12.634H29.575C29.603 12.9607 29.757 13.236 30.037 13.46C30.3263 13.6747 30.6856 13.782 31.115 13.782C31.563 13.782 31.9083 13.698 32.151 13.53C32.403 13.3527 32.529 13.1287 32.529 12.858C32.529 12.5687 32.389 12.354 32.109 12.214C31.8383 12.074 31.4043 11.92 30.807 11.752C30.2283 11.5933 29.757 11.4393 29.393 11.29C29.029 11.1407 28.7116 10.912 28.441 10.604C28.1796 10.296 28.049 9.89 28.049 9.386C28.049 8.97533 28.1703 8.602 28.413 8.266C28.6556 7.92067 29.001 7.65 29.449 7.454C29.9063 7.258 30.429 7.16 31.017 7.16C31.8943 7.16 32.599 7.384 33.131 7.832C33.6723 8.27067 33.9616 8.87267 33.999 9.638H32.403C32.375 9.29267 32.235 9.01733 31.983 8.812C31.731 8.60667 31.3903 8.504 30.961 8.504C30.541 8.504 30.219 8.58333 29.995 8.742C29.771 8.90067 29.659 9.11067 29.659 9.372C29.659 9.57733 29.7336 9.75 29.883 9.89C30.0323 10.03 30.2143 10.142 30.429 10.226C30.6436 10.3007 30.961 10.3987 31.381 10.52C31.941 10.6693 32.3983 10.8233 32.753 10.982C33.117 11.1313 33.4296 11.3553 33.691 11.654C33.9523 11.9527 34.0876 12.3493 34.097 12.844C34.097 13.2827 33.9756 13.6747 33.733 14.02C33.4903 14.3653 33.145 14.636 32.697 14.832C32.2583 15.028 31.7403 15.126 31.143 15.126ZM46.1815 7.286L43.7875 15H42.1075L40.5535 9.302L38.9995 15H37.3195L34.9115 7.286H36.5355L38.1455 13.488L39.7835 7.286H41.4495L43.0175 13.46L44.6135 7.286H46.1815ZM50.7202 15.126C49.9922 15.126 49.3342 14.9627 48.7462 14.636C48.1582 14.3 47.6962 13.8333 47.3602 13.236C47.0242 12.6293 46.8562 11.9293 46.8562 11.136C46.8562 10.352 47.0289 9.65667 47.3742 9.05C47.7196 8.44333 48.1909 7.97667 48.7882 7.65C49.3856 7.32333 50.0529 7.16 50.7902 7.16C51.5276 7.16 52.1949 7.32333 52.7922 7.65C53.3896 7.97667 53.8609 8.44333 54.2062 9.05C54.5516 9.65667 54.7242 10.352 54.7242 11.136C54.7242 11.92 54.5469 12.6153 54.1922 13.222C53.8376 13.8287 53.3522 14.3 52.7362 14.636C52.1296 14.9627 51.4576 15.126 50.7202 15.126ZM50.7202 13.74C51.1309 13.74 51.5136 13.642 51.8682 13.446C52.2322 13.25 52.5262 12.956 52.7502 12.564C52.9742 12.172 53.0862 11.696 53.0862 11.136C53.0862 10.576 52.9789 10.1047 52.7642 9.722C52.5496 9.33 52.2649 9.036 51.9102 8.84C51.5556 8.644 51.1729 8.546 50.7622 8.546C50.3516 8.546 49.9689 8.644 49.6142 8.84C49.2689 9.036 48.9936 9.33 48.7882 9.722C48.5829 10.1047 48.4802 10.576 48.4802 11.136C48.4802 11.9667 48.6902 12.6107 49.1102 13.068C49.5396 13.516 50.0762 13.74 50.7202 13.74ZM57.898 8.406C58.1313 8.014 58.4393 7.71067 58.822 7.496C59.214 7.272 59.676 7.16 60.208 7.16V8.812H59.802C59.1766 8.812 58.7006 8.97067 58.374 9.288C58.0566 9.60533 57.898 10.156 57.898 10.94V15H56.302V7.286H57.898V8.406ZM61.143 11.108C61.143 10.3333 61.3017 9.64733 61.619 9.05C61.9457 8.45267 62.3843 7.99067 62.935 7.664C63.495 7.328 64.1157 7.16 64.797 7.16C65.301 7.16 65.7957 7.272 66.281 7.496C66.7757 7.71067 67.1677 8 67.457 8.364V4.64H69.067V15H67.457V13.838C67.1957 14.2113 66.8317 14.5193 66.365 14.762C65.9077 15.0047 65.3803 15.126 64.783 15.126C64.111 15.126 63.495 14.958 62.935 14.622C62.3843 14.2767 61.9457 13.8007 61.619 13.194C61.3017 12.578 61.143 11.8827 61.143 11.108ZM67.457 11.136C67.457 10.604 67.345 10.142 67.121 9.75C66.9063 9.358 66.6217 9.05933 66.267 8.854C65.9123 8.64867 65.5297 8.546 65.119 8.546C64.7083 8.546 64.3257 8.64867 63.971 8.854C63.6163 9.05 63.327 9.344 63.103 9.736C62.8883 10.1187 62.781 10.576 62.781 11.108C62.781 11.64 62.8883 12.1067 63.103 12.508C63.327 12.9093 63.6163 13.2173 63.971 13.432C64.335 13.6373 64.7177 13.74 65.119 13.74C65.5297 13.74 65.9123 13.6373 66.267 13.432C66.6217 13.2267 66.9063 12.928 67.121 12.536C67.345 12.1347 67.457 11.668 67.457 11.136Z" fill="#344054"/>
<g filter="url(#filter0_d_1170_7314)">
<rect x="2" y="26" width="352" height="44" rx="8" fill="white"/>
<rect x="2.5" y="26.5" width="351" height="43" rx="7.5" stroke="#D0D5DD"/>
<path d="M19.2489 46.9105H21.237L20.2424 45.0649H20.2423C20.0601 44.7266 20.0602 44.3099 20.2424 43.9716C20.4247 43.6333 20.7616 43.425 21.1261 43.425C21.4906 43.425 21.8275 43.6334 22.0098 43.9717L23.0043 45.8173L23.9989 43.9729C24.1811 43.6346 24.518 43.4263 24.8825 43.4263C25.2471 43.4263 25.5839 43.6346 25.7662 43.9729C25.9485 44.3111 25.9486 44.7278 25.7663 45.0661L24.7718 46.9117H26.7597C27.1243 46.9117 27.461 47.12 27.6433 47.4583C27.8256 47.7965 27.8256 48.2133 27.6433 48.5515C27.4611 48.8897 27.1243 49.0981 26.7597 49.0981H24.7717L25.7651 50.9414C25.9474 51.2796 25.9474 51.6963 25.7651 52.0346C25.5829 52.3728 25.246 52.5812 24.8814 52.5812C24.5169 52.5812 24.18 52.3728 23.9978 52.0346L23.0043 50.1901L22.0098 52.0357C21.8275 52.374 21.4906 52.5824 21.1261 52.5824C20.7616 52.5824 20.4247 52.3741 20.2424 52.0358C20.0602 51.6976 20.0601 51.2808 20.2423 50.9425L21.2369 49.0969H19.2489C18.8844 49.0969 18.5476 48.8886 18.3653 48.5503C18.183 48.2121 18.183 47.7954 18.3653 47.4571C18.5476 47.1189 18.8844 46.9105 19.2489 46.9105L19.2489 46.9105Z" fill="#333333"/>
<path d="M33.4809 46.9105H35.6109L34.5453 45.0649H34.5452C34.35 44.7266 34.35 44.3099 34.5453 43.9716C34.7406 43.6333 35.1016 43.425 35.4921 43.425C35.8827 43.425 36.2436 43.6334 36.4389 43.9717L37.5045 45.8173L38.5701 43.9729C38.7654 43.6346 39.1263 43.4263 39.5169 43.4263C39.9075 43.4263 40.2684 43.6346 40.4637 43.9729C40.659 44.3111 40.6591 44.7278 40.4638 45.0661L39.3982 46.9117H41.5282C41.9187 46.9117 42.2796 47.12 42.4749 47.4583C42.6702 47.7965 42.6702 48.2133 42.4749 48.5515C42.2796 48.8897 41.9187 49.0981 41.5282 49.0981H39.3981L40.4625 50.9414C40.6578 51.2796 40.6578 51.6963 40.4625 52.0346C40.2672 52.3728 39.9063 52.5812 39.5157 52.5812C39.1251 52.5812 38.7642 52.3728 38.5689 52.0346L37.5045 50.1901L36.4389 52.0357C36.2436 52.374 35.8827 52.5824 35.4921 52.5824C35.1016 52.5824 34.7406 52.3741 34.5453 52.0358C34.35 51.6976 34.35 51.2808 34.5452 50.9425L35.6109 49.0969H33.4808C33.0903 49.0969 32.7294 48.8886 32.5341 48.5503C32.3388 48.2121 32.3388 47.7954 32.5341 47.4571C32.7294 47.1189 33.0903 46.9105 33.4808 46.9105L33.4809 46.9105Z" fill="#333333"/>
<path d="M48.2489 46.9105H50.237L49.2424 45.0649H49.2423C49.0601 44.7266 49.0602 44.3099 49.2424 43.9716C49.4247 43.6333 49.7616 43.425 50.1261 43.425C50.4906 43.425 50.8275 43.6334 51.0098 43.9717L52.0043 45.8173L52.9989 43.9729C53.1811 43.6346 53.518 43.4263 53.8825 43.4263C54.2471 43.4263 54.5839 43.6346 54.7662 43.9729C54.9485 44.3111 54.9486 44.7278 54.7663 45.0661L53.7718 46.9117H55.7597C56.1243 46.9117 56.461 47.12 56.6433 47.4583C56.8256 47.7965 56.8256 48.2133 56.6433 48.5515C56.4611 48.8897 56.1243 49.0981 55.7597 49.0981H53.7717L54.7651 50.9414C54.9474 51.2796 54.9474 51.6963 54.7651 52.0346C54.5829 52.3728 54.246 52.5812 53.8814 52.5812C53.5169 52.5812 53.18 52.3728 52.9978 52.0346L52.0043 50.1901L51.0098 52.0357C50.8275 52.374 50.4906 52.5824 50.1261 52.5824C49.7616 52.5824 49.4247 52.3741 49.2424 52.0358C49.0602 51.6976 49.0601 51.2808 49.2423 50.9425L50.2369 49.0969H48.2489C47.8844 49.0969 47.5476 48.8886 47.3653 48.5503C47.183 48.2121 47.183 47.7954 47.3653 47.4571C47.5476 47.1189 47.8844 46.9105 48.2489 46.9105L48.2489 46.9105Z" fill="#333333"/>
<path d="M62.4809 46.9105H64.6109L63.5453 45.0649H63.5452C63.35 44.7266 63.35 44.3099 63.5453 43.9716C63.7406 43.6333 64.1016 43.425 64.4921 43.425C64.8827 43.425 65.2436 43.6334 65.4389 43.9717L66.5045 45.8173L67.5701 43.9729C67.7654 43.6346 68.1263 43.4263 68.5169 43.4263C68.9075 43.4263 69.2684 43.6346 69.4637 43.9729C69.659 44.3111 69.6591 44.7278 69.4638 45.0661L68.3982 46.9117H70.5282C70.9187 46.9117 71.2796 47.12 71.4749 47.4583C71.6702 47.7965 71.6702 48.2133 71.4749 48.5515C71.2796 48.8897 70.9187 49.0981 70.5282 49.0981H68.3981L69.4625 50.9414C69.6578 51.2796 69.6578 51.6963 69.4625 52.0346C69.2672 52.3728 68.9063 52.5812 68.5157 52.5812C68.1251 52.5812 67.7642 52.3728 67.5689 52.0346L66.5045 50.1901L65.4389 52.0357C65.2436 52.374 64.8827 52.5824 64.4921 52.5824C64.1016 52.5824 63.7406 52.3741 63.5453 52.0358C63.35 51.6976 63.35 51.2808 63.5452 50.9425L64.6109 49.0969H62.4808C62.0903 49.0969 61.7294 48.8886 61.5341 48.5503C61.3388 48.2121 61.3388 47.7954 61.5341 47.4571C61.7294 47.1189 62.0903 46.9105 62.4808 46.9105L62.4809 46.9105Z" fill="#333333"/>
<path d="M77.2489 46.9105H79.237L78.2424 45.0649H78.2423C78.0601 44.7266 78.0602 44.3099 78.2424 43.9716C78.4247 43.6333 78.7616 43.425 79.1261 43.425C79.4906 43.425 79.8275 43.6334 80.0098 43.9717L81.0043 45.8173L81.9989 43.9729C82.1811 43.6346 82.518 43.4263 82.8825 43.4263C83.2471 43.4263 83.5839 43.6346 83.7662 43.9729C83.9485 44.3111 83.9486 44.7278 83.7663 45.0661L82.7718 46.9117H84.7597C85.1243 46.9117 85.461 47.12 85.6433 47.4583C85.8256 47.7965 85.8256 48.2133 85.6433 48.5515C85.4611 48.8897 85.1243 49.0981 84.7597 49.0981H82.7717L83.7651 50.9414C83.9474 51.2796 83.9474 51.6963 83.7651 52.0346C83.5829 52.3728 83.246 52.5812 82.8814 52.5812C82.5169 52.5812 82.18 52.3728 81.9978 52.0346L81.0043 50.1901L80.0098 52.0357C79.8275 52.374 79.4906 52.5824 79.1261 52.5824C78.7616 52.5824 78.4247 52.3741 78.2424 52.0358C78.0602 51.6976 78.0601 51.2808 78.2423 50.9425L79.2369 49.0969H77.2489C76.8844 49.0969 76.5476 48.8886 76.3653 48.5503C76.183 48.2121 76.183 47.7954 76.3653 47.4571C76.5476 47.1189 76.8844 46.9105 77.2489 46.9105L77.2489 46.9105Z" fill="#333333"/>
<path d="M91.4809 46.9105H93.6109L92.5453 45.0649H92.5452C92.35 44.7266 92.35 44.3099 92.5453 43.9716C92.7406 43.6333 93.1016 43.425 93.4921 43.425C93.8827 43.425 94.2436 43.6334 94.4389 43.9717L95.5045 45.8173L96.5701 43.9729C96.7654 43.6346 97.1263 43.4263 97.5169 43.4263C97.9075 43.4263 98.2684 43.6346 98.4637 43.9729C98.659 44.3111 98.6591 44.7278 98.4638 45.0661L97.3982 46.9117H99.5282C99.9187 46.9117 100.28 47.12 100.475 47.4583C100.67 47.7965 100.67 48.2133 100.475 48.5515C100.28 48.8897 99.9187 49.0981 99.5282 49.0981H97.3981L98.4625 50.9414C98.6578 51.2796 98.6578 51.6963 98.4625 52.0346C98.2672 52.3728 97.9063 52.5812 97.5157 52.5812C97.1251 52.5812 96.7642 52.3728 96.5689 52.0346L95.5045 50.1901L94.4389 52.0357C94.2436 52.374 93.8827 52.5824 93.4921 52.5824C93.1016 52.5824 92.7406 52.3741 92.5453 52.0358C92.35 51.6976 92.35 51.2808 92.5452 50.9425L93.6109 49.0969H91.4808C91.0903 49.0969 90.7294 48.8886 90.5341 48.5503C90.3388 48.2121 90.3388 47.7954 90.5341 47.4571C90.7294 47.1189 91.0903 46.9105 91.4808 46.9105L91.4809 46.9105Z" fill="#333333"/>
<path d="M106.481 46.9105H108.611L107.545 45.0649H107.545C107.35 44.7266 107.35 44.3099 107.545 43.9716C107.741 43.6333 108.102 43.425 108.492 43.425C108.883 43.425 109.244 43.6334 109.439 43.9717L110.505 45.8173L111.57 43.9729C111.765 43.6346 112.126 43.4263 112.517 43.4263C112.907 43.4263 113.268 43.6346 113.464 43.9729C113.659 44.3111 113.659 44.7278 113.464 45.0661L112.398 46.9117H114.528C114.919 46.9117 115.28 47.12 115.475 47.4583C115.67 47.7965 115.67 48.2133 115.475 48.5515C115.28 48.8897 114.919 49.0981 114.528 49.0981H112.398L113.463 50.9414C113.658 51.2796 113.658 51.6963 113.463 52.0346C113.267 52.3728 112.906 52.5812 112.516 52.5812C112.125 52.5812 111.764 52.3728 111.569 52.0346L110.505 50.1901L109.439 52.0357C109.244 52.374 108.883 52.5824 108.492 52.5824C108.102 52.5824 107.741 52.3741 107.545 52.0358C107.35 51.6976 107.35 51.2808 107.545 50.9425L108.611 49.0969H106.481C106.09 49.0969 105.729 48.8886 105.534 48.5503C105.339 48.2121 105.339 47.7954 105.534 47.4571C105.729 47.1189 106.09 46.9105 106.481 46.9105L106.481 46.9105Z" fill="#333333"/>
<path d="M121.481 46.9105H123.611L122.545 45.0649H122.545C122.35 44.7266 122.35 44.3099 122.545 43.9716C122.741 43.6333 123.102 43.425 123.492 43.425C123.883 43.425 124.244 43.6334 124.439 43.9717L125.505 45.8173L126.57 43.9729C126.765 43.6346 127.126 43.4263 127.517 43.4263C127.907 43.4263 128.268 43.6346 128.464 43.9729C128.659 44.3111 128.659 44.7278 128.464 45.0661L127.398 46.9117H129.528C129.919 46.9117 130.28 47.12 130.475 47.4583C130.67 47.7965 130.67 48.2133 130.475 48.5515C130.28 48.8897 129.919 49.0981 129.528 49.0981H127.398L128.463 50.9414C128.658 51.2796 128.658 51.6963 128.463 52.0346C128.267 52.3728 127.906 52.5812 127.516 52.5812C127.125 52.5812 126.764 52.3728 126.569 52.0346L125.505 50.1901L124.439 52.0357C124.244 52.374 123.883 52.5824 123.492 52.5824C123.102 52.5824 122.741 52.3741 122.545 52.0358C122.35 51.6976 122.35 51.2808 122.545 50.9425L123.611 49.0969H121.481C121.09 49.0969 120.729 48.8886 120.534 48.5503C120.339 48.2121 120.339 47.7954 120.534 47.4571C120.729 47.1189 121.09 46.9105 121.481 46.9105L121.481 46.9105Z" fill="#333333"/>
<path d="M136.249 46.9105H138.237L137.242 45.0649H137.242C137.06 44.7266 137.06 44.3099 137.242 43.9716C137.425 43.6333 137.762 43.425 138.126 43.425C138.491 43.425 138.828 43.6334 139.01 43.9717L140.004 45.8173L140.999 43.9729C141.181 43.6346 141.518 43.4263 141.883 43.4263C142.247 43.4263 142.584 43.6346 142.766 43.9729C142.948 44.3111 142.949 44.7278 142.766 45.0661L141.772 46.9117H143.76C144.124 46.9117 144.461 47.12 144.643 47.4583C144.826 47.7965 144.826 48.2133 144.643 48.5515C144.461 48.8897 144.124 49.0981 143.76 49.0981H141.772L142.765 50.9414C142.947 51.2796 142.947 51.6963 142.765 52.0346C142.583 52.3728 142.246 52.5812 141.881 52.5812C141.517 52.5812 141.18 52.3728 140.998 52.0346L140.004 50.1901L139.01 52.0357C138.828 52.374 138.491 52.5824 138.126 52.5824C137.762 52.5824 137.425 52.3741 137.242 52.0358C137.06 51.6976 137.06 51.2808 137.242 50.9425L138.237 49.0969H136.249C135.884 49.0969 135.548 48.8886 135.365 48.5503C135.183 48.2121 135.183 47.7954 135.365 47.4571C135.548 47.1189 135.884 46.9105 136.249 46.9105L136.249 46.9105Z" fill="#333333"/>
</g>
<path d="M9.084 81.242V82.278H6.424V91H5.15V82.278H2.476V81.242H9.084ZM14.4602 83.188C15.0389 83.188 15.5616 83.314 16.0282 83.566C16.4949 83.8087 16.8589 84.1773 17.1202 84.672C17.3909 85.1667 17.5262 85.7687 17.5262 86.478V91H16.2662V86.66C16.2662 85.8947 16.0749 85.3113 15.6922 84.91C15.3096 84.4993 14.7869 84.294 14.1242 84.294C13.4522 84.294 12.9156 84.504 12.5142 84.924C12.1222 85.344 11.9262 85.9553 11.9262 86.758V91H10.6522V80.64H11.9262V84.42C12.1782 84.028 12.5236 83.7247 12.9622 83.51C13.4102 83.2953 13.9096 83.188 14.4602 83.188ZM20.2653 82.082C20.0226 82.082 19.8173 81.998 19.6493 81.83C19.4813 81.662 19.3973 81.4567 19.3973 81.214C19.3973 80.9713 19.4813 80.766 19.6493 80.598C19.8173 80.43 20.0226 80.346 20.2653 80.346C20.4986 80.346 20.6946 80.43 20.8533 80.598C21.0213 80.766 21.1053 80.9713 21.1053 81.214C21.1053 81.4567 21.0213 81.662 20.8533 81.83C20.6946 81.998 20.4986 82.082 20.2653 82.082ZM20.8813 83.328V91H19.6073V83.328H20.8813ZM25.7686 91.126C25.1806 91.126 24.6533 91.028 24.1866 90.832C23.7199 90.6267 23.3513 90.3467 23.0806 89.992C22.8099 89.628 22.6606 89.2127 22.6326 88.746H23.9486C23.9859 89.1287 24.1633 89.4413 24.4806 89.684C24.8073 89.9267 25.2319 90.048 25.7546 90.048C26.2399 90.048 26.6226 89.9407 26.9026 89.726C27.1826 89.5113 27.3226 89.2407 27.3226 88.914C27.3226 88.578 27.1733 88.3307 26.8746 88.172C26.5759 88.004 26.1139 87.8407 25.4886 87.682C24.9193 87.5327 24.4526 87.3833 24.0886 87.234C23.7339 87.0753 23.4259 86.8467 23.1646 86.548C22.9126 86.24 22.7866 85.8387 22.7866 85.344C22.7866 84.952 22.9033 84.5927 23.1366 84.266C23.3699 83.9393 23.7013 83.6827 24.1306 83.496C24.5599 83.3 25.0499 83.202 25.6006 83.202C26.4499 83.202 27.1359 83.4167 27.6586 83.846C28.1813 84.2753 28.4613 84.8633 28.4986 85.61H27.2246C27.1966 85.2087 27.0333 84.8867 26.7346 84.644C26.4453 84.4013 26.0533 84.28 25.5586 84.28C25.1013 84.28 24.7373 84.378 24.4666 84.574C24.1959 84.77 24.0606 85.0267 24.0606 85.344C24.0606 85.596 24.1399 85.806 24.2986 85.974C24.4666 86.1327 24.6719 86.2633 24.9146 86.366C25.1666 86.4593 25.5119 86.5667 25.9506 86.688C26.5013 86.8373 26.9493 86.9867 27.2946 87.136C27.6399 87.276 27.9339 87.4907 28.1766 87.78C28.4286 88.0693 28.5593 88.4473 28.5686 88.914C28.5686 89.334 28.4519 89.712 28.2186 90.048C27.9853 90.384 27.6539 90.65 27.2246 90.846C26.8046 91.0327 26.3193 91.126 25.7686 91.126ZM34.7575 82.082C34.5148 82.082 34.3095 81.998 34.1415 81.83C33.9735 81.662 33.8895 81.4567 33.8895 81.214C33.8895 80.9713 33.9735 80.766 34.1415 80.598C34.3095 80.43 34.5148 80.346 34.7575 80.346C34.9908 80.346 35.1868 80.43 35.3455 80.598C35.5135 80.766 35.5975 80.9713 35.5975 81.214C35.5975 81.4567 35.5135 81.662 35.3455 81.83C35.1868 81.998 34.9908 82.082 34.7575 82.082ZM35.3735 83.328V91H34.0995V83.328H35.3735ZM40.2608 91.126C39.6728 91.126 39.1455 91.028 38.6788 90.832C38.2121 90.6267 37.8435 90.3467 37.5728 89.992C37.3021 89.628 37.1528 89.2127 37.1248 88.746H38.4408C38.4781 89.1287 38.6555 89.4413 38.9728 89.684C39.2995 89.9267 39.7241 90.048 40.2468 90.048C40.7321 90.048 41.1148 89.9407 41.3948 89.726C41.6748 89.5113 41.8148 89.2407 41.8148 88.914C41.8148 88.578 41.6655 88.3307 41.3668 88.172C41.0681 88.004 40.6061 87.8407 39.9808 87.682C39.4115 87.5327 38.9448 87.3833 38.5808 87.234C38.2261 87.0753 37.9181 86.8467 37.6568 86.548C37.4048 86.24 37.2788 85.8387 37.2788 85.344C37.2788 84.952 37.3955 84.5927 37.6288 84.266C37.8621 83.9393 38.1935 83.6827 38.6228 83.496C39.0521 83.3 39.5421 83.202 40.0928 83.202C40.9421 83.202 41.6281 83.4167 42.1508 83.846C42.6735 84.2753 42.9535 84.8633 42.9908 85.61H41.7168C41.6888 85.2087 41.5255 84.8867 41.2268 84.644C40.9375 84.4013 40.5455 84.28 40.0508 84.28C39.5935 84.28 39.2295 84.378 38.9588 84.574C38.6881 84.77 38.5528 85.0267 38.5528 85.344C38.5528 85.596 38.6321 85.806 38.7908 85.974C38.9588 86.1327 39.1641 86.2633 39.4068 86.366C39.6588 86.4593 40.0041 86.5667 40.4428 86.688C40.9935 86.8373 41.4415 86.9867 41.7868 87.136C42.1321 87.276 42.4261 87.4907 42.6688 87.78C42.9208 88.0693 43.0515 88.4473 43.0608 88.914C43.0608 89.334 42.9441 89.712 42.7108 90.048C42.4775 90.384 42.1461 90.65 41.7168 90.846C41.2968 91.0327 40.8115 91.126 40.2608 91.126ZM48.1157 87.136C48.1157 86.352 48.2743 85.666 48.5917 85.078C48.909 84.4807 49.343 84.0187 49.8937 83.692C50.4537 83.3653 51.0743 83.202 51.7557 83.202C52.4277 83.202 53.011 83.3467 53.5057 83.636C54.0003 83.9253 54.369 84.2893 54.6117 84.728V83.328H55.8997V91H54.6117V89.572C54.3597 90.02 53.9817 90.3933 53.4777 90.692C52.983 90.9813 52.4043 91.126 51.7417 91.126C51.0603 91.126 50.4443 90.958 49.8937 90.622C49.343 90.286 48.909 89.8147 48.5917 89.208C48.2743 88.6013 48.1157 87.9107 48.1157 87.136ZM54.6117 87.15C54.6117 86.5713 54.495 86.0673 54.2617 85.638C54.0283 85.2087 53.711 84.882 53.3097 84.658C52.9177 84.4247 52.4837 84.308 52.0077 84.308C51.5317 84.308 51.0977 84.42 50.7057 84.644C50.3137 84.868 50.001 85.1947 49.7677 85.624C49.5343 86.0533 49.4177 86.5573 49.4177 87.136C49.4177 87.724 49.5343 88.2373 49.7677 88.676C50.001 89.1053 50.3137 89.4367 50.7057 89.67C51.0977 89.894 51.5317 90.006 52.0077 90.006C52.4837 90.006 52.9177 89.894 53.3097 89.67C53.711 89.4367 54.0283 89.1053 54.2617 88.676C54.495 88.2373 54.6117 87.7287 54.6117 87.15ZM65.593 83.188C66.1717 83.188 66.6944 83.314 67.161 83.566C67.6277 83.8087 67.9917 84.1773 68.253 84.672C68.5237 85.1667 68.659 85.7687 68.659 86.478V91H67.399V86.66C67.399 85.8947 67.2077 85.3113 66.825 84.91C66.4424 84.4993 65.9197 84.294 65.257 84.294C64.585 84.294 64.0484 84.504 63.647 84.924C63.255 85.344 63.059 85.9553 63.059 86.758V91H61.785V80.64H63.059V84.42C63.311 84.028 63.6564 83.7247 64.095 83.51C64.543 83.2953 65.0424 83.188 65.593 83.188ZM71.3981 82.082C71.1554 82.082 70.9501 81.998 70.7821 81.83C70.6141 81.662 70.5301 81.4567 70.5301 81.214C70.5301 80.9713 70.6141 80.766 70.7821 80.598C70.9501 80.43 71.1554 80.346 71.3981 80.346C71.6314 80.346 71.8274 80.43 71.9861 80.598C72.1541 80.766 72.2381 80.9713 72.2381 81.214C72.2381 81.4567 72.1541 81.662 71.9861 81.83C71.8274 81.998 71.6314 82.082 71.3981 82.082ZM72.0141 83.328V91H70.7401V83.328H72.0141ZM77.9234 83.188C78.8568 83.188 79.6128 83.4727 80.1914 84.042C80.7701 84.602 81.0594 85.414 81.0594 86.478V91H79.7994V86.66C79.7994 85.8947 79.6081 85.3113 79.2254 84.91C78.8428 84.4993 78.3201 84.294 77.6574 84.294C76.9854 84.294 76.4488 84.504 76.0474 84.924C75.6554 85.344 75.4594 85.9553 75.4594 86.758V91H74.1854V83.328H75.4594V84.42C75.7114 84.028 76.0521 83.7247 76.4814 83.51C76.9201 83.2953 77.4008 83.188 77.9234 83.188ZM84.6945 84.378V88.9C84.6945 89.2733 84.7738 89.5393 84.9325 89.698C85.0912 89.8473 85.3665 89.922 85.7585 89.922H86.6965V91H85.5485C84.8392 91 84.3072 90.8367 83.9525 90.51C83.5978 90.1833 83.4205 89.6467 83.4205 88.9V84.378H82.4265V83.328H83.4205V81.396H84.6945V83.328H86.6965V84.378H84.6945ZM93.5265 84.378V88.9C93.5265 89.2733 93.6059 89.5393 93.7645 89.698C93.9232 89.8473 94.1985 89.922 94.5905 89.922H95.5285V91H94.3805C93.6712 91 93.1392 90.8367 92.7845 90.51C92.4299 90.1833 92.2525 89.6467 92.2525 88.9V84.378H91.2585V83.328H92.2525V81.396H93.5265V83.328H95.5285V84.378H93.5265ZM104.072 86.87C104.072 87.1127 104.058 87.3693 104.03 87.64H97.8981C97.9448 88.396 98.2015 88.9887 98.6681 89.418C99.1441 89.838 99.7181 90.048 100.39 90.048C100.941 90.048 101.398 89.922 101.762 89.67C102.135 89.4087 102.397 89.0633 102.546 88.634H103.918C103.713 89.3713 103.302 89.9733 102.686 90.44C102.07 90.8973 101.305 91.126 100.39 91.126C99.6621 91.126 99.0088 90.9627 98.4301 90.636C97.8608 90.3093 97.4128 89.8473 97.0861 89.25C96.7595 88.6433 96.5961 87.9433 96.5961 87.15C96.5961 86.3567 96.7548 85.6613 97.0721 85.064C97.3895 84.4667 97.8328 84.0093 98.4021 83.692C98.9808 83.3653 99.6435 83.202 100.39 83.202C101.118 83.202 101.762 83.3607 102.322 83.678C102.882 83.9953 103.311 84.434 103.61 84.994C103.918 85.5447 104.072 86.17 104.072 86.87ZM102.756 86.604C102.756 86.1187 102.649 85.7033 102.434 85.358C102.219 85.0033 101.925 84.7373 101.552 84.56C101.188 84.3733 100.782 84.28 100.334 84.28C99.6901 84.28 99.1395 84.4853 98.6821 84.896C98.2341 85.3067 97.9775 85.876 97.9121 86.604H102.756ZM109.758 91L107.938 88.144L106.188 91H104.858L107.336 87.192L104.858 83.328H106.3L108.12 86.17L109.856 83.328H111.186L108.722 87.122L111.2 91H109.758ZM114.007 84.378V88.9C114.007 89.2733 114.086 89.5393 114.245 89.698C114.404 89.8473 114.679 89.922 115.071 89.922H116.009V91H114.861C114.152 91 113.62 90.8367 113.265 90.51C112.91 90.1833 112.733 89.6467 112.733 88.9V84.378H111.739V83.328H112.733V81.396H114.007V83.328H116.009V84.378H114.007ZM122.839 84.378V88.9C122.839 89.2733 122.918 89.5393 123.077 89.698C123.236 89.8473 123.511 89.922 123.903 89.922H124.841V91H123.693C122.984 91 122.452 90.8367 122.097 90.51C121.742 90.1833 121.565 89.6467 121.565 88.9V84.378H120.571V83.328H121.565V81.396H122.839V83.328H124.841V84.378H122.839ZM129.731 91.126C129.012 91.126 128.359 90.9627 127.771 90.636C127.192 90.3093 126.735 89.8473 126.399 89.25C126.072 88.6433 125.909 87.9433 125.909 87.15C125.909 86.366 126.077 85.6753 126.413 85.078C126.758 84.4713 127.225 84.0093 127.813 83.692C128.401 83.3653 129.059 83.202 129.787 83.202C130.515 83.202 131.173 83.3653 131.761 83.692C132.349 84.0093 132.811 84.4667 133.147 85.064C133.492 85.6613 133.665 86.3567 133.665 87.15C133.665 87.9433 133.487 88.6433 133.133 89.25C132.787 89.8473 132.316 90.3093 131.719 90.636C131.121 90.9627 130.459 91.126 129.731 91.126ZM129.731 90.006C130.188 90.006 130.617 89.8987 131.019 89.684C131.42 89.4693 131.742 89.1473 131.985 88.718C132.237 88.2887 132.363 87.766 132.363 87.15C132.363 86.534 132.241 86.0113 131.999 85.582C131.756 85.1527 131.439 84.8353 131.047 84.63C130.655 84.4153 130.23 84.308 129.773 84.308C129.306 84.308 128.877 84.4153 128.485 84.63C128.102 84.8353 127.794 85.1527 127.561 85.582C127.327 86.0113 127.211 86.534 127.211 87.15C127.211 87.7753 127.323 88.3027 127.547 88.732C127.78 89.1613 128.088 89.4833 128.471 89.698C128.853 89.9033 129.273 90.006 129.731 90.006ZM142.88 83.188C143.459 83.188 143.981 83.314 144.448 83.566C144.915 83.8087 145.279 84.1773 145.54 84.672C145.811 85.1667 145.946 85.7687 145.946 86.478V91H144.686V86.66C144.686 85.8947 144.495 85.3113 144.112 84.91C143.729 84.4993 143.207 84.294 142.544 84.294C141.872 84.294 141.335 84.504 140.934 84.924C140.542 85.344 140.346 85.9553 140.346 86.758V91H139.072V80.64H140.346V84.42C140.598 84.028 140.943 83.7247 141.382 83.51C141.83 83.2953 142.329 83.188 142.88 83.188ZM155.027 86.87C155.027 87.1127 155.013 87.3693 154.985 87.64H148.853C148.9 88.396 149.157 88.9887 149.623 89.418C150.099 89.838 150.673 90.048 151.345 90.048C151.896 90.048 152.353 89.922 152.717 89.67C153.091 89.4087 153.352 89.0633 153.501 88.634H154.873C154.668 89.3713 154.257 89.9733 153.641 90.44C153.025 90.8973 152.26 91.126 151.345 91.126C150.617 91.126 149.964 90.9627 149.385 90.636C148.816 90.3093 148.368 89.8473 148.041 89.25C147.715 88.6433 147.551 87.9433 147.551 87.15C147.551 86.3567 147.71 85.6613 148.027 85.064C148.345 84.4667 148.788 84.0093 149.357 83.692C149.936 83.3653 150.599 83.202 151.345 83.202C152.073 83.202 152.717 83.3607 153.277 83.678C153.837 83.9953 154.267 84.434 154.565 84.994C154.873 85.5447 155.027 86.17 155.027 86.87ZM153.711 86.604C153.711 86.1187 153.604 85.7033 153.389 85.358C153.175 85.0033 152.881 84.7373 152.507 84.56C152.143 84.3733 151.737 84.28 151.289 84.28C150.645 84.28 150.095 84.4853 149.637 84.896C149.189 85.3067 148.933 85.876 148.867 86.604H153.711ZM157.983 80.64V91H156.709V80.64H157.983ZM161.428 84.742C161.68 84.3033 162.054 83.9393 162.548 83.65C163.052 83.3513 163.636 83.202 164.298 83.202C164.98 83.202 165.596 83.3653 166.146 83.692C166.706 84.0187 167.145 84.4807 167.462 85.078C167.78 85.666 167.938 86.352 167.938 87.136C167.938 87.9107 167.78 88.6013 167.462 89.208C167.145 89.8147 166.706 90.286 166.146 90.622C165.596 90.958 164.98 91.126 164.298 91.126C163.645 91.126 163.066 90.9813 162.562 90.692C162.068 90.3933 161.69 90.0247 161.428 89.586V94.64H160.154V83.328H161.428V84.742ZM166.636 87.136C166.636 86.5573 166.52 86.0533 166.286 85.624C166.053 85.1947 165.736 84.868 165.334 84.644C164.942 84.42 164.508 84.308 164.032 84.308C163.566 84.308 163.132 84.4247 162.73 84.658C162.338 84.882 162.021 85.2133 161.778 85.652C161.545 86.0813 161.428 86.5807 161.428 87.15C161.428 87.7287 161.545 88.2373 161.778 88.676C162.021 89.1053 162.338 89.4367 162.73 89.67C163.132 89.894 163.566 90.006 164.032 90.006C164.508 90.006 164.942 89.894 165.334 89.67C165.736 89.4367 166.053 89.1053 166.286 88.676C166.52 88.2373 166.636 87.724 166.636 87.136ZM180.152 83.328V91H178.878V89.866C178.635 90.258 178.294 90.566 177.856 90.79C177.426 91.0047 176.95 91.112 176.428 91.112C175.83 91.112 175.294 90.9907 174.818 90.748C174.342 90.496 173.964 90.1227 173.684 89.628C173.413 89.1333 173.278 88.5313 173.278 87.822V83.328H174.538V87.654C174.538 88.41 174.729 88.9933 175.112 89.404C175.494 89.8053 176.017 90.006 176.68 90.006C177.361 90.006 177.898 89.796 178.29 89.376C178.682 88.956 178.878 88.3447 178.878 87.542V83.328H180.152ZM185.019 91.126C184.431 91.126 183.903 91.028 183.437 90.832C182.97 90.6267 182.601 90.3467 182.331 89.992C182.06 89.628 181.911 89.2127 181.883 88.746H183.199C183.236 89.1287 183.413 89.4413 183.731 89.684C184.057 89.9267 184.482 90.048 185.005 90.048C185.49 90.048 185.873 89.9407 186.153 89.726C186.433 89.5113 186.573 89.2407 186.573 88.914C186.573 88.578 186.423 88.3307 186.125 88.172C185.826 88.004 185.364 87.8407 184.739 87.682C184.169 87.5327 183.703 87.3833 183.339 87.234C182.984 87.0753 182.676 86.8467 182.415 86.548C182.163 86.24 182.037 85.8387 182.037 85.344C182.037 84.952 182.153 84.5927 182.387 84.266C182.62 83.9393 182.951 83.6827 183.381 83.496C183.81 83.3 184.3 83.202 184.851 83.202C185.7 83.202 186.386 83.4167 186.909 83.846C187.431 84.2753 187.711 84.8633 187.749 85.61H186.475C186.447 85.2087 186.283 84.8867 185.985 84.644C185.695 84.4013 185.303 84.28 184.809 84.28C184.351 84.28 183.987 84.378 183.717 84.574C183.446 84.77 183.311 85.0267 183.311 85.344C183.311 85.596 183.39 85.806 183.549 85.974C183.717 86.1327 183.922 86.2633 184.165 86.366C184.417 86.4593 184.762 86.5667 185.201 86.688C185.751 86.8373 186.199 86.9867 186.545 87.136C186.89 87.276 187.184 87.4907 187.427 87.78C187.679 88.0693 187.809 88.4473 187.819 88.914C187.819 89.334 187.702 89.712 187.469 90.048C187.235 90.384 186.904 90.65 186.475 90.846C186.055 91.0327 185.569 91.126 185.019 91.126ZM196.617 86.87C196.617 87.1127 196.603 87.3693 196.575 87.64H190.443C190.49 88.396 190.746 88.9887 191.213 89.418C191.689 89.838 192.263 90.048 192.935 90.048C193.486 90.048 193.943 89.922 194.307 89.67C194.68 89.4087 194.942 89.0633 195.091 88.634H196.463C196.258 89.3713 195.847 89.9733 195.231 90.44C194.615 90.8973 193.85 91.126 192.935 91.126C192.207 91.126 191.554 90.9627 190.975 90.636C190.406 90.3093 189.958 89.8473 189.631 89.25C189.304 88.6433 189.141 87.9433 189.141 87.15C189.141 86.3567 189.3 85.6613 189.617 85.064C189.934 84.4667 190.378 84.0093 190.947 83.692C191.526 83.3653 192.188 83.202 192.935 83.202C193.663 83.202 194.307 83.3607 194.867 83.678C195.427 83.9953 195.856 84.434 196.155 84.994C196.463 85.5447 196.617 86.17 196.617 86.87ZM195.301 86.604C195.301 86.1187 195.194 85.7033 194.979 85.358C194.764 85.0033 194.47 84.7373 194.097 84.56C193.733 84.3733 193.327 84.28 192.879 84.28C192.235 84.28 191.684 84.4853 191.227 84.896C190.779 85.3067 190.522 85.876 190.457 86.604H195.301ZM199.573 84.574C199.797 84.1353 200.114 83.7947 200.525 83.552C200.945 83.3093 201.453 83.188 202.051 83.188V84.504H201.715C200.287 84.504 199.573 85.2787 199.573 86.828V91H198.299V83.328H199.573V84.574ZM203.927 91.084C203.685 91.084 203.479 91 203.311 90.832C203.143 90.664 203.059 90.4587 203.059 90.216C203.059 89.9733 203.143 89.768 203.311 89.6C203.479 89.432 203.685 89.348 203.927 89.348C204.161 89.348 204.357 89.432 204.515 89.6C204.683 89.768 204.767 89.9733 204.767 90.216C204.767 90.4587 204.683 90.664 204.515 90.832C204.357 91 204.161 91.084 203.927 91.084Z" fill="#667085"/>
<defs>
<filter id="filter0_d_1170_7314" x="0" y="25" width="356" height="48" filterUnits="userSpaceOnUse" color-interpolation-filters="sRGB">
<feFlood flood-opacity="0" result="BackgroundImageFix"/>
<feColorMatrix in="SourceAlpha" type="matrix" values="0 0 0 0 0 0 0 0 0 0 0 0 0 0 0 0 0 0 127 0" result="hardAlpha"/>
<feOffset dy="1"/>
<feGaussianBlur stdDeviation="1"/>
<feColorMatrix type="matrix" values="0 0 0 0 0.0627451 0 0 0 0 0.0941176 0 0 0 0 0.156863 0 0 0 0.05 0"/>
<feBlend mode="normal" in2="BackgroundImageFix" result="effect1_dropShadow_1170_7314"/>
<feBlend mode="normal" in="SourceGraphic" in2="effect1_dropShadow_1170_7314" result="shape"/>
</filter>
</defs>
</svg>
