<svg width="356" height="73" viewBox="0 0 356 73" fill="none" xmlns="http://www.w3.org/2000/svg">
<path d="M9.854 8.168C9.854 8.66267 9.73733 9.12933 9.504 9.568C9.27067 10.0067 8.89733 10.366 8.384 10.646C7.87067 10.9167 7.21267 11.052 6.41 11.052H4.646V15H3.05V5.27H6.41C7.15667 5.27 7.78667 5.40067 8.3 5.662C8.82267 5.914 9.21 6.25933 9.462 6.698C9.72333 7.13667 9.854 7.62667 9.854 8.168ZM6.41 9.75C7.01667 9.75 7.46933 9.61467 7.768 9.344C8.06667 9.064 8.216 8.672 8.216 8.168C8.216 7.104 7.614 6.572 6.41 6.572H4.646V9.75H6.41ZM10.8442 11.108C10.8442 10.3333 11.0028 9.64733 11.3202 9.05C11.6468 8.45267 12.0855 7.99067 12.6362 7.664C13.1962 7.328 13.8122 7.16 14.4842 7.16C15.0908 7.16 15.6182 7.28133 16.0662 7.524C16.5235 7.75733 16.8875 8.05133 17.1582 8.406V7.286H18.7682V15H17.1582V13.852C16.8875 14.216 16.5188 14.5193 16.0522 14.762C15.5855 15.0047 15.0535 15.126 14.4562 15.126C13.7935 15.126 13.1868 14.958 12.6362 14.622C12.0855 14.2767 11.6468 13.8007 11.3202 13.194C11.0028 12.578 10.8442 11.8827 10.8442 11.108ZM17.1582 11.136C17.1582 10.604 17.0462 10.142 16.8222 9.75C16.6075 9.358 16.3228 9.05933 15.9682 8.854C15.6135 8.64867 15.2308 8.546 14.8202 8.546C14.4095 8.546 14.0268 8.64867 13.6722 8.854C13.3175 9.05 13.0282 9.344 12.8042 9.736C12.5895 10.1187 12.4822 10.576 12.4822 11.108C12.4822 11.64 12.5895 12.1067 12.8042 12.508C13.0282 12.9093 13.3175 13.2173 13.6722 13.432C14.0362 13.6373 14.4188 13.74 14.8202 13.74C15.2308 13.74 15.6135 13.6373 15.9682 13.432C16.3228 13.2267 16.6075 12.928 16.8222 12.536C17.0462 12.1347 17.1582 11.668 17.1582 11.136ZM23.6645 15.126C23.0578 15.126 22.5118 15.0187 22.0265 14.804C21.5505 14.58 21.1725 14.2813 20.8925 13.908C20.6125 13.5253 20.4631 13.1007 20.4445 12.634H22.0965C22.1245 12.9607 22.2785 13.236 22.5585 13.46C22.8478 13.6747 23.2071 13.782 23.6365 13.782C24.0845 13.782 24.4298 13.698 24.6725 13.53C24.9245 13.3527 25.0505 13.1287 25.0505 12.858C25.0505 12.5687 24.9105 12.354 24.6305 12.214C24.3598 12.074 23.9258 11.92 23.3285 11.752C22.7498 11.5933 22.2785 11.4393 21.9145 11.29C21.5505 11.1407 21.2331 10.912 20.9625 10.604C20.7011 10.296 20.5705 9.89 20.5705 9.386C20.5705 8.97533 20.6918 8.602 20.9345 8.266C21.1771 7.92067 21.5225 7.65 21.9705 7.454C22.4278 7.258 22.9505 7.16 23.5385 7.16C24.4158 7.16 25.1205 7.384 25.6525 7.832C26.1938 8.27067 26.4831 8.87267 26.5205 9.638H24.9245C24.8965 9.29267 24.7565 9.01733 24.5045 8.812C24.2525 8.60667 23.9118 8.504 23.4825 8.504C23.0625 8.504 22.7405 8.58333 22.5165 8.742C22.2925 8.90067 22.1805 9.11067 22.1805 9.372C22.1805 9.57733 22.2551 9.75 22.4045 9.89C22.5538 10.03 22.7358 10.142 22.9505 10.226C23.1651 10.3007 23.4825 10.3987 23.9025 10.52C24.4625 10.6693 24.9198 10.8233 25.2745 10.982C25.6385 11.1313 25.9511 11.3553 26.2125 11.654C26.4738 11.9527 26.6091 12.3493 26.6185 12.844C26.6185 13.2827 26.4971 13.6747 26.2545 14.02C26.0118 14.3653 25.6665 14.636 25.2185 14.832C24.7798 15.028 24.2618 15.126 23.6645 15.126ZM31.143 15.126C30.5363 15.126 29.9903 15.0187 29.505 14.804C29.029 14.58 28.651 14.2813 28.371 13.908C28.091 13.5253 27.9416 13.1007 27.923 12.634H29.575C29.603 12.9607 29.757 13.236 30.037 13.46C30.3263 13.6747 30.6856 13.782 31.115 13.782C31.563 13.782 31.9083 13.698 32.151 13.53C32.403 13.3527 32.529 13.1287 32.529 12.858C32.529 12.5687 32.389 12.354 32.109 12.214C31.8383 12.074 31.4043 11.92 30.807 11.752C30.2283 11.5933 29.757 11.4393 29.393 11.29C29.029 11.1407 28.7116 10.912 28.441 10.604C28.1796 10.296 28.049 9.89 28.049 9.386C28.049 8.97533 28.1703 8.602 28.413 8.266C28.6556 7.92067 29.001 7.65 29.449 7.454C29.9063 7.258 30.429 7.16 31.017 7.16C31.8943 7.16 32.599 7.384 33.131 7.832C33.6723 8.27067 33.9616 8.87267 33.999 9.638H32.403C32.375 9.29267 32.235 9.01733 31.983 8.812C31.731 8.60667 31.3903 8.504 30.961 8.504C30.541 8.504 30.219 8.58333 29.995 8.742C29.771 8.90067 29.659 9.11067 29.659 9.372C29.659 9.57733 29.7336 9.75 29.883 9.89C30.0323 10.03 30.2143 10.142 30.429 10.226C30.6436 10.3007 30.961 10.3987 31.381 10.52C31.941 10.6693 32.3983 10.8233 32.753 10.982C33.117 11.1313 33.4296 11.3553 33.691 11.654C33.9523 11.9527 34.0876 12.3493 34.097 12.844C34.097 13.2827 33.9756 13.6747 33.733 14.02C33.4903 14.3653 33.145 14.636 32.697 14.832C32.2583 15.028 31.7403 15.126 31.143 15.126ZM46.1815 7.286L43.7875 15H42.1075L40.5535 9.302L38.9995 15H37.3195L34.9115 7.286H36.5355L38.1455 13.488L39.7835 7.286H41.4495L43.0175 13.46L44.6135 7.286H46.1815ZM50.7202 15.126C49.9922 15.126 49.3342 14.9627 48.7462 14.636C48.1582 14.3 47.6962 13.8333 47.3602 13.236C47.0242 12.6293 46.8562 11.9293 46.8562 11.136C46.8562 10.352 47.0289 9.65667 47.3742 9.05C47.7196 8.44333 48.1909 7.97667 48.7882 7.65C49.3856 7.32333 50.0529 7.16 50.7902 7.16C51.5276 7.16 52.1949 7.32333 52.7922 7.65C53.3896 7.97667 53.8609 8.44333 54.2062 9.05C54.5516 9.65667 54.7242 10.352 54.7242 11.136C54.7242 11.92 54.5469 12.6153 54.1922 13.222C53.8376 13.8287 53.3522 14.3 52.7362 14.636C52.1296 14.9627 51.4576 15.126 50.7202 15.126ZM50.7202 13.74C51.1309 13.74 51.5136 13.642 51.8682 13.446C52.2322 13.25 52.5262 12.956 52.7502 12.564C52.9742 12.172 53.0862 11.696 53.0862 11.136C53.0862 10.576 52.9789 10.1047 52.7642 9.722C52.5496 9.33 52.2649 9.036 51.9102 8.84C51.5556 8.644 51.1729 8.546 50.7622 8.546C50.3516 8.546 49.9689 8.644 49.6142 8.84C49.2689 9.036 48.9936 9.33 48.7882 9.722C48.5829 10.1047 48.4802 10.576 48.4802 11.136C48.4802 11.9667 48.6902 12.6107 49.1102 13.068C49.5396 13.516 50.0762 13.74 50.7202 13.74ZM57.898 8.406C58.1313 8.014 58.4393 7.71067 58.822 7.496C59.214 7.272 59.676 7.16 60.208 7.16V8.812H59.802C59.1766 8.812 58.7006 8.97067 58.374 9.288C58.0566 9.60533 57.898 10.156 57.898 10.94V15H56.302V7.286H57.898V8.406ZM61.143 11.108C61.143 10.3333 61.3017 9.64733 61.619 9.05C61.9457 8.45267 62.3843 7.99067 62.935 7.664C63.495 7.328 64.1157 7.16 64.797 7.16C65.301 7.16 65.7957 7.272 66.281 7.496C66.7757 7.71067 67.1677 8 67.457 8.364V4.64H69.067V15H67.457V13.838C67.1957 14.2113 66.8317 14.5193 66.365 14.762C65.9077 15.0047 65.3803 15.126 64.783 15.126C64.111 15.126 63.495 14.958 62.935 14.622C62.3843 14.2767 61.9457 13.8007 61.619 13.194C61.3017 12.578 61.143 11.8827 61.143 11.108ZM67.457 11.136C67.457 10.604 67.345 10.142 67.121 9.75C66.9063 9.358 66.6217 9.05933 66.267 8.854C65.9123 8.64867 65.5297 8.546 65.119 8.546C64.7083 8.546 64.3257 8.64867 63.971 8.854C63.6163 9.05 63.327 9.344 63.103 9.736C62.8883 10.1187 62.781 10.576 62.781 11.108C62.781 11.64 62.8883 12.1067 63.103 12.508C63.327 12.9093 63.6163 13.2173 63.971 13.432C64.335 13.6373 64.7177 13.74 65.119 13.74C65.5297 13.74 65.9123 13.6373 66.267 13.432C66.6217 13.2267 66.9063 12.928 67.121 12.536C67.345 12.1347 67.457 11.668 67.457 11.136Z" fill="#344054"/>
<g filter="url(#filter0_d_1170_7276)">
<rect x="2" y="26" width="352" height="44" rx="8" fill="white"/>
<rect x="2.5" y="26.5" width="351" height="43" rx="7.5" stroke="#D0D5DD"/>
<path d="M19.2489 46.9105H21.237L20.2424 45.0649H20.2423C20.0601 44.7266 20.0602 44.3099 20.2424 43.9716C20.4247 43.6333 20.7616 43.425 21.1261 43.425C21.4906 43.425 21.8275 43.6334 22.0098 43.9717L23.0043 45.8173L23.9989 43.9729C24.1811 43.6346 24.518 43.4263 24.8825 43.4263C25.2471 43.4263 25.5839 43.6346 25.7662 43.9729C25.9485 44.3111 25.9486 44.7278 25.7663 45.0661L24.7718 46.9117H26.7597C27.1243 46.9117 27.461 47.12 27.6433 47.4583C27.8256 47.7965 27.8256 48.2133 27.6433 48.5515C27.4611 48.8897 27.1243 49.0981 26.7597 49.0981H24.7717L25.7651 50.9414C25.9474 51.2796 25.9474 51.6963 25.7651 52.0346C25.5829 52.3728 25.246 52.5812 24.8814 52.5812C24.5169 52.5812 24.18 52.3728 23.9978 52.0346L23.0043 50.1901L22.0098 52.0357C21.8275 52.374 21.4906 52.5824 21.1261 52.5824C20.7616 52.5824 20.4247 52.3741 20.2424 52.0358C20.0602 51.6976 20.0601 51.2808 20.2423 50.9425L21.2369 49.0969H19.2489C18.8844 49.0969 18.5476 48.8886 18.3653 48.5503C18.183 48.2121 18.183 47.7954 18.3653 47.4571C18.5476 47.1189 18.8844 46.9105 19.2489 46.9105L19.2489 46.9105Z" fill="#333333"/>
<path d="M33.4809 46.9105H35.6109L34.5453 45.0649H34.5452C34.35 44.7266 34.35 44.3099 34.5453 43.9716C34.7406 43.6333 35.1016 43.425 35.4921 43.425C35.8827 43.425 36.2436 43.6334 36.4389 43.9717L37.5045 45.8173L38.5701 43.9729C38.7654 43.6346 39.1263 43.4263 39.5169 43.4263C39.9075 43.4263 40.2684 43.6346 40.4637 43.9729C40.659 44.3111 40.6591 44.7278 40.4638 45.0661L39.3982 46.9117H41.5282C41.9187 46.9117 42.2796 47.12 42.4749 47.4583C42.6702 47.7965 42.6702 48.2133 42.4749 48.5515C42.2796 48.8897 41.9187 49.0981 41.5282 49.0981H39.3981L40.4625 50.9414C40.6578 51.2796 40.6578 51.6963 40.4625 52.0346C40.2672 52.3728 39.9063 52.5812 39.5157 52.5812C39.1251 52.5812 38.7642 52.3728 38.5689 52.0346L37.5045 50.1901L36.4389 52.0357C36.2436 52.374 35.8827 52.5824 35.4921 52.5824C35.1016 52.5824 34.7406 52.3741 34.5453 52.0358C34.35 51.6976 34.35 51.2808 34.5452 50.9425L35.6109 49.0969H33.4808C33.0903 49.0969 32.7294 48.8886 32.5341 48.5503C32.3388 48.2121 32.3388 47.7954 32.5341 47.4571C32.7294 47.1189 33.0903 46.9105 33.4808 46.9105L33.4809 46.9105Z" fill="#333333"/>
<path d="M48.2489 46.9105H50.237L49.2424 45.0649H49.2423C49.0601 44.7266 49.0602 44.3099 49.2424 43.9716C49.4247 43.6333 49.7616 43.425 50.1261 43.425C50.4906 43.425 50.8275 43.6334 51.0098 43.9717L52.0043 45.8173L52.9989 43.9729C53.1811 43.6346 53.518 43.4263 53.8825 43.4263C54.2471 43.4263 54.5839 43.6346 54.7662 43.9729C54.9485 44.3111 54.9486 44.7278 54.7663 45.0661L53.7718 46.9117H55.7597C56.1243 46.9117 56.461 47.12 56.6433 47.4583C56.8256 47.7965 56.8256 48.2133 56.6433 48.5515C56.4611 48.8897 56.1243 49.0981 55.7597 49.0981H53.7717L54.7651 50.9414C54.9474 51.2796 54.9474 51.6963 54.7651 52.0346C54.5829 52.3728 54.246 52.5812 53.8814 52.5812C53.5169 52.5812 53.18 52.3728 52.9978 52.0346L52.0043 50.1901L51.0098 52.0357C50.8275 52.374 50.4906 52.5824 50.1261 52.5824C49.7616 52.5824 49.4247 52.3741 49.2424 52.0358C49.0602 51.6976 49.0601 51.2808 49.2423 50.9425L50.2369 49.0969H48.2489C47.8844 49.0969 47.5476 48.8886 47.3653 48.5503C47.183 48.2121 47.183 47.7954 47.3653 47.4571C47.5476 47.1189 47.8844 46.9105 48.2489 46.9105L48.2489 46.9105Z" fill="#333333"/>
<path d="M62.4809 46.9105H64.6109L63.5453 45.0649H63.5452C63.35 44.7266 63.35 44.3099 63.5453 43.9716C63.7406 43.6333 64.1016 43.425 64.4921 43.425C64.8827 43.425 65.2436 43.6334 65.4389 43.9717L66.5045 45.8173L67.5701 43.9729C67.7654 43.6346 68.1263 43.4263 68.5169 43.4263C68.9075 43.4263 69.2684 43.6346 69.4637 43.9729C69.659 44.3111 69.6591 44.7278 69.4638 45.0661L68.3982 46.9117H70.5282C70.9187 46.9117 71.2796 47.12 71.4749 47.4583C71.6702 47.7965 71.6702 48.2133 71.4749 48.5515C71.2796 48.8897 70.9187 49.0981 70.5282 49.0981H68.3981L69.4625 50.9414C69.6578 51.2796 69.6578 51.6963 69.4625 52.0346C69.2672 52.3728 68.9063 52.5812 68.5157 52.5812C68.1251 52.5812 67.7642 52.3728 67.5689 52.0346L66.5045 50.1901L65.4389 52.0357C65.2436 52.374 64.8827 52.5824 64.4921 52.5824C64.1016 52.5824 63.7406 52.3741 63.5453 52.0358C63.35 51.6976 63.35 51.2808 63.5452 50.9425L64.6109 49.0969H62.4808C62.0903 49.0969 61.7294 48.8886 61.5341 48.5503C61.3388 48.2121 61.3388 47.7954 61.5341 47.4571C61.7294 47.1189 62.0903 46.9105 62.4808 46.9105L62.4809 46.9105Z" fill="#333333"/>
<path d="M77.2489 46.9105H79.237L78.2424 45.0649H78.2423C78.0601 44.7266 78.0602 44.3099 78.2424 43.9716C78.4247 43.6333 78.7616 43.425 79.1261 43.425C79.4906 43.425 79.8275 43.6334 80.0098 43.9717L81.0043 45.8173L81.9989 43.9729C82.1811 43.6346 82.518 43.4263 82.8825 43.4263C83.2471 43.4263 83.5839 43.6346 83.7662 43.9729C83.9485 44.3111 83.9486 44.7278 83.7663 45.0661L82.7718 46.9117H84.7597C85.1243 46.9117 85.461 47.12 85.6433 47.4583C85.8256 47.7965 85.8256 48.2133 85.6433 48.5515C85.4611 48.8897 85.1243 49.0981 84.7597 49.0981H82.7717L83.7651 50.9414C83.9474 51.2796 83.9474 51.6963 83.7651 52.0346C83.5829 52.3728 83.246 52.5812 82.8814 52.5812C82.5169 52.5812 82.18 52.3728 81.9978 52.0346L81.0043 50.1901L80.0098 52.0357C79.8275 52.374 79.4906 52.5824 79.1261 52.5824C78.7616 52.5824 78.4247 52.3741 78.2424 52.0358C78.0602 51.6976 78.0601 51.2808 78.2423 50.9425L79.2369 49.0969H77.2489C76.8844 49.0969 76.5476 48.8886 76.3653 48.5503C76.183 48.2121 76.183 47.7954 76.3653 47.4571C76.5476 47.1189 76.8844 46.9105 77.2489 46.9105L77.2489 46.9105Z" fill="#333333"/>
<path d="M91.4809 46.9105H93.6109L92.5453 45.0649H92.5452C92.35 44.7266 92.35 44.3099 92.5453 43.9716C92.7406 43.6333 93.1016 43.425 93.4921 43.425C93.8827 43.425 94.2436 43.6334 94.4389 43.9717L95.5045 45.8173L96.5701 43.9729C96.7654 43.6346 97.1263 43.4263 97.5169 43.4263C97.9075 43.4263 98.2684 43.6346 98.4637 43.9729C98.659 44.3111 98.6591 44.7278 98.4638 45.0661L97.3982 46.9117H99.5282C99.9187 46.9117 100.28 47.12 100.475 47.4583C100.67 47.7965 100.67 48.2133 100.475 48.5515C100.28 48.8897 99.9187 49.0981 99.5282 49.0981H97.3981L98.4625 50.9414C98.6578 51.2796 98.6578 51.6963 98.4625 52.0346C98.2672 52.3728 97.9063 52.5812 97.5157 52.5812C97.1251 52.5812 96.7642 52.3728 96.5689 52.0346L95.5045 50.1901L94.4389 52.0357C94.2436 52.374 93.8827 52.5824 93.4921 52.5824C93.1016 52.5824 92.7406 52.3741 92.5453 52.0358C92.35 51.6976 92.35 51.2808 92.5452 50.9425L93.6109 49.0969H91.4808C91.0903 49.0969 90.7294 48.8886 90.5341 48.5503C90.3388 48.2121 90.3388 47.7954 90.5341 47.4571C90.7294 47.1189 91.0903 46.9105 91.4808 46.9105L91.4809 46.9105Z" fill="#333333"/>
<path d="M106.481 46.9105H108.611L107.545 45.0649H107.545C107.35 44.7266 107.35 44.3099 107.545 43.9716C107.741 43.6333 108.102 43.425 108.492 43.425C108.883 43.425 109.244 43.6334 109.439 43.9717L110.505 45.8173L111.57 43.9729C111.765 43.6346 112.126 43.4263 112.517 43.4263C112.907 43.4263 113.268 43.6346 113.464 43.9729C113.659 44.3111 113.659 44.7278 113.464 45.0661L112.398 46.9117H114.528C114.919 46.9117 115.28 47.12 115.475 47.4583C115.67 47.7965 115.67 48.2133 115.475 48.5515C115.28 48.8897 114.919 49.0981 114.528 49.0981H112.398L113.463 50.9414C113.658 51.2796 113.658 51.6963 113.463 52.0346C113.267 52.3728 112.906 52.5812 112.516 52.5812C112.125 52.5812 111.764 52.3728 111.569 52.0346L110.505 50.1901L109.439 52.0357C109.244 52.374 108.883 52.5824 108.492 52.5824C108.102 52.5824 107.741 52.3741 107.545 52.0358C107.35 51.6976 107.35 51.2808 107.545 50.9425L108.611 49.0969H106.481C106.09 49.0969 105.729 48.8886 105.534 48.5503C105.339 48.2121 105.339 47.7954 105.534 47.4571C105.729 47.1189 106.09 46.9105 106.481 46.9105L106.481 46.9105Z" fill="#333333"/>
<path d="M121.481 46.9105H123.611L122.545 45.0649H122.545C122.35 44.7266 122.35 44.3099 122.545 43.9716C122.741 43.6333 123.102 43.425 123.492 43.425C123.883 43.425 124.244 43.6334 124.439 43.9717L125.505 45.8173L126.57 43.9729C126.765 43.6346 127.126 43.4263 127.517 43.4263C127.907 43.4263 128.268 43.6346 128.464 43.9729C128.659 44.3111 128.659 44.7278 128.464 45.0661L127.398 46.9117H129.528C129.919 46.9117 130.28 47.12 130.475 47.4583C130.67 47.7965 130.67 48.2133 130.475 48.5515C130.28 48.8897 129.919 49.0981 129.528 49.0981H127.398L128.463 50.9414C128.658 51.2796 128.658 51.6963 128.463 52.0346C128.267 52.3728 127.906 52.5812 127.516 52.5812C127.125 52.5812 126.764 52.3728 126.569 52.0346L125.505 50.1901L124.439 52.0357C124.244 52.374 123.883 52.5824 123.492 52.5824C123.102 52.5824 122.741 52.3741 122.545 52.0358C122.35 51.6976 122.35 51.2808 122.545 50.9425L123.611 49.0969H121.481C121.09 49.0969 120.729 48.8886 120.534 48.5503C120.339 48.2121 120.339 47.7954 120.534 47.4571C120.729 47.1189 121.09 46.9105 121.481 46.9105L121.481 46.9105Z" fill="#333333"/>
<path d="M136.249 46.9105H138.237L137.242 45.0649H137.242C137.06 44.7266 137.06 44.3099 137.242 43.9716C137.425 43.6333 137.762 43.425 138.126 43.425C138.491 43.425 138.828 43.6334 139.01 43.9717L140.004 45.8173L140.999 43.9729C141.181 43.6346 141.518 43.4263 141.883 43.4263C142.247 43.4263 142.584 43.6346 142.766 43.9729C142.948 44.3111 142.949 44.7278 142.766 45.0661L141.772 46.9117H143.76C144.124 46.9117 144.461 47.12 144.643 47.4583C144.826 47.7965 144.826 48.2133 144.643 48.5515C144.461 48.8897 144.124 49.0981 143.76 49.0981H141.772L142.765 50.9414C142.947 51.2796 142.947 51.6963 142.765 52.0346C142.583 52.3728 142.246 52.5812 141.881 52.5812C141.517 52.5812 141.18 52.3728 140.998 52.0346L140.004 50.1901L139.01 52.0357C138.828 52.374 138.491 52.5824 138.126 52.5824C137.762 52.5824 137.425 52.3741 137.242 52.0358C137.06 51.6976 137.06 51.2808 137.242 50.9425L138.237 49.0969H136.249C135.884 49.0969 135.548 48.8886 135.365 48.5503C135.183 48.2121 135.183 47.7954 135.365 47.4571C135.548 47.1189 135.884 46.9105 136.249 46.9105L136.249 46.9105Z" fill="#333333"/>
<mask id="path-13-inside-1_1170_7276" fill="white">
<path d="M332 44.3333C334.527 44.3333 336.78 45.7533 337.88 48C336.78 50.2467 334.527 51.6667 332 51.6667C329.473 51.6667 327.22 50.2467 326.12 48C327.22 45.7533 329.473 44.3333 332 44.3333ZM332 43C328.667 43 325.82 45.0733 324.667 48C325.82 50.9267 328.667 53 332 53C335.333 53 338.18 50.9267 339.333 48C338.18 45.0733 335.333 43 332 43ZM332 46.3333C332.92 46.3333 333.667 47.08 333.667 48C333.667 48.92 332.92 49.6667 332 49.6667C331.08 49.6667 330.333 48.92 330.333 48C330.333 47.08 331.08 46.3333 332 46.3333ZM332 45C330.347 45 329 46.3467 329 48C329 49.6533 330.347 51 332 51C333.653 51 335 49.6533 335 48C335 46.3467 333.653 45 332 45Z"/>
</mask>
<path d="M337.88 48L339.676 48.8795C339.948 48.3246 339.948 47.6754 339.676 47.1205L337.88 48ZM326.12 48L324.324 47.1205C324.052 47.6754 324.052 48.3246 324.324 48.8795L326.12 48ZM324.667 48L322.806 47.2667C322.62 47.7379 322.62 48.2621 322.806 48.7333L324.667 48ZM339.333 48L341.194 48.7333C341.38 48.2621 341.38 47.7379 341.194 47.2667L339.333 48ZM332 46.3333C333.76 46.3333 335.318 47.3153 336.084 48.8795L339.676 47.1205C338.242 44.1913 335.294 42.3333 332 42.3333V46.3333ZM336.084 47.1205C335.318 48.6847 333.76 49.6667 332 49.6667V53.6667C335.294 53.6667 338.242 51.8087 339.676 48.8795L336.084 47.1205ZM332 49.6667C330.241 49.6667 328.682 48.6847 327.916 47.1205L324.324 48.8795C325.758 51.8087 328.706 53.6667 332 53.6667V49.6667ZM327.916 48.8795C328.682 47.3153 330.241 46.3333 332 46.3333V42.3333C328.706 42.3333 325.758 44.1913 324.324 47.1205L327.916 48.8795ZM332 41C327.815 41 324.249 43.6046 322.806 47.2667L326.527 48.7333C327.391 46.5421 329.519 45 332 45V41ZM322.806 48.7333C324.249 52.3954 327.815 55 332 55V51C329.519 51 327.391 49.4579 326.527 47.2667L322.806 48.7333ZM332 55C336.186 55 339.751 52.3954 341.194 48.7333L337.473 47.2667C336.609 49.4579 334.481 51 332 51V55ZM341.194 47.2667C339.751 43.6046 336.186 41 332 41V45C334.481 45 336.609 46.5421 337.473 48.7333L341.194 47.2667ZM332 48.3333C331.816 48.3333 331.667 48.1846 331.667 48H335.667C335.667 45.9754 334.025 44.3333 332 44.3333V48.3333ZM331.667 48C331.667 47.8154 331.816 47.6667 332 47.6667V51.6667C334.025 51.6667 335.667 50.0246 335.667 48H331.667ZM332 47.6667C332.185 47.6667 332.333 47.8154 332.333 48H328.333C328.333 50.0246 329.976 51.6667 332 51.6667V47.6667ZM332.333 48C332.333 48.1846 332.185 48.3333 332 48.3333V44.3333C329.976 44.3333 328.333 45.9754 328.333 48H332.333ZM332 43C329.242 43 327 45.2421 327 48H331C331 47.4512 331.451 47 332 47V43ZM327 48C327 50.7579 329.242 53 332 53V49C331.451 49 331 48.5488 331 48H327ZM332 53C334.758 53 337 50.7579 337 48H333C333 48.5488 332.549 49 332 49V53ZM337 48C337 45.2421 334.758 43 332 43V47C332.549 47 333 47.4512 333 48H337Z" fill="#98A2B3" mask="url(#path-13-inside-1_1170_7276)"/>
</g>
<defs>
<filter id="filter0_d_1170_7276" x="0" y="25" width="356" height="48" filterUnits="userSpaceOnUse" color-interpolation-filters="sRGB">
<feFlood flood-opacity="0" result="BackgroundImageFix"/>
<feColorMatrix in="SourceAlpha" type="matrix" values="0 0 0 0 0 0 0 0 0 0 0 0 0 0 0 0 0 0 127 0" result="hardAlpha"/>
<feOffset dy="1"/>
<feGaussianBlur stdDeviation="1"/>
<feColorMatrix type="matrix" values="0 0 0 0 0.0627451 0 0 0 0 0.0941176 0 0 0 0 0.156863 0 0 0 0.05 0"/>
<feBlend mode="normal" in2="BackgroundImageFix" result="effect1_dropShadow_1170_7276"/>
<feBlend mode="normal" in="SourceGraphic" in2="effect1_dropShadow_1170_7276" result="shape"/>
</filter>
</defs>
</svg>
