<svg width="508" height="338" viewBox="0 0 508 338" fill="none" xmlns="http://www.w3.org/2000/svg">
<g clip-path="url(#clip0_1177_21568)">
<path d="M476.155 320.775L470.449 324.483L453.424 304.247L461.845 298.773L476.155 320.775Z" fill="#A0616A"/>
<path d="M480.226 326.594L462.68 338L462.536 337.778C461.358 335.967 460.948 333.763 461.396 331.65C461.844 329.537 463.113 327.689 464.924 326.511L466.548 321.997L474.109 320.541L475.641 319.545L480.226 326.594Z" fill="#2F2E41"/>
<path d="M378.371 330.493L371.566 330.493L368.328 304.249L378.372 304.249L378.371 330.493Z" fill="#A0616A"/>
<path d="M378.611 337.591L357.682 337.59V337.325C357.682 335.166 358.54 333.094 360.068 331.567C361.595 330.04 363.667 329.182 365.828 329.182L369.651 326.282L376.784 329.182H378.611L378.611 337.591Z" fill="#2F2E41"/>
<path d="M448.818 169.955L387.787 171.297L381.737 178.856C381.737 178.856 382.26 176.191 381.795 179.118C381.329 182.046 369.555 240.414 371.781 242.372C374.006 244.329 367.56 257.845 367.087 258.669C366.613 259.494 361.511 300.177 367.087 303.523L369.182 317.723H378.928C378.928 317.723 388.692 306.428 386.727 304.38C384.762 302.332 390.382 295.523 390.597 291.872C390.812 288.221 392.863 271.66 391.274 269.005C389.684 266.349 387.535 256.384 391.568 252.521C395.601 248.658 414.41 201.185 414.41 201.185C414.41 201.185 419.876 256.84 419.863 261.21C419.847 266.893 423.58 264.08 423.58 269.069C423.58 270.077 435.735 295.984 443.905 304.082L460.799 317.074L468.596 311.228V302.783C468.596 302.783 461.37 287.115 458.849 284.595C456.329 282.075 447.022 274.361 447.022 270.833C447.022 267.305 442.64 266.076 445.587 261.399C448.534 256.722 447.526 254.706 446.518 252.69C445.509 250.674 447.421 168.075 447.421 168.075L448.818 169.955Z" fill="#2F2E41"/>
<path d="M423.37 47.4793C433.555 47.4793 441.812 39.2247 441.812 29.0422C441.812 18.8597 433.555 10.6051 423.37 10.6051C413.185 10.6051 404.928 18.8597 404.928 29.0422C404.928 39.2247 413.185 47.4793 423.37 47.4793Z" fill="#A0616A"/>
<path d="M438.103 177.002L443.295 161.379L452.635 163.099L446.559 179.421C446.928 180.377 447.024 181.417 446.834 182.425C446.645 183.432 446.178 184.367 445.486 185.124C444.794 185.88 443.905 186.429 442.918 186.708C441.931 186.988 440.886 186.986 439.9 186.704C438.914 186.422 438.027 185.871 437.337 185.112C436.647 184.353 436.183 183.417 435.996 182.409C435.81 181.401 435.908 180.361 436.28 179.406C436.652 178.45 437.284 177.618 438.103 177.002Z" fill="#A0616A"/>
<path d="M330.439 146.81L343.158 136.355L350.146 142.786L336.305 153.361C336.108 154.367 335.634 155.298 334.936 156.05C334.239 156.801 333.346 157.344 332.357 157.615C331.368 157.887 330.323 157.878 329.339 157.589C328.356 157.299 327.472 156.741 326.788 155.977C326.104 155.214 325.647 154.274 325.468 153.265C325.288 152.255 325.394 151.216 325.774 150.263C326.153 149.311 326.791 148.483 327.615 147.873C328.439 147.263 329.417 146.895 330.439 146.81Z" fill="#A0616A"/>
<path d="M401.288 25.8168C403.276 26.434 405.193 26.7977 406.486 25.1673C407.779 23.5368 407.441 21.6725 409.365 20.8865C410.973 20.3473 412.725 20.4284 414.277 21.1139C414.556 21.2178 414.829 21.3347 415.096 21.4516C415.245 21.3217 415.395 21.1983 415.557 21.0813C416.78 20.2123 418.289 19.8449 419.774 20.055C418.688 20.5793 417.795 21.4314 417.22 22.491C417.753 22.7573 418.293 23.0236 418.838 23.251C421.132 24.189 423.613 24.5799 426.084 24.3927C428.555 24.2056 430.949 23.4455 433.075 22.1727C430.944 27.7851 432.6 29.7858 435.726 34.911L435.849 35.2098C435.537 33.8652 439.624 32.3126 439.624 34.2614C439.445 36.258 439.008 38.223 438.325 40.1077C442.334 34.073 444.699 27.012 443.146 20.2369C442.815 18.8143 442.665 17.2878 441.762 16.1315C440.859 14.9818 439.196 14.3062 437.883 14.9558C437.72 12.7527 436.964 10.6349 435.693 8.82752C434.423 7.02012 432.686 5.59067 430.668 4.69114C428.65 3.79162 426.425 3.45564 424.231 3.71893C422.037 3.98222 419.956 4.83492 418.208 6.18641C416.584 7.44011 415.304 9.08357 413.855 10.5451C412.406 12.0067 410.69 13.3383 408.663 13.7021C407.376 13.9295 405.927 13.793 404.901 14.6051C403.712 15.547 403.699 17.2034 403.705 18.7949C404.869 18.7617 406.016 19.076 407 19.6978C405.795 19.728 404.631 20.1372 403.673 20.867C403.654 20.8784 403.637 20.8915 403.621 20.906C403.27 23.5823 403.413 24.1475 401.288 25.8168Z" fill="#2F2E41"/>
<path d="M466.174 86.2496C465.745 84.1931 464.895 82.2474 463.679 80.5343C462.462 78.8212 460.905 77.3778 459.105 76.2943C458.97 75.6061 458.732 75.166 458.365 75.0357C453.123 73.1727 438.489 64.5662 438.489 64.5662L437.263 54.7246L410.783 53.4527L404.006 64.5662C404.006 64.5662 386.454 66.33 386.779 72.7537C382.529 78.0543 363.606 101.739 352.265 117.401C346.844 124.887 343.153 130.543 343.627 131.479C345.223 134.633 342.981 132.505 340.472 133.075C337.964 133.645 339.18 135.127 339.237 137.312C339.294 139.497 330.666 144.094 330.666 144.094C335.93 145.975 342.524 153.708 342.524 153.708C342.524 153.708 348.91 146.982 350.069 146.279C351.228 145.576 351.874 144.551 355.542 143.278C359.21 142.005 357.671 141.036 357.937 138.338C358.203 135.641 359.096 137.635 364.246 135.147C369.396 132.658 365.215 133.608 366.641 130.207C368.066 126.807 367.61 128.668 372.247 125.857C375.034 124.167 377.802 121.685 381.654 117.401C384.211 114.558 387.244 110.923 391.08 106.194C391.106 106.162 391.131 106.128 391.157 106.096C391.415 109.93 391.613 113.765 391.731 117.401C392.067 127.733 391.747 136.445 390.242 138.844C388.131 142.212 384.557 153.481 381.652 163.375C381.089 165.294 380.99 167.318 381.362 169.283C381.734 171.248 382.567 173.096 383.792 174.677C385.017 176.257 386.599 177.525 388.41 178.375C390.22 179.226 392.206 179.635 394.205 179.569C412.228 178.975 438.602 177.601 443.742 174.585C446.538 174.985 449.301 175.592 452.007 176.401C452.007 176.401 453.826 167.309 454.432 166.096C455.038 164.884 455.038 163.672 457.464 160.641C459.889 157.61 458.07 157.61 456.857 155.185C455.645 152.761 457.464 153.973 460.495 149.123C463.527 144.274 460.495 147.305 459.889 143.668C459.283 140.031 459.889 141.85 462.314 137C464.324 132.982 465.501 127.71 466.88 117.401C467.166 115.269 467.46 112.926 467.771 110.329C468.801 101.748 467.498 92.585 466.174 86.2496Z" fill="#FFEAD5"/>
<path d="M176.503 323.382C176.099 323.401 175.699 323.294 175.357 323.078C175.015 322.862 174.748 322.546 174.592 322.172C174.436 321.799 174.399 321.387 174.485 320.992C174.571 320.597 174.776 320.237 175.073 319.963L175.208 319.425C175.191 319.382 175.173 319.339 175.155 319.296C174.748 318.335 174.065 317.515 173.194 316.94C172.322 316.365 171.3 316.06 170.255 316.064C169.211 316.068 168.191 316.38 167.323 316.962C166.456 317.543 165.78 318.368 165.38 319.333C163.781 323.182 161.746 327.038 161.244 331.108C161.024 332.907 161.117 334.731 161.52 336.498C157.765 328.31 155.815 319.409 155.802 310.401C155.801 308.141 155.927 305.882 156.178 303.636C156.386 301.794 156.675 299.965 157.043 298.15C159.056 288.3 163.377 279.067 169.652 271.211C172.689 269.554 175.145 267.007 176.689 263.912C177.249 262.799 177.644 261.611 177.863 260.386C177.52 260.431 176.571 255.214 176.83 254.894C176.352 254.17 175.498 253.81 174.976 253.103C172.383 249.589 168.81 250.202 166.945 254.979C162.96 256.989 162.922 260.323 165.367 263.53C166.922 265.57 167.136 268.33 168.501 270.515C168.36 270.694 168.214 270.868 168.074 271.048C165.507 274.347 163.27 277.89 161.395 281.626C161.851 277.441 161.306 273.207 159.807 269.274C158.286 265.608 155.437 262.52 152.928 259.351C149.914 255.544 143.734 257.205 143.203 262.031C143.198 262.078 143.193 262.124 143.188 262.171C143.561 262.381 143.925 262.604 144.282 262.84C144.731 263.14 145.078 263.568 145.279 264.068C145.48 264.568 145.525 265.118 145.409 265.644C145.292 266.171 145.019 266.649 144.626 267.018C144.232 267.387 143.736 267.628 143.203 267.71L143.149 267.718C143.281 269.061 143.516 270.392 143.851 271.699C140.632 284.144 147.581 288.677 157.504 288.88C157.723 288.992 157.936 289.105 158.155 289.211C156.271 294.549 155.089 300.11 154.64 305.752C154.385 309.081 154.4 312.425 154.685 315.752L154.668 315.634C153.949 311.935 151.975 308.597 149.079 306.185C144.779 302.653 138.703 301.352 134.064 298.514C133.571 298.197 132.998 298.028 132.412 298.027C131.826 298.025 131.252 298.192 130.757 298.506C130.262 298.82 129.868 299.269 129.62 299.799C129.372 300.33 129.282 300.921 129.359 301.502C129.365 301.543 129.371 301.584 129.378 301.625C130.069 301.907 130.743 302.231 131.394 302.597C131.767 302.807 132.131 303.03 132.488 303.266C132.937 303.566 133.284 303.994 133.485 304.494C133.686 304.994 133.731 305.543 133.615 306.07C133.498 306.596 133.225 307.075 132.831 307.444C132.438 307.812 131.942 308.054 131.409 308.136L131.354 308.144C131.315 308.15 131.281 308.155 131.242 308.161C132.424 310.982 134.082 313.578 136.145 315.836C138.158 326.7 146.802 327.731 156.049 324.567H156.055C157.07 328.975 158.54 333.265 160.441 337.369H176.111C176.167 337.194 176.217 337.015 176.268 336.841C174.818 336.932 173.361 336.845 171.932 336.582C173.095 335.156 174.257 333.719 175.42 332.293C175.446 332.266 175.47 332.238 175.493 332.209C176.083 331.479 176.678 330.754 177.268 330.025L177.268 330.024C177.299 327.786 177.042 325.554 176.503 323.382Z" fill="#F2F2F2"/>
<path d="M55.9795 299.689L60.303 304.257L80.3782 289.388L73.9974 282.646L55.9795 299.689Z" fill="#C78F8F"/>
<path d="M63.0642 302.216L58.1696 297.619L56.9677 296.493L44.5068 306.452L47.7483 309.878L51.5637 307.431L49.8109 312.057L58.405 321.138C58.8167 321.574 59.357 321.866 59.9468 321.973C60.5367 322.08 61.1453 321.995 61.6838 321.732C62.2223 321.469 62.6625 321.04 62.9402 320.509C63.2178 319.978 63.3184 319.372 63.2272 318.78L61.3725 306.784L64.6409 303.694L63.0642 302.216Z" fill="#2F2E41"/>
<path d="M150.998 133.361L149.627 148.321C149.627 148.321 147.234 159.593 148.891 158.679C150.548 157.765 147.577 161.877 148.36 165.443C149.142 169.008 141.677 195.598 145.058 192.844C148.439 190.089 143.104 209.118 139.73 218.506C138.697 221.408 137.636 224.345 136.567 227.261C136.356 227.852 136.145 228.435 135.928 229.025C134.543 232.82 133.158 236.558 131.83 240.085C131.64 240.578 131.457 241.069 131.275 241.554C131.267 241.568 131.267 241.582 131.261 241.582C126.888 253.085 123.142 262.136 121.645 263.633C120.865 264.413 108.487 273.351 96.0106 282.303C82.9159 291.698 69.7154 301.114 69.7154 301.114L57.3867 288.185C57.3867 288.185 57.6819 288.1 58.2372 287.932C59.2634 287.637 61.1613 287.081 63.6496 286.344C74.0241 283.287 60.8449 278.53 70.2639 275.129C72.9207 274.173 74.692 273.428 75.0925 273.035C77.4332 270.751 80.5752 265.305 82.0582 267.589C83.5413 269.873 90.2681 252.903 92.2079 251.223C93.2482 250.317 96.6432 246.08 99.5533 242.355C102.055 239.151 104.206 236.319 104.206 236.319C104.206 236.319 104.248 234.801 104.312 232.384C104.403 228.807 104.537 223.249 104.677 217.684C104.67 217.677 104.67 217.677 104.677 217.677C104.726 215.583 104.776 213.489 104.825 211.5C104.86 209.961 104.895 208.479 104.93 207.108C105.022 203.005 105.085 199.899 105.085 199.126C105.085 196.589 105.085 198.564 107.088 197.032C107.387 196.797 107.671 196.543 107.939 196.273C108.367 195.887 108.762 195.467 109.12 195.015C109.267 194.699 108.346 195.127 107.151 194.889C106.504 194.759 105.906 194.452 105.422 194.003C102.906 191.741 105.619 184.784 105.619 184.784C99.8976 173.344 100.312 163.963 102.99 156.732C104.993 151.544 108.171 146.89 112.275 143.136C113.838 141.647 115.539 140.313 117.358 139.151L117.533 138.203L119.466 127.74C120.494 127.175 121.563 126.689 122.664 126.285C126.097 125.054 129.781 124.687 133.39 125.217C136.977 125.736 140.449 126.86 143.66 128.541C146.284 129.859 148.746 131.476 150.998 133.361Z" fill="#2F2E41"/>
<path d="M97.0127 322.997L103.276 323.58L108.554 299.165L99.309 298.306L97.0127 322.997Z" fill="#C78F8F"/>
<path d="M115.052 332.566L105.746 324.774L106.168 320.291L104.003 320.22L97.2975 320.002H97.2903L95.6456 319.946L92.855 335.645L97.5573 336.08L98.8014 331.723L100.538 336.361L103.026 336.593L112.986 337.521C113.07 337.528 113.162 337.535 113.246 337.535C113.642 337.535 114.033 337.452 114.395 337.289C114.756 337.127 115.078 336.89 115.341 336.593C115.748 336.147 115.998 335.579 116.05 334.977C116.092 334.524 116.022 334.069 115.848 333.649C115.675 333.229 115.401 332.858 115.052 332.566Z" fill="#2F2E41"/>
<path d="M131.83 240.086C129.447 253.05 119.36 283.449 113.259 301.241C110.483 309.371 108.543 314.873 108.543 314.873L105.38 313.875H105.373L100.024 312.188L98.0769 311.57H98.0697L95.7081 310.818C95.7081 310.818 95.9823 296.301 96.0104 282.303C96.0314 276.436 96.0032 270.653 95.891 266.071C95.7644 261.075 95.5464 257.498 95.1881 256.788C93.7048 253.879 96.1862 253.57 98.8079 252.839C101.437 252.102 99.3842 250.991 98.3648 248.63C97.6764 247.056 99.0327 244.955 99.9958 243.761C100.261 243.424 100.545 243.103 100.846 242.798C100.846 242.798 100.382 242.636 99.553 242.355C102.055 239.151 104.206 236.319 104.206 236.319C104.206 236.319 104.248 234.801 104.311 232.384C104.403 228.807 104.536 223.249 104.677 217.684C104.67 217.677 104.67 217.677 104.677 217.677C104.726 215.583 104.775 213.489 104.825 211.5C108.845 214.585 112.753 217.607 116.296 220.403C116.3 220.407 116.304 220.411 116.306 220.416C116.309 220.421 116.31 220.426 116.31 220.431C124.822 227.156 131.211 232.553 132.111 234.267C132.519 235.04 132.378 237.106 131.83 240.086Z" fill="#2F2E41"/>
<path d="M507.297 337.997H0.70289C0.516472 337.997 0.337689 337.923 0.205871 337.791C0.0740537 337.66 0 337.481 0 337.295C0 337.108 0.0740537 336.929 0.205871 336.798C0.337689 336.666 0.516472 336.592 0.70289 336.592H507.297C507.484 336.592 507.662 336.666 507.794 336.798C507.926 336.929 508 337.108 508 337.295C508 337.481 507.926 337.66 507.794 337.791C507.662 337.923 507.484 337.997 507.297 337.997Z" fill="#E6E6E6"/>
<path d="M115.917 108.072L117.235 120.286L116.46 136.303L151.946 132.088L155.279 108.072L151.031 108.114L115.917 108.072Z" fill="#FFB6B6"/>
<path d="M146.101 68.6218L132.746 58.0815L125.736 57.674L115.334 64.336L112.787 77.3269L106.762 91.9557L115.598 131.434C115.598 131.434 116.427 134.267 114.255 134.607C112.084 134.947 112.344 139.123 112.344 139.123C112.344 139.123 112.786 142.742 110.678 143.061C108.569 143.38 102.946 143.38 107.866 149.704C112.787 156.028 151.703 132.109 151.703 132.109L157.355 102.46C157.355 102.46 168.316 87.7408 156.512 79.3112L146.101 68.6218Z" fill="#FCE7F6"/>
<path d="M87.8011 158.256C87.2126 157.522 86.7923 156.668 86.5698 155.754C86.3472 154.84 86.3279 153.888 86.5131 152.966C86.6983 152.043 87.0835 151.173 87.6416 150.415C88.1997 149.658 88.9172 149.032 89.7434 148.582L106.542 92.2228L117.046 97.5095L98.7519 151.529C99.4165 152.967 99.5304 154.598 99.0721 156.115C98.6137 157.631 97.615 158.926 96.2652 159.755C94.9153 160.584 93.3082 160.89 91.7482 160.613C90.1882 160.337 88.7838 159.498 87.8011 158.256Z" fill="#C78F8F"/>
<path d="M117.746 63.8146C117.746 63.8146 114.743 62.2192 112.689 69.1227C111.045 74.6494 97.7033 107.569 97.5331 115.573C96.4351 115.805 95.4457 116.396 94.7209 117.253C93.996 118.11 93.5768 119.183 93.5293 120.304L110.025 122.514C112.908 120.083 113.664 116.801 112.549 115.826L116.13 106.047L131.073 74.9323L119.937 64.9291L117.746 63.8146Z" fill="#FCE7F6"/>
<path d="M205.889 139.731C206.102 138.814 206.111 137.863 205.916 136.942C205.722 136.022 205.327 135.155 204.762 134.404C204.196 133.652 203.472 133.034 202.641 132.592C201.81 132.151 200.892 131.896 199.953 131.848L161.418 87.85L153.243 97.6011L193.105 138.4C193.128 139.983 193.731 141.504 194.8 142.673C195.869 143.842 197.33 144.578 198.905 144.742C200.481 144.906 202.062 144.486 203.35 143.563C204.637 142.639 205.54 141.276 205.889 139.731Z" fill="#C78F8F"/>
<path d="M138.036 67.5224C138.036 67.5224 140.054 64.7859 144.892 70.1225C148.765 74.3949 175.035 98.3092 178.65 105.452C179.741 105.187 180.888 105.293 181.913 105.752C182.937 106.211 183.779 106.997 184.307 107.988L170.389 117.112C166.739 116.166 164.637 113.533 165.221 112.173L157.761 104.903L130.829 83.3084L136.543 69.4746L138.036 67.5224Z" fill="#FCE7F6"/>
<path d="M323.597 159.593C322.485 159.209 321.566 158.406 321.037 157.355C320.508 156.304 320.41 155.088 320.764 153.966C320.839 153.739 320.933 153.519 321.045 153.308L310.402 141.686L314.401 134.212L327.259 151.708C328.1 152.24 328.741 153.035 329.083 153.969C329.424 154.904 329.447 155.925 329.147 156.873C328.971 157.411 328.691 157.909 328.322 158.339C327.954 158.769 327.504 159.122 326.999 159.378C326.495 159.634 325.944 159.788 325.38 159.832C324.815 159.875 324.247 159.807 323.709 159.631C323.672 159.619 323.634 159.606 323.597 159.593Z" fill="#FFB6B6"/>
<path d="M255.364 71.3189C255.012 72.96 254.975 74.6528 255.254 76.3077C255.327 76.776 255.429 77.2395 255.558 77.6957C256.034 79.4007 256.487 80.9718 256.924 82.3894C257.181 83.2698 257.445 84.0995 257.698 84.8695C259.154 89.3651 260.291 91.9103 261.098 92.4459C261.489 92.7079 261.881 92.9478 262.262 93.182C264.213 94.3755 265.626 95.2405 264.681 97.443C264.543 97.7577 264.38 98.0605 264.193 98.3483C263.88 98.8322 263.534 99.2939 263.157 99.7301C262.942 99.9769 262.744 100.238 262.563 100.51C262.328 100.859 262.226 101.152 262.352 101.418C262.513 101.745 262.956 101.908 263.908 101.953C264.059 101.96 264.232 101.969 264.418 101.969C264.478 101.973 264.541 101.97 264.61 101.971C264.732 101.973 264.871 101.974 265.012 101.968C266.188 101.946 267.706 102.565 269.33 103.51C274.122 106.3 279.77 111.917 279.839 111.987L315.102 148.034L315.789 147.574L317.421 146.478L317.986 146.101L318.63 145.668L321.434 143.792L322.852 142.845L313.756 126.15L312.766 124.336L311.917 122.77L294.553 90.8899L287.656 79.93L286.116 77.4881L279.557 67.075C278.631 65.6015 277.424 64.3249 276.004 63.318C274.585 62.311 272.98 61.5935 271.283 61.2063C269.586 60.8192 267.83 60.7699 266.114 61.0615C264.397 61.353 262.756 61.9796 261.282 62.9055C261.182 62.968 261.084 63.0317 260.986 63.0968C258.117 65.005 256.101 67.9531 255.364 71.3189Z" fill="#D1E9FF"/>
<path d="M257.705 323.221L251.245 323.166L248.385 297.673L257.92 297.754L257.705 323.221Z" fill="#FFB6B6"/>
<path d="M259.418 320.241L257.731 320.129L250.85 319.658L248.636 319.511L248.594 324.127L238.275 331.126C237.766 331.472 237.38 331.972 237.175 332.553C236.97 333.134 236.955 333.765 237.134 334.354C237.313 334.943 237.676 335.46 238.17 335.829C238.663 336.197 239.262 336.399 239.878 336.403L252.72 336.509L254.969 331.955L255.791 336.537L260.641 336.579L259.418 320.241Z" fill="#2F2E41"/>
<path d="M325.724 318.501L319.549 320.399L309.125 296.959L318.239 294.158L325.724 318.501Z" fill="#FFB6B6"/>
<path d="M326.459 315.147L324.815 315.548L318.117 317.171L315.959 317.698L317.315 322.118L309.59 331.899C309.209 332.383 308.991 332.975 308.97 333.59C308.949 334.206 309.126 334.812 309.473 335.32C309.821 335.828 310.322 336.212 310.903 336.416C311.484 336.62 312.115 336.633 312.704 336.453L324.984 332.679L325.75 327.655L327.922 331.773L332.554 330.346L326.459 315.147Z" fill="#2F2E41"/>
<path d="M244.71 108.862L232.381 144.681L231.974 147.548C228.868 150.496 232.77 151.468 231.307 152.245C229.844 153.023 228.86 155.203 230.831 155.592C232.803 155.982 239.161 295.69 247.547 301.114C255.933 306.539 261.036 310.463 259.496 302.52C258.875 299.319 259.753 282.161 261.022 262.812C261.166 260.619 263.439 258.298 261.468 256.166C259.496 254.034 261.71 252.631 261.834 250.862C263.603 225.595 265.645 200.65 265.645 200.65C265.645 200.65 278.715 245.522 282.109 242.049C285.503 238.575 284.159 247.127 285.197 249.683C286.063 251.819 282.365 256.013 287.8 256.078C293.235 256.142 305.998 299.758 307.292 299.709C309.858 299.611 317.068 299.887 321.35 299.006C323.465 298.571 314.079 265.549 306.241 237.034C305.616 234.76 302.214 234.707 304.402 230.317C306.589 225.926 295.704 197.519 296.638 196.205C299.117 192.718 300.062 191.202 297.616 190.974C295.171 190.746 294.449 192.087 294.317 188.704C294.185 185.321 293.762 176.979 293.762 176.979C293.762 176.979 291.991 143.989 279.588 125.762L278.53 114.932L244.71 108.862Z" fill="#2F2E41"/>
<path d="M275.511 40.4754L259.161 42.8027L258.174 54.6381L250.106 67.255C250.106 67.255 232.173 79.8718 244.68 99.8024C239.92 116.971 235.188 133.437 230.677 144.414C227.162 166.198 258.647 168.286 294.64 160.576C294.64 160.576 294.144 151.262 290.877 146.784C287.611 142.306 289.389 141.329 289.389 141.329L287.107 132.963C288.398 120.871 284.037 119.786 281.988 114.199L288.21 56.2306L275.511 40.4754Z" fill="#D1E9FF"/>
<path d="M197.024 141.797C197.197 140.634 197.818 139.584 198.754 138.87C199.69 138.157 200.867 137.837 202.035 137.979C202.272 138.011 202.506 138.063 202.735 138.134L212.205 125.539L220.289 128.095L205.449 143.946C205.081 144.87 204.417 145.647 203.562 146.154C202.706 146.661 201.706 146.871 200.718 146.751C199.585 146.602 198.557 146.008 197.861 145.101C197.165 144.194 196.857 143.048 197.007 141.915C197.012 141.875 197.017 141.836 197.024 141.797Z" fill="#FFB6B6"/>
<path d="M281.145 63.3803C280.913 63.0921 280.66 62.8111 280.393 62.5369C278.536 60.6241 276.145 59.3162 273.533 58.7847C270.92 58.2531 268.208 58.5225 265.751 59.5576C265.513 59.6558 265.273 59.7683 265.042 59.8809C256.642 64.0054 252.109 66.753 251.56 68.039C251.37 68.4748 251.209 68.9033 251.047 69.3178C250.892 69.7254 250.745 70.1117 250.59 70.4631C249.944 71.9669 249.198 72.9016 247.301 72.4799C246.671 72.326 246.064 72.0923 245.494 71.7844C245.234 71.6578 244.995 71.5243 244.77 71.3977C243.955 70.9482 243.364 70.625 242.964 70.9201C242.577 71.208 242.563 71.9388 242.915 73.6324C243.031 74.3392 243.012 75.0617 242.858 75.7614C242.394 77.8026 241.666 79.7749 240.693 81.6289C239.236 84.5351 237.598 87.3468 235.787 90.0472L219.066 113.882L217.934 115.492L216.697 117.255L206.828 131.323L207.412 131.92L209.858 134.415L210.399 134.97L210.891 135.476L212.163 136.776L213.358 137.992L240.019 116.279L242.992 113.854L248.32 109.512L259.236 100.623L279.894 81.5095C281.198 80.3126 282.246 78.8648 282.977 77.2528C283.708 75.6408 284.105 73.8979 284.146 72.1285C284.146 72.0091 284.153 71.8966 284.153 71.7772C284.161 68.7131 283.097 65.7427 281.145 63.3803Z" fill="#D1E9FF"/>
<path d="M265.696 40.0445C275.786 40.0445 283.966 31.8674 283.966 21.7803C283.966 11.6933 275.786 3.51613 265.696 3.51613C255.606 3.51613 247.427 11.6933 247.427 21.7803C247.427 31.8674 255.606 40.0445 265.696 40.0445Z" fill="#FFB6B6"/>
<path d="M289.906 47.1063C292.358 50.6144 293.998 54.6242 294.708 58.8447C292.732 60.1085 290.432 60.7723 288.086 60.7556C288.006 60.4485 287.927 60.1414 287.836 59.8343C287.156 57.4562 286.145 55.1856 284.832 53.0892C285.012 55.3497 284.705 57.6226 283.933 59.7547C282.693 59.1915 281.365 58.8489 280.008 58.7424C278.902 58.7423 277.811 58.9993 276.822 59.4931C275.673 55.6826 274.615 52.1793 273.864 49.6655C273.841 55.967 264.602 61.4609 254.522 60.6647C254.158 60.4372 257.81 50.075 257.457 49.8361C256.649 49.3016 255.864 48.7215 255.079 48.1527C258.379 43.0569 261.963 37.5972 261.348 36.7783C261.394 37.7906 257.776 42.6589 253.839 47.2541C251.654 45.6504 264.068 19.5573 257.935 17.4417C257.833 18.363 256.479 18.363 254.829 18.1697C254.394 16.6495 253.746 15.1983 252.906 13.8587C253.015 15.2081 252.853 16.5657 252.428 17.8512C250.799 17.8516 249.175 18.0232 247.581 18.363C247.213 17.7832 246.806 17.2284 246.364 16.7023C246.407 17.3434 246.388 17.9872 246.307 18.6246C244.68 18.9772 243.337 19.3867 243.144 19.7166C241.87 19.2502 244.043 17.146 243.246 16.054C241.221 13.3242 244.225 9.34312 246.125 6.5222C250.028 0.744018 258.595 -1.2579 264.659 2.21129C264.932 1.26719 266.332 0.641622 268.13 0.220767C268.891 0.052882 269.671 -0.0197222 270.451 0.00463963C278.187 0.141123 288.928 6.52219 289.349 14.2455C289.383 15.0189 289.44 15.8606 289.497 16.7592C290.043 25.4038 289.372 33.3774 295.277 39.7015C297.416 41.9878 297.438 52.8163 296.619 58.3898C294.491 56.149 292.978 47.4362 289.906 47.1063Z" fill="#2F2E41"/>
<path d="M113.597 29.3748C111.992 33.3703 107.465 41.2278 106.852 45.5142L107.128 45.2429C107.654 46.1421 108.252 46.9972 108.917 47.8001C110.107 46.5501 111.545 45.5617 113.139 44.8978C112.269 46.6829 111.765 48.6241 111.656 50.607C113.365 55.9611 121.264 53.5768 125.891 52.9922C130.513 58.2769 136.661 59.656 144.713 56.6177C146.965 56.8495 149.485 56.9901 151.063 55.6599C152.641 54.3297 151.702 51.8663 152.55 50.0031C158.598 36.7314 153.017 31.9431 148.275 25.9252C147.232 24.6009 147.236 22.6246 145.967 21.3611C144.205 19.6097 141.504 19.0709 139.015 18.6394C139.661 18.6735 140.306 18.5405 140.887 18.2534C141.467 17.9662 141.964 17.5345 142.329 16.9998C142.649 16.461 142.815 15.8443 142.807 15.2176C142.799 14.591 142.618 13.9786 142.284 13.4482C141.393 11.9724 139.543 11.1142 137.758 10.8998C135.999 10.7804 134.233 10.9323 132.52 11.3499C131.411 11.4958 130.337 11.8391 129.349 12.3635C128.882 12.6122 128.503 12.9972 128.262 13.4672C128.02 13.9372 127.928 14.4697 127.997 14.9935C128.146 15.4772 128.402 15.921 128.746 16.292C129.091 16.663 129.514 16.9514 129.985 17.1359C130.704 17.4397 131.46 17.6465 132.233 17.7511C128.682 17.2903 125.074 17.9216 121.89 19.561C117.9 21.6888 115.207 25.3813 113.597 29.3748Z" fill="#2F2E41"/>
<path d="M135.203 51.7754C143.081 51.7754 149.467 45.3912 149.467 37.5159C149.467 29.6406 143.081 23.2564 135.203 23.2564C127.325 23.2564 120.939 29.6406 120.939 37.5159C120.939 45.3912 127.325 51.7754 135.203 51.7754Z" fill="#C78F8F"/>
<path d="M121.478 29.8702C122.305 32.369 124.669 33.1741 126.853 33.6763C127.542 33.8368 128.235 33.9864 128.934 34.1194C129.192 33.7969 129.467 33.4808 129.753 33.1821C130.944 31.9321 132.382 30.9436 133.975 30.2798C133.286 31.6898 132.828 33.2015 132.619 34.7568C133.94 34.9484 135.267 35.1049 136.603 35.2264C137.732 35.4668 138.911 35.2641 139.896 34.6603C140.88 34.0564 141.595 33.0976 141.892 31.9818C143.108 33.969 144.545 35.8404 146.51 36.6297C147.634 37.0334 148.858 37.0666 150.002 36.7244C151.146 36.3822 152.151 35.6826 152.868 34.7282C154.001 33.1712 154.787 31.3892 155.172 29.5026C155.73 27.2898 156.04 24.7408 154.945 23.3369C154.067 22.2006 152.554 22.1802 151.158 22.281C148.076 22.5174 145.026 23.0701 142.057 23.9304L141.806 24.4954C142.316 21.4311 141.209 18.4829 139.162 17.4343C137.781 16.7333 136.119 16.8508 134.504 16.993C132.43 17.0855 130.381 17.4817 128.422 18.1689C126.175 19.033 124.25 20.5702 122.91 22.5701C121.477 24.7455 120.765 27.7122 121.478 29.8702Z" fill="#2F2E41"/>
<path d="M141.812 16.5425C141.671 16.501 142.036 16.5543 141.909 16.5577C141.972 16.5541 142.035 16.5454 142.096 16.5316C142.106 16.5295 142.248 16.4842 142.154 16.5175C142.366 16.4542 142.555 16.3309 142.698 16.1625C143.033 15.7483 143.296 15.2806 143.476 14.7791C143.702 14.1163 144.067 13.509 144.545 12.9969C144.68 12.8607 144.846 12.7584 145.029 12.6982C145.212 12.6381 145.406 12.6219 145.596 12.6509C145.786 12.6799 145.967 12.7534 146.123 12.8652C146.28 12.9771 146.407 13.1242 146.496 13.2947C146.677 13.9525 146.615 14.6532 146.322 15.2693C146.118 15.8962 145.813 16.486 145.421 17.016C144.764 17.8827 143.868 18.5395 142.844 18.9063C141.658 19.3368 140.365 19.3737 139.157 19.0116C138.997 18.9454 138.86 18.8342 138.763 18.6916C138.665 18.549 138.611 18.3811 138.608 18.2083C138.604 18.0356 138.65 17.8655 138.742 17.7188C138.833 17.572 138.965 17.455 139.121 17.3819L141.137 16.5572C141.243 16.5101 141.357 16.4843 141.473 16.4814C141.589 16.4785 141.704 16.4985 141.812 16.5402C141.921 16.5819 142.02 16.6445 142.104 16.7245C142.188 16.8044 142.255 16.9002 142.302 17.0062C142.349 17.1122 142.375 17.2265 142.377 17.3424C142.38 17.4584 142.36 17.5737 142.318 17.6818C142.276 17.79 142.213 17.8888 142.133 17.9727C142.053 18.0566 141.957 18.1238 141.851 18.1706L141.847 18.1723L139.832 18.9969L139.797 17.3671C140.048 17.4397 140.307 17.4839 140.568 17.499C140.847 17.5269 141.128 17.515 141.404 17.4637C141.667 17.4292 141.927 17.366 142.177 17.2753C142.337 17.2168 142.494 17.1502 142.647 17.0758C142.703 17.0488 142.758 17.0207 142.813 16.9916C142.809 16.9937 143.044 16.8572 142.941 16.9213C143.201 16.7548 143.446 16.5644 143.671 16.3525C143.751 16.2773 143.824 16.1958 143.89 16.1088C144.005 15.9678 144.112 15.8202 144.209 15.6668C144.408 15.3419 144.565 14.9936 144.677 14.6298C144.728 14.4769 144.772 14.3215 144.807 14.1641C144.816 14.0778 144.832 13.9921 144.854 13.9079C144.928 13.7071 144.839 14.0251 144.925 14.1121L145.297 14.3857C145.367 14.4065 145.44 14.4113 145.512 14.3998C145.584 14.3883 145.652 14.3608 145.712 14.3193C145.756 14.2574 145.746 14.2677 145.683 14.3501C145.61 14.4471 145.542 14.5487 145.482 14.6543C145.348 14.9028 145.228 15.1579 145.121 15.4186C144.899 15.9731 144.619 16.5024 144.285 16.9973C143.957 17.498 143.48 17.8825 142.921 18.0962C142.362 18.3098 141.75 18.3416 141.172 18.187C140.955 18.1007 140.781 17.9326 140.687 17.7189C140.593 17.5053 140.587 17.2632 140.67 17.045C140.758 16.83 140.927 16.6576 141.14 16.5639C141.352 16.4702 141.593 16.4626 141.812 16.5425Z" fill="#2F2E41"/>
</g>
<defs>
<clipPath id="clip0_1177_21568">
<rect width="508" height="338" fill="white"/>
</clipPath>
</defs>
</svg>
