<svg width="628" height="453" viewBox="0 0 628 453" fill="none" xmlns="http://www.w3.org/2000/svg">
<g clip-path="url(#clip0_1177_21610)">
<path d="M275.741 354.638C274.993 353.377 271.759 354.727 271.165 353.583C270.572 352.442 273.577 350.704 275.294 346.734C275.603 346.018 277.554 341.507 276.11 340.115C273.373 337.476 260.846 348.365 256.462 344.802C255.5 344.02 254.828 342.459 251.916 339.924C250.758 338.916 250.058 338.46 249.38 338.63C248.418 338.87 248.342 340.158 247.31 342.691C245.763 346.489 244.849 346.26 243.947 349.29C243.278 351.54 243.431 352.848 242.644 353.103C241.53 353.463 240.504 351.077 239.093 351.291C237.652 351.509 236.781 354.287 236.506 356.367C235.989 360.271 237.422 362.847 238.216 365.555C239.079 368.499 239.591 372.975 237.598 379.312L217.874 434.92C222.229 423.509 234.837 392.23 240.135 380.606C241.664 377.251 243.353 373.847 246.821 372.504C250.159 371.211 254.744 371.983 260.589 370.574C261.272 370.409 263.166 369.927 263.404 368.812C263.602 367.89 262.487 367.376 262.658 366.513C262.888 365.355 265.079 365.34 267.772 364.004C269.671 363.062 270.854 361.942 271.871 360.979C272.177 360.688 276.736 356.317 275.741 354.638Z" fill="#84CAFF"/>
<path d="M198.14 383.912C197.305 383.916 197.035 385.893 196.302 385.855C195.571 385.817 195.586 383.84 194.134 381.851C193.872 381.493 192.222 379.233 191.123 379.541C189.039 380.124 190.765 389.417 187.753 390.542C187.091 390.789 186.132 390.669 184.048 391.367C183.22 391.645 182.794 391.858 182.682 392.24C182.522 392.781 183.132 393.191 184.076 394.428C185.493 396.283 185.117 396.667 186.343 397.984C187.254 398.961 187.939 399.264 187.837 399.724C187.693 400.375 186.226 400.19 185.924 400.945C185.615 401.715 186.726 402.945 187.667 403.68C189.433 405.06 191.11 405.1 192.668 405.491C194.36 405.917 196.704 406.957 199.237 409.764L220.822 435.495C216.481 430.064 204.776 414.847 200.604 408.891C199.399 407.172 198.217 405.361 198.559 403.27C198.887 401.258 200.589 399.229 201.584 395.952C201.701 395.569 202.011 394.499 201.533 394.061C201.137 393.698 200.564 394.097 200.19 393.763C199.688 393.317 200.313 392.236 200.435 390.528C200.52 389.324 200.312 388.42 200.133 387.642C200.079 387.408 199.25 383.908 198.14 383.912Z" fill="#84CAFF"/>
<path d="M214.785 387.651L214.282 383.161L214.512 382.821C215.575 381.247 216.116 379.709 216.123 378.25C216.124 378.018 216.113 377.786 216.102 377.55C216.059 376.613 216.005 375.449 216.611 374.092C216.952 373.335 217.907 371.583 219.344 371.8C219.731 371.854 220.023 372.032 220.245 372.24C220.278 372.188 220.311 372.136 220.347 372.08C220.794 371.397 221.149 371.104 221.49 370.822C221.752 370.605 222.023 370.382 222.448 369.853C222.634 369.621 222.779 369.417 222.902 369.246C223.273 368.728 223.759 368.11 224.614 368.121C225.529 368.164 226.008 368.921 226.325 369.422C226.892 370.315 227.148 370.959 227.319 371.386C227.38 371.542 227.451 371.718 227.487 371.772C227.781 372.206 230.177 371.8 231.079 371.653C233.106 371.314 234.86 371.022 235.583 372.301C236.101 373.216 235.716 374.426 234.405 375.993C233.997 376.481 233.562 376.852 233.176 377.142C233.496 377.333 233.782 377.626 233.898 378.085C234.171 379.174 233.236 380.264 231.12 381.331C230.595 381.598 229.887 381.953 228.896 382.125C228.429 382.205 228.009 382.224 227.649 382.235C227.641 382.443 227.593 382.669 227.466 382.901C227.094 383.584 226.321 383.909 225.155 383.831C223.872 383.764 222.816 383.519 221.884 383.304C221.071 383.118 220.37 382.959 219.819 382.996C218.799 383.079 218.012 383.896 217.089 384.956L214.785 387.651Z" fill="#84CAFF"/>
<path d="M217.117 360.917L212.904 362.542L212.517 362.406C210.725 361.777 209.102 361.642 207.69 362.006C207.465 362.064 207.244 362.133 207.018 362.204C206.124 362.483 205.012 362.831 203.546 362.588C202.728 362.451 200.792 361.97 200.637 360.525C200.592 360.137 200.689 359.808 200.834 359.541C200.776 359.522 200.717 359.503 200.653 359.483C199.88 359.223 199.507 358.954 199.148 358.696C198.872 358.497 198.587 358.291 197.968 358.014C197.696 357.893 197.463 357.804 197.266 357.729C196.671 357.501 195.95 357.188 195.744 356.357C195.554 355.461 196.164 354.805 196.567 354.371C197.287 353.596 197.845 353.184 198.214 352.911C198.35 352.812 198.501 352.699 198.545 352.651C198.889 352.255 197.89 350.04 197.518 349.204C196.677 347.328 195.949 345.704 197.003 344.68C197.756 343.947 199.023 344.012 200.871 344.884C201.446 345.155 201.914 345.482 202.293 345.781C202.397 345.423 202.607 345.072 203.022 344.844C204.005 344.303 205.296 344.932 206.864 346.709C207.255 347.15 207.778 347.744 208.195 348.66C208.391 349.092 208.517 349.494 208.618 349.839C208.822 349.794 209.052 349.784 209.308 349.848C210.063 350.034 210.573 350.7 210.794 351.848C211.054 353.107 211.085 354.192 211.114 355.148C211.14 355.983 211.165 356.701 211.34 357.225C211.679 358.191 212.668 358.745 213.927 359.37L217.117 360.917Z" fill="#84CAFF"/>
<path d="M214.785 347.689L214.282 343.198L214.512 342.858C215.575 341.284 216.116 339.747 216.123 338.288C216.124 338.056 216.113 337.824 216.102 337.587C216.059 336.651 216.005 335.486 216.611 334.129C216.952 333.373 217.907 331.621 219.344 331.837C219.731 331.892 220.023 332.069 220.245 332.278C220.278 332.226 220.311 332.174 220.347 332.117C220.794 331.434 221.149 331.142 221.49 330.86C221.752 330.643 222.023 330.42 222.448 329.891C222.634 329.659 222.779 329.455 222.902 329.283C223.273 328.765 223.759 328.147 224.614 328.158C225.529 328.202 226.008 328.958 226.325 329.459C226.892 330.352 227.148 330.996 227.319 331.423C227.38 331.579 227.451 331.755 227.487 331.809C227.781 332.243 230.177 331.837 231.079 331.69C233.106 331.352 234.86 331.059 235.583 332.338C236.101 333.253 235.716 334.463 234.405 336.031C233.997 336.518 233.562 336.889 233.176 337.18C233.496 337.37 233.782 337.663 233.898 338.123C234.171 339.211 233.236 340.302 231.12 341.368C230.595 341.635 229.887 341.991 228.896 342.162C228.429 342.242 228.009 342.262 227.649 342.273C227.641 342.481 227.593 342.706 227.466 342.938C227.094 343.621 226.321 343.946 225.155 343.868C223.872 343.801 222.816 343.556 221.884 343.341C221.071 343.155 220.37 342.997 219.819 343.034C218.799 343.116 218.012 343.933 217.089 344.994L214.785 347.689Z" fill="#84CAFF"/>
<path d="M219.376 434.847L218.436 434.257L217.339 434.383C217.322 434.281 217.262 434.046 217.172 433.68C216.682 431.672 215.186 425.563 213.937 415.941C213.066 409.224 212.573 402.318 212.472 395.413C212.37 388.497 212.697 383.261 212.959 379.052C213.157 375.878 213.398 372.856 213.634 369.912C214.262 362.046 214.855 354.616 214.414 346.39C214.317 344.553 214.112 340.731 211.88 336.664C210.585 334.305 208.802 332.21 206.579 330.441L207.961 328.702C210.415 330.658 212.388 332.978 213.826 335.597C216.3 340.107 216.523 344.272 216.631 346.273C217.079 354.644 216.48 362.146 215.845 370.087C215.611 373.021 215.371 376.03 215.174 379.191C214.914 383.36 214.59 388.551 214.69 395.378C214.79 402.201 215.278 409.022 216.137 415.654C217.37 425.155 218.844 431.174 219.328 433.151C219.586 434.207 219.64 434.428 219.376 434.847Z" fill="#84CAFF"/>
<path d="M202.51 333.969C202.419 333.969 202.327 333.967 202.234 333.96C200.344 333.858 198.595 332.726 197.033 330.597C196.3 329.596 195.925 328.453 195.178 326.174C195.062 325.823 194.498 324.041 194.156 321.589C193.932 319.987 193.96 319.317 194.277 318.725C194.63 318.066 195.199 317.606 195.841 317.296C195.813 317.083 195.835 316.865 195.927 316.641C196.306 315.715 197.311 315.837 197.855 315.895C198.13 315.93 198.473 315.976 198.844 315.956C199.427 315.928 199.74 315.754 200.214 315.494C200.668 315.245 201.233 314.935 202.07 314.764C203.721 314.419 205.105 314.887 205.561 315.041C207.961 315.841 209.144 317.708 210.513 319.869C210.786 320.303 211.723 321.881 212.342 324.045C212.788 325.606 212.725 326.3 212.591 326.816C212.318 327.876 211.673 328.483 210.036 329.823C208.327 331.226 207.469 331.929 206.732 332.356C205.017 333.346 203.94 333.969 202.51 333.969Z" fill="#84CAFF"/>
<path d="M306.444 431.047L312.254 431.046L315.018 408.62L306.442 408.621L306.444 431.047Z" fill="#FFB6B6"/>
<path d="M326.351 430.915C326.532 431.22 326.627 432.204 326.627 432.558C326.627 433.648 325.744 434.531 324.655 434.531H306.661C305.918 434.531 305.316 433.929 305.316 433.185V432.436C305.316 432.436 304.426 430.183 306.258 427.406C306.258 427.406 308.536 429.58 311.94 426.174L312.943 424.355L320.209 429.672L324.236 430.168C325.117 430.276 325.898 430.151 326.351 430.915Z" fill="#2F2E41"/>
<path d="M288.735 431.047L294.545 431.046L297.309 408.62L288.733 408.621L288.735 431.047Z" fill="#FFB6B6"/>
<path d="M308.642 430.915C308.823 431.22 308.918 432.204 308.918 432.558C308.918 433.648 308.035 434.531 306.946 434.531H288.952C288.209 434.531 287.607 433.929 287.607 433.185V432.436C287.607 432.436 286.717 430.183 288.549 427.406C288.549 427.406 290.827 429.58 294.231 426.174L295.234 424.355L302.5 429.672L306.527 430.168C307.408 430.276 308.189 430.151 308.642 430.915Z" fill="#2F2E41"/>
<path d="M313.156 334.2L319.353 358.216L316.254 419.887L301.645 420.865L300.76 385.364L298.989 421.91L283.937 418.777L283.052 338.377L313.156 334.2Z" fill="#2F2E41"/>
<path d="M253.157 253.342C251.158 249.831 247.726 248.017 245.493 249.291C243.26 250.565 243.071 254.443 245.072 257.955C245.852 259.369 246.959 260.576 248.301 261.474L256.962 276.245L263.802 272.03L254.538 257.916C254.449 256.303 253.976 254.735 253.157 253.342Z" fill="#FFB6B6"/>
<path d="M292.517 305.485C292.517 305.485 284.309 316.806 279.288 312.761C274.268 308.715 246.53 263.241 246.53 263.241L257.538 257.338L292.517 305.485Z" fill="#1570EF"/>
<path d="M284.822 291.675L295.447 275.727L306.072 280.157L303.416 294.332L284.822 291.675Z" fill="#FFB6B6"/>
<path d="M285.709 288.131L304.302 287.245L316.698 290.789L319.354 356.349L282.167 352.805V318.232L276.854 300.534L285.709 288.131Z" fill="#1570EF"/>
<path d="M316.395 332.354C315.741 330.447 315.481 328.434 315.649 326.426C316.125 320.757 316.215 309.651 310.44 304.633L307.179 301.098C307.111 301.024 307.035 300.961 306.966 300.89L312.362 288.198L309.102 286.811L304.094 298.591C301.872 297.238 299.31 296.489 296.66 296.489C293.598 296.489 290.672 297.488 288.254 299.247L285.2 288.049L281.783 288.983L285.602 301.753C285.463 301.922 285.311 302.078 285.18 302.255L283.314 304.761C282.86 305.371 282.358 305.938 281.815 306.47C280.67 307.592 278.435 310.317 278.413 314.513C278.406 315.948 278.111 317.367 277.674 318.734L275.456 325.669C275.248 326.32 275.085 326.984 274.974 327.658C273.996 333.597 270.611 361.575 293.745 361.015C315.311 360.493 316.73 347.353 316.605 342.989C316.577 342.042 316.662 341.102 316.839 340.172C317.162 338.465 317.453 335.444 316.395 332.354Z" fill="#3F3D56"/>
<path d="M413.818 49.1553L415.834 80.3113L390.476 86.1336L392.242 60.9426L413.818 49.1553Z" fill="#FFB6B6"/>
<path d="M415.749 427.804L404.318 427.803L398.881 383.686L415.751 383.687L415.749 427.804Z" fill="#FFB6B6"/>
<path d="M376.587 427.544C376.231 428.144 376.043 430.08 376.043 430.777C376.043 432.921 377.78 434.659 379.923 434.659H415.321C416.783 434.659 417.968 433.474 417.968 432.011V430.536C417.968 430.536 419.719 426.104 416.114 420.641C416.114 420.641 411.633 424.919 404.937 418.219L402.963 414.64L388.67 425.099L380.748 426.075C379.015 426.288 377.478 426.042 376.587 427.544Z" fill="#2F2E41"/>
<path d="M446.738 427.804L435.308 427.803L429.87 383.686L446.74 383.687L446.738 427.804Z" fill="#FFB6B6"/>
<path d="M407.576 427.544C407.22 428.144 407.032 430.08 407.032 430.777C407.032 432.921 408.769 434.659 410.912 434.659H446.311C447.772 434.659 448.957 433.474 448.957 432.011V430.536C448.957 430.536 450.709 426.104 447.103 420.641C447.103 420.641 442.622 424.919 435.927 418.219L433.952 414.64L419.66 425.099L411.737 426.075C410.004 426.288 408.467 426.042 407.576 427.544Z" fill="#2F2E41"/>
<path d="M453.935 218.141C453.935 218.141 463.675 230.544 461.904 237.632C460.133 244.719 447.737 407.734 447.737 407.734L430.029 406.848L419.404 260.666L416.671 407.734L399.925 406.848L378.676 224.342L453.935 218.141Z" fill="#2F2E41"/>
<path d="M351.558 257.688C349.884 264.11 345.216 268.45 341.132 267.383C337.048 266.317 335.096 260.247 336.771 253.823C337.406 251.248 338.647 248.863 340.391 246.866L347.829 219.748L360.473 223.511L351.798 249.846C352.345 252.441 352.263 255.131 351.558 257.688Z" fill="#FFB6B6"/>
<path d="M393.22 75.0102C407.192 75.0102 418.519 63.6762 418.519 49.6949C418.519 35.7137 407.192 24.3797 393.22 24.3797C379.247 24.3797 367.92 35.7137 367.92 49.6949C367.92 63.6762 379.247 75.0102 393.22 75.0102Z" fill="#FFB6B6"/>
<path d="M390.186 81.7039L416.748 76.3882L445.967 91.4493L452.164 188.018L460.133 224.342L377.79 225.228L381.332 176.501L376.02 99.4229L390.186 81.7039Z" fill="#E6E6E6"/>
<path d="M383.988 102.081C383.988 102.081 369.822 97.651 364.509 105.625C359.197 113.598 349.457 185.36 349.457 185.36L339.718 239.403L357.426 242.061L386.644 147.264L383.988 102.081Z" fill="#E6E6E6"/>
<path d="M512.844 226.629C515.73 232.603 514.989 238.937 511.189 240.774C507.388 242.612 501.969 239.258 499.082 233.28C497.896 230.908 497.295 228.287 497.33 225.635L485.419 200.164L497.483 194.826L507.944 220.503C510.043 222.124 511.723 224.224 512.844 226.629Z" fill="#FFB6B6"/>
<path d="M434.877 92.3676C434.877 92.3676 447.599 84.719 454.642 91.2136C461.684 97.7082 488.066 165.146 488.066 165.146L510.272 215.365L493.69 222.128L442.948 136.903L434.877 92.3676Z" fill="#E6E6E6"/>
<path d="M496.114 434.742C496.114 435.327 495.645 435.796 495.06 435.796H114.965C114.38 435.796 113.911 435.327 113.911 434.742C113.911 434.459 114.017 434.21 114.194 434.024H193.633C195.324 434.024 196.98 433.909 198.609 433.688H495.06C495.645 433.688 496.114 434.157 496.114 434.742Z" fill="#3F3D56"/>
<path d="M340.489 260.48C342.069 256.761 345.267 254.562 347.633 255.568C349.998 256.575 350.634 260.405 349.053 264.126C348.442 265.621 347.482 266.947 346.253 267.995L339.359 283.669L332.077 280.276L339.646 265.184C339.548 263.571 339.836 261.958 340.489 260.48Z" fill="#FFB6B6"/>
<path d="M294.444 287.502C303.438 287.502 310.729 280.206 310.729 271.207C310.729 262.207 303.438 254.911 294.444 254.911C285.45 254.911 278.159 262.207 278.159 271.207C278.159 280.206 285.45 287.502 294.444 287.502Z" fill="#FFB6B6"/>
<path d="M314.927 290.789L330.864 284.587L336.176 265.982L347.687 270.412L338.833 296.99L314.927 306.129V290.789Z" fill="#1570EF"/>
<path d="M292.303 289.325L302.016 281.417C302.016 281.417 301.096 269.567 304.588 268.501C308.08 267.435 311.721 263.178 311.721 263.178C311.721 263.178 305.942 250.115 295.77 252.097C285.597 254.08 287.918 251.064 281.65 254.386C275.381 257.708 273.911 262.141 274.673 266.85C275.436 271.56 273.166 283.261 280.759 283.863C288.352 284.466 292.303 289.325 292.303 289.325Z" fill="#2F2E41"/>
<path d="M377.896 55.3626C376.049 51.9937 377.008 50.3854 375.342 49.0684C375.342 49.0684 374.672 48.5385 369.626 47.8635C369.143 39.6015 367.806 38.4973 367.806 38.4973C366.265 37.2247 363.813 37.4021 362.25 37.9801C358.944 39.2026 359.059 42.4233 356.864 42.8624C353.832 43.469 362.099 38.2822 362.002 32.7955C361.923 28.3199 365.127 24.2353 366.243 24.5541C367.349 24.8702 370.316 21.6463 371.765 21.8155C372.755 21.9311 376.952 20.4913 378.032 20.7164C379.212 20.9623 382.977 23.3281 383.178 22.8724C384.576 19.7061 384.314 18.7756 385.354 17.921C387.196 16.4065 389.903 17.7801 394.244 18.7484C403.175 20.7406 404.99 17.8863 409.458 20.2765C411.715 21.4838 413.452 24.3922 416.834 30.1598C421.563 38.2256 423.928 42.2585 423.589 46.7148C423.244 51.2594 421.068 50.7952 419.565 57.4439C417.893 64.8449 419.903 68.451 417.214 70.6838C415.135 72.4096 397.898 72.5425 395.971 70.7279C392.67 67.6212 397.829 61.174 394.324 55.8821C392.173 52.6338 387.464 50.8885 385.137 52.2231C382.505 53.7322 383.479 58.857 381.687 59.1923C380.152 59.4794 378.217 55.9496 377.896 55.3626Z" fill="#2F2E41"/>
<path d="M255.275 261.31C258.799 258.331 257.863 251.424 253.185 245.882C251.137 243.457 248.711 241.695 246.335 240.73L243.605 237.577L208.342 193.367C208.342 193.367 188.814 149.386 183.049 144.635C177.285 139.884 170.503 142.357 170.503 142.357L165.211 148.908L198.186 210.315L231.935 244.3L236.49 249.053C237.044 251.558 238.374 254.245 240.423 256.671C245.101 262.212 251.751 264.289 255.275 261.31Z" fill="#FFB6B6"/>
<path d="M188.711 152.812L197.548 165.78L210.234 184.568L187.44 192.458L167.313 157.902L188.711 152.812Z" fill="#E6E6E6"/>
<path d="M197.684 108.678L191.284 133.093L166.884 128.29C166.884 128.29 176.484 110.679 174.084 102.674L197.684 108.678Z" fill="#FFB6B6"/>
<path d="M171.927 426.493L186.621 426.491L193.61 369.78L171.924 369.781L171.927 426.493Z" fill="#FFB6B6"/>
<path d="M222.269 426.159C222.727 426.93 222.968 429.419 222.968 430.315C222.968 433.071 220.735 435.306 217.981 435.306H172.476C170.597 435.306 169.074 433.782 169.074 431.901V430.006C169.074 430.006 166.823 424.308 171.457 417.286C171.457 417.286 177.218 422.784 185.825 414.172L188.363 409.571L206.736 423.016L216.92 424.271C219.148 424.545 221.123 424.228 222.269 426.159Z" fill="#2F2E41"/>
<path d="M212.725 262.368L192.478 400.235H167.075L170.453 321.537L172.23 280.157L167.075 260.461C167.075 260.461 164.724 256.083 162.744 250.775C160.512 244.786 158.749 237.606 161.366 234.202C162.329 232.947 164.833 232.018 168.235 231.326C170.314 230.901 172.734 230.57 175.347 230.313C190.369 228.825 211.738 229.754 211.738 229.754L212.281 247.692L212.582 257.708L212.725 262.368Z" fill="#2F2E41"/>
<path d="M146.043 419.75L160.581 421.888L175.74 366.796L154.284 363.641L146.043 419.75Z" fill="#FFB6B6"/>
<path d="M195.898 426.748C196.239 427.577 196.116 430.074 195.986 430.961C195.585 433.688 193.051 435.573 190.326 435.173L145.305 428.549C143.446 428.276 142.161 426.546 142.434 424.686L142.71 422.811C142.71 422.811 141.311 416.846 146.917 410.573C146.917 410.573 151.816 416.851 161.584 409.583L164.764 405.401L180.987 421.377L190.88 424.1C193.045 424.696 195.045 424.67 195.898 426.748Z" fill="#2F2E41"/>
<path d="M213.044 239.376L210.267 263.307L195.122 313.737L170.191 396.762L145.061 393.067L167.615 275.018L165.381 254.775C165.381 254.775 164.654 252.763 163.82 249.817C162.166 243.99 160.09 234.499 162.374 229.658C162.682 229 163.069 228.429 163.548 227.967C164.446 227.096 166.271 226.566 168.717 226.286C178.938 225.13 199.989 228.436 209.356 230.059L213.044 239.376Z" fill="#2F2E41"/>
<path d="M193.684 125.889L221.284 160.711L216.33 197.016L212.084 233.958L162.083 226.353C162.083 226.353 172.883 200.336 174.083 199.135C175.283 197.935 178.298 200.9 176.19 197.016C174.083 193.132 171.683 193.132 173.683 191.13C175.683 189.129 158.083 163.112 158.083 149.104C158.083 135.095 166.483 123.887 166.483 123.887L193.684 125.889Z" fill="#E6E6E6"/>
<path d="M187.244 113.289C197.513 113.289 205.838 104.959 205.838 94.684C205.838 84.4089 197.513 76.0793 187.244 76.0793C176.976 76.0793 168.651 84.4089 168.651 94.684C168.651 104.959 176.976 113.289 187.244 113.289Z" fill="#FFB6B6"/>
<path d="M186.375 130.255C186.375 130.255 189.158 108.227 189.65 101.821C190.142 95.4155 199.179 85.414 199.179 85.414L205.581 90.588C205.581 90.588 210.998 90.588 207.305 82.7038C203.611 74.8196 196.717 73.5877 196.717 73.5877C196.717 73.5877 195.978 63.2397 183.174 64.4716C170.37 65.7035 164.707 76.0515 164.707 76.0515C164.707 76.0515 163.969 62.9933 155.843 72.6022C147.717 82.211 143.039 86.1531 151.657 89.3561C160.275 92.5591 166.677 90.0952 166.677 90.0952C166.677 90.0952 158.305 91.8199 159.783 97.7331C161.26 103.646 140.331 130.502 149.933 133.458C159.536 136.415 180.958 143.56 183.421 138.879C185.883 134.197 186.375 130.255 186.375 130.255Z" fill="#2F2E41"/>
<path d="M263.02 263.155C266.569 260.206 265.691 253.291 261.059 247.71C259.031 245.268 256.62 243.486 254.253 242.501L251.549 239.325L216.657 194.82C216.657 194.82 197.499 150.678 191.774 145.878C186.05 141.079 179.247 143.496 179.247 143.496L173.9 150.002L206.36 211.683L239.823 245.95L244.339 250.741C244.871 253.25 246.179 255.949 248.207 258.391C252.839 263.972 259.471 266.105 263.02 263.155Z" fill="#FFB6B6"/>
<path d="M171.875 140.074C171.875 140.074 180.416 184.426 190.136 190.965L209.504 175.853C209.504 175.853 211.199 175.78 208.045 172.214C204.89 168.649 205.698 160.992 205.698 160.992C205.698 160.992 207.117 162.83 204.029 160.279C200.94 157.728 203.815 140.184 203.815 140.184L171.875 140.074Z" fill="#E6E6E6"/>
<path d="M312.943 323.06C312.535 323.06 312.168 322.776 312.079 322.361L311.105 317.835C309.674 311.18 303.927 306.32 297.13 306.016C290.833 305.734 284.998 309.466 282.606 315.299L280.163 321.257C279.978 321.711 279.462 321.926 279.008 321.741C278.556 321.555 278.34 321.038 278.526 320.585L280.968 314.627C283.644 308.104 290.162 303.938 297.21 304.246C304.81 304.586 311.235 310.02 312.836 317.462L313.81 321.988C313.912 322.466 313.608 322.937 313.131 323.04C313.068 323.054 313.005 323.06 312.943 323.06Z" fill="#FFB6B6"/>
<path d="M313.989 337.469C313.963 337.469 313.936 337.468 313.909 337.465L281.145 334.542C280.658 334.498 280.298 334.068 280.341 333.581C280.386 333.094 280.811 332.736 281.302 332.777L314.066 335.7C314.553 335.744 314.913 336.174 314.87 336.662C314.828 337.122 314.442 337.469 313.989 337.469Z" fill="#FFB6B6"/>
</g>
<defs>
<clipPath id="clip0_1177_21610">
<rect width="400.693" height="418.55" fill="white" transform="translate(113.911 17.2464)"/>
</clipPath>
</defs>
</svg>
