<svg width="538" height="388" viewBox="0 0 538 388" fill="none" xmlns="http://www.w3.org/2000/svg">
<g clip-path="url(#clip0_1177_21609)">
<path opacity="0.1" d="M532.188 210.938C523.675 247.339 505.654 278.805 477.177 294.077C417.983 325.774 284.496 309.423 184.874 290.643C134.533 281.185 88.8388 255.054 55.1481 216.457L532.188 210.938Z" fill="#1570EF"/>
<path opacity="0.1" d="M9.75857 39.5952H64.4217C65.6741 39.5952 66.8753 39.0975 67.7609 38.2115C68.6465 37.3255 69.1441 36.1238 69.1441 34.8709C69.1441 33.6179 68.6465 32.4162 67.7609 31.5303C66.8753 30.6443 65.6741 30.1465 64.4217 30.1465H54.972C56.1987 30.107 57.362 29.5917 58.2158 28.7095C59.0696 27.8274 59.547 26.6476 59.547 25.4197C59.547 24.1918 59.0696 23.0121 58.2158 22.1299C57.362 21.2478 56.1987 20.7325 54.972 20.6929H61.7196C62.9464 20.6534 64.1097 20.1381 64.9635 19.2559C65.8173 18.3738 66.2947 17.194 66.2947 15.9661C66.2947 14.7382 65.8173 13.5584 64.9635 12.6763C64.1097 11.7942 62.9464 11.2789 61.7196 11.2393H33.1891C39.52 8.2958 46.9199 6.20099 55.4476 5.10208C133.242 -4.89117 161.017 1.72194 170.815 8.53619C182.903 16.9252 196.389 23.0968 210.801 26.0697C258.8 35.9747 348.565 47.8959 429.924 22.253C470.361 9.49774 500.412 31.0443 518.429 67.0337H0.269656C0.946385 56.5744 2.97165 46.9197 6.68876 38.462C7.54277 39.1963 8.63246 39.5986 9.75857 39.5952Z" fill="#1570EF"/>
<path opacity="0.1" d="M536.828 134.96C538.928 156.13 538.215 177.484 534.71 198.467L54.781 216.03C41.4202 200.654 30.2029 183.539 21.4349 165.151L536.828 134.96ZM347.01 180.261H356.46C355.208 180.261 354.007 180.759 353.121 181.645C352.235 182.531 351.738 183.732 351.738 184.985C351.738 186.238 352.235 187.44 353.121 188.326C354.007 189.212 355.208 189.71 356.46 189.71H411.123C412.376 189.71 413.577 189.212 414.462 188.326C415.348 187.44 415.846 186.238 415.846 184.985C415.846 183.732 415.348 182.531 414.462 181.645C413.577 180.759 412.376 180.261 411.123 180.261H401.674C402.9 180.222 404.064 179.706 404.917 178.824C405.771 177.942 406.249 176.762 406.249 175.534C406.249 174.306 405.771 173.127 404.917 172.245C404.064 171.362 402.9 170.847 401.674 170.808H408.421C409.648 170.768 410.811 170.253 411.665 169.371C412.519 168.488 412.996 167.309 412.996 166.081C412.996 164.853 412.519 163.673 411.665 162.791C410.811 161.909 409.648 161.393 408.421 161.354H353.758C352.531 161.393 351.368 161.909 350.514 162.791C349.66 163.673 349.183 164.853 349.183 166.081C349.183 167.309 349.66 168.488 350.514 169.371C351.368 170.253 352.531 170.768 353.758 170.808H347.01C345.784 170.847 344.62 171.362 343.767 172.245C342.913 173.127 342.435 174.306 342.435 175.534C342.435 176.762 342.913 177.942 343.767 178.824C344.62 179.706 345.784 180.222 347.01 180.261Z" fill="#1570EF"/>
<path opacity="0.1" d="M0.245641 67.3477L524.211 80.103C530.586 96.4935 534.788 115.013 536.75 134.229H9.42567C5.98386 122.947 3.43739 111.41 1.81 99.7264C0.240768 88.438 -0.386954 77.5176 0.245641 67.3477ZM430.376 109.126H439.826C439.206 109.126 438.591 109.248 438.018 109.486C437.446 109.723 436.925 110.071 436.486 110.51C436.048 110.948 435.7 111.469 435.463 112.042C435.225 112.616 435.103 113.23 435.103 113.85C435.103 114.471 435.225 115.085 435.463 115.658C435.7 116.232 436.048 116.752 436.486 117.191C436.925 117.63 437.446 117.978 438.018 118.215C438.591 118.453 439.206 118.575 439.826 118.575H494.489C495.741 118.575 496.942 118.077 497.828 117.191C498.714 116.305 499.211 115.103 499.211 113.85C499.211 112.597 498.714 111.396 497.828 110.51C496.942 109.624 495.741 109.126 494.489 109.126H485.039C486.266 109.087 487.429 108.571 488.283 107.689C489.137 106.807 489.614 105.627 489.614 104.399C489.614 103.171 489.137 101.992 488.283 101.109C487.429 100.227 486.266 99.712 485.039 99.6725H491.787C493.013 99.6329 494.177 99.1176 495.031 98.2355C495.884 97.3533 496.362 96.1736 496.362 94.9457C496.362 93.7178 495.884 92.538 495.031 91.6559C494.177 90.7737 493.013 90.2584 491.787 90.2189H437.124C435.897 90.2584 434.734 90.7737 433.88 91.6559C433.026 92.538 432.549 93.7178 432.549 94.9457C432.549 96.1736 433.026 97.3533 433.88 98.2355C434.734 99.1176 435.897 99.6329 437.124 99.6725H430.376C429.149 99.712 427.986 100.227 427.132 101.109C426.278 101.992 425.801 103.171 425.801 104.399C425.801 105.627 426.278 106.807 427.132 107.689C427.986 108.571 429.149 109.087 430.376 109.126Z" fill="#1570EF"/>
<path opacity="0.1" d="M261.61 388C167.136 388 90.5498 383.853 90.5498 378.738C90.5498 373.622 167.136 369.475 261.61 369.475C356.084 369.475 432.671 373.622 432.671 378.738C432.671 383.853 356.084 388 261.61 388Z" fill="#1570EF"/>
<path d="M119.599 310.63C119.599 310.63 116.907 314.157 120.845 319.46C124.783 324.763 128.029 329.272 126.729 332.593C126.729 332.593 120.791 322.708 115.941 322.57C111.091 322.433 114.284 316.575 119.599 310.63Z" fill="#1570EF"/>
<path opacity="0.1" d="M119.6 310.63C119.367 310.971 119.183 311.342 119.051 311.733C114.333 317.282 111.822 322.458 116.353 322.585C120.58 322.708 125.646 330.263 126.857 332.171C126.819 332.32 126.771 332.465 126.715 332.608C126.715 332.608 120.777 322.723 115.927 322.585C111.077 322.448 114.284 316.575 119.6 310.63Z" fill="black"/>
<path d="M114.593 315.123C114.593 316.365 114.73 317.37 114.902 317.37C115.074 317.37 115.216 316.365 115.216 315.123C115.216 313.882 115.039 314.466 114.868 314.466C114.696 314.466 114.593 313.882 114.593 315.123Z" fill="#FFD037"/>
<path d="M112.877 316.605C113.965 317.199 114.912 317.557 114.995 317.405C115.079 317.252 114.26 316.649 113.171 316.055C112.082 315.462 112.514 315.894 112.43 316.055C112.347 316.217 111.788 316.011 112.877 316.605Z" fill="#FFD037"/>
<path d="M133.831 310.63C133.831 310.63 136.523 314.157 132.585 319.46C128.647 324.763 125.406 329.272 126.701 332.593C126.701 332.593 132.644 322.708 137.489 322.57C142.334 322.433 139.151 316.575 133.831 310.63Z" fill="#1570EF"/>
<path opacity="0.1" d="M133.831 310.63C134.065 310.97 134.25 311.341 134.38 311.733C139.097 317.282 141.613 322.458 137.077 322.585C132.855 322.708 127.76 330.263 126.573 332.171C126.612 332.318 126.661 332.461 126.715 332.608C126.715 332.608 132.659 322.723 137.504 322.585C142.349 322.448 139.151 316.575 133.831 310.63Z" fill="black"/>
<path d="M138.838 315.123C138.838 316.365 138.701 317.37 138.529 317.37C138.357 317.37 138.215 316.365 138.215 315.123C138.215 313.882 138.392 314.466 138.563 314.466C138.735 314.466 138.838 313.882 138.838 315.123Z" fill="#FFD037"/>
<path d="M140.558 316.605C139.47 317.199 138.518 317.557 138.435 317.405C138.352 317.252 139.171 316.649 140.259 316.055C141.348 315.462 140.916 315.894 141 316.055C141.083 316.217 141.647 316.011 140.558 316.605Z" fill="#FFD037"/>
<path d="M137.979 332.147C137.979 332.147 130.447 331.911 128.172 330.297C125.896 328.683 116.584 326.745 116.02 329.316C115.456 331.887 104.702 342.214 113.205 342.282C121.709 342.351 132.963 340.958 135.228 339.579C137.494 338.201 137.979 332.147 137.979 332.147Z" fill="#A8A8A8"/>
<path opacity="0.2" d="M113.058 341.404C121.561 341.473 132.816 340.079 135.081 338.701C136.807 337.646 137.494 333.874 137.725 332.137H137.975C137.975 332.137 137.484 338.21 135.233 339.594C132.982 340.977 121.713 342.366 113.21 342.297C110.758 342.297 109.905 341.404 109.954 340.109C110.297 340.904 111.234 341.389 113.058 341.404Z" fill="black"/>
<path d="M405.974 334.904C405.074 334.169 404.418 333.179 404.091 332.063C403.851 330.94 404.332 329.61 405.406 329.174C406.612 328.713 407.902 329.552 408.882 330.395C409.863 331.239 410.976 332.206 412.256 332.024C411.598 331.428 411.106 330.671 410.827 329.827C410.549 328.984 410.494 328.083 410.667 327.211C410.723 326.85 410.876 326.511 411.109 326.23C411.781 325.514 412.992 325.818 413.796 326.382C416.346 328.178 417.057 331.646 417.072 334.762C417.327 333.638 417.111 332.466 417.116 331.327C417.121 330.189 417.44 328.875 418.411 328.271C419.013 327.949 419.689 327.79 420.372 327.81C421.52 327.766 422.795 327.884 423.579 328.718C424.56 329.762 424.3 331.509 423.452 332.642C422.603 333.775 421.319 334.511 420.137 335.301C419.186 335.867 418.374 336.64 417.763 337.563C417.694 337.694 417.635 337.83 417.587 337.97H410.403C408.795 337.152 407.306 336.121 405.974 334.904Z" fill="#1570EF"/>
<path d="M463.069 342.645C463.069 342.645 469.964 319.239 461.779 302.015C458.295 294.81 457.242 286.669 458.778 278.815C459.536 275.095 460.634 271.453 462.059 267.934" stroke="#535461" stroke-width="2" stroke-miterlimit="10"/>
<path d="M456.984 257.043C456.984 259.913 462.172 268.233 462.172 268.233C462.172 268.233 467.365 259.893 467.365 257.043C467.324 255.693 466.759 254.413 465.79 253.473C464.821 252.533 463.524 252.007 462.175 252.007C460.825 252.007 459.528 252.533 458.559 253.473C457.59 254.413 457.025 255.693 456.984 257.043Z" fill="#1570EF"/>
<path d="M448.402 272.933C449.956 275.342 458.837 279.502 458.837 279.502C458.837 279.502 458.675 269.69 457.116 267.286C456.349 266.171 455.179 265.399 453.852 265.135C452.526 264.87 451.148 265.133 450.013 265.869C448.878 266.605 448.074 267.754 447.773 269.074C447.472 270.393 447.698 271.777 448.402 272.933Z" fill="#1570EF"/>
<path d="M448.774 300.087C451.334 301.377 461.098 300.484 461.098 300.484C461.098 300.484 456.007 292.1 453.448 290.81C452.837 290.486 452.168 290.288 451.48 290.227C450.792 290.165 450.099 290.241 449.441 290.451C448.782 290.661 448.173 291 447.647 291.448C447.121 291.897 446.691 292.446 446.38 293.063C446.069 293.68 445.884 294.353 445.836 295.043C445.789 295.732 445.879 296.424 446.102 297.078C446.325 297.732 446.676 298.335 447.135 298.852C447.594 299.369 448.151 299.788 448.774 300.087Z" fill="#1570EF"/>
<path d="M453.684 320.569C455.988 322.276 465.762 323.022 465.762 323.022C465.762 323.022 462.162 313.902 459.877 312.195C459.333 311.748 458.704 311.418 458.028 311.222C457.353 311.026 456.644 310.97 455.946 311.057C455.248 311.143 454.575 311.371 453.967 311.726C453.359 312.08 452.83 312.555 452.412 313.121C451.993 313.686 451.694 314.331 451.531 315.016C451.369 315.701 451.348 316.411 451.469 317.105C451.59 317.798 451.85 318.459 452.234 319.049C452.618 319.639 453.118 320.144 453.703 320.535L453.684 320.569Z" fill="#1570EF"/>
<path d="M469.733 280.056C467.679 282.053 458.096 284.128 458.096 284.128C458.096 284.128 460.445 274.606 462.51 272.604C462.995 272.109 463.574 271.715 464.213 271.447C464.852 271.179 465.539 271.041 466.232 271.042C466.925 271.044 467.611 271.184 468.249 271.454C468.887 271.725 469.465 272.121 469.948 272.618C470.43 273.116 470.809 273.705 471.061 274.351C471.312 274.997 471.432 275.687 471.413 276.38C471.394 277.074 471.236 277.756 470.95 278.387C470.663 279.019 470.253 279.586 469.743 280.056H469.733Z" fill="#1570EF"/>
<path d="M475.172 304.08C472.612 305.371 462.849 304.478 462.849 304.478C462.849 304.478 467.939 296.098 470.498 294.803C471.724 294.216 473.131 294.133 474.418 294.572C475.704 295.011 476.767 295.937 477.379 297.151C477.991 298.365 478.102 299.771 477.689 301.066C477.277 302.362 476.373 303.444 475.172 304.08Z" fill="#1570EF"/>
<path d="M477.251 328.158C474.947 329.861 465.178 330.611 465.178 330.611C465.178 330.611 468.773 321.491 471.063 319.784C472.172 319.044 473.523 318.759 474.836 318.988C476.149 319.217 477.324 319.942 478.118 321.014C478.911 322.086 479.262 323.422 479.098 324.745C478.934 326.069 478.268 327.278 477.237 328.124L477.251 328.158Z" fill="#1570EF"/>
<path d="M456.984 257.043C456.984 259.913 462.172 268.233 462.172 268.233C462.172 268.233 467.365 259.893 467.365 257.043C467.324 255.693 466.759 254.413 465.79 253.473C464.821 252.533 463.524 252.007 462.175 252.007C460.825 252.007 459.528 252.533 458.559 253.473C457.59 254.413 457.025 255.693 456.984 257.043Z" fill="#1570EF"/>
<path d="M448.402 272.933C449.956 275.342 458.837 279.502 458.837 279.502C458.837 279.502 458.675 269.69 457.116 267.286C456.349 266.171 455.179 265.399 453.852 265.135C452.526 264.87 451.148 265.133 450.013 265.869C448.878 266.605 448.074 267.754 447.773 269.074C447.472 270.393 447.698 271.777 448.402 272.933Z" fill="#1570EF"/>
<path d="M448.774 300.087C451.334 301.377 461.098 300.484 461.098 300.484C461.098 300.484 456.007 292.1 453.448 290.81C452.837 290.486 452.168 290.288 451.48 290.227C450.792 290.165 450.099 290.241 449.441 290.451C448.782 290.661 448.173 291 447.647 291.448C447.121 291.897 446.691 292.446 446.38 293.063C446.069 293.68 445.884 294.353 445.836 295.043C445.789 295.732 445.879 296.424 446.102 297.078C446.325 297.732 446.676 298.335 447.135 298.852C447.594 299.369 448.151 299.788 448.774 300.087Z" fill="#1570EF"/>
<path d="M453.684 320.569C455.988 322.276 465.762 323.022 465.762 323.022C465.762 323.022 462.162 313.902 459.877 312.195C459.333 311.748 458.704 311.418 458.028 311.222C457.353 311.026 456.644 310.97 455.946 311.057C455.248 311.143 454.575 311.371 453.967 311.726C453.359 312.08 452.83 312.555 452.412 313.121C451.993 313.686 451.694 314.331 451.531 315.016C451.369 315.701 451.348 316.411 451.469 317.105C451.59 317.798 451.85 318.459 452.234 319.049C452.618 319.639 453.118 320.144 453.703 320.535L453.684 320.569Z" fill="#1570EF"/>
<path d="M469.733 280.056C467.679 282.053 458.096 284.128 458.096 284.128C458.096 284.128 460.445 274.606 462.51 272.604C462.995 272.109 463.574 271.715 464.213 271.447C464.852 271.179 465.539 271.041 466.232 271.042C466.925 271.044 467.611 271.184 468.249 271.454C468.887 271.725 469.465 272.121 469.948 272.618C470.43 273.116 470.809 273.705 471.061 274.351C471.312 274.997 471.432 275.687 471.413 276.38C471.394 277.074 471.236 277.756 470.95 278.387C470.663 279.019 470.253 279.586 469.743 280.056H469.733Z" fill="#1570EF"/>
<path d="M475.172 304.08C472.612 305.371 462.849 304.478 462.849 304.478C462.849 304.478 467.939 296.098 470.498 294.803C471.724 294.216 473.131 294.133 474.418 294.572C475.704 295.011 476.767 295.937 477.379 297.151C477.991 298.365 478.102 299.771 477.689 301.066C477.277 302.362 476.373 303.444 475.172 304.08Z" fill="#1570EF"/>
<path d="M477.251 328.158C474.947 329.861 465.178 330.611 465.178 330.611C465.178 330.611 468.773 321.491 471.063 319.784C472.172 319.044 473.523 318.759 474.836 318.988C476.149 319.217 477.324 319.942 478.118 321.014C478.911 322.086 479.262 323.422 479.098 324.745C478.934 326.069 478.268 327.278 477.237 328.124L477.251 328.158Z" fill="#1570EF"/>
<path d="M479.375 341.174C479.375 341.174 470.98 339.506 468.743 337.283C466.507 335.061 456.435 331.17 455.317 333.947C454.199 336.724 440.213 346.173 449.726 347.841C459.24 349.509 472.103 350.063 474.898 348.949C477.693 347.836 479.375 341.174 479.375 341.174Z" fill="#A8A8A8"/>
<path opacity="0.2" d="M449.712 346.801C459.22 348.469 472.088 349.023 474.883 347.914C477.011 347.065 478.492 343.008 479.076 341.11L479.375 341.174C479.375 341.174 477.693 347.841 474.898 348.949C472.103 350.058 459.235 349.504 449.726 347.841C446.98 347.35 446.196 346.227 446.49 344.799C446.711 345.726 447.667 346.442 449.712 346.801Z" fill="black"/>
<path d="M182.83 128.524C180.196 125.58 181.226 120.993 181.226 120.993C181.226 120.993 193.653 89.3113 195.031 88.963C196.409 88.6147 199.866 80.623 199.866 80.623C199.866 80.623 233.001 49.1126 234.193 49.1126C235.384 49.1126 247.482 40.4096 249.032 40.2379C250.581 40.0662 253.004 39.193 255.593 37.785C258.182 36.377 284.418 37.9616 285.452 39.1783C286.487 40.3949 291.337 41.2682 291.337 41.2682C291.337 41.2682 301.174 41.7882 302.557 43.5298C303.94 45.2713 314.115 46.1937 314.115 46.1937C314.115 46.1937 319.122 48.0579 312.325 53.0079C314.503 53.3513 317.048 53.6162 319.632 53.8026C320.279 53.8468 320.937 53.891 321.594 53.9253H321.981C322.415 52.6126 323.261 51.4752 324.394 50.6825C325.134 50.2803 325.899 49.9248 326.684 49.6179C327.899 48.9715 329.037 48.1897 330.077 47.2877C335.108 43.2851 340.477 39.7265 346.123 36.6517C346.994 36.1059 347.966 35.7405 348.982 35.5774C351.085 35.3762 352.964 36.8529 355.023 37.3484C358.642 38.2167 362.291 36.0091 366.013 35.9747C370.662 35.9306 374.894 39.5511 376.311 44.0154C376.835 45.6687 377.071 47.5084 378.204 48.8183C379.675 50.5304 382.161 50.7806 384.176 51.7961C385.637 52.5582 386.861 53.706 387.715 55.1149C388.569 56.5239 389.021 58.14 389.021 59.7878V59.827C389.021 60.0871 389.021 60.3471 388.977 60.6071C388.747 62.7068 387.776 64.6446 387.065 66.6364C386.334 68.6772 385.873 70.8047 385.692 72.965C385.689 72.9878 385.689 73.0108 385.692 73.0336C385.662 73.3918 385.638 73.7499 385.623 74.1129C385.623 74.1865 385.623 74.265 385.623 74.3435C385.623 74.6869 385.623 75.0352 385.623 75.3836C385.623 77.2576 385.687 79.1464 385.682 81.0204V81.1185V81.9672C385.682 82.0359 385.682 82.1046 385.682 82.1733C385.682 82.4235 385.682 82.6639 385.653 82.9288V83.1937C385.653 83.4243 385.618 83.6597 385.594 83.8903C385.594 83.9884 385.594 84.0915 385.569 84.1896C385.569 84.4152 385.515 84.636 385.486 84.8568L385.442 85.1708C385.407 85.3915 385.368 85.6123 385.329 85.833L385.27 86.1372C385.221 86.3727 385.162 86.6278 385.103 86.8437C385.079 86.9271 385.064 87.0055 385.044 87.0889C384.956 87.416 384.858 87.73 384.75 88.0309C384.016 90.0908 382.804 91.9471 381.213 93.4472C379.622 94.9473 377.698 96.0485 375.6 96.6603C374.809 96.8783 373.992 96.9807 373.172 96.9645C371.701 96.9301 370.294 96.4739 369.421 95.4682C369.205 95.7135 368.994 95.9588 368.769 96.204C365.57 99.6839 361.58 102.341 357.137 103.95C352.694 105.558 347.928 106.072 343.244 105.446C338.561 104.82 334.097 103.073 330.231 100.354C326.366 97.6354 323.213 94.024 321.04 89.8264C320.525 89.7136 320.015 89.6106 319.5 89.5124C318.607 89.3456 317.71 89.1887 316.808 89.0219L315.94 88.8845L315.596 88.8256C311.183 88.129 306.897 87.6629 303.827 87.3539L315.959 88.86C315.959 88.86 318.902 102.994 319.75 104.559C320.598 106.124 316.808 108.734 316.808 108.734C316.808 108.734 313.527 112.737 313.527 113.958C313.527 115.18 309.731 118.658 308.697 120.571C308.565 120.814 308.4 121.037 308.206 121.234C308.972 121.53 309.68 121.96 310.295 122.504C312.693 124.776 311.894 128.759 312.992 131.879C313.679 133.842 315.116 135.431 316.499 136.977C316.995 137.481 317.412 138.059 317.734 138.689C317.914 139.106 318.025 139.55 318.063 140.004C318.088 140.255 318.097 140.507 318.092 140.759V140.847C318.092 141.044 318.092 141.235 318.053 141.426C318.053 141.51 318.053 141.593 318.053 141.677C317.813 143.727 317.117 145.709 316.906 147.76C316.695 149.81 316.95 151.876 316.528 153.872C316.382 154.569 316.155 155.245 315.851 155.889L322.874 163.738C322.874 163.738 322.918 164.126 322.932 164.764C328.788 169.625 337.84 178.799 334.609 186.889C334.255 187.775 333.929 188.624 333.628 189.435C336.006 190.951 336.791 192.751 333.226 194.547C332.662 194.832 332.117 195.077 331.583 195.298C329.754 200.67 329.038 202.166 325.973 198.207C325.644 197.775 325.262 197.226 324.845 196.632C320.53 196.544 318.034 194.547 318.034 194.547C318.034 194.547 305.955 193.85 302.832 195.769C301.267 196.75 297.589 196.946 294.333 196.921C294.377 200.431 294.213 203.94 293.843 207.43C293.843 207.43 294.363 222.226 292.98 225.361C291.597 228.496 290.832 233.892 290.832 233.892C290.832 233.892 293.151 239.112 291.773 241.898C290.396 244.685 292.98 248.688 292.98 248.688V258.956L291.999 258.887C292.073 259.579 292.166 260.305 292.288 260.997C292.573 262.601 292.999 264.039 293.657 264.505C295.383 265.746 295.554 272.354 295.554 272.354C295.554 272.354 298.315 280.365 297.8 281.759C297.285 283.152 301.076 285.933 300.213 288.023C299.35 290.113 297.585 303.339 296.05 307.156C294.515 310.973 299.178 309.943 299.178 309.943L297.8 319.862C297.8 319.862 296.417 329.959 297.452 330.655C298.487 331.352 304.44 336.4 300.345 339.358C300.027 339.589 299.703 339.8 299.365 340.001C299.346 340.459 299.358 340.918 299.399 341.375C299.477 342.155 299.674 342.778 300.11 342.846C301.326 343.023 303.744 344.24 304.254 343.72C304.764 343.2 307.686 345.034 310.629 345.633L311.036 345.697L314.856 344.716C320.383 342.609 326.45 342.385 332.117 344.078C332.117 344.078 334.888 344.51 336.232 346.58C336.913 347.639 337.212 349.131 336.604 351.211C334.761 357.363 322.192 359.482 322.192 359.482C322.192 359.482 317.837 360.38 312.605 361.567C312.777 361.567 312.953 361.567 313.13 361.567C314.574 361.557 315.969 362.089 317.04 363.058C318.112 364.027 318.781 365.363 318.916 366.801C319.051 368.239 318.642 369.676 317.77 370.828C316.898 371.979 315.627 372.762 314.206 373.022C312.785 373.281 311.319 372.998 310.096 372.229C308.874 371.46 307.984 370.26 307.603 368.866C307.221 367.473 307.376 365.987 308.036 364.702C308.696 363.417 309.814 362.426 311.168 361.925C305.284 363.279 298.766 364.928 296.118 366.09C294.147 366.833 292.126 367.44 290.072 367.906C289.97 369.123 289.483 370.277 288.682 371.198C287.88 372.119 286.805 372.761 285.613 373.029C284.422 373.297 283.176 373.178 282.057 372.689C280.938 372.2 280.004 371.366 279.391 370.309C271.383 371.982 263.67 373.4 263.67 373.4L250.787 373.611H250.699C252.217 373.621 253.669 374.233 254.737 375.313C255.806 376.393 256.402 377.852 256.397 379.37C256.392 380.889 255.785 382.344 254.71 383.416C253.634 384.489 252.178 385.091 250.66 385.091C249.141 385.091 247.685 384.489 246.61 383.416C245.534 382.344 244.927 380.889 244.922 379.37C244.917 377.852 245.514 376.393 246.582 375.313C247.65 374.233 249.102 373.621 250.62 373.611L231.118 373.93C231.352 374.724 231.412 375.559 231.295 376.379C231.177 377.198 230.884 377.982 230.436 378.678C229.988 379.374 229.395 379.965 228.698 380.411C228.001 380.857 227.216 381.148 226.397 381.263C225.577 381.378 224.743 381.315 223.95 381.078C223.157 380.842 222.424 380.437 221.802 379.891C221.18 379.346 220.682 378.672 220.343 377.917C220.005 377.162 219.833 376.342 219.839 375.515C219.84 375.041 219.899 374.57 220.016 374.112L202.813 374.391L199.38 370.614C199.188 370.247 199.073 369.844 199.042 369.431C198.939 368.19 199.581 366.306 203.975 365.507C204.299 365.448 213.263 365.59 221.183 365.722V362.612C221.183 362.612 221.403 360.9 221.541 358.884C221.58 358.29 221.614 357.672 221.629 357.064C221.181 357.371 220.683 357.598 220.158 357.736C216.877 358.261 212.39 348.684 212.39 348.684C212.39 348.684 212.39 343.288 211.355 338.936C210.321 334.585 208.413 319.961 208.413 319.961L204.264 302.383C204.264 302.383 202.548 266.521 203.411 265.128C204.274 263.734 202.372 261.296 202.372 261.296C202.372 261.296 200.994 253.638 203.063 251.028C205.132 248.418 201.857 245.803 201.857 245.803C201.857 245.803 200.994 236.752 203.411 233.274C205.829 229.796 202.278 227.357 202.278 227.357L201.415 213.258C197.791 209.603 194.516 187.846 194.339 183.146C194.294 180.5 193.706 177.892 192.613 175.483C192.613 175.483 190.2 171.828 189.852 169.39C189.504 166.952 186.91 161.908 186.91 161.908L182.423 145.194C180.613 138.453 181.074 133.469 182.276 129.917C182.452 129.417 182.639 128.961 182.83 128.524ZM263.895 129.505C261.134 131.247 261.997 131.767 261.134 132.812C260.271 133.857 260.963 133.68 261.654 135.422C262.346 137.163 261.826 136.643 261.482 138.556C261.139 140.47 261.306 140.47 261.306 140.47L260.443 140.592L261.644 148.672C263.606 149.953 264.503 152.406 264.91 154.937C266.068 153.426 267.235 151.856 268.279 150.394C267.921 149.595 267.99 148.643 267.98 147.745C267.941 144.802 266.842 141.99 266.337 139.091C265.821 136.142 265.917 133.118 266.617 130.207C266.868 129.111 267.255 128.052 267.769 127.052C266.651 127.798 265.234 128.681 263.895 129.525V129.505ZM260.791 300.097C260.791 300.097 258.609 298.625 256.49 297.286C255.779 302.452 255.107 307.823 254.632 312.68C255.392 310.993 255.922 309.845 255.922 309.845C256.7 308.909 257.166 307.753 257.255 306.538C257.339 304.644 260.791 300.116 260.791 300.116V300.097ZM273.732 121.17C273.242 121.239 272.546 121.862 271.888 122.607C272.496 122.117 273.109 121.626 273.737 121.165L273.732 121.17ZM305.318 185.574C307.309 186.202 314.057 186.109 318.068 185.873C316.567 183.308 315.077 180.698 313.752 178.358C312.972 178.56 312.177 178.703 311.374 178.784L298.237 167.241C293.295 168.975 287.905 168.94 282.986 167.143L282.628 167.702C282.476 167.947 282.314 168.193 282.137 168.467L282.466 167.933C282.466 167.933 287.537 170.955 287.022 172.348C286.507 173.741 287.708 177.22 289.606 180.948C290.096 181.88 290.523 182.802 290.935 183.73C295.231 184.132 303.327 184.946 305.318 185.574ZM280.392 346.408L280.465 345.03C279.632 344.848 279.082 344.681 279.082 344.681C279.255 342.636 279.543 340.601 279.945 338.588C280.465 336.498 280.196 337.195 278.175 335.645C276.155 334.094 278.175 316.512 278.175 316.512C278.175 316.512 277.194 315.29 275.64 318.425C274.085 321.56 272.526 323.473 272.006 323.645C271.486 323.817 274.08 327.305 272.006 330.611C270.718 332.75 269.842 335.111 269.422 337.573C269.422 337.573 270.8 343.102 268.73 345.559C268.451 345.846 268.118 346.074 267.75 346.231C267.75 346.688 267.75 347.173 267.75 347.63C267.75 348.547 267.75 349.332 267.794 349.499C267.814 349.616 267.864 349.727 267.939 349.819C268.014 349.912 268.112 349.983 268.223 350.027C268.334 350.07 268.455 350.084 268.573 350.067C268.691 350.05 268.803 350.003 268.897 349.93C269.432 349.582 272.82 350.362 272.59 352.545C273.391 353.493 274.299 354.344 275.297 355.082L279.999 353.865L280.392 346.408Z" fill="url(#paint0_linear_1177_21609)"/>
<path d="M322.746 166.064C322.746 166.064 324.389 179.53 311.359 180.909L309.398 171.588L313.502 166.064L319.382 164.072L322.746 166.064Z" fill="#1570EF"/>
<path opacity="0.1" d="M319.382 164.072L322.746 166.059C322.746 166.059 324.389 179.525 311.359 180.904" fill="black"/>
<path d="M299.104 89.9196C299.104 89.9196 307.897 90.4592 316.714 91.9212C317.616 92.0749 318.514 92.2384 319.406 92.4118C319.926 92.5099 320.436 92.6129 320.946 92.7258C325.566 93.6775 329.773 94.9138 332.225 96.4935C335.167 98.3822 336.148 93.2948 336.241 86.2255C336.28 83.7382 336.197 81.0105 336.065 78.2535C335.893 75.0646 335.643 71.8366 335.378 68.9323C334.795 62.4958 334.123 57.4918 334.123 57.4918C334.123 57.4918 331.043 57.4918 326.929 57.3496L325.605 57.3005C324.315 57.2514 322.947 57.1828 321.569 57.0994C320.917 57.065 320.26 57.0258 319.607 56.9767C316.999 56.7903 314.424 56.5254 312.252 56.182C309.937 55.8091 308.059 55.3382 307.039 54.7102C302.38 51.9335 299.104 89.9196 299.104 89.9196Z" fill="#F8BDC5"/>
<path d="M259.928 139.645L261.644 151.042C261.644 151.042 265.386 155.702 264.895 158.293C264.405 160.883 260.089 275.356 260.089 275.356C260.089 275.356 251.63 323.699 254.568 329.915C257.505 336.13 254.739 350.637 254.739 350.637L237.135 347.875L231.25 136.535L259.928 139.645Z" fill="#474463"/>
<path opacity="0.1" d="M259.928 139.645L261.644 151.042C261.644 151.042 265.386 155.702 264.895 158.293C264.405 160.883 260.089 275.356 260.089 275.356C260.089 275.356 251.63 323.699 254.568 329.915C257.505 336.13 254.739 350.637 254.739 350.637L237.135 347.875L231.25 136.535L259.928 139.645Z" fill="black"/>
<path d="M221.094 353.571C221.653 354.498 221.609 357.226 221.452 359.546C221.315 361.543 221.094 363.24 221.094 363.24V374.98C221.094 374.98 239.905 368.421 250.262 361.513C254.533 358.663 255.75 356.014 255.514 353.894C255.171 350.877 251.885 348.91 250.262 348.91C248.713 348.91 243.818 346.207 239.807 343.818C236.654 341.949 234.035 340.276 234.035 340.276C234.035 340.276 220.059 351.844 221.094 353.571Z" fill="#575988"/>
<path opacity="0.1" d="M221.095 353.571C221.654 354.498 221.609 357.226 221.453 359.546C225.636 357.584 238.587 345.015 239.808 343.818C236.654 341.949 234.036 340.276 234.036 340.276C234.036 340.276 220.06 351.844 221.095 353.571Z" fill="black"/>
<path d="M182.433 147.588L186.92 164.165C186.92 164.165 189.509 169.169 189.862 171.588C190.215 174.006 192.623 177.632 192.623 177.632C193.712 180.018 194.3 182.603 194.349 185.226C194.521 189.891 197.782 211.472 201.425 215.098L202.288 229.084C202.288 229.084 205.721 231.498 203.323 234.971C200.925 238.445 201.768 247.403 201.768 247.403C201.768 247.403 205.049 249.993 202.975 252.583C200.9 255.174 202.288 262.773 202.288 262.773C202.288 262.773 204.186 265.187 203.323 266.57C202.46 267.953 204.176 303.521 204.176 303.521L208.325 320.956C208.325 320.956 210.228 335.463 211.267 339.78C212.307 344.097 212.302 349.445 212.302 349.445C212.302 349.445 216.789 358.943 220.069 358.427C223.35 357.912 239.224 342.366 239.224 342.366L236.983 289.873C236.983 289.873 235.085 267.6 236.291 263.283C237.498 258.966 238.361 237.385 238.361 237.385L240.778 203.373L264.915 165.387C264.915 165.387 266.666 154.334 261.664 151.057L260.757 145.086L259.938 139.66L231.285 136.55L187.449 125.158C187.449 125.158 184.07 127.243 182.3 132.449C181.089 135.956 180.623 140.901 182.433 147.588Z" fill="#474463"/>
<path d="M258.702 165.053C258.702 165.053 279.068 190.073 278.204 183.082C277.665 178.691 280.45 173.329 282.618 169.939C283.898 167.923 284.957 166.603 284.957 166.603C284.957 166.603 272.531 143.815 271.839 146.921C271.619 147.902 270.182 150.154 268.333 152.724C264.434 158.111 258.702 165.053 258.702 165.053Z" fill="#FFC1C8"/>
<path opacity="0.3" d="M221.094 372.537V374.99C221.094 374.99 239.905 368.43 250.262 361.523C254.533 358.673 255.75 356.024 255.514 353.904C249.796 356.799 239.16 362.318 235.938 364.805C233.202 366.915 226.13 370.255 221.094 372.537Z" fill="white"/>
<path d="M225.522 381.853C222.345 381.853 219.77 379.277 219.77 376.098C219.77 372.92 222.345 370.344 225.522 370.344C228.699 370.344 231.274 372.92 231.274 376.098C231.274 379.277 228.699 381.853 225.522 381.853Z" fill="#474463"/>
<path d="M284.28 373.773C281.103 373.773 278.528 371.197 278.528 368.018C278.528 364.84 281.103 362.264 284.28 362.264C287.457 362.264 290.032 364.84 290.032 368.018C290.032 371.197 287.457 373.773 284.28 373.773Z" fill="#474463"/>
<path d="M198.953 370.064C198.986 370.474 199.101 370.873 199.292 371.237L202.724 374.98L250.704 374.21L263.606 373.999C263.606 373.999 290.763 369.054 296.054 366.748C301.346 364.442 322.148 360.223 322.148 360.223C322.148 360.223 334.711 358.113 336.555 352.015C337.178 349.95 336.864 348.473 336.182 347.424C334.844 345.368 332.068 344.936 332.068 344.936C326.399 343.261 320.337 343.485 314.807 345.574L234.384 366.272L233.138 366.591C233.138 366.591 204.47 366.056 203.892 366.159C199.493 366.964 198.85 368.833 198.953 370.064Z" fill="#1570EF"/>
<path opacity="0.3" d="M198.953 370.064C203.779 369.436 212.194 368.509 214.361 369.402C214.361 369.402 229.666 367.508 250.723 374.21L263.606 373.999C263.606 373.999 290.763 369.054 296.054 366.748C301.346 364.442 322.148 360.223 322.148 360.223C322.148 360.223 334.711 358.113 336.555 352.015C337.178 349.95 336.864 348.473 336.182 347.424C335.324 349.926 333.672 353.551 331.033 354.567C326.89 356.161 309.859 359.409 309.859 359.409L276.15 367.665C276.15 367.665 256.686 371.889 249.11 369.137C246.006 368.018 240.18 367.023 234.398 366.242L233.153 366.561C233.153 366.561 204.485 366.027 203.906 366.13C199.493 366.964 198.85 368.833 198.953 370.064Z" fill="white"/>
<path d="M245.506 363.848C245.547 364.572 245.637 365.291 245.776 366.002C245.776 366.002 264.842 366.684 274.767 365.212C277.509 364.805 279.058 363.927 279.828 362.877C280.172 362.381 280.385 361.806 280.447 361.206C280.51 360.606 280.42 359.999 280.186 359.443C280.076 359.123 279.937 358.814 279.769 358.521C279.029 357.226 277.891 356.308 277.268 356.431C275.542 356.779 272.58 353.237 272.58 353.237C272.816 351.074 269.417 350.294 268.888 350.647C268.793 350.72 268.682 350.767 268.563 350.783C268.445 350.8 268.325 350.786 268.214 350.743C268.103 350.699 268.005 350.628 267.93 350.535C267.855 350.443 267.804 350.333 267.784 350.215C267.75 350.053 267.74 349.273 267.74 348.361C267.74 346.84 267.784 344.927 267.784 344.927L248.62 347.257L247.86 350.921C247.164 354.189 246.193 358.678 245.776 360.213C245.486 361.402 245.395 362.63 245.506 363.848Z" fill="#474463"/>
<path opacity="0.1" d="M245.506 363.848C245.547 364.572 245.637 365.291 245.776 366.002C245.776 366.002 264.842 366.684 274.767 365.212C277.509 364.805 279.058 363.927 279.828 362.877C277.283 362.725 273.973 362.642 271.923 363.142C269 363.868 251.518 363.868 245.506 363.848Z" fill="black"/>
<path d="M279.789 358.511C279.768 358.688 279.796 358.867 279.869 359.03C279.943 359.192 280.059 359.332 280.206 359.433C282.618 361.297 294.196 359.271 294.196 359.271C294.196 359.271 317.852 357.799 321.388 355.386C321.707 355.176 321.974 354.896 322.168 354.567C323.639 351.908 318.313 347.443 317.852 347.443C317.391 347.443 311.031 346.575 310.604 346.491C307.662 345.898 304.72 344.073 304.229 344.593C303.739 345.113 301.287 343.901 300.091 343.729C299.654 343.666 299.453 343.048 299.38 342.258C299.311 341.189 299.347 340.116 299.487 339.054L280.593 344.142L280.426 347.154L279.882 357.181L279.813 358.413C279.801 358.444 279.793 358.477 279.789 358.511Z" fill="#474463"/>
<path opacity="0.1" d="M294.176 359.271C294.176 359.271 317.832 357.799 321.368 355.386C321.687 355.176 321.954 354.896 322.147 354.567C317.356 354.959 309.368 355.621 307.926 355.989C305.852 356.48 294.196 357.196 294.196 357.196H279.862L279.793 358.427C279.17 361.901 294.176 359.271 294.176 359.271Z" fill="black"/>
<path d="M313.086 373.773C309.909 373.773 307.333 371.197 307.333 368.018C307.333 364.84 309.909 362.264 313.086 362.264C316.263 362.264 318.838 364.84 318.838 368.018C318.838 371.197 316.263 373.773 313.086 373.773Z" fill="#474463"/>
<path d="M250.611 385.719C247.434 385.719 244.859 383.142 244.859 379.964C244.859 376.786 247.434 374.21 250.611 374.21C253.788 374.21 256.363 376.786 256.363 379.964C256.363 383.142 253.788 385.719 250.611 385.719Z" fill="#474463"/>
<path d="M309.113 172.279C309.113 172.279 310.202 174.242 311.84 177.156C315.763 184.083 322.82 196.362 325.855 200.248C330.171 205.772 329.822 200.596 334.486 189.028C337.948 180.423 327.292 170.577 321.594 166.103C319.632 164.548 318.259 163.65 318.259 163.65L309.113 172.279Z" fill="#F8BDC5"/>
<path d="M288.233 185.574C288.233 185.574 302.557 186.781 305.318 187.644C308.079 188.508 319.986 187.988 321.011 187.644C322.035 187.301 342.416 191.962 333.094 196.622C323.771 201.283 317.892 196.622 317.892 196.622C317.892 196.622 305.809 195.93 302.69 197.834C299.571 199.737 288.194 198.697 288.194 198.697L288.233 185.574Z" fill="#FFC1C8"/>
<path opacity="0.1" d="M317.989 79.9067C316.224 84.425 317.327 88.3595 319.407 92.3971C324.614 93.3782 329.513 94.7274 332.24 96.4788C340.008 101.488 334.138 57.4575 334.138 57.4575C334.138 57.4575 330.381 57.4575 325.62 57.2662C327.062 63.8498 321.599 70.6837 317.989 79.9067Z" fill="black"/>
<path d="M317.548 78.9256C317.558 86.1571 320.228 93.1323 325.049 98.5204C329.87 103.909 336.505 107.333 343.689 108.139C350.872 108.946 358.101 107.079 363.997 102.895C369.892 98.7104 374.042 92.5012 375.654 85.4517C377.266 78.4021 376.227 71.0057 372.736 64.6732C369.245 58.3408 363.547 53.5155 356.727 51.1178C349.907 48.7201 342.444 48.9179 335.76 51.6733C329.077 54.4287 323.642 59.549 320.491 66.0575C318.549 70.0687 317.543 74.4687 317.548 78.9256Z" fill="#F8BDC5"/>
<path opacity="0.1" d="M182.291 132.434C183.222 133.79 184.618 134.759 186.214 135.157C192.947 137.055 240.411 148.452 243.515 147.76C246.256 147.151 258.021 145.459 260.732 145.071L259.913 139.645L231.26 136.535L187.425 125.144C187.425 125.144 184.061 127.229 182.291 132.434Z" fill="black"/>
<path opacity="0.1" d="M299.105 89.9196C304.715 90.256 310.305 90.8783 315.851 91.7839C315.773 91.5313 315.783 91.2594 315.881 91.0136L304.406 89.5958C304.406 89.5958 306.083 62.6136 312.252 56.1477C309.937 55.7748 308.059 55.3038 307.039 54.6759C302.381 51.9335 299.105 89.9196 299.105 89.9196Z" fill="black"/>
<path d="M314.115 49.3971C314.115 49.3971 303.93 48.4797 302.552 46.7529C301.174 45.026 291.332 44.5109 291.332 44.5109C291.332 44.5109 286.501 43.6475 285.447 42.4357C284.393 41.224 258.182 39.6737 255.593 41.0572C253.003 42.4406 250.586 43.2991 249.031 43.4758C247.477 43.6524 235.399 52.2769 234.192 52.2769C232.986 52.2769 199.865 83.5322 199.865 83.5322C199.865 83.5322 196.433 91.4748 195.03 91.8182C193.628 92.1616 181.221 123.589 181.221 123.589C181.221 123.589 179.495 131.183 186.223 133.086C192.951 134.99 240.42 146.381 243.524 145.689C246.628 144.998 261.301 142.927 261.301 142.927C261.301 142.927 261.129 142.927 261.472 141.029C261.816 139.13 262.335 139.645 261.649 137.919C260.962 136.192 260.266 136.363 261.129 135.328C261.992 134.293 261.129 133.773 263.89 132.046C266.651 130.319 269.774 128.421 269.931 127.906C270.088 127.391 272.521 123.932 273.727 123.76C274.933 123.589 308.765 114.091 308.765 114.091L316.704 111.5C316.704 111.5 320.5 108.91 319.647 107.36C318.793 105.81 315.856 91.7838 315.856 91.7838L303.719 90.2875C303.719 90.2875 305.528 61.0486 312.325 56.1427C319.122 51.2368 314.115 49.3971 314.115 49.3971Z" fill="#1570EF"/>
<path opacity="0.1" d="M309.113 172.279C309.113 172.279 310.202 174.242 311.84 177.156C312.095 168.149 318.392 166.402 321.594 166.103C319.632 164.548 318.259 163.65 318.259 163.65L309.113 172.279Z" fill="black"/>
<path d="M317.548 106.84L316.714 111.501C316.714 111.501 313.434 115.474 313.434 116.681C313.434 117.888 309.638 121.342 308.599 123.24C307.559 125.139 303.94 125.487 305.323 128.769C306.706 132.051 314.64 157.086 314.64 157.086L322.751 166.064C322.751 166.064 309.29 164.852 311.364 180.909L293.931 165.701L280.279 140.852C280.279 140.852 293.568 115.646 294.083 113.576C294.598 111.505 317.548 106.84 317.548 106.84Z" fill="#1570EF"/>
<path opacity="0.1" d="M277.185 115.474C277.185 115.474 266.141 107.703 266.141 106.84C266.141 105.976 277.185 115.474 277.185 115.474Z" fill="black"/>
<path opacity="0.1" d="M258.702 125.144C258.702 125.144 252.818 123.76 252.327 120.655C251.837 117.549 258.702 125.144 258.702 125.144Z" fill="black"/>
<path opacity="0.1" d="M253.887 133.086C253.887 133.086 245.599 128.98 245.947 128.269C246.296 127.557 253.887 133.086 253.887 133.086Z" fill="black"/>
<path opacity="0.1" d="M209.531 106.786C209.531 106.786 212.963 109.028 211.943 111.128C210.923 113.227 209.531 106.786 209.531 106.786Z" fill="black"/>
<path opacity="0.1" d="M199.366 107.703C199.366 107.703 209.144 117.025 206.932 117.201C204.721 117.378 199.366 107.703 199.366 107.703Z" fill="black"/>
<path opacity="0.1" d="M221.609 252.22C221.609 252.22 209.011 254.639 208.668 255.502C208.325 256.366 221.609 252.22 221.609 252.22Z" fill="black"/>
<path opacity="0.1" d="M217.122 260.506C217.122 260.506 210.394 264.652 210.222 265.859C210.051 267.065 217.122 260.506 217.122 260.506Z" fill="black"/>
<path opacity="0.1" d="M218.677 269.832C218.677 269.832 217.642 274.493 215.916 275.185C214.19 275.876 218.677 269.832 218.677 269.832Z" fill="black"/>
<path opacity="0.1" d="M320.461 65.9054C320.461 65.9545 320.461 66.0084 320.486 66.0575C320.721 67.593 321.349 69.2561 322.791 69.7663C323.662 70.0115 324.593 69.9258 325.404 69.5259C327.856 68.4516 330.038 65.8711 332.657 66.4941C333.903 66.7885 334.776 67.7353 335.393 68.898C335.822 69.7349 336.151 70.6191 336.374 71.5324C336.865 73.4555 337.257 75.5454 336.507 77.3753C336.383 77.6747 336.236 77.9634 336.065 78.2388C335.369 79.3524 334.388 80.2992 333.702 81.4227C332.848 82.8257 332.628 84.9304 333.957 85.8919C334.29 86.1112 334.668 86.2535 335.063 86.3087C335.459 86.3638 335.861 86.3304 336.242 86.2108C337.215 85.9048 338.151 85.4901 339.032 84.9745C340.768 84.0669 342.955 83.5027 344.603 84.5526C345.172 84.9058 345.628 85.416 346.172 85.7889C347.304 86.4899 348.646 86.7695 349.963 86.5787C353.082 86.2598 354.249 84.2828 356.632 82.7522C358.378 81.6238 362.026 81.143 363.066 83.4488C363.733 84.9205 362.742 86.775 363.394 88.2762C364.047 89.7773 366.121 90.2385 367.082 91.6318C368.347 93.4666 367.17 96.1206 368.097 98.1566C368.239 98.472 368.429 98.7633 368.661 99.02C373.858 93.4182 376.68 86.0186 376.536 78.3775C376.391 70.7364 373.29 63.4492 367.885 58.0483C362.48 52.6474 355.192 49.5538 347.554 49.418C339.916 49.2822 332.523 52.1148 326.929 57.3201L325.605 57.2711C324.316 57.222 322.948 57.1533 321.57 57.0699C321.244 57.7602 320.989 58.4818 320.809 59.2236C320.276 61.4094 320.158 63.676 320.461 65.9054Z" fill="black"/>
<path d="M363.767 82.7619C364.438 84.2337 363.448 86.0881 364.095 87.5844C364.743 89.0807 366.832 89.5467 367.783 90.94C369.053 92.7797 367.876 95.4338 368.798 97.4648C369.857 99.7853 373.055 100.148 375.506 99.4713C377.601 98.8729 379.523 97.7844 381.115 96.2959C382.706 94.8073 383.92 92.9614 384.657 90.9106C386.319 86.1764 385.245 80.9664 385.677 75.9673C385.861 73.8251 386.322 71.7158 387.05 69.6927C387.761 67.7304 388.732 65.7974 388.963 63.7125C389.128 61.9434 388.759 60.1654 387.904 58.608C387.049 57.0506 385.747 55.7852 384.167 54.9751C382.146 53.9939 379.66 53.7143 378.189 52.0316C377.061 50.7266 376.821 48.9066 376.296 47.2631C374.879 42.8478 370.647 39.2469 365.998 39.2911C362.281 39.3205 358.642 41.5134 355.008 40.65C352.954 40.1594 351.085 38.6876 348.967 38.8986C347.952 39.0582 346.98 39.4203 346.108 39.9632C340.468 43.0109 335.101 46.5398 330.067 50.5108C329.026 51.4079 327.886 52.1831 326.669 52.8214C325.885 53.127 325.121 53.4792 324.379 53.8762C322.795 54.8574 321.966 56.7265 321.515 58.5417C320.974 60.726 320.85 62.9933 321.152 65.2235C321.368 66.7982 321.986 68.5644 323.482 69.0893C324.355 69.3331 325.288 69.244 326.1 68.8391C328.552 67.7745 330.729 65.194 333.348 65.8122C335.486 66.3028 336.516 68.7263 337.075 70.8505C337.565 72.7736 337.968 74.8635 337.207 76.6983C336.58 78.2191 335.246 79.3327 334.407 80.7407C333.569 82.1487 333.329 84.2533 334.662 85.21C336.134 86.2745 338.129 85.1413 339.743 84.2975C341.469 83.3899 343.666 82.8257 345.309 83.8707C345.873 84.2239 346.329 84.7341 346.878 85.1118C348.01 85.8061 349.349 86.0837 350.664 85.8968C353.787 85.5779 354.954 83.6008 357.333 82.0702C359.083 80.932 362.722 80.4513 363.767 82.7619Z" fill="#474463"/>
<path opacity="0.1" d="M268.328 152.7C268.461 153.436 269.471 153.519 269.677 154.236C271.638 161.158 275.954 167.383 282.613 169.934C283.893 167.918 284.952 166.598 284.952 166.598C284.952 166.598 272.526 143.811 271.834 146.916C271.614 147.882 270.177 150.129 268.328 152.7Z" fill="black"/>
<path d="M267.961 147.931C267.96 152.44 269.295 156.847 271.798 160.596C274.301 164.345 277.859 167.267 282.022 168.993C286.185 170.718 290.766 171.171 295.186 170.292C299.606 169.413 303.666 167.242 306.853 164.055C310.039 160.868 312.21 156.806 313.089 152.385C313.969 147.963 313.518 143.38 311.794 139.215C310.069 135.05 307.149 131.49 303.402 128.985C299.656 126.481 295.25 125.144 290.744 125.144C287.749 125.133 284.782 125.715 282.013 126.856C279.245 127.997 276.729 129.675 274.611 131.793C272.493 133.911 270.815 136.428 269.674 139.198C268.533 141.967 267.95 144.936 267.961 147.931Z" fill="#FFC1C8"/>
<path opacity="0.1" d="M280.554 344.156L280.387 347.168C282.383 347.61 286.178 348.189 288.39 346.835C291.249 345.083 295.471 344.657 299.34 342.272C299.271 341.204 299.308 340.131 299.448 339.069L280.554 344.156Z" fill="black"/>
<path opacity="0.1" d="M247.86 350.931C247.992 351.603 248.115 352.015 248.115 352.015C248.115 352.015 263.341 350.455 267.73 348.351C267.73 346.83 267.774 344.917 267.774 344.917L248.61 347.247L247.86 350.931Z" fill="black"/>
<path d="M251.297 282.436C252.331 285.198 252.851 285.718 251.812 287.096C250.772 288.475 251.297 295.73 252.944 296.417C254.592 297.104 260.791 301.25 260.791 301.25C260.791 301.25 257.358 305.738 257.255 307.627C257.165 308.834 256.698 309.982 255.921 310.909C255.921 310.909 250.605 322.306 249.546 325.931C248.487 329.556 247.516 335.252 247.516 335.252C247.516 335.252 249.374 340.433 248.09 343.371C246.805 346.31 248.09 350.622 248.09 350.622C248.09 350.622 266.631 348.724 268.686 346.285C270.74 343.847 269.372 338.362 269.372 338.362C269.796 335.918 270.674 333.575 271.962 331.455C274.036 328.173 271.471 324.724 271.962 324.548C272.452 324.371 274.036 322.477 275.595 319.372C277.155 316.266 278.126 317.468 278.126 317.468C278.126 317.468 276.105 334.909 278.126 336.464C280.146 338.019 280.421 337.327 279.901 339.407C279.498 341.404 279.21 343.422 279.038 345.451C279.038 345.451 285.251 347.35 288.355 345.451C291.459 343.553 296.133 343.205 300.237 340.271C304.342 337.337 298.379 332.328 297.344 331.636C296.309 330.945 297.687 320.932 297.687 320.932L299.07 311.091C299.07 311.091 294.411 312.126 295.941 308.329C297.471 304.532 299.242 291.408 300.105 289.338C300.968 287.268 297.162 284.501 297.687 283.122C298.212 281.744 295.446 273.801 295.446 273.801C295.446 273.801 295.269 267.242 293.548 266.011C292.891 265.55 292.465 264.117 292.18 262.532C291.878 260.662 291.7 258.774 291.646 256.881C291.646 256.881 252.126 254.119 245.741 257.916C242.867 259.623 243.068 262.768 244.27 265.952C245.741 269.837 248.762 273.801 249.522 275.239C250.949 277.888 250.262 279.674 251.297 282.436Z" fill="#575988"/>
<path opacity="0.1" d="M244.319 265.952C249.223 267.33 255.755 269.357 256.819 270.519C258.545 272.423 264.415 259.815 264.415 259.815C264.415 259.815 264.067 269.293 271.834 265.329C278.558 261.895 289.41 262.346 292.215 262.532C291.913 260.662 291.735 258.774 291.68 256.881C291.68 256.881 252.16 254.119 245.775 257.916C242.902 259.623 243.103 262.768 244.319 265.952Z" fill="black"/>
<path d="M264.415 161.575C264.415 161.575 260.982 157.429 260.271 158.984C259.56 160.54 255.51 163.645 255.51 163.645C255.51 163.645 254.347 167.27 252.303 167.79C250.258 168.31 234.899 189.028 234.899 189.028L240.425 200.248L244.912 227.529C244.912 227.529 244.716 231.846 245.937 233.416C247.158 234.986 251.822 234.623 249.659 236.522C247.497 238.42 244.393 240.147 242.667 248.786C240.94 257.425 238.871 262.425 238.871 262.425C238.871 262.425 255.093 266.57 256.819 268.469C258.545 270.367 264.415 257.764 264.415 257.764C264.415 257.764 264.067 267.237 271.835 263.278C279.602 259.319 292.892 260.526 292.892 260.526V250.322C292.892 250.322 290.302 246.348 291.68 243.586C293.058 240.824 290.739 235.643 290.739 235.643C290.739 235.643 291.509 230.291 292.892 227.186C294.275 224.08 293.755 209.402 293.755 209.402C293.755 209.402 294.804 199.904 293.848 195.067C293.036 190.874 291.603 186.827 289.596 183.057C287.698 179.358 286.497 175.905 287.012 174.521C287.527 173.138 282.456 170.145 282.456 170.145L279.646 174.693L278.93 177.411C278.93 177.411 264.067 166.755 264.415 161.575Z" fill="#DCE6F2"/>
<path d="M239.577 185.574C239.577 185.574 229.911 195.067 228.877 196.622C227.842 198.177 224.375 206.262 228.862 208.715C233.349 211.168 250.929 214.95 252.675 213.646C254.421 212.341 264.935 215.117 264.935 215.117C264.935 215.117 282.52 219.434 278.724 212.355C274.929 205.276 265.95 206.468 265.95 206.468C265.95 206.468 251.444 206.444 249.894 204.996C248.345 203.549 236.654 200.444 239.302 194.047C241.95 187.649 239.577 185.574 239.577 185.574Z" fill="#FFC1C8"/>
<path opacity="0.1" d="M267.96 228.049C267.96 228.049 290.474 247.56 288.233 247.56C285.992 247.56 267.96 228.049 267.96 228.049Z" fill="black"/>
<path opacity="0.1" d="M252.945 235.992C252.945 235.992 260.1 237.714 258.717 238.754C257.334 239.794 252.945 235.992 252.945 235.992Z" fill="black"/>
<path opacity="0.1" d="M278.175 188.68C278.175 188.68 269.245 189.479 270.819 192.276C272.393 195.072 278.175 188.68 278.175 188.68Z" fill="black"/>
<path opacity="0.1" d="M283.741 272.536C283.741 272.536 284.952 276.048 283.741 277.932C282.53 279.816 283.741 284.31 283.741 284.31V300.008C283.741 300.008 283.908 311.405 279.774 315.374L283.741 272.536Z" fill="black"/>
<path opacity="0.1" d="M295.564 321.457C295.564 321.457 293.152 324.994 292.804 326.289C292.455 327.584 295.564 321.457 295.564 321.457Z" fill="black"/>
<path opacity="0.1" d="M294.961 314.378C294.961 314.378 289.351 313.343 288.488 313.946C287.625 314.549 294.961 314.378 294.961 314.378Z" fill="black"/>
<path opacity="0.1" d="M296.598 335.527C296.598 335.527 298.241 335.699 294.961 337.489C291.68 339.28 285.295 341.546 285.212 340.771C285.128 339.996 296.598 335.527 296.598 335.527Z" fill="black"/>
<path opacity="0.1" d="M272.585 318.346C272.006 318.346 264.783 317.915 265.2 319.038C265.617 320.162 272.585 318.346 272.585 318.346Z" fill="black"/>
<path opacity="0.1" d="M262.772 308.245C262.772 308.245 261.135 305.4 260.531 306.607C259.928 307.814 262.772 308.245 262.772 308.245Z" fill="black"/>
<path opacity="0.1" d="M267.96 147.931C267.957 150.05 268.251 152.159 268.833 154.196C269.784 155.06 271.427 155.07 272.599 154.427C273.972 153.671 274.869 152.298 275.762 150.993C276.654 149.688 277.67 148.383 279.131 147.824C280.98 147.127 283.088 147.824 284.697 148.981C286.305 150.139 287.59 151.67 289.11 152.906C290.63 154.142 292.567 155.143 294.504 154.839C295.755 154.648 296.863 153.941 297.937 153.259C299.408 152.332 300.987 150.89 302.601 150.267C304.214 149.644 305.543 150.757 307.078 150.757C308.299 151.199 309.628 152.204 309.383 153.475C309.251 153.947 309.039 154.391 308.755 154.79C308.262 155.761 308.068 156.857 308.196 157.938C308.324 159.02 308.77 160.039 309.476 160.868C311.508 157.928 312.821 154.552 313.309 151.01C313.796 147.469 313.444 143.863 312.281 140.483C311.118 137.103 309.176 134.044 306.613 131.554C304.05 129.063 300.938 127.21 297.527 126.145C294.116 125.08 290.503 124.832 286.979 125.422C283.455 126.012 280.119 127.423 277.24 129.54C274.362 131.658 272.021 134.424 270.408 137.613C268.795 140.803 267.955 144.327 267.955 147.902L267.96 147.931Z" fill="black"/>
<path d="M307.083 150.095C308.304 150.536 309.633 151.542 309.393 152.818C309.256 153.287 309.043 153.729 308.76 154.128C307.328 156.684 308.539 160.353 311.212 161.54C311.631 161.759 312.109 161.834 312.575 161.756C312.945 161.641 313.281 161.44 313.556 161.167C314.993 159.882 315.984 158.173 316.385 156.286C316.807 154.324 316.547 152.244 316.763 150.227C316.979 148.211 317.67 146.224 317.911 144.193C318.081 143.189 317.974 142.158 317.602 141.21C317.278 140.585 316.861 140.013 316.366 139.513C314.988 137.977 313.551 136.408 312.86 134.46C311.766 131.359 312.56 127.41 310.167 125.139C309.059 124.099 307.51 123.711 306.136 123.054C304.844 122.367 303.606 121.582 302.434 120.704C297.996 117.652 292.602 115.307 287.325 116.387C285.217 116.897 283.198 117.724 281.338 118.84C277.882 120.746 274.6 122.952 271.53 125.433C270.203 126.415 269.043 127.607 268.097 128.96C267.393 130.12 266.886 131.388 266.597 132.713C265.892 135.606 265.795 138.613 266.312 141.544C266.803 144.419 267.916 147.21 267.96 150.129C267.96 151.11 267.882 152.17 268.387 153.014C269.196 154.358 271.202 154.486 272.575 153.74C273.948 152.994 274.845 151.611 275.733 150.306C276.62 149.001 277.64 147.696 279.102 147.142C280.95 146.44 283.059 147.142 284.667 148.295C286.276 149.447 287.556 150.983 289.081 152.219C290.606 153.455 292.514 154.456 294.475 154.152C295.726 153.961 296.834 153.259 297.908 152.577C299.379 151.645 300.958 150.203 302.566 149.585C304.175 148.967 305.553 150.095 307.083 150.095Z" fill="#794F6A"/>
<path d="M254.75 185.574C254.75 185.574 280.117 209.054 274.944 220.793C269.77 232.533 246.992 211.816 246.992 211.816L238.871 193.016L254.75 185.574Z" fill="#F8BDC5"/>
<g opacity="0.1">
<path d="M311.222 160.147C311.639 160.365 312.116 160.441 312.58 160.363C312.951 160.249 313.288 160.045 313.561 159.769C314.998 158.485 315.991 156.778 316.395 154.893C316.812 152.906 316.552 150.846 316.768 148.829C316.984 146.813 317.68 144.831 317.916 142.795C317.916 142.697 317.916 142.594 317.94 142.491C317.993 143.053 317.985 143.619 317.916 144.178C317.68 146.21 316.984 148.172 316.768 150.213C316.552 152.254 316.812 154.289 316.395 156.271C315.992 158.158 315 159.868 313.561 161.153C313.287 161.426 312.95 161.628 312.58 161.741C312.116 161.82 311.639 161.744 311.222 161.526C309.113 160.589 307.922 158.121 308.201 155.864C308.303 156.775 308.634 157.645 309.162 158.394C309.69 159.142 310.399 159.745 311.222 160.147Z" fill="black"/>
<path d="M266.347 140.156C266.837 143.031 267.95 145.822 267.99 148.741C267.99 149.722 267.911 150.782 268.421 151.626C269.225 152.97 271.231 153.097 272.604 152.352C273.977 151.606 274.874 150.227 275.767 148.918C276.659 147.608 277.67 146.308 279.136 145.753C280.98 145.057 283.088 145.753 284.697 146.911C286.305 148.069 287.59 149.595 289.11 150.836C290.631 152.077 292.568 153.073 294.505 152.774C295.755 152.577 296.863 151.876 297.937 151.194C299.408 150.262 300.987 148.824 302.596 148.201C304.204 147.578 305.538 148.692 307.073 148.692C308.294 149.138 309.623 150.139 309.388 151.42C309.358 151.558 309.313 151.693 309.255 151.822C308.775 150.984 307.995 150.36 307.073 150.075C305.543 150.075 304.19 148.976 302.596 149.585C301.002 150.193 299.394 151.645 297.937 152.577C296.873 153.259 295.765 153.961 294.505 154.152C292.543 154.456 290.621 153.47 289.11 152.219C287.6 150.968 286.3 149.423 284.697 148.294C283.093 147.166 280.98 146.44 279.136 147.142C277.665 147.696 276.655 149.016 275.767 150.306C274.879 151.596 273.977 152.965 272.604 153.74C271.231 154.515 269.225 154.358 268.421 153.014C267.931 152.17 268.004 151.115 267.99 150.129C267.95 147.21 266.852 144.419 266.347 141.544C266.088 140.067 265.983 138.568 266.033 137.07C266.064 138.105 266.169 139.136 266.347 140.156Z" fill="black"/>
</g>
<path opacity="0.1" d="M285.123 66.0918C285.123 66.0918 294.441 83.0121 281.691 91.6465C268.941 100.281 267.71 99.4174 267.71 99.4174C267.71 99.4174 267.887 101.488 267.71 102.008C267.533 102.528 264.277 103.73 264.277 103.73C264.277 103.73 260.31 110.107 254.617 112.884C248.923 115.661 247.884 122.205 247.884 122.205C247.884 122.205 247.884 124.452 244.941 126.522C241.999 128.593 239.734 134.637 239.734 134.637V140.165C239.734 141.029 238.699 143.6 240.94 143.874C243.181 144.149 241.288 149.315 241.288 149.315C241.288 149.315 243.701 152.258 243.186 153.632C242.671 155.006 244.221 157.773 244.221 157.773C244.221 157.773 246.118 160.535 245.947 161.055C245.775 161.575 248.016 163.473 247.501 164.68C246.986 165.887 250.086 167.442 249.571 168.826C249.056 170.209 251.777 170.896 251.777 170.896L259.236 188.164C259.236 188.164 243.544 191.599 239.493 200.248L219.711 163.988C219.711 163.988 208.668 136.883 208.32 135.157C207.971 133.43 210.737 127.214 210.737 127.214L224.198 102.685L244.392 74.1963C244.392 74.1963 260.442 40.022 285.123 66.0918Z" fill="black"/>
<path opacity="0.1" d="M265.199 73.2298C265.199 73.2298 289.444 81.7415 276.674 90.3758C263.905 99.0102 262.693 98.1418 262.693 98.1418C262.693 98.1418 262.865 100.217 262.693 100.732C262.522 101.247 259.261 102.459 259.261 102.459C259.261 102.459 255.289 108.837 249.595 111.613C243.902 114.39 242.862 120.934 242.862 120.934C242.862 120.934 242.862 123.181 239.92 125.252C236.978 127.322 234.742 133.366 234.742 133.366V138.89C234.742 139.753 233.707 142.324 235.953 142.604C238.199 142.883 236.296 148.044 236.296 148.044C236.296 148.044 238.714 150.988 238.194 152.357C237.674 153.725 239.229 156.502 239.229 156.502C239.229 156.502 241.126 159.264 240.955 159.784C240.783 160.304 243.029 162.203 242.509 163.409C241.989 164.616 245.098 166.171 244.579 167.555C244.059 168.938 246.79 169.625 246.79 169.625L254.244 186.889C254.244 186.889 241.318 187.556 237.238 196.21L214.724 162.737C214.724 162.737 203.676 135.632 203.333 133.906C202.989 132.179 205.74 125.943 205.74 125.943L219.201 101.414L249.909 83.6941C249.909 83.6941 240.518 47.1552 265.199 73.2298Z" fill="black"/>
<path d="M283.741 66.0918C283.741 66.0918 293.058 83.0121 280.308 91.6465C267.558 100.281 266.327 99.4174 266.327 99.4174C266.327 99.4174 266.499 101.488 266.327 102.008C266.156 102.528 262.894 103.73 262.894 103.73C262.894 103.73 258.922 110.107 253.229 112.884C247.536 115.661 246.496 122.205 246.496 122.205C246.496 122.205 246.496 124.452 243.554 126.522C240.611 128.593 238.351 134.637 238.351 134.637V140.165C238.351 141.029 237.316 143.6 239.562 143.874C241.808 144.149 239.905 149.315 239.905 149.315C239.905 149.315 242.323 152.258 241.803 153.632C241.283 155.006 242.838 157.773 242.838 157.773C242.838 157.773 244.736 160.535 244.564 161.055C244.392 161.575 246.638 163.473 246.118 164.68C245.599 165.887 248.708 167.442 248.188 168.826C247.668 170.209 250.399 170.896 250.399 170.896L257.853 188.164C257.853 188.164 242.19 191.599 238.115 200.248L218.333 163.988C218.333 163.988 207.285 136.883 206.942 135.157C206.598 133.43 209.359 127.214 209.359 127.214L222.82 102.685L243.009 74.2061C243.009 74.2061 259.065 40.022 283.741 66.0918Z" fill="#1570EF"/>
<g opacity="0.1">
<path d="M385.677 74.5888C385.858 72.4446 386.32 70.3334 387.05 68.3093C387.761 66.3469 388.732 64.414 388.962 62.329C388.962 62.2652 388.962 62.2064 388.962 62.1426C389.014 62.6646 389.014 63.1904 388.962 63.7125C388.732 65.7974 387.761 67.7156 387.05 69.6927C386.32 71.7151 385.858 73.8247 385.677 75.9673C385.608 76.7719 385.579 77.5862 385.569 78.4202C385.554 77.1202 385.569 75.8496 385.677 74.5888Z" fill="black"/>
<path d="M368.798 96.0863C369.852 98.4018 373.054 98.7698 375.506 98.0879C377.599 97.4877 379.52 96.3992 381.111 94.9119C382.702 93.4245 383.917 91.5807 384.657 89.532C385.338 87.4237 385.67 85.2179 385.637 83.0023C385.667 85.7055 385.564 88.3742 384.657 90.9106C383.917 92.96 382.702 94.8046 381.111 96.2928C379.521 97.781 377.599 98.8703 375.506 99.4713C373.054 100.148 369.852 99.7853 368.798 97.4648C368.351 96.4836 368.395 95.3455 368.415 94.2269C368.424 94.8653 368.554 95.4962 368.798 96.0863Z" fill="black"/>
<path d="M321.152 63.8351C321.363 65.405 321.986 67.1711 323.481 67.6961C324.353 67.9397 325.284 67.8523 326.095 67.4508C328.547 66.3813 330.729 63.8008 333.348 64.4238C335.486 64.9144 336.511 67.333 337.075 69.4622C337.484 70.8075 337.661 72.2126 337.599 73.6174C337.506 72.6783 337.33 71.7492 337.075 70.8407C336.511 68.7165 335.486 66.3126 333.348 65.8024C330.729 65.1842 328.566 67.7647 326.095 68.8293C325.285 69.2343 324.353 69.3235 323.481 69.0795C321.986 68.5546 321.363 66.7885 321.152 65.2137C321.017 64.2107 320.968 63.1981 321.005 62.1868C321.029 62.7362 321.078 63.2906 321.152 63.8351Z" fill="black"/>
<path d="M334.662 83.8216C336.134 84.8862 338.129 83.7529 339.743 82.9042C341.469 81.9966 343.666 81.4324 345.309 82.4774C345.873 82.8306 346.329 83.3408 346.878 83.7186C348.008 84.4179 349.349 84.6959 350.664 84.5035C353.787 84.1846 354.954 82.2076 357.333 80.6769C359.079 79.5535 362.727 79.0727 363.767 81.3785C364.016 82.0573 364.085 82.7892 363.968 83.5027C363.936 83.2476 363.868 82.9983 363.767 82.7619C362.722 80.4513 359.079 80.932 357.333 82.0604C354.954 83.591 353.787 85.5681 350.664 85.887C349.348 86.0753 348.008 85.7958 346.878 85.0971C346.329 84.7243 345.873 84.2141 345.309 83.8609C343.651 82.8306 341.469 83.3703 339.743 84.2877C338.129 85.1315 336.143 86.25 334.662 85.2002C333.799 84.582 333.593 83.4831 333.785 82.3989C333.885 82.9677 334.199 83.4766 334.662 83.8216Z" fill="black"/>
<path d="M364.095 86.2059C364.767 87.7463 366.831 88.1682 367.783 89.5566C368.494 90.5868 368.435 91.8721 368.41 93.1624C368.419 92.3766 368.201 91.6049 367.783 90.94C366.831 89.5517 364.767 89.1248 364.095 87.5844C363.86 86.9141 363.796 86.1958 363.909 85.4945C363.939 85.7389 364.001 85.9781 364.095 86.2059Z" fill="black"/>
</g>
</g>
<defs>
<linearGradient id="paint0_linear_1177_21609" x1="285.021" y1="385.272" x2="285.021" y2="35.5822" gradientUnits="userSpaceOnUse">
<stop stop-color="#808080" stop-opacity="0.25"/>
<stop offset="0.54" stop-color="#808080" stop-opacity="0.12"/>
<stop offset="1" stop-color="#808080" stop-opacity="0.1"/>
</linearGradient>
<clipPath id="clip0_1177_21609">
<rect width="538" height="388" fill="white" transform="matrix(-1 0 0 1 538 0)"/>
</clipPath>
</defs>
</svg>
